<svg width="704" height="672" viewBox="0 0 704 672" fill="none" xmlns="http://www.w3.org/2000/svg">
<path d="M95.8166 306.239C95.5491 303.397 94.9139 300.589 94.4459 297.764C92.5737 291.077 90.7516 284.391 87.2412 278.273C86.2904 276.597 85.1702 275.023 83.898 273.576C79.9196 269.146 75.1555 268.561 70.0738 271.603C66.3812 273.952 63.2623 277.1 60.9468 280.814C55.6645 288.787 52.0372 297.446 52.7058 307.158C52.8761 311.874 54.1635 316.482 56.4623 320.602C58.761 324.723 62.0053 328.239 65.9282 330.862C75.2558 337.18 86.2383 334.573 91.9886 324.877C95.2472 319.242 96.5903 312.702 95.8166 306.239Z" fill="#EBEBEB"/>
<path d="M145.28 313.426C150.746 303.397 150.963 292.966 145.28 282.936C140.085 273.574 131.668 266.417 121.593 262.793C119.779 262.138 117.883 261.738 115.96 261.606C113.668 261.25 111.324 261.741 109.368 262.987C107.411 264.233 105.975 266.149 105.328 268.376C103.7 273.318 103.214 278.565 103.907 283.722C104.242 287.617 104.827 291.495 105.295 295.423C106.565 302.544 108.822 309.214 113.653 314.78C116.612 318.393 120.591 321.031 125.07 322.353C128.951 323.438 133.089 323.141 136.775 321.513C140.462 319.884 143.468 317.026 145.28 313.426Z" fill="#EBEBEB"/>
<path d="M175.001 350.453C183.86 343.95 187.438 334.923 186.518 324.058C186.333 322.813 186.076 321.579 185.749 320.364C184.378 313.096 180.888 306.397 175.72 301.107C175.218 300.622 174.667 300.137 174.048 299.703C168.398 295.373 162.999 295.908 158.335 301.374C155.071 305.413 152.645 310.061 151.197 315.048C149.074 321.5 147.252 328.02 148.105 334.957C148.516 339.165 150.008 343.195 152.434 346.658C157.967 354.18 167.362 355.935 175.001 350.453Z" fill="#EBEBEB"/>
<path d="M64.5075 395.485C64.6078 396.522 64.7916 397.558 64.9922 398.912C67.4996 408.858 74.3365 414.659 84.3662 416.832C94.9642 419.122 104.877 416.732 114.071 411.416C119.922 407.909 126.77 406.439 133.545 407.237C143.959 408.357 153.805 406.551 162.514 400.467C169.819 395.368 174.215 388.465 173.781 379.254C173.607 375.825 172.736 372.468 171.222 369.387C169.707 366.306 167.58 363.566 164.971 361.334C162.057 358.746 158.855 356.502 155.426 354.648C147.939 350.647 141.161 345.44 135.367 339.236C132.62 336.232 129.289 333.821 125.577 332.15C121.865 330.48 117.85 329.587 113.78 329.524C109.71 329.461 105.671 330.231 101.909 331.786C98.1471 333.341 94.7429 335.649 91.9051 338.567C88.1686 342.312 85.512 346.995 84.2157 352.124C82.5554 358.894 79.1888 365.127 74.4368 370.227C68.3927 376.335 64.8204 384.462 64.4072 393.045C64.3837 393.86 64.4172 394.675 64.5075 395.485Z" fill="#EBEBEB"/>
<path d="M30.7577 352.441C33.449 364.343 39.7844 371.899 50.2988 375.56C60.8132 379.221 70.7426 373.454 72.4142 362.454C72.9878 358.625 72.6265 354.714 71.3611 351.054C68.4525 342.345 62.4848 335.809 55.8653 329.825C53.4763 327.712 50.8106 325.935 47.9418 324.542C42.0243 321.65 36.8758 323.439 33.6663 329.173C31.0642 334.183 29.8575 339.801 30.1726 345.437C30.2896 348.145 30.624 350.82 30.7577 352.441Z" fill="#EBEBEB"/>
<path d="M277.303 66.6971C277.119 62.3342 276.384 57.988 275.916 53.6418C273.609 43.2444 271.403 32.8303 266.538 23.2519C265.226 20.6176 263.646 18.125 261.824 15.8133C256.124 8.72567 248.903 7.35495 240.896 11.6343C235.058 14.9111 230.026 19.4516 226.169 24.9236C217.443 36.6248 211.124 49.5798 211.358 64.4738C211.592 79.3679 217.359 92.4733 229.579 101.784C243.269 112.215 260.27 109.139 269.881 94.8135C275.335 86.4924 277.939 76.6257 277.303 66.6971Z" fill="#EBEBEB"/>
<path d="M352.208 81.8249C361.419 66.8974 362.622 51.0506 354.899 35.2706C347.743 20.5394 335.492 8.89996 320.414 2.50703C317.701 1.3594 314.844 0.588865 311.922 0.216924C303.966 -0.903054 298.349 2.32315 295.089 9.67823C291.83 17.0333 291.412 25.0403 291.646 33.0808C291.813 39.0484 292.398 45.0161 292.782 50.9837C294.12 61.9662 296.995 72.3301 303.899 81.2398C308.087 86.997 313.912 91.3598 320.615 93.7602C326.447 95.7502 332.791 95.6474 338.556 93.4695C344.321 91.2915 349.148 87.1743 352.208 81.8249Z" fill="#EBEBEB"/>
<path d="M394.5 140.732C408.575 131.555 414.76 118.098 414.292 101.382C414.133 99.5339 413.86 97.6971 413.473 95.8828C411.634 84.5325 407.505 74.1519 399.665 65.5598C398.931 64.7506 398.15 63.9858 397.325 63.2697C389.05 56.182 380.776 56.5832 373.204 64.4231C367.888 70.3082 363.792 77.1885 361.151 84.6663C357.373 94.3449 354.03 104.141 354.749 114.755C355.046 121.183 356.985 127.427 360.382 132.892C368.155 145.145 382.414 148.605 394.5 140.732Z" fill="#EBEBEB"/>
<path d="M221.956 200.342C221.956 202.014 222.224 203.535 222.408 205.625C225.417 221.003 235.379 230.465 250.508 234.61C266.488 239.007 281.833 236.182 296.326 228.826C305.561 223.977 316.138 222.314 326.415 224.096C342.212 226.687 357.407 224.748 371.214 216.206C382.799 209.018 390.003 198.838 390.204 184.763C390.239 179.508 389.196 174.302 387.141 169.466C385.085 164.631 382.06 160.267 378.252 156.646C374.03 152.424 369.328 148.711 364.244 145.58C353.122 138.839 343.183 130.318 334.823 120.356C330.885 115.52 325.997 111.543 320.461 108.669C314.925 105.796 308.86 104.087 302.638 103.648C296.417 103.21 290.171 104.051 284.287 106.119C278.403 108.188 273.006 111.44 268.427 115.675C262.451 121.085 258.06 128.019 255.723 135.735C252.6 145.906 246.933 155.111 239.258 162.48C229.679 171.791 223.277 182.857 222.073 196.464C221.947 197.753 221.908 199.048 221.956 200.342Z" fill="#EBEBEB"/>
<path d="M174.048 131.772C177.157 150.16 186.201 162.246 201.947 168.732C218.045 175.418 233.34 167.227 236.834 150.578C238.023 144.771 237.8 138.762 236.182 133.06C232.454 119.519 223.895 109.038 214.284 99.3599C210.803 95.9223 206.866 92.9805 202.582 90.6173C193.79 85.7028 185.866 87.9929 180.4 96.5014C175.669 103.974 174.015 112.382 173.714 121.057C173.597 125.17 174.048 129.282 174.048 131.772Z" fill="#EBEBEB"/>
<path d="M619.95 243.286C621.354 240.795 622.44 238.121 623.661 235.53C625.951 228.96 628.291 222.407 628.876 215.47C629.077 213.559 629.077 211.631 628.876 209.72C628.141 203.819 624.597 200.576 618.663 200.208C614.29 200.032 609.933 200.832 605.908 202.549C597.032 206.109 589.092 211.141 584.094 219.499C581.554 223.474 579.989 227.993 579.527 232.687C579.066 237.381 579.719 242.118 581.436 246.512C585.481 257.01 595.996 261.139 606.259 256.458C612.134 253.673 616.94 249.049 619.95 243.286Z" fill="#EBEBEB"/>
<path d="M656.474 277.403C666.721 272.255 672.806 263.846 673.926 252.329C675.006 241.667 672.179 230.975 665.969 222.24C664.854 220.671 663.526 219.264 662.024 218.061C660.346 216.456 658.14 215.518 655.82 215.423C653.5 215.328 651.225 216.081 649.42 217.543C645.259 220.67 641.869 224.706 639.507 229.344C637.552 232.688 635.83 236.248 633.991 239.708C630.966 246.278 628.976 253.081 629.795 260.353C630.155 265 631.902 269.431 634.81 273.074C637.358 276.197 640.913 278.337 644.865 279.127C648.818 279.917 652.922 279.307 656.474 277.403Z" fill="#EBEBEB"/>
<path d="M659.801 324.693C670.783 324.426 678.874 319.043 684.307 309.649C684.847 308.561 685.327 307.445 685.744 306.305C688.758 299.525 689.7 292.005 688.452 284.691C688.321 283.985 688.148 283.288 687.934 282.602C685.761 275.915 681.03 273.191 674.127 274.979C669.157 276.427 664.522 278.841 660.486 282.084C655.07 286.179 649.855 290.442 646.595 296.66C644.552 300.335 643.492 304.475 643.52 308.679C643.62 318.107 650.457 324.944 659.801 324.693Z" fill="#EBEBEB"/>
<path d="M543.307 298.633C542.788 299.552 542.371 300.505 541.752 301.725C538.141 311.32 540.448 319.996 547.435 327.501C554.824 335.425 564.335 339.119 574.933 340.005C581.743 340.47 588.208 343.173 593.321 347.694C601.211 354.548 610.338 358.694 620.97 358.66C629.879 358.66 637.385 355.451 642.316 347.678C644.14 344.768 645.347 341.514 645.862 338.118C646.377 334.722 646.188 331.256 645.308 327.936C644.409 324.132 643.068 320.446 641.313 316.954C637.435 309.391 634.825 301.241 633.59 292.832C633.057 288.789 631.701 284.898 629.606 281.399C627.51 277.901 624.719 274.869 621.406 272.491C618.093 270.113 614.328 268.439 610.342 267.574C606.357 266.708 602.237 266.668 598.236 267.457C593.05 268.409 588.223 270.762 584.278 274.261C579.038 278.867 572.709 282.06 565.89 283.538C557.451 285.116 549.892 289.753 544.661 296.56C544.169 297.224 543.717 297.916 543.307 298.633Z" fill="#EBEBEB"/>
<path d="M540.13 244.088C535.55 255.405 536.436 265.218 542.972 274.177C549.508 283.137 560.975 284.107 568.615 276.033C571.29 273.202 573.23 269.758 574.265 266.003C576.839 257.177 575.669 248.418 573.646 239.725C572.893 236.626 571.717 233.645 570.152 230.866C566.943 225.116 561.711 223.645 555.793 226.52C550.79 229.148 546.59 233.082 543.641 237.903C542.17 240.244 540.966 242.668 540.13 244.088Z" fill="#EBEBEB"/>
<path d="M15.9973 670.9L101.901 670.482L187.805 670.349L359.597 670.064L531.388 670.332L617.292 670.482L703.196 670.9L617.292 671.301L531.388 671.452L359.597 671.736L187.805 671.452L101.901 671.301L15.9973 670.9Z" fill="#263238"/>
<path d="M301.408 160.825C312.24 168.197 327.719 167.511 327.719 167.511C327.719 167.511 336.345 154.64 335.642 141.568C335.057 130.669 327.184 122.963 319.394 124.718C308.211 127.209 315.149 145.212 315.149 145.212C315.149 145.212 303.314 129.967 295.39 138.258C289.857 143.975 292.381 154.69 301.408 160.825Z" fill="#B6B0EB"/>
<path d="M333.436 91.8716C336.445 99.9956 345.137 105.529 345.137 105.529C345.137 105.529 354.716 101.918 359.363 94.5963C363.224 88.4949 361.937 81.3237 357.073 79.2676C350.085 76.3256 346.909 88.6955 346.909 88.6955C346.909 88.6955 346.391 75.9411 338.936 77.3453C333.67 78.3482 330.929 85.0848 333.436 91.8716Z" fill="#B6B0EB"/>
<path d="M627.238 284.223C628.993 292.715 636.699 299.485 636.699 299.485C636.699 299.485 646.729 297.345 652.396 290.809C657.143 285.36 656.943 278.072 652.396 275.314C645.927 271.352 640.928 283.103 640.928 283.103C640.928 283.103 642.333 270.416 634.744 270.7C629.511 270.901 625.784 277.152 627.238 284.223Z" fill="#B6B0EB"/>
<path d="M71.9461 299.552C84.667 312.006 105.512 314.714 105.512 314.714C105.512 314.714 120.155 299.586 122.345 281.934C124.167 267.207 115.492 255.021 104.643 255.472C89.0968 256.141 94.0448 281.884 94.0448 281.884C94.0448 281.884 81.8754 258.665 69.2882 267.825C60.5457 274.228 61.3481 289.172 71.9461 299.552Z" fill="#B6B0EB"/>
<path d="M98.157 621.354C89.9995 626.369 80.9561 631.969 71.0435 630.431C61.8831 628.993 52.0373 624.731 48.109 615.721C46.989 613.146 46.7216 611.324 49.8976 610.906C54.762 610.271 60.2783 612.946 64.7582 614.5C70.4997 616.553 76.4207 618.064 82.4438 619.014C86.673 619.632 90.9691 619.799 95.2317 620.317C95.7666 620.317 96.3015 620.451 96.9033 620.535L97.5051 620.618L97.7558 620.485C97.8236 620.452 97.8979 620.435 97.9731 620.435C98.0483 620.435 98.1226 620.452 98.1904 620.485L98.3409 620.602C98.3884 620.66 98.4218 620.728 98.4383 620.801C98.4549 620.875 98.4543 620.951 98.4365 621.024C98.4186 621.097 98.3841 621.164 98.3356 621.222C98.2871 621.279 98.226 621.324 98.157 621.354Z" fill="#455A64"/>
<path d="M98.2739 620.585C90.8687 624.547 83.2295 629.294 74.5037 627.589C70.4866 626.712 66.6334 625.206 63.0866 623.126C61.415 622.223 56.6342 619.532 56.7679 617.309C57.0186 613.28 72.4977 620.468 74.3532 620.953C81.2505 622.55 88.4442 622.331 95.2316 620.317C95.7665 620.317 96.3015 620.451 96.9032 620.535C92.1195 622.037 87.1225 622.749 82.1095 622.641C75.1723 622.44 69.7229 619.482 63.2537 617.459C61.8496 617.024 57.47 615.386 57.5535 617.894C57.5535 619.565 62.3009 622.19 63.3206 622.758C66.6872 624.722 70.3345 626.16 74.1359 627.021C82.8283 628.876 90.6013 624.296 98.1569 620.468L98.2739 620.585Z" fill="white"/>
<path d="M105.596 623.878L105.947 624.965C105.967 625.003 105.978 625.047 105.978 625.09C105.978 625.134 105.967 625.177 105.947 625.216C105.882 625.291 105.792 625.34 105.694 625.356C105.597 625.371 105.496 625.351 105.412 625.299C105.349 625.25 105.307 625.178 105.295 625.099C105.295 625.099 105.295 624.998 105.295 624.931V624.597C100.731 619.9 96.9366 614.484 92.323 609.837C87.7093 605.19 83.1626 601.261 79.0838 596.464C76.5263 593.455 64.6578 577.759 73.3502 575.686C77.1949 574.783 82.1596 578.31 85.0515 580.483C88.7558 583.467 91.9025 587.084 94.3456 591.165C100.681 601.195 102.169 612.762 105.596 623.878Z" fill="#455A64"/>
<path d="M105.947 624.964C105.846 624.664 105.763 624.379 105.662 624.095C105.672 624.029 105.672 623.961 105.662 623.895C105.428 623.46 105.178 623.042 104.927 622.641C102.456 615.383 99.5591 608.278 96.2513 601.361C94.232 597.392 91.6537 593.733 88.5953 590.496C87.5422 589.376 82.4104 584.027 80.3878 585.364C79.0672 586.217 80.3877 589.058 80.7221 590.011C82.3937 594.073 85.7369 597.249 88.5285 600.509C94.143 607.191 99.2607 614.275 103.84 621.705L104.442 623.259L104.944 624.513L105.128 624.948C105.171 625.068 105.221 625.185 105.278 625.299C105.359 625.353 105.457 625.375 105.554 625.359C105.65 625.344 105.737 625.292 105.796 625.215L105.412 624.212L105.863 624.964H105.947ZM94.5128 607.346C92.0222 604.002 89.381 600.91 86.673 597.818C85.0825 596.105 83.6345 594.266 82.3435 592.318C81.4241 590.813 78.432 584.946 83.3799 586.852C86.9572 588.239 90.5344 593.438 92.5571 596.464C94.7798 599.842 96.6878 603.418 98.2573 607.145C100.079 611.341 101.6 615.67 103.272 619.95C100.542 615.603 97.622 611.402 94.5128 607.346Z" fill="white"/>
<path d="M122.863 644.255L122.579 644.455C114.739 648.333 104.977 654.719 95.8333 653.215C89.1469 652.111 80.3709 647.314 78.365 640.243C76.1083 632.253 90.3337 635.395 93.9946 636.03C103.738 638.069 113.359 640.653 122.813 643.77H122.997C123.131 643.954 123.014 644.121 122.863 644.255Z" fill="#455A64"/>
<path d="M122.997 643.887L121.225 643.803C114.455 643.452 107.685 642.8 100.982 641.814C99.3104 641.563 86.439 638.722 86.6731 642.165C86.8068 644.255 91.5207 646.043 93.0586 646.679C95.8231 647.799 98.7554 648.448 101.734 648.601C108.588 648.935 115.107 646.177 121.794 644.489L122.73 644.255H122.93C123.014 644.121 123.131 643.971 122.997 643.887ZM105.512 647.999C102.47 648.254 99.4074 647.994 96.452 647.23C94.4962 646.729 87.442 644.689 87.5925 642.215C87.5925 640.878 88.4951 641.112 90.0497 641.028C90.7567 640.987 91.4656 640.987 92.1727 641.028C93.8443 641.162 95.6496 641.48 97.3714 641.764C100.403 642.277 103.434 642.711 106.465 643.068C111.48 643.686 116.495 644.071 121.509 644.305C116.093 645.358 110.945 647.498 105.512 647.999Z" fill="white"/>
<path d="M128.029 620.769C130.905 630.609 130.788 641.083 127.694 650.858C127.681 650.918 127.645 650.972 127.594 651.008C127.535 651.07 127.458 651.112 127.374 651.127C127.289 651.142 127.203 651.129 127.126 651.092C127.038 651.055 126.969 650.985 126.931 650.898C126.894 650.811 126.892 650.712 126.925 650.624C126.925 650.423 127.026 650.222 127.092 650.022C122.562 638.956 118.216 627.873 113.469 616.891C112.349 614.3 105.562 597.634 111.797 597.5C115.625 597.416 119.386 603.702 121.242 606.426C124.227 610.83 126.516 615.668 128.029 620.769Z" fill="#455A64"/>
<path d="M128.129 642.399C128.125 638.473 127.756 634.556 127.026 630.698C126.259 626.755 125.088 622.901 123.532 619.197C122.094 615.854 120.189 611.023 117.498 608.432C116.762 607.713 115.826 607.078 115.174 608.215C113.97 610.421 117.314 618.161 118.149 620.368C121.493 629.444 124.034 638.588 126.508 647.882L127.159 650.256C127.159 650.54 127.159 650.841 127.042 651.125C127.11 651.177 127.192 651.205 127.276 651.205C127.361 651.205 127.443 651.177 127.511 651.125C127.518 651.042 127.518 650.958 127.511 650.874C127.511 650.49 127.628 650.089 127.661 649.688C127.97 647.27 128.126 644.836 128.129 642.399ZM127.243 649.671C127.243 649.336 127.126 649.019 127.042 648.701C125.53 641.37 123.542 634.144 121.092 627.071C119.821 623.477 118.333 620 117.18 616.372C116.712 614.851 115.191 610.555 115.976 609.285C116.762 608.014 117.648 609.552 118.2 610.371C118.751 611.19 119.269 612.043 119.604 612.695C125.946 623.715 128.643 636.458 127.31 649.102C127.343 649.27 127.243 649.454 127.243 649.671Z" fill="white"/>
<path d="M140.95 671.736H138.944C138.493 670.951 138.025 670.182 137.574 669.413C134.381 664.097 131.138 658.815 127.778 653.582C125.872 650.59 123.95 647.648 121.927 644.79C121.927 644.69 121.794 644.606 121.727 644.489L121.225 643.804C121.058 643.553 120.857 643.302 120.674 643.051C116.149 636.567 110.632 630.836 104.325 626.068C102.186 624.513 99.9958 623.042 97.7391 621.621L97.1541 621.254L96.9869 621.153L96.335 620.769L95.8502 620.468C88.8629 616.239 81.5078 612.561 74.3533 608.767C72.2973 607.68 70.2412 606.577 68.2185 605.423L67.8508 605.223L67.3827 604.989C58.3393 600.074 49.3461 595.076 40.2024 590.412C39.8513 590.245 40.2024 589.744 40.5032 589.928C46.6381 592.97 52.8397 595.879 59.0247 598.837L61.4987 600.024L66.3798 602.364C69.723 603.902 72.8322 605.49 76.0417 607.145C85.2523 611.547 94.1843 616.51 102.787 622.006L104.643 623.326C105.044 623.594 105.429 623.878 105.796 624.162C106.164 624.446 106.682 624.797 107.117 625.132C114.45 631.028 120.696 638.162 125.571 646.211C125.906 646.762 126.274 647.297 126.625 647.882L127.126 648.668L127.393 649.069C127.494 649.253 127.611 649.42 127.728 649.621L127.979 650.039C128.279 650.507 128.564 650.991 128.865 651.476C132.107 656.781 135.289 662.102 138.409 667.44L140.95 671.736Z" fill="#455A64"/>
<path d="M41.1718 599.84C33.8668 596.497 22.0486 587.955 24.8402 578.51C25.3066 576.721 26.4184 575.168 27.9615 574.15C29.5046 573.131 31.3698 572.72 33.1982 572.994C37.7617 573.529 41.69 577.156 44.7992 580.249C53.1572 588.49 60.5624 597.45 69.4554 605.106C69.4554 605.106 70.2076 605.774 70.4082 605.925C70.6088 606.075 70.4082 606.359 70.1408 606.209L69.2715 605.457C59.9272 604.337 49.8307 603.735 41.1718 599.84Z" fill="#455A64"/>
<path d="M69.5224 605.105L69.3218 605.005C66.5737 603.49 63.9169 601.816 61.3649 599.99C56.0956 596.054 51.0715 591.8 46.3205 587.252C44.4817 585.581 35.7224 576.888 34.335 583.04C33.7499 585.648 35.6723 588.59 37.1099 590.562C39.4216 593.737 42.3425 596.419 45.702 598.452C52.3884 602.564 60.0109 604.203 67.6502 605.139L68.6866 605.272L68.9708 605.44L69.1714 605.54C69.1917 605.552 69.2147 605.558 69.2382 605.558C69.2617 605.558 69.2847 605.552 69.3051 605.54C69.3403 605.536 69.3744 605.525 69.4053 605.507C69.4362 605.49 69.4633 605.466 69.4851 605.438C69.5069 605.41 69.5229 605.378 69.5321 605.344C69.5414 605.31 69.5438 605.274 69.5391 605.239C69.5479 605.194 69.542 605.147 69.5224 605.105ZM67.249 604.888C60.8921 604.075 54.6936 602.312 48.8613 599.656C45.8687 598.177 43.1091 596.268 40.6704 593.989C39.603 592.959 38.6245 591.84 37.7451 590.646C37.0807 589.762 36.504 588.816 36.0233 587.821C34.9034 585.664 34.4855 582.806 35.6222 581.937C37.0096 580.8 38.0293 581.419 40.0519 582.622C40.7335 583.029 41.3869 583.481 42.0077 583.976C43.5608 585.203 45.0505 586.509 46.4709 587.888C48.8613 590.128 51.2517 592.351 53.7257 594.49C55.3973 595.945 57.0689 597.366 58.891 598.703C61.9226 601.032 65.1119 603.149 68.4358 605.038L67.249 604.888Z" fill="white"/>
<path d="M638.354 597.433C634.225 602.331 629.762 606.961 625.265 611.525C622.708 614.132 620.134 616.69 617.576 619.298C614.768 622.156 611.608 624.881 610.338 628.792C610.268 628.961 610.184 629.123 610.087 629.277H610.004C609.922 629.3 609.835 629.301 609.753 629.281C609.671 629.26 609.595 629.218 609.534 629.158C609.473 629.099 609.429 629.025 609.406 628.943C609.382 628.861 609.381 628.775 609.402 628.692C609.422 628.606 609.45 628.522 609.485 628.441C609.485 628.441 609.485 628.441 609.485 628.341C609.565 627.144 609.784 625.96 610.137 624.814C612.004 615.071 615.55 605.727 620.618 597.199C623.72 592.113 627.487 587.464 631.818 583.375C635.295 580.115 640.41 575.201 645.191 574.114C649.554 573.128 648.952 578.845 648.284 581.519C646.796 587.621 642.266 592.836 638.354 597.433Z" fill="#455A64"/>
<path d="M640.945 582.99C638.989 581.719 633.49 587.085 631.032 589.359C627.159 592.932 623.74 596.969 620.852 601.378C615.71 609.322 611.956 618.084 609.753 627.287C609.653 627.655 609.552 628.023 609.469 628.391C609.469 628.391 609.469 628.474 609.469 628.508C609.465 628.591 609.465 628.675 609.469 628.759C609.444 628.842 609.443 628.932 609.467 629.016C609.49 629.1 609.537 629.176 609.601 629.235C609.665 629.294 609.745 629.334 609.831 629.351C609.917 629.367 610.006 629.359 610.087 629.327C610.348 628.66 610.644 628.007 610.973 627.371C610.994 627.301 611.022 627.234 611.057 627.171C611.14 627.02 611.207 626.853 611.307 626.702C611.525 626.218 611.776 625.75 612.026 625.298C615.654 618.612 620.819 612.611 625.75 606.794C631.467 599.973 643.519 584.678 640.945 582.99ZM638.287 589.375C637.719 590.362 637.1 591.314 636.465 592.267C635.178 594.206 633.757 596.079 632.336 597.917C629.21 601.912 625.867 605.74 622.608 609.619C618.033 614.713 614.067 620.323 610.789 626.335C610.321 627.271 609.903 628.207 609.519 629.16C609.719 628.408 609.92 627.655 610.137 626.92C612.318 618.88 615.573 611.171 619.816 604.002C622.243 599.979 625.09 596.225 628.308 592.802C630.038 590.98 631.875 589.26 633.807 587.654C634.626 586.985 639.474 582.639 640.494 583.692C641.229 584.478 638.337 589.275 638.287 589.375Z" fill="white"/>
<path d="M659.45 632.119C651.343 636.766 641.848 638.203 632.704 638.805C627.79 639.089 622.842 639.14 617.911 639.307C613.495 639.205 609.081 639.558 604.738 640.36L604.17 640.494C602.972 640.814 601.812 641.262 600.71 641.831C600.673 641.847 600.633 641.856 600.593 641.856C600.552 641.856 600.512 641.847 600.476 641.831L600.158 642.065C600.158 642.065 599.974 642.065 600.041 641.948L600.308 641.614C600.299 641.556 600.309 641.498 600.336 641.446C600.363 641.395 600.406 641.354 600.459 641.329H600.593C600.693 641.229 600.776 641.112 600.86 641.012C607.179 633.523 618.245 628.993 627.155 625.834C636.064 622.674 645.542 621.019 654.92 622.975C657.26 623.477 662.81 624.262 663.729 627.02C664.649 629.779 661.172 631.133 659.45 632.119Z" fill="#455A64"/>
<path d="M653.9 628.558C653.298 625.767 645.542 626.703 643.687 626.887C637.972 627.505 632.323 628.624 626.803 630.23C617.749 632.368 609.09 635.922 601.144 640.761L600.827 640.861L600.542 641.179H600.409C600.355 641.207 600.311 641.251 600.284 641.305C600.257 641.359 600.248 641.42 600.258 641.48L600.693 641.346C601.813 640.978 602.95 640.661 604.036 640.377L604.604 640.226C612.638 638.509 620.773 637.303 628.96 636.615C634.658 636.031 640.288 634.912 645.776 633.272C647.23 632.955 654.402 630.915 653.9 628.558ZM649.905 631.283C641.146 635.546 630.514 635.897 620.986 636.966C614.553 637.534 608.189 638.715 601.98 640.494C609.338 636.399 617.208 633.302 625.383 631.283C629.993 629.953 634.675 628.887 639.407 628.09C641.969 627.632 644.562 627.375 647.164 627.321C648.722 627.267 650.282 627.396 651.811 627.706C654.602 628.508 651.41 630.547 649.905 631.283Z" fill="white"/>
<path d="M588.707 657.644C588.632 657.681 588.549 657.701 588.465 657.701C588.381 657.701 588.298 657.681 588.223 657.644V657.828C588.229 657.848 588.23 657.868 588.226 657.888C588.222 657.908 588.212 657.927 588.199 657.942C588.185 657.957 588.168 657.968 588.149 657.975C588.13 657.981 588.109 657.983 588.089 657.979C588.072 657.987 588.052 657.991 588.033 657.99C588.014 657.989 587.995 657.983 587.979 657.974C587.962 657.964 587.948 657.95 587.938 657.933C587.928 657.917 587.923 657.898 587.922 657.879C585.682 646.846 584.579 634.476 587.119 623.477C588.145 618.802 589.923 614.325 592.385 610.221C594.057 607.429 597.534 601.863 601.194 601.328C608.516 600.392 601.746 620.234 600.71 623.226C598.837 628.676 596.514 633.941 594.525 639.357C592.368 645.275 590.63 651.343 588.908 657.41C588.873 657.511 588.802 657.595 588.707 657.644Z" fill="#455A64"/>
<path d="M598.47 608.649C597.049 609.084 593.237 616.406 592.402 618.395C590.571 622.96 589.302 627.732 588.624 632.604C587.395 640.759 587.193 649.037 588.022 657.243C588.022 657.494 588.022 657.728 588.022 657.962C588.042 657.96 588.061 657.954 588.079 657.944C588.096 657.935 588.111 657.922 588.124 657.906C588.136 657.891 588.146 657.873 588.151 657.854C588.156 657.834 588.158 657.814 588.156 657.795C588.148 657.739 588.148 657.683 588.156 657.628H588.29C588.348 657.652 588.41 657.665 588.473 657.665C588.537 657.665 588.599 657.652 588.657 657.628C588.657 657.026 588.657 656.441 588.758 655.839C589.404 646.093 591.558 636.507 595.143 627.422C597.062 622.898 598.606 618.224 599.757 613.447C600.041 612.243 601.228 607.88 598.47 608.649ZM599.473 612.695C599.252 614.282 598.877 615.844 598.353 617.358C597.634 619.498 596.865 621.621 596.046 623.744C594.374 627.973 592.703 632.202 591.482 636.549C589.599 642.774 588.548 649.221 588.356 655.722C587.93 649.4 588.031 643.054 588.657 636.749C589.094 631.887 590.046 627.084 591.499 622.423C592.095 620.579 592.798 618.77 593.605 617.007C594.227 615.62 594.948 614.28 595.762 612.996C597.818 609.886 598.587 609.251 599.105 609.468C599.623 609.686 599.773 610.237 599.473 612.695Z" fill="white"/>
<path d="M620.552 655.07C617.639 657.848 614.161 659.964 610.355 661.272C602.899 664.13 594.959 665.384 587.353 667.707C586.217 668.058 585.08 668.443 584.01 668.844C583.876 668.844 582.656 669.697 582.723 669.613L583.709 668.577C586.735 665.434 596.029 656.056 602.448 652.345C606.405 649.926 610.644 648.001 615.069 646.612C617.192 646.027 621.972 644.94 623.694 646.963C625.416 648.985 622.039 653.566 620.552 655.07Z" fill="#455A64"/>
<path d="M618.479 650.607C617.108 647.698 604.32 654.418 602.632 655.271C596.405 658.4 590.616 662.334 585.414 666.972C584.813 667.473 584.244 668.008 583.743 668.543L582.89 669.446L582.773 669.563C582.908 669.509 583.037 669.442 583.158 669.362L583.425 669.195L583.793 668.961L584.044 668.811L584.612 668.61L585.732 668.226L587.404 667.691C592.418 665.518 597.584 663.428 602.615 661.138C606.253 659.523 609.758 657.622 613.096 655.454C613.798 654.986 619.081 651.877 618.479 650.607ZM615.888 653.164C606.644 660.235 595.277 663.194 584.879 668.008L584.361 668.242L585.047 667.674C589.43 663.924 594.159 660.599 599.172 657.745C602.231 656.02 605.39 654.479 608.633 653.131C610.382 652.318 612.18 651.615 614.016 651.025C614.835 650.824 617.075 650.323 617.359 650.858C617.643 651.392 616.49 652.696 615.888 653.164Z" fill="white"/>
<path d="M692.932 594.14C675.915 605.39 653.282 601.044 635.696 611.107H635.613C635.078 611.408 634.521 611.725 633.941 612.06C633.89 612.094 633.83 612.115 633.768 612.12C633.707 612.126 633.645 612.116 633.588 612.091C633.531 612.065 633.482 612.027 633.444 611.977C633.407 611.928 633.382 611.87 633.373 611.809C633.368 611.752 633.38 611.695 633.407 611.645C633.433 611.595 633.474 611.553 633.523 611.525L633.908 611.291C641.229 602.665 651.409 595.477 661.305 590.078C669.931 585.414 679.693 582.138 689.589 583.157C692.029 583.408 696.911 583.742 697.947 586.634C698.983 589.526 695.022 592.836 692.932 594.14Z" fill="#455A64"/>
<path d="M686.346 590.83C685.895 589.627 684.073 589.56 683.003 589.46C680.514 589.214 678.006 589.27 675.531 589.627C670.456 590.375 665.521 591.873 660.887 594.073C652.851 597.59 645.278 602.082 638.337 607.446C636.799 608.683 635.312 609.97 633.891 611.341L633.356 611.842C633.367 611.903 633.392 611.96 633.429 612.009C633.467 612.058 633.515 612.097 633.571 612.123C633.627 612.15 633.688 612.162 633.749 612.16C633.811 612.157 633.871 612.14 633.924 612.11C634.426 611.792 634.894 611.508 635.395 611.224L635.546 611.14C638.907 608.874 642.478 606.938 646.211 605.357C652.116 603.149 658.158 601.324 664.297 599.89C666.838 599.238 687.917 594.976 686.346 590.83ZM682.902 593.756C678.439 596.096 673.274 596.999 668.426 598.302C663.579 599.606 658.647 600.893 653.783 602.298C649.913 603.395 646.144 604.821 642.516 606.56C639.486 608.006 636.594 609.724 633.874 611.692C636.326 609.482 638.923 607.438 641.647 605.574C641.68 605.562 641.715 605.562 641.747 605.574C646.615 602.294 651.685 599.324 656.926 596.681L657.126 596.581C661.681 594.133 666.513 592.242 671.519 590.947C674.255 590.272 677.059 589.913 679.877 589.877C683.053 589.877 685.627 590.212 685.728 591.298C685.761 591.984 684.223 593.07 682.902 593.756Z" fill="white"/>
<path d="M657.143 597.032C652.228 600.124 647.347 603.334 642.5 606.56L635.679 611.123L635.529 611.207L633.139 612.879C625.717 617.893 617.894 622.758 611.408 628.876C607.996 632.125 604.901 635.69 602.164 639.524L601.294 640.711L600.843 641.363C600.743 641.48 600.676 641.614 600.592 641.731C598.235 645.074 596.046 648.567 593.906 651.961C590.947 656.692 588.339 661.573 585.782 666.504C585.693 666.64 585.62 666.786 585.565 666.938C585.431 667.156 585.314 667.373 585.197 667.607C585.134 667.715 585.079 667.827 585.03 667.941L584.679 668.577L583.007 671.669H580.984C582.973 666.781 585.302 662.039 587.955 657.477C588.001 657.377 588.057 657.282 588.122 657.193C588.373 656.725 588.657 656.24 588.925 655.789C589.192 655.338 589.576 654.652 589.927 654.117C590.763 652.763 591.599 651.409 592.401 650.089C597.232 642.366 602.431 634.442 609.118 628.04L609.669 627.522C609.739 627.441 609.817 627.368 609.903 627.305L610.288 626.92L610.94 626.335L612.11 625.315L612.461 625.015C618.886 619.931 625.649 615.29 632.704 611.123C633.958 610.338 635.195 609.552 636.465 608.783L638.555 607.513L641.781 605.607C641.813 605.596 641.849 605.596 641.881 605.607C646.896 602.615 652.028 599.74 657.059 596.714C657.143 596.497 657.394 596.898 657.143 597.032Z" fill="#455A64"/>
<path d="M539.646 528.495C539.646 528.495 570.671 618.411 585.949 654.919C588.668 660.84 592.577 666.138 597.433 670.482C600.024 673.073 701.157 670.849 703.012 670.482C704.868 670.114 692.247 645.842 685.226 642.515C678.205 639.189 624.848 648.985 624.848 648.985C624.848 648.985 622.875 543.422 623.494 540.213C623.908 536.327 624.07 532.419 623.978 528.512L625.215 544.676C625.215 544.676 628.793 532.574 628.926 527.007C629.06 521.441 625.583 466.512 625.583 466.512L539.646 528.495Z" fill="#B6B0EB"/>
<path opacity="0.4" d="M539.646 528.495C539.646 528.495 570.671 618.411 585.949 654.919C588.668 660.84 592.577 666.138 597.433 670.482C600.024 673.073 701.157 670.849 703.012 670.482C704.868 670.114 692.247 645.842 685.226 642.515C678.205 639.189 624.848 648.985 624.848 648.985C624.848 648.985 622.875 543.422 623.494 540.213C623.908 536.327 624.07 532.419 623.978 528.512L625.215 544.676C625.215 544.676 628.793 532.574 628.926 527.007C629.06 521.441 625.583 466.512 625.583 466.512L539.646 528.495Z" fill="black"/>
<path d="M679.409 654.367C684.658 657.71 690.375 664.397 688.185 671.083C687.834 664.397 683.053 659.7 679.409 654.367Z" fill="#263238"/>
<path d="M689.773 653.749C695.039 657.092 700.755 663.779 698.566 670.465C698.198 663.779 693.434 659.081 689.773 653.749Z" fill="#263238"/>
<path opacity="0.1" d="M626.87 487.524C617.075 506.664 602.582 527.108 597.617 531.354C583.087 542.926 567.728 553.418 551.665 562.747C544.661 542.988 539.646 528.462 539.646 528.462L625.583 466.462C625.583 466.462 626.185 476.007 626.87 487.524Z" fill="black"/>
<path d="M224.681 595.042L218.697 618.996C168.883 580.549 121.526 518.549 103.757 459.558C99.9289 446.787 91.1696 419.105 91.0025 407.738C90.8186 395.753 97.1206 378.502 97.6889 377.114C97.5218 378.385 95.5325 394.131 97.6889 407.537C97.7892 405.381 97.9564 403.275 98.1904 401.152C105.763 332.114 202.75 272.655 202.75 272.655C202.75 272.655 155.627 344.534 161.127 439.816C163.066 473.482 175.118 506.915 188.19 534.095C182.155 520.889 176.489 499.476 176.221 498.155C177.224 500.546 204.204 564.017 214.317 580.165L215.337 581.736C215.604 582.12 215.822 582.455 216.022 582.772C221.271 590.595 224.681 595.042 224.681 595.042Z" fill="#B6B0EB"/>
<path opacity="0.4" d="M224.681 595.042L218.697 618.996C168.883 580.549 121.526 518.549 103.757 459.558C99.9289 446.787 91.1696 419.105 91.0025 407.738C90.8186 395.753 97.1206 378.502 97.6889 377.114C97.5218 378.385 95.5325 394.131 97.6889 407.537C97.7892 405.381 97.9564 403.275 98.1904 401.152C105.763 332.114 202.75 272.655 202.75 272.655C202.75 272.655 155.627 344.534 161.127 439.816C163.066 473.482 175.118 506.915 188.19 534.095C182.155 520.889 176.489 499.476 176.221 498.155C177.224 500.546 204.204 564.017 214.317 580.165L215.337 581.736C215.604 582.12 215.822 582.455 216.022 582.772C221.271 590.595 224.681 595.042 224.681 595.042Z" fill="black"/>
<path opacity="0.1" d="M224.681 595.042L218.697 618.996C212.361 614.115 206.076 608.866 199.908 603.266L209.152 570.921C211.108 574.732 212.83 577.891 214.25 580.148L215.27 581.719C215.538 582.104 215.755 582.438 215.955 582.756C221.271 590.596 224.681 595.042 224.681 595.042Z" fill="black"/>
<path d="M209.603 629.31C210.238 637.818 208.5 670.063 240.712 670.063H399.999C420.744 670.063 566.458 550.376 591.014 522.627C615.57 494.879 636.699 461.513 639.658 434.834C642.617 408.156 614.35 287.047 583.592 230.363C583.592 230.363 583.342 203.701 576.304 182.221C569.267 160.741 549.659 129.983 527.426 122.946C505.194 115.908 401.487 133.694 391.106 154.054C380.726 174.414 381.478 210.371 381.478 210.371C381.478 210.371 292.214 248.517 292.582 254.819C292.95 261.121 328.137 298.899 357.775 301.858C387.412 304.817 444.448 282.233 444.448 282.233C444.448 282.233 447.039 292.965 444.08 302.593C441.121 312.222 365.915 415.611 352.141 425.774C338.367 435.938 262.643 463.737 245.927 492.254C229.211 520.772 206.277 584.477 209.603 629.31Z" fill="#B6B0EB"/>
<path d="M209.603 629.31C210.238 637.818 208.5 670.063 240.712 670.063H399.999C420.744 670.063 566.458 550.376 591.014 522.627C615.57 494.879 636.699 461.513 639.658 434.834C642.617 408.156 614.35 287.047 583.592 230.363C583.592 230.363 583.342 203.701 576.304 182.221C569.267 160.741 549.659 129.983 527.426 122.946C505.194 115.908 401.487 133.694 391.106 154.054C380.726 174.414 381.478 210.371 381.478 210.371C381.478 210.371 292.214 248.517 292.582 254.819C292.95 261.121 328.137 298.899 357.775 301.858C387.412 304.817 444.448 282.233 444.448 282.233C444.448 282.233 447.039 292.965 444.08 302.593C441.121 312.222 365.915 415.611 352.141 425.774C338.367 435.938 262.643 463.737 245.927 492.254C229.211 520.772 206.277 584.477 209.603 629.31Z" fill="#B6B0EB"/>
<path opacity="0.3" d="M209.603 629.31C210.238 637.818 208.5 670.063 240.712 670.063H399.999C420.744 670.063 566.458 550.376 591.014 522.627C615.57 494.879 636.699 461.513 639.658 434.834C642.617 408.156 614.35 287.047 583.592 230.363C583.592 230.363 583.342 203.701 576.304 182.221C569.267 160.741 549.659 129.983 527.426 122.946C505.194 115.908 401.487 133.694 391.106 154.054C380.726 174.414 381.478 210.371 381.478 210.371C381.478 210.371 292.214 248.517 292.582 254.819C292.95 261.121 328.137 298.899 357.775 301.858C387.412 304.817 444.448 282.233 444.448 282.233C444.448 282.233 447.039 292.965 444.08 302.593C441.121 312.222 365.915 415.611 352.141 425.774C338.367 435.938 262.643 463.737 245.927 492.254C229.211 520.772 206.277 584.477 209.603 629.31Z" fill="black"/>
<path opacity="0.1" d="M260.738 488.912C248.869 504.491 234.861 594.14 250.006 625.984C262.894 653.081 336.077 667.874 380.007 670.081H240.728C208.483 670.081 210.222 637.836 209.603 629.327C206.26 584.511 229.228 520.789 245.91 492.255C262.593 463.721 338.501 435.955 352.225 425.775C365.949 415.595 441.121 312.223 444.163 302.594C447.206 292.966 444.548 282.234 444.548 282.234C444.548 282.234 467.215 271.502 475.573 266.872C475.573 266.872 481.524 288.603 481.541 300.856C481.557 313.109 379.572 424.555 362.054 432.679C344.535 440.803 272.673 473.366 260.738 488.912Z" fill="black"/>
<path opacity="0.2" d="M331.664 436.69C329.407 464.339 315.533 504.926 294.788 528.077C273.726 551.597 231.752 555.191 219.934 555.742C227.372 530.217 237.452 506.714 245.91 492.221C258.347 471.009 303.698 450.147 331.664 436.69Z" fill="black"/>
<path opacity="0.2" d="M352.776 448.859C355.217 459.591 376.848 461.33 387.228 456.699C397.609 452.069 403.527 435.804 395.001 425.774C386.476 415.745 349.801 435.837 352.776 448.859Z" fill="black"/>
<path opacity="0.2" d="M429.437 363.173C428.885 376.312 417.418 397.441 404.998 401.62C395.787 404.796 383.902 402.122 377.801 396.12C391.675 378.385 408.257 355.918 421.379 337.347C427.096 341.659 429.804 353.411 429.437 363.173Z" fill="black"/>
<path opacity="0.1" d="M571.323 388.899C573.513 378.585 574.833 367.854 573.613 357.707C573.581 357.5 573.621 357.289 573.726 357.109C573.83 356.928 573.993 356.788 574.188 356.712C574.382 356.636 574.597 356.629 574.796 356.691C574.996 356.753 575.168 356.882 575.284 357.055C576.839 358.727 581.219 363.491 581.871 364.226C581.871 363.591 581.871 362.956 581.754 362.354C581.57 360.231 581.286 358.125 580.918 356.052C580.133 351.869 579.015 347.754 577.575 343.749C576.132 339.755 574.354 335.891 572.259 332.198C570.136 328.454 567.595 325.01 565.155 321.433C565.054 321.283 565.338 321.082 565.489 321.216C568.829 324.211 571.753 327.64 574.181 331.413C576.585 334.97 578.656 338.741 580.366 342.679C582.078 346.659 583.399 350.797 584.311 355.032C584.779 357.239 585.13 359.445 585.381 361.719C585.774 363.902 585.774 366.138 585.381 368.322C585.03 369.759 582.907 369.542 582.305 368.539C581.937 367.921 576.388 361.1 575.535 360.181C576.621 369.967 575.449 379.871 572.108 389.133C571.975 389.518 571.222 389.367 571.323 388.899Z" fill="black"/>
<path opacity="0.1" d="M443.562 281.113C442.191 281.665 439.215 282.785 435.12 284.256L443.562 281.113Z" fill="black"/>
<path d="M396.372 651.492C396.372 651.492 392.126 666.537 395.386 669.88C398.646 673.223 536.888 671.551 537.138 669.88C537.389 668.208 515.909 639.139 502.319 637.651C488.729 636.163 445.284 648.767 445.284 648.767C445.284 648.767 524.651 549.875 501.349 490.867C491.102 464.874 429.637 454.76 350.904 486.554C279.326 515.44 296.577 643.92 335.86 657.995C375.143 672.07 396.372 651.492 396.372 651.492Z" fill="#B6B0EB"/>
<path opacity="0.3" d="M396.372 651.492C396.372 651.492 392.126 666.537 395.386 669.88C398.646 673.223 536.888 671.551 537.138 669.88C537.389 668.208 515.909 639.139 502.319 637.651C488.729 636.163 445.284 648.767 445.284 648.767C445.284 648.767 524.651 549.875 501.349 490.867C491.102 464.874 429.637 454.76 350.904 486.554C279.326 515.44 296.577 643.92 335.86 657.995C375.143 672.07 396.372 651.492 396.372 651.492Z" fill="black"/>
<path d="M355.869 484.047C391.324 469.755 465.025 449.695 495.632 480.052C520.071 505.912 503.355 551.346 489.982 579.128C477.604 603.85 462.619 627.179 445.284 648.717C453.374 637.551 461.013 626.084 468.084 614.282C487.241 582.087 521.994 518.566 495.131 484.08C467.215 452.32 391.14 471.961 355.953 484.08L355.869 484.047Z" fill="#263238"/>
<path d="M370.546 473.666C378.256 471.368 386.399 470.916 394.316 472.346C386.421 473.205 378.487 473.646 370.546 473.666Z" fill="#263238"/>
<path d="M395.77 670.064C395.297 669.86 394.89 669.528 394.595 669.106C394.3 668.684 394.128 668.188 394.099 667.674C393.678 664.667 393.583 661.624 393.814 658.597C394.537 648.571 396.154 638.63 398.645 628.892C399.164 626.953 399.648 625.014 400.317 623.092C400.083 625.081 399.765 627.07 399.515 629.059C398.963 632.787 397.408 642.984 396.807 646.845C395.937 652.763 394.934 658.68 394.617 664.648C394.617 666.47 394.015 668.961 395.904 670.064H395.77Z" fill="#263238"/>
<path d="M395.937 625.766C396.606 629.21 396.94 632.77 397.325 636.197C398.345 643.636 395.486 635.712 395.286 632.854C394.958 630.45 395.181 628.004 395.937 625.699V625.766Z" fill="#263238"/>
<path d="M509.122 654.367C514.388 657.71 520.105 664.397 517.915 671.083C517.547 664.397 512.783 659.7 509.122 654.367Z" fill="#263238"/>
<path d="M519.503 653.749C524.752 657.092 530.469 663.779 528.279 670.465C527.928 663.779 523.164 659.081 519.503 653.749Z" fill="#263238"/>
<path d="M583.592 228.909C583.592 228.909 587.504 190.93 589.276 187.687C591.048 184.444 609.736 179.914 614.918 183.709C620.1 187.503 586.217 231.885 586.217 231.885L583.592 228.909Z" fill="#455A64"/>
<path d="M592.318 223.677C591.85 224.345 591.382 224.964 590.964 225.566C588.691 224.713 586.468 223.894 584.278 223.142C584.278 222.423 584.445 221.671 584.529 220.869C587.092 221.749 589.688 222.685 592.318 223.677ZM597.918 205.289C594.14 203.935 590.463 202.631 586.835 201.411C586.735 202.147 586.635 202.899 586.551 203.668C590.062 204.871 593.656 206.108 597.316 207.446L599.406 208.214C600.426 208.565 601.462 208.95 602.482 209.351L603.769 207.446C602.498 206.961 601.261 206.493 600.008 206.075C599.289 205.69 598.637 205.456 597.918 205.206V205.289ZM605.056 187.369L602.966 186.634C600.693 185.815 598.42 184.962 596.28 184.277C595.026 184.661 593.873 185.063 592.937 185.481C596.079 186.55 599.289 187.637 602.565 188.824L604.638 189.559C607.379 190.529 610.138 191.565 612.996 192.635C613.347 191.916 613.681 191.248 613.982 190.596C610.907 189.426 607.931 188.322 605.056 187.286V187.369ZM603.986 182.656L602.966 186.634C602.783 187.353 602.582 188.072 602.415 188.807C601.011 194.056 599.512 199.55 597.918 205.289L597.316 207.446C595.862 212.577 594.307 217.876 592.669 223.292C593.906 221.621 595.244 219.765 596.614 217.809C597.584 214.55 598.52 211.34 599.406 208.214L600.008 206.075C601.679 200.324 603.117 194.791 604.488 189.543C604.705 188.824 604.889 188.088 605.056 187.369C605.507 185.698 605.925 184.026 606.36 182.438C605.574 182.388 604.788 182.488 603.986 182.572V182.656Z" fill="#37474F"/>
<path opacity="0.3" d="M583.592 228.909C583.592 228.909 587.888 188.791 595.294 187.971C602.699 187.152 586.35 224.095 583.592 228.909Z" fill="black"/>
<path d="M585.398 228.542C585.398 228.542 613.247 216.841 616.172 216.54C621.605 216.038 627.138 225.884 626.519 230.949C625.901 236.014 584.344 231.518 584.344 231.518L585.398 228.542Z" fill="#455A64"/>
<path d="M619.883 217.643L616.222 219.515L614.267 220.535C614.534 221.22 614.818 221.905 615.102 222.607L617.092 221.588C618.646 220.785 620.184 220 621.688 219.197C621.141 218.619 620.536 218.098 619.883 217.643ZM617.025 221.588L616.155 219.515C615.771 218.579 615.42 217.676 615.019 216.773L612.929 217.459L614.2 220.535C614.467 221.22 614.751 221.905 615.035 222.607C616.44 226.051 617.833 229.578 619.214 233.189C620.034 233.189 620.886 233.072 621.505 232.988C620.1 229.11 618.579 225.299 617.025 221.588Z" fill="#37474F"/>
<path d="M599.807 230.263C600.158 231.132 600.492 232.035 600.86 232.904L598.403 232.737L597.801 231.249C596.948 231.65 596.129 232.068 595.243 232.503L590.83 232.135L596.982 229.176C596.347 227.588 595.711 226.05 595.076 224.513L597.132 223.677L598.954 228.19C604.304 225.566 609.435 223.008 614.266 220.534C614.534 221.22 614.818 221.905 615.102 222.607C610.338 225.081 605.156 227.639 599.807 230.263Z" fill="#37474F"/>
<path opacity="0.3" d="M585.397 228.542C585.397 228.542 614.918 215.971 618.311 220.819C621.705 225.667 589.794 228.592 585.397 228.542Z" fill="black"/>
<path d="M443.929 281.716C445.4 287.098 554.088 316.134 562.43 312.256C568.665 309.347 590.513 233.44 585.531 226.619C583.425 223.744 579.263 230.865 528.162 252.362C504.458 262.342 442.726 277.37 443.929 281.716Z" fill="#455A64"/>
<path d="M459.342 274.595C459.346 274.55 459.346 274.505 459.342 274.461L457.252 275.196C457.245 275.235 457.245 275.275 457.252 275.313C457.62 276.366 458.054 277.453 458.422 278.54C459.141 278.339 459.86 278.138 460.595 277.971C460.161 276.901 459.743 275.698 459.342 274.595ZM461.347 280.061L459.208 280.662C460.227 283.521 461.281 286.446 462.334 289.455L464.958 290.291C463.755 286.781 462.551 283.354 461.347 280.061ZM485.987 292.497C485.77 291.779 485.519 291.093 485.302 290.391C483.446 284.908 481.591 279.626 479.769 274.611C479.501 273.909 479.25 273.207 479.016 272.522L477.646 268.878L475.489 269.546C475.941 270.716 476.409 271.953 476.843 273.174C477.111 273.859 477.361 274.544 477.629 275.263C479.451 280.278 481.323 285.577 483.162 291.06C483.396 291.745 483.647 292.464 483.864 293.183L484.867 296.208L487.441 296.927C486.973 295.44 486.472 293.935 485.987 292.497ZM522.495 280.245L520.389 280.997C522.138 286.157 523.866 291.495 525.571 297.011C526.289 296.777 526.975 296.526 527.694 296.259C526.005 290.826 524.233 285.477 522.495 280.245ZM522.495 280.245L520.389 280.997C522.138 286.157 523.866 291.495 525.571 297.011C526.289 296.777 526.975 296.526 527.694 296.259C526.005 290.826 524.233 285.477 522.495 280.245ZM522.495 280.245L520.389 280.997C522.138 286.157 523.866 291.495 525.571 297.011C526.289 296.777 526.975 296.526 527.694 296.259C526.005 290.826 524.233 285.477 522.495 280.245ZM504.324 286.563C504.074 285.844 503.856 285.142 503.606 284.424C501.733 278.924 499.845 273.625 498.023 268.61C497.755 267.925 497.488 267.223 497.237 266.537L496.017 263.194C495.298 263.428 494.579 263.646 493.843 263.846C494.278 264.966 494.679 266.069 495.114 267.189C495.365 267.891 495.632 268.593 495.9 269.312C497.755 274.327 499.627 279.609 501.466 285.109C501.717 285.794 501.951 286.513 502.185 287.215C503.856 291.996 505.394 296.944 506.932 301.992L509.222 302.577H509.473C509.483 302.533 509.483 302.488 509.473 302.444C507.768 297.145 506.063 291.795 504.324 286.63V286.563ZM522.495 280.245L520.389 280.997C522.138 286.157 523.866 291.495 525.571 297.011C526.289 296.777 526.975 296.526 527.694 296.259C526.005 290.826 524.233 285.477 522.495 280.245ZM522.495 280.245L520.389 280.997C522.138 286.157 523.866 291.495 525.571 297.011C526.289 296.777 526.975 296.526 527.694 296.259C526.005 290.826 524.233 285.477 522.495 280.245ZM522.495 280.245L520.389 280.997C522.138 286.157 523.866 291.495 525.571 297.011C526.289 296.777 526.975 296.526 527.694 296.259C526.005 290.826 524.233 285.477 522.495 280.245ZM531.12 307.826C530.195 304.639 529.265 301.485 528.329 298.365C528.111 297.663 527.894 296.944 527.694 296.259C526.022 290.759 524.233 285.41 522.495 280.245C522.261 279.526 522.01 278.84 521.759 278.122C519.87 272.605 517.948 267.29 516.109 262.308C515.842 261.589 515.574 260.904 515.324 260.202C514.973 259.249 514.605 258.313 514.254 257.41L512.148 258.112C512.499 259.049 512.85 260.018 513.217 260.971C513.485 261.64 513.719 262.342 513.986 263.06C515.859 268.075 517.748 273.358 519.67 278.874C514.404 280.746 509.038 282.618 503.606 284.424C503.856 285.142 504.074 285.844 504.324 286.563C509.774 284.741 515.123 282.869 520.389 280.997C522.138 286.157 523.866 291.495 525.571 297.011C525.805 297.73 526.022 298.415 526.223 299.134C527.042 301.808 527.894 304.5 528.63 307.241L531.12 307.826ZM551.18 307.96C549.675 302.444 548.087 297.011 546.416 291.712C551.915 289.622 557.248 287.55 562.363 285.493C562.129 284.791 561.895 284.089 561.677 283.404C556.579 285.427 551.247 287.499 545.764 289.589C544.092 284.073 542.253 278.707 540.481 273.558C540.214 272.839 539.98 272.137 539.746 271.435C537.824 265.885 535.884 260.586 533.979 255.605C533.711 254.886 533.444 254.201 533.21 253.499C532.825 252.529 532.441 251.593 532.09 250.624C531.421 250.958 530.803 251.225 530.201 251.51C530.201 251.51 530.117 251.51 530.067 251.51C530.452 252.446 530.803 253.382 531.154 254.335L531.956 256.441C533.828 261.456 535.767 266.705 537.707 272.254C532.536 274.227 527.226 276.194 521.776 278.155C522.027 278.874 522.278 279.559 522.512 280.278C527.944 278.306 533.277 276.35 538.442 274.394C540.231 279.543 542.003 284.908 543.724 290.425C543.942 291.127 544.176 291.812 544.393 292.531C546.042 297.824 547.625 303.235 549.14 308.762C549.341 309.481 549.542 310.2 549.725 310.902C549.725 311.102 549.809 311.32 549.876 311.52L552.283 311.888C552.132 311.303 551.965 310.701 551.815 310.217L551.18 307.96ZM564.419 284.674C564.202 283.956 563.968 283.27 563.75 282.551C561.956 277.035 560.156 271.68 558.351 266.487C558.117 265.802 557.866 265.083 557.615 264.398C555.643 258.815 553.654 253.482 551.765 248.534C551.497 247.815 551.23 247.163 550.962 246.461C550.494 245.258 550.026 244.088 549.575 242.918L547.552 243.837C548.004 244.974 548.438 246.127 548.906 247.314L549.692 249.387C551.614 254.401 553.57 259.65 555.543 265.217C555.793 265.919 556.044 266.621 556.278 267.34C558.117 272.488 559.917 277.843 561.677 283.404C561.895 284.089 562.129 284.791 562.363 285.493C564.034 290.776 565.706 296.208 567.227 301.741C567.327 302.159 567.444 302.577 567.578 303.029C567.796 302.494 568.03 301.909 568.247 301.357C568.464 300.805 568.698 300.237 568.915 299.685C567.495 294.604 566.007 289.622 564.452 284.741L564.419 284.674ZM576.12 259.099C575.853 258.413 575.602 257.695 575.351 257.009C573.329 251.393 571.323 246.094 569.4 241.162L568.598 239.106C567.979 237.568 567.394 236.081 566.826 234.643L564.82 235.629C565.388 237.033 565.973 238.488 566.492 239.976C566.759 240.644 567.027 241.346 567.294 242.032C569.2 247.046 571.206 252.279 573.262 257.895C573.479 258.581 573.73 259.283 573.997 259.968C575.318 263.646 576.622 267.457 577.942 271.368C578.293 270.081 578.644 268.811 578.979 267.524C578.109 264.715 577.123 261.857 576.154 259.166L576.12 259.099ZM586.066 231.4C585.448 229.846 584.395 227.589 583.793 226.018C583.076 226.237 582.378 226.51 581.703 226.837C582.389 228.508 583.375 230.698 584.044 232.32C584.311 232.988 584.578 233.674 584.846 234.392C585.113 235.111 585.448 235.88 585.765 236.666C585.899 235.663 585.983 234.727 586.066 233.857C586.15 232.988 586.183 232.386 586.2 231.734C586.2 231.668 586.15 231.584 586.1 231.467L586.066 231.4ZM458.422 278.573C453.742 279.877 449.05 281.119 444.347 282.301C444.481 282.418 444.631 282.518 444.815 282.652L445.434 283.036C445.971 283.362 446.53 283.652 447.105 283.905C451.128 282.891 455.151 281.821 459.174 280.696C458.94 279.944 458.69 279.242 458.422 278.573ZM586.1 231.5C585.431 231.818 584.762 232.136 584.077 232.42C579.346 234.543 574.214 236.799 568.631 239.207C567.963 239.474 567.277 239.775 566.592 240.076C561.661 242.182 556.479 244.338 550.996 246.562C550.327 246.863 549.642 247.13 548.94 247.414C543.925 249.437 538.676 251.526 533.243 253.599L531.137 254.401C526.022 256.385 520.751 258.352 515.324 260.302L513.217 261.071C508.002 262.943 502.653 264.816 497.237 266.638L495.114 267.323C489.832 269.112 484.449 270.85 479.016 272.538L476.843 273.19C471.477 274.862 466.045 276.433 460.595 278.005C460.829 278.69 461.08 279.409 461.347 280.094C466.83 278.556 472.257 276.952 477.629 275.28C478.348 275.079 479.05 274.862 479.769 274.628C485.24 272.945 490.617 271.218 495.9 269.446C497.755 274.461 499.627 279.743 501.466 285.243C502.185 285.025 502.887 284.775 503.606 284.524C501.733 279.024 499.845 273.725 498.023 268.71C503.422 266.888 508.771 265.033 513.986 263.161C515.859 268.176 517.748 273.458 519.67 278.974C514.404 280.846 509.038 282.719 503.606 284.524C503.856 285.243 504.074 285.945 504.324 286.664C509.774 284.842 515.123 282.969 520.389 281.097L522.495 280.345C527.928 278.372 533.26 276.417 538.425 274.461C539.127 274.16 539.813 273.926 540.515 273.658C545.964 271.569 551.247 269.496 556.312 267.44C556.077 266.721 555.827 266.019 555.576 265.317C550.505 267.368 545.24 269.44 539.779 271.535C537.857 265.986 535.918 260.687 534.012 255.705C539.428 253.599 544.694 251.526 549.725 249.487C551.648 254.502 553.604 259.751 555.576 265.317L557.649 264.498C555.676 258.915 553.687 253.582 551.798 248.634C557.281 246.428 562.496 244.255 567.394 242.132L569.434 241.263C575.017 238.872 580.182 236.599 584.879 234.576L586.1 234.041C586.1 233.289 586.217 232.57 586.233 231.918V231.567L586.1 231.5ZM537.623 272.321C532.452 274.294 527.142 276.261 521.693 278.222C519.804 272.706 517.881 267.39 516.042 262.409C521.458 260.436 526.735 258.469 531.873 256.508C533.812 261.439 535.751 266.738 537.69 272.288L537.623 272.321ZM575.318 257.11L573.295 257.995C568.28 260.085 563.098 262.275 557.582 264.498L555.509 265.317C550.439 267.368 545.173 269.44 539.712 271.535L537.656 272.321C532.486 274.294 527.175 276.261 521.726 278.222C521.041 278.489 520.322 278.74 519.636 278.974C514.371 280.846 509.005 282.719 503.572 284.524C502.853 284.775 502.151 285.025 501.433 285.243C496.117 287.015 490.729 288.736 485.268 290.408C484.549 290.609 483.831 290.843 483.128 291.06L475.155 293.417L476.191 293.734C477.178 294.002 478.147 294.286 479.133 294.587L483.831 293.183L485.953 292.514C491.403 290.843 496.819 289.171 502.151 287.332L504.291 286.647C509.741 284.825 515.09 282.953 520.355 281.08L522.461 280.328C527.894 278.356 533.227 276.4 538.392 274.444C539.094 274.143 539.779 273.909 540.481 273.642C545.931 271.552 551.213 269.479 556.278 267.423C556.98 267.139 557.666 266.872 558.351 266.571C563.867 264.342 569.105 262.169 574.064 260.052L576.12 259.182C578.076 258.363 579.982 257.511 581.837 256.725C582.054 255.839 582.255 254.92 582.489 254.034C580.204 255.026 577.836 256.04 575.385 257.076L575.318 257.11ZM563.717 282.652L561.644 283.504C556.546 285.527 551.213 287.6 545.73 289.689C544.059 284.173 542.22 278.807 540.448 273.658C539.746 273.926 539.061 274.16 538.358 274.461C540.147 279.609 541.919 284.975 543.641 290.492C538.425 292.464 533.087 294.42 527.627 296.359C526.908 296.626 526.223 296.877 525.504 297.111C520.221 298.983 514.839 300.828 509.356 302.644H509.155H509.406L513.151 303.58C517.547 302.109 521.876 300.605 526.156 299.1C526.858 298.85 527.577 298.599 528.262 298.331C533.745 296.409 539.094 294.437 544.309 292.464L546.382 291.678C551.882 289.589 557.214 287.516 562.329 285.46L564.385 284.641C568.163 283.12 571.874 281.615 575.418 280.144L576.22 277.403C572.275 279.175 568.096 280.88 563.784 282.618L563.717 282.652ZM567.194 301.842C562.028 303.881 556.646 305.987 551.146 308.06L549.057 308.829L544.226 310.618L548.539 311.387L549.608 310.969C550.294 310.735 551.013 310.467 551.698 310.2C556.963 308.211 562.062 306.255 567.01 304.282C567.16 303.915 567.344 303.53 567.495 303.129C567.645 302.728 567.946 302.009 568.163 301.457L567.194 301.842Z" fill="#37474F"/>
<path opacity="0.1" d="M576.722 275.981C571.406 294.269 565.271 310.918 562.43 312.255C555.643 315.415 482.326 296.743 454.527 286.813C482.427 295.038 553.503 306.304 560.039 303.095C564.536 300.888 573.914 281.648 576.722 275.981Z" fill="black"/>
<path d="M445.434 423.2C445.434 423.2 497.789 458.571 527.677 464.623C557.565 470.674 616.824 424.32 616.824 424.32C616.824 424.32 639.859 460.293 643.402 464.623C646.946 468.952 665.719 471.309 669.179 467.815C672.639 464.322 672.388 447.756 669.179 438.562C665.969 429.368 631.384 389.668 617.559 390.905C603.735 392.142 563.533 412.803 560.541 412.385C555.86 411.733 530.051 380.29 511.128 356.085" fill="#B6B0EB"/>
<path opacity="0.3" d="M445.434 423.2C445.434 423.2 497.789 458.571 527.677 464.623C557.565 470.674 616.824 424.32 616.824 424.32C616.824 424.32 639.859 460.293 643.402 464.623C646.946 468.952 665.719 471.309 669.179 467.815C672.639 464.322 672.388 447.756 669.179 438.562C665.969 429.368 631.384 389.668 617.559 390.905C603.735 392.142 563.533 412.803 560.541 412.385C555.86 411.733 530.051 380.29 511.128 356.085" fill="black"/>
<path opacity="0.1" d="M669.179 467.815C665.718 471.376 646.946 468.952 643.402 464.623C639.859 460.293 616.824 424.32 616.824 424.32C616.824 424.32 557.549 470.657 527.66 464.623C508.303 460.711 479.518 444.463 461.665 433.531C471.945 439.047 520.322 450.748 533.845 452.42C547.92 454.091 616.824 421.646 616.824 421.646C616.824 421.646 646.144 458.421 649.103 460.093C652.061 461.764 663.612 466.194 667.072 465.107C669.195 464.439 671.201 457.401 671.586 452.47C671.937 459.257 671.185 465.793 669.179 467.815Z" fill="black"/>
<path d="M654.652 453.156C659.918 456.499 665.635 463.186 663.445 469.872C663.077 463.186 658.313 458.472 654.652 453.156Z" fill="#263238"/>
<path d="M664.782 447.405C669.062 452.22 673.575 460.862 669.58 466.946C671.101 460.026 667.089 453.774 664.782 447.405Z" fill="#263238"/>
<path d="M457.536 432.361C477.261 442.19 496.953 452.42 517.597 460.16L522.762 461.831C523.648 462.032 525.821 462.634 526.657 462.834C553.403 466.846 594.073 438.262 616.824 424.287C599.272 437.81 580.867 450.648 560.474 459.625C549.358 464.172 536.821 468.601 524.618 465.659C514.688 463.085 505.327 458.522 496.2 454.075C482.928 447.506 470.09 440.167 457.553 432.344L457.536 432.361Z" fill="#263238"/>
<path d="M611.642 416.33C619.599 427.931 627.84 440.318 635.044 452.387C625.748 441.408 617.884 429.292 611.642 416.33Z" fill="#263238"/>
<path d="M465.192 442.391C472.146 443.745 478.565 445.734 485.469 447.405C478.355 447.858 471.275 446.107 465.192 442.391Z" fill="#263238"/>
<path d="M517.965 364.761L542.404 392.376C548.305 398.611 553.62 405.632 560.507 410.763C563.356 409.812 566.147 408.696 568.865 407.42C580.132 402.573 591.382 397.524 603.066 393.446C607.464 391.759 612.041 390.581 616.707 389.935C618.387 389.856 620.059 390.201 621.571 390.938C627.227 393.523 632.43 397 636.983 401.235C632.099 397.572 626.718 394.623 621.003 392.476C619.7 391.928 618.282 391.71 616.874 391.841C612.448 392.754 608.124 394.109 603.969 395.886C594.107 399.781 580.048 406.167 570.186 410.496C567.461 411.583 564.235 413.12 561.326 413.94C560.611 414.138 559.847 414.06 559.187 413.722C556.733 412.182 554.525 410.283 552.634 408.089C548.355 403.559 544.276 398.895 540.431 394.131C532.591 384.619 525.153 374.807 517.965 364.811V364.761Z" fill="#263238"/>
<path d="M528.429 370.411C530.454 372.364 532.07 374.699 533.183 377.282C534.297 379.865 534.885 382.643 534.915 385.456C532.842 380.223 530.352 375.643 528.429 370.411Z" fill="#263238"/>
<path d="M475.473 123.113C491.62 137.756 496.067 197.533 510.576 218.261C525.086 238.989 576.755 232.587 584.294 203.701C591.833 174.816 551.13 126.674 527.426 121.442C503.723 116.209 475.473 123.113 475.473 123.113Z" fill="#B6B0EB"/>
<path opacity="0.6" d="M475.473 123.113C491.62 137.756 496.067 197.533 510.576 218.261C525.086 238.989 576.755 232.587 584.294 203.701C591.833 174.816 551.13 126.674 527.426 121.442C503.723 116.209 475.473 123.113 475.473 123.113Z" fill="black"/>
<path d="M287.4 253.9C286.965 258.698 306.473 274.461 314.998 273.358C323.523 272.254 331.413 245.642 327.769 240.009C324.125 234.376 287.951 247.799 287.4 253.9Z" fill="#263238"/>
<path d="M311.755 268.426C318.575 273.441 338.05 291.26 346.19 286.647C353.111 282.468 354.682 272.839 356.036 265.4C355.618 273.307 354.364 283.437 346.926 288.067C337.147 293.467 318.508 275.012 311.822 268.426H311.755Z" fill="#263238"/>
<path d="M323.44 285.259C325.981 286.664 328.856 288.837 331.564 289.372C331.346 289.372 331.346 289.689 331.33 289.606C326.315 282.668 319.528 277.202 314.129 270.482C319.008 274.137 323.551 278.221 327.702 282.685C329.491 284.791 331.664 286.68 332.6 289.372C332.6 293.383 324.593 286.279 323.44 285.259Z" fill="#263238"/>
<path opacity="0.2" d="M411.132 179.948C430.941 168.664 449.579 178.276 459.709 195.962C467.917 210.354 464.524 231.751 445.501 242.583C426.478 253.415 404.881 242.867 397.175 229.344C389.468 215.821 389.686 192.134 411.132 179.948Z" fill="black"/>
<path d="M404.446 202.431C414.225 194.675 425.107 198.286 432.061 207.045C433.562 209.023 434.654 211.279 435.276 213.683C435.897 216.087 436.034 218.59 435.679 221.048C435.325 223.505 434.485 225.867 433.21 227.998C431.934 230.128 430.248 231.983 428.25 233.456C418.855 240.912 406.285 237 401.002 230.314C399.373 228.267 398.169 225.916 397.459 223.398C396.749 220.88 396.549 218.246 396.87 215.649C397.19 213.053 398.026 210.547 399.326 208.277C400.627 206.007 402.368 204.02 404.446 202.431Z" fill="#263238"/>
<path d="M404.964 205.023C414.158 197.734 424.372 201.111 430.924 209.369C432.334 211.228 433.361 213.348 433.944 215.607C434.528 217.866 434.657 220.219 434.324 222.528C433.992 224.838 433.204 227.058 432.006 229.06C430.808 231.062 429.224 232.807 427.347 234.192C418.521 241.196 406.703 237.535 401.721 231.233C400.193 229.307 399.064 227.097 398.4 224.73C397.735 222.363 397.548 219.888 397.85 217.448C398.152 215.009 398.936 212.654 400.158 210.52C401.379 208.387 403.013 206.518 404.964 205.023Z" fill="white"/>
<path d="M403.627 209.001C411.132 203.05 419.474 205.825 424.823 212.545C425.974 214.063 426.812 215.796 427.289 217.641C427.765 219.486 427.871 221.408 427.598 223.294C427.326 225.181 426.682 226.994 425.704 228.63C424.725 230.265 423.431 231.69 421.898 232.821C414.693 238.538 405.048 235.529 400.986 230.414C399.726 228.846 398.793 227.041 398.243 225.106C397.693 223.171 397.536 221.146 397.782 219.149C398.029 217.153 398.673 215.226 399.677 213.483C400.68 211.74 402.024 210.216 403.627 209.001Z" fill="#263238"/>
<path d="M48.8779 419.69C50.1818 408.223 55.5644 376.028 57.5703 373.253C59.5762 370.478 82.7447 381.394 92.6741 403.041L48.8779 419.69Z" fill="#B6B0EB"/>
<path opacity="0.1" d="M51.4187 418.721C52.3882 409.344 56.4335 383.267 57.8711 380.993C59.3087 378.72 76.9107 388.532 84.3327 406.235L51.4187 418.721Z" fill="black"/>
<path d="M61.2311 414.893C61.2311 414.893 61.9499 410.263 61.0806 408.993C60.426 408.104 59.6809 407.286 58.8574 406.552C60.2248 406.917 61.5314 407.48 62.7355 408.224C63.4236 408.865 64.0555 409.564 64.6245 410.313C64.6207 408.44 63.8894 406.642 62.5851 405.298C60.905 404.001 59.0957 402.881 57.1858 401.955C57.1858 401.955 64.2901 401.955 66.8143 403.526C69.3384 405.098 72.364 406.201 73.8016 406.953C75.5695 407.583 77.4034 408.009 79.2678 408.224L61.2311 414.893Z" fill="#B6B0EB"/>
<path d="M155.66 555.777C151.782 558.602 138.108 583.676 140.883 592.552C143.658 601.428 160.508 632.754 161.762 634.627C163.015 636.499 172.126 661.372 171.708 662.526C171.29 663.679 160.19 668.209 160.19 670.048C160.19 671.887 187.939 671.536 188.357 670.733C188.731 668.682 188.916 666.6 188.909 664.515C188.909 664.097 203.335 629.913 205.842 623.661C208.349 617.409 201.68 587.587 201.68 584.813C201.68 582.038 198.42 524.701 155.66 555.777Z" fill="#B6B0EB"/>
<g opacity="0.1">
<path d="M155.66 555.777C151.782 558.602 138.108 583.676 140.883 592.552C143.658 601.428 160.508 632.754 161.762 634.627C163.015 636.499 172.126 661.372 171.708 662.526C171.29 663.679 160.19 668.209 160.19 670.048C160.19 671.887 187.939 671.536 188.357 670.733C188.731 668.682 188.916 666.6 188.909 664.515C188.909 664.097 203.335 629.913 205.842 623.661C208.349 617.409 201.68 587.587 201.68 584.813C201.68 582.038 198.42 524.701 155.66 555.777Z" fill="black"/>
</g>
<path d="M108.554 555.777C104.676 558.602 96.8529 583.676 99.6612 592.552C102.47 601.428 126.273 632.386 127.527 634.342C128.781 636.298 139.813 662.76 139.395 663.896C138.977 665.033 130.135 668.827 130.135 670.583C130.135 672.338 158.552 671.552 158.97 670.75C159.528 667.732 159.913 664.685 160.123 661.623C160.123 661.205 175.536 635.345 178.043 629.093C180.55 622.842 187.504 597.918 187.504 595.143C187.504 592.368 151.297 524.701 108.554 555.777Z" fill="#B6B0EB"/>
<path d="M320.548 498.257C328.404 505.796 341.694 536.453 342.513 546.583C343.332 556.713 337.381 605.273 338.083 607.363C342.775 616.702 347.93 625.801 353.529 634.626C354.365 635.93 357.942 640.862 358.059 641.43C358.477 643.369 355.836 649.337 354.866 650.59C353.896 651.844 335.626 667.557 334.523 666.454C333.419 665.351 337.515 654.569 337.515 653.867C337.515 653.165 306.49 635.98 304.35 634.209C300.338 630.865 271.052 597.985 268.277 580.349C265.502 562.714 296.226 474.921 320.548 498.257Z" fill="#B6B0EB"/>
<path opacity="0.1" d="M315.851 495.13L295.424 624.596C285.26 612.695 270.216 592.836 268.277 580.366C265.669 563.917 292.448 485.853 315.851 495.13Z" fill="black"/>
<path d="M128.112 397.81C132.692 389.769 156.697 362.89 161.695 362.455C166.693 362.02 177.792 397.81 179.598 405.449C181.403 413.088 179.598 439.483 179.598 439.483L128.112 397.81Z" fill="#B6B0EB"/>
<path opacity="0.1" d="M129.516 398.93C133.127 392.561 150.88 370.83 154.841 370.512C158.803 370.195 167.579 398.495 169 404.53C170.421 410.564 169.167 431.041 169.167 431.041L129.516 398.93Z" fill="black"/>
<path d="M138.158 405.95C138.158 405.95 142.856 402.44 143.374 400.417C143.695 398.951 143.863 397.455 143.875 395.954C144.749 397.654 145.368 399.473 145.714 401.353C145.671 402.635 145.515 403.91 145.246 405.164C146.217 404.325 147.012 403.303 147.586 402.155C148.159 401.008 148.5 399.758 148.589 398.478C148.405 395.612 147.929 392.772 147.168 390.003C147.168 390.003 153.47 397.308 154.156 401.27C154.841 405.231 155.393 410.982 155.911 413.121C156.429 415.261 158.251 422.131 158.251 422.131L138.158 405.95Z" fill="#B6B0EB"/>
<path d="M44.7156 447.64C43.6123 450.415 29.6711 473.467 30.5236 480.12C31.3761 486.773 47.0057 512.031 81.0731 525.354C81.0731 525.354 84.6838 528.396 85.5196 537.841C86.3554 547.285 81.9423 569.752 82.3602 576.505C82.6223 579.432 83.4753 582.275 84.8676 584.863C84.8676 584.863 84.5166 576.07 85.6199 574.231C85.6199 574.231 87.5255 585.933 89.3308 589.911C90.5441 592.113 92.3435 593.935 94.5295 595.177L90.8854 585.515C90.8854 585.515 96.5522 597.049 116.595 607.162C133.612 615.738 201.161 613.08 209.118 613.08C217.075 613.08 282.184 603.468 288.403 590.881C290.442 586.718 311.504 548.723 313.109 538.509C313.962 532.993 327.652 510.811 323.707 502.102C319.762 493.392 306.289 478.214 292.833 470.424C282.285 464.323 234.326 462.936 195.144 478.783C194.139 477.772 193.055 476.844 191.901 476.008C190.321 474.937 188.532 474.213 186.652 473.885C186.652 473.885 180.25 435.438 178.026 430.674C175.803 425.91 143.608 399.966 134.565 396.456C125.521 392.945 89.0467 397.743 82.1931 399.231C75.3395 400.718 50.5662 415.512 48.8946 419.758C47.223 424.004 44.7156 447.64 44.7156 447.64Z" fill="#B6B0EB"/>
<path opacity="0.1" d="M152.702 612.895C137.356 612.16 123.181 610.521 116.595 607.195C97.1539 597.332 91.2531 586.149 90.9021 585.514L94.5295 595.143C92.3435 593.901 90.544 592.079 89.3308 589.877C87.5254 585.848 85.6198 574.197 85.6198 574.197C84.5165 576.036 84.8676 584.829 84.8676 584.829C83.4753 582.241 82.6223 579.398 82.3602 576.471C81.9423 569.784 86.3386 547.234 85.5195 537.806C84.7004 528.378 81.073 525.319 81.073 525.319C46.9388 511.947 31.3594 486.755 30.5236 480.086C29.6878 473.416 43.6624 450.415 44.7155 447.64C44.7155 447.64 47.2062 423.953 48.8778 419.69C46.4707 432.98 47.7244 449.077 47.4403 450.197C47.1561 451.317 37.6613 474.202 39.918 480.119C42.1747 486.037 73.3502 520.505 92.6573 525.102C92.6573 525.102 99.0595 543.306 98.2739 551.647C97.4882 559.989 98.9593 583.057 100.581 588.322C102.202 593.588 109.19 597.55 115.358 603.2C121.526 608.85 150.863 612.594 152.702 612.895Z" fill="black"/>
<path d="M230.13 609.552C223.444 611.123 216.657 612.645 209.804 613.748C198.27 614.784 186.735 614.55 175.168 614.45C165.907 614.166 156.613 614.233 147.436 612.561C138.242 610.12 130.235 605.223 122.83 599.74C126.825 602.047 130.887 604.203 135.066 606.092C147.503 612.578 161.611 611.408 175.185 611.976C186.618 612.093 198.169 612.611 209.586 612.243C214.3 611.725 225.266 610.154 230.097 609.552H230.13Z" fill="#263238"/>
<path d="M81.073 525.353C83.9649 526.289 109.072 523.832 114.505 522.01C119.019 520.522 145.313 501.683 165.339 487.993C177.04 479.986 187.688 473.533 188.507 473.533C188.507 473.533 194.408 476.408 195.194 477.829C195.194 477.829 183.493 481.557 180.066 483.663C176.639 485.769 166.509 492.389 166.509 492.389C166.509 492.389 127.092 527.092 117.932 529.164C108.772 531.237 83.5971 531.521 83.5971 531.521C82.7531 530.424 82.0771 529.207 81.5912 527.911C81.3237 526.774 81.073 525.353 81.073 525.353Z" fill="#455A64"/>
<path d="M164.888 493.358C170.115 489.062 175.709 485.23 181.604 481.908C185.972 480.322 190.511 479.251 195.127 478.715C190.831 480.386 186.468 481.64 182.239 483.395C176.823 486.354 170.538 490.867 164.871 493.425L164.888 493.358Z" fill="#263238"/>
<path d="M186.652 473.817C184.612 475.054 181.821 476.96 179.765 478.23C178.708 479.012 177.698 479.855 176.739 480.755C175.691 481.661 174.573 482.482 173.396 483.212C174.694 481.133 176.225 479.209 177.959 477.478C180.497 475.525 183.498 474.264 186.669 473.817H186.652Z" fill="#263238"/>
<path d="M65.9114 433.665C58.2889 432.879 53.692 440.101 52.7726 448.977C52.0371 456.165 55.8149 464.021 63.1198 464.724C70.4248 465.426 75.8241 457.302 76.4927 450.548C77.1613 443.795 74.1692 434.518 65.9114 433.665Z" fill="#263238"/>
<path d="M66.4465 435.605C59.292 434.869 54.9626 441.639 54.1101 449.997C53.408 456.684 56.9518 464.089 63.8221 464.791C70.6924 465.493 75.7741 457.82 76.426 451.418C77.078 445.016 74.2195 436.39 66.4465 435.605Z" fill="white"/>
<path d="M68.7365 435.822C63.1199 435.254 59.7433 440.553 59.0746 447.089C58.523 452.388 61.2979 458.121 66.6805 458.673C72.063 459.225 76.0248 453.224 76.5429 448.242C77.0611 443.261 74.8713 436.441 68.7365 435.822Z" fill="#263238"/>
<path d="M122.663 433.131C133.027 431.142 139.78 438.146 141.552 447.406C141.914 449.483 141.859 451.612 141.388 453.667C140.918 455.722 140.042 457.662 138.812 459.375C137.583 461.087 136.023 462.537 134.226 463.639C132.429 464.741 130.43 465.474 128.346 465.794C118.317 467.7 110.493 459.826 109.139 452.755C108.72 450.577 108.738 448.337 109.193 446.166C109.648 443.995 110.531 441.936 111.789 440.11C113.048 438.283 114.658 436.726 116.525 435.527C118.391 434.329 120.478 433.514 122.663 433.131Z" fill="#263238"/>
<path d="M122.028 435.27C131.79 433.398 138.125 439.951 139.797 448.643C140.128 450.591 140.068 452.585 139.621 454.51C139.174 456.435 138.349 458.251 137.193 459.853C136.037 461.456 134.574 462.812 132.888 463.844C131.203 464.875 129.33 465.561 127.377 465.861C118.016 467.65 110.661 460.261 109.323 453.608C108.938 451.568 108.962 449.473 109.394 447.442C109.826 445.412 110.657 443.488 111.839 441.782C113.021 440.075 114.531 438.621 116.28 437.503C118.029 436.386 119.983 435.627 122.028 435.27Z" fill="white"/>
<path d="M126.056 436.039C134.013 434.518 139.195 439.867 140.566 447.005C140.835 448.596 140.785 450.224 140.419 451.795C140.053 453.367 139.379 454.85 138.435 456.158C137.49 457.466 136.296 458.573 134.919 459.415C133.543 460.258 132.014 460.818 130.419 461.063C127.148 461.588 123.8 460.842 121.061 458.977C118.323 457.112 116.402 454.27 115.692 451.034C115.374 449.367 115.391 447.654 115.742 445.995C116.092 444.335 116.769 442.761 117.734 441.366C118.698 439.97 119.931 438.781 121.36 437.866C122.789 436.952 124.385 436.331 126.056 436.039Z" fill="#263238"/>
<path d="M93.8107 454.46C93.7104 455.413 88.027 458.957 87.375 458.957C86.7231 458.957 80.8892 455.48 80.6886 454.544C80.488 453.608 85.8372 453.223 87.2079 453.207C88.5786 453.19 93.9445 453.524 93.8107 454.46Z" fill="#263238"/>
<path d="M76.543 461.314C77.4958 462.652 78.4486 463.972 79.5017 465.176C79.9958 465.793 80.5564 466.353 81.1733 466.847C81.4084 467.022 81.6851 467.131 81.9757 467.165C82.248 467.116 82.5021 466.995 82.7112 466.814C83.2364 466.338 83.6723 465.772 83.9983 465.142C84.3697 464.46 84.6882 463.75 84.9512 463.019C85.5163 461.533 85.9744 460.008 86.3219 458.456L86.9738 455.631L87.9433 458.372C88.5944 460.198 89.3997 461.965 90.3505 463.655C90.8017 464.485 91.3336 465.269 91.9385 465.995C92.4573 466.684 93.1661 467.207 93.9779 467.499H94.2453H94.5295C94.738 467.482 94.9448 467.449 95.148 467.399C95.5832 467.287 95.9999 467.112 96.385 466.881C97.2048 466.389 97.9577 465.793 98.6249 465.109C99.9988 463.687 101.225 462.13 102.286 460.462C101.496 462.317 100.455 464.055 99.1933 465.627C98.546 466.443 97.7862 467.164 96.9366 467.767C96.0233 468.484 94.8647 468.814 93.7104 468.686C92.5985 468.412 91.5995 467.798 90.852 466.931C90.1554 466.152 89.5289 465.313 88.9797 464.423C87.9311 462.661 87.0524 460.803 86.3553 458.874L88.0269 458.79C87.6275 460.415 87.1079 462.007 86.4723 463.554C86.1358 464.338 85.7448 465.098 85.3022 465.828C84.8513 466.623 84.2358 467.312 83.4969 467.85C83.0566 468.162 82.5316 468.331 81.9924 468.335C81.4657 468.266 80.9743 468.032 80.5883 467.666C79.9456 467.099 79.3833 466.447 78.9167 465.727C77.995 464.33 77.2005 462.853 76.543 461.314Z" fill="#263238"/>
<path d="M49.9978 455.53C45.8188 455.346 41.6398 455.296 37.4608 455.346C33.2817 455.397 29.1027 455.497 24.9237 455.798C22.8342 455.881 20.7614 456.065 18.6719 456.216C16.5824 456.366 14.5096 456.617 12.4368 456.851C8.27446 457.269 4.07873 457.904 0 458.523C2.03936 458.071 4.07873 457.586 6.15152 457.219C8.22432 456.851 10.2804 456.5 12.3532 456.216C16.5155 455.614 20.7112 455.263 24.8735 454.979C29.0358 454.695 33.2316 454.628 37.4608 454.711C39.5503 454.711 41.6565 454.845 43.746 454.962C45.8355 455.079 47.925 455.246 49.9978 455.53Z" fill="#263238"/>
<path d="M48.3763 458.021C46.5041 458.171 44.6152 458.305 42.743 458.506C40.8708 458.706 38.9819 458.857 37.1097 459.074C33.3653 459.475 29.6208 459.91 25.8932 460.478C24.021 460.712 22.1655 461.013 20.31 461.297L14.7435 462.25L11.9519 462.752L9.17707 463.32C7.32158 463.638 5.49953 464.106 3.64404 464.457C7.25472 463.353 10.9155 462.384 14.6098 461.615C18.3041 460.846 22.0317 460.194 25.7761 459.642C29.5206 459.091 33.2817 458.69 37.0595 458.422C40.8373 458.155 44.5985 457.971 48.3763 458.021Z" fill="#263238"/>
<path d="M49.5299 460.345C47.992 460.662 46.4541 460.963 44.9162 461.314C43.3784 461.665 41.8405 461.966 40.3026 462.334C37.2436 463.053 34.1845 463.755 31.1589 464.54C28.1333 465.326 25.0742 466.112 22.0486 466.948C19.023 467.783 15.9974 468.619 12.9551 469.505C14.4261 468.92 15.8971 468.368 17.3848 467.834C18.8726 467.299 20.3603 466.797 21.8648 466.329C24.8569 465.343 27.8993 464.507 30.9416 463.721C33.9839 462.936 37.0764 462.267 40.1856 461.699C43.2948 461.13 46.3873 460.629 49.5299 460.345Z" fill="#263238"/>
<path d="M146.333 461.966C148.907 461.632 151.498 461.465 154.089 461.264C156.68 461.064 159.288 461.03 161.895 460.98C167.094 460.88 172.293 460.98 177.492 461.281C182.69 461.582 187.872 462.033 193.038 462.752C195.612 463.086 198.186 463.521 200.744 463.955C202.031 464.156 203.301 464.424 204.572 464.691L208.383 465.493C203.251 464.724 198.119 463.922 192.954 463.404C190.38 463.103 187.789 462.869 185.214 462.635C182.64 462.401 180.032 462.234 177.441 462.117C172.276 461.766 167.077 461.665 161.895 461.615C156.713 461.565 151.515 461.682 146.333 461.966Z" fill="#263238"/>
<path d="M148.355 465.041C153.036 465.041 157.716 465.242 162.397 465.593C167.077 465.944 171.741 466.479 176.388 467.08C181.035 467.682 185.666 468.518 190.246 469.488C194.826 470.457 199.39 471.577 203.886 472.831C201.58 472.379 199.323 471.794 197.016 471.376L193.572 470.674L190.129 470.056C187.822 469.621 185.515 469.253 183.209 468.869C180.902 468.485 178.595 468.15 176.271 467.849C171.641 467.181 166.994 466.646 162.347 466.178C160.023 465.927 157.683 465.71 155.36 465.509C153.036 465.308 150.646 465.208 148.355 465.041Z" fill="#263238"/>
<path d="M146.935 467.95C150.829 468.318 154.691 468.953 158.519 469.622C162.347 470.29 166.175 471.193 169.986 472.112C173.797 473.032 177.542 474.102 181.269 475.289C183.142 475.874 184.98 476.492 186.836 477.111C188.691 477.729 190.513 478.448 192.335 479.133C188.574 478.063 184.847 476.943 181.086 475.907C177.324 474.871 173.563 473.868 169.769 472.932C165.974 471.995 162.196 471.093 158.402 470.24C156.496 469.806 154.591 469.421 152.668 469.02C150.746 468.619 148.857 468.301 146.935 467.95Z" fill="#263238"/>
<path d="M58.1051 424.739C58.5174 423.518 59.2099 422.41 60.1271 421.504C61.0444 420.599 62.1609 419.92 63.3874 419.524C64.5769 419.047 65.858 418.844 67.1366 418.928C68.4152 419.011 69.6588 419.381 70.7759 420.008C69.6982 420.593 68.5811 421.101 67.4327 421.53C64.3588 422.776 61.2167 423.848 58.0215 424.739H58.1051Z" fill="#263238"/>
<path d="M140.716 427.346C137.566 426.289 134.479 425.05 131.472 423.635C130.376 423.153 129.314 422.594 128.296 421.964C129.446 421.391 130.711 421.085 131.995 421.067C133.28 421.05 134.553 421.322 135.718 421.864C136.925 422.32 138.009 423.054 138.88 424.006C139.751 424.959 140.386 426.103 140.733 427.346H140.716Z" fill="#263238"/>
<path d="M97.6052 497.554C95.3511 495.318 93.4716 492.733 92.0388 489.899C92.0093 489.851 91.9662 489.813 91.9152 489.789C91.8641 489.766 91.8072 489.758 91.7518 489.767C91.6963 489.776 91.6448 489.801 91.6036 489.84C91.5625 489.878 91.5336 489.927 91.5206 489.982C91.3869 490.651 91.0358 492.573 90.9857 492.874C90.8854 492.707 90.8018 492.54 90.7182 492.372C90.4173 491.804 90.1666 491.219 89.9158 490.617C89.442 489.419 89.0674 488.183 88.7959 486.923C88.5256 485.669 88.3634 484.394 88.3111 483.112C88.3111 481.808 88.3111 480.504 88.4114 479.2C88.4114 479.2 88.3111 479.2 88.2944 479.2C87.9136 480.504 87.7111 481.854 87.6926 483.212C87.6481 484.514 87.7209 485.818 87.9099 487.107C88.1066 488.401 88.4314 489.672 88.8794 490.901C89.1067 491.545 89.369 492.176 89.6651 492.79C89.9123 493.403 90.2629 493.968 90.7015 494.462C91.0358 494.78 91.5373 494.462 91.5206 494.027C91.5039 493.593 91.8549 491.169 91.9218 490.784C92.5028 491.993 93.2028 493.141 94.0113 494.211C94.9873 495.496 96.1092 496.663 97.3545 497.688C97.5384 497.772 97.7055 497.554 97.6052 497.554Z" fill="#263238"/>
<path opacity="0.1" d="M160.291 450.565C164.563 457.532 167.934 465.014 170.32 472.831C171.992 479.517 159.839 487.875 154.975 491.219C157.967 488.477 160.926 485.719 163.651 482.777C165.723 480.286 168.448 477.762 168.883 474.419C168.507 472.014 167.845 469.662 166.91 467.415C164.938 461.949 162.43 455.964 160.357 450.481L160.291 450.565Z" fill="black"/>
<path d="M187.086 532.006C182.49 539.628 171.925 583.993 177.659 594.541C183.392 605.089 235.011 626.736 236.867 628.959C238.722 631.182 247.599 663.043 247.047 663.929C246.495 664.815 237.017 668.844 237.235 670.749C237.402 672.02 260.637 671.134 262.025 671.134C263.412 671.134 265.117 666.27 264.9 666.621C264.683 666.972 290.258 621.236 295.373 612.21C297.897 607.78 288.403 593.906 288.403 590.847C288.403 587.788 310.669 560.59 310.602 546.164C310.602 538.04 297.563 505.076 266.755 500.647C235.948 496.217 197.634 514.521 187.086 532.006Z" fill="#B6B0EB"/>
<path opacity="0.1" d="M249.571 664.515C245.375 666.571 241.614 668.126 240.561 670.065C240.361 670.432 240.712 670.867 241.414 671.352C238.957 671.268 237.285 671.084 237.235 670.75C237.001 668.844 246.495 664.849 247.047 663.93C247.599 663.01 238.689 631.183 236.867 628.96C235.045 626.736 183.376 605.089 177.659 594.541C173.663 587.186 177.659 563.349 181.904 547.034C180.851 554.974 182.573 586.417 189.226 593.221C195.879 600.024 241.531 620.602 243.303 623.092C245.075 625.583 252.313 663.194 249.571 664.515Z" fill="black"/>
<path d="M205.892 613.43C195.862 608.967 184.613 605.072 177.341 596.346C174.984 593.103 175.185 588.807 175.068 585.013C175.553 570.176 178.374 555.509 183.426 541.551C180.3 557.598 176.84 573.913 177.792 590.312C177.87 591.957 178.39 593.551 179.297 594.925C186.067 603.283 196.799 607.73 205.892 613.313V613.43Z" fill="#263238"/>
<path d="M178.31 546.583C178.901 551.222 179.124 555.9 178.979 560.574C177.922 558.41 177.317 556.053 177.202 553.648C177.087 551.242 177.464 548.838 178.31 546.583Z" fill="#263238"/>
<path d="M303.848 509.623C307.935 518.809 311.099 528.379 313.293 538.191C313.755 540.153 313.817 542.188 313.477 544.175C309.448 559.404 300.405 572.86 292.281 586.149C291.679 587.169 289.941 589.86 289.439 590.863C289.289 590.462 289.556 591.365 289.757 591.85C291.947 597.65 295.056 603.3 296.443 609.452C296.541 610.157 296.4 610.875 296.042 611.491C294.668 614.32 293.046 617.022 291.194 619.565C292.74 616.873 294.103 614.081 295.273 611.207C295.532 610.726 295.604 610.166 295.474 609.635C293.518 603.417 290.091 597.767 287.567 591.682C287.425 591.362 287.362 591.012 287.383 590.663C288.207 588.698 289.208 586.812 290.375 585.029C298.015 571.656 306.974 558.501 311.354 543.69C312.19 537.004 309.682 530.451 308.011 523.999C306.724 519.168 305.236 514.404 303.765 509.623H303.848Z" fill="#263238"/>
<path d="M356.37 404.546C358.293 403.183 360.1 401.663 361.77 399.999C361.586 400.367 358.527 406.335 357.39 407.053C356.253 407.772 351.907 411.818 349.951 413.105C336.729 433.365 319.11 458.238 313.293 476.124C308.278 491.403 313.293 502.218 313.293 502.218L294.671 485.301C291.328 480.721 282.184 466.145 285.528 441.438C288.871 416.732 308.679 386.275 289.74 352.358C270.801 318.441 252.012 328.304 224.681 344C224.681 344 252.58 298.516 301.909 297.613C333.904 297.011 360.232 367.687 357.942 395.135C358.402 394.343 358.756 393.495 358.995 392.611C359.429 390.337 359.613 379.522 359.613 379.522C359.613 379.522 362.472 390.02 361.636 394.567C361.051 397.91 357.942 401.621 355.434 404.83L356.37 404.546Z" fill="#B6B0EB"/>
<path d="M286.882 468.401C290.325 475.89 293.752 483.529 294.437 491.804C292.064 483.931 288.72 476.408 286.882 468.401Z" fill="#263238"/>
<path d="M291.061 480.119C291.766 482.555 291.606 485.159 290.609 487.491C290.467 485.024 290.618 482.55 291.061 480.119Z" fill="#263238"/>
<path d="M311.304 485.318L311.621 490.25C311.621 495.264 313.293 499.895 313.711 504.809C310.777 498.757 309.931 491.903 311.304 485.318Z" fill="#263238"/>
<path d="M311.538 494.679C313.217 496.799 314.748 499.033 316.118 501.365C313.875 499.722 312.259 497.364 311.538 494.679Z" fill="#263238"/>
<path opacity="0.1" d="M294.654 485.268C291.311 480.654 282.184 466.095 285.528 441.438C288.871 416.782 308.679 386.275 289.74 352.358C270.801 318.441 252.012 328.304 224.681 344C224.681 344 245.576 309.933 283.187 300.188C269.547 305.018 256.107 319.812 250.206 326.716C250.206 326.716 273.492 323.373 283.187 331.162C292.883 338.952 306.673 369.242 310.618 385.373C314.563 401.504 290.559 435.254 288.72 451.802C286.932 467.934 294.237 484.349 294.654 485.268Z" fill="black"/>
</svg>
