<svg width="618" height="560" viewBox="0 0 618 560" fill="none" xmlns="http://www.w3.org/2000/svg">
<path d="M528.064 109.999C528.286 107.64 528.814 105.308 529.202 102.963C530.756 97.4123 532.269 91.8615 535.183 86.7825C535.973 85.3912 536.903 84.0845 537.959 82.883C541.261 79.2056 545.216 78.7199 549.435 81.2456C552.5 83.1958 555.09 85.8086 557.012 88.8918C561.397 95.5111 564.408 102.769 563.853 110.762C563.71 114.676 562.64 118.5 560.732 121.921C558.824 125.342 556.131 128.261 552.876 130.44C545.133 135.685 536.016 133.52 531.242 125.472C528.537 120.793 527.422 115.364 528.064 109.999Z" fill="#EBEBEB"/>
<path d="M487.002 115.965C482.45 107.639 482.284 98.9798 487.002 90.6536C491.324 82.9048 498.311 76.9878 506.666 74.0012C508.172 73.4592 509.745 73.1231 511.342 73.0021C513.246 72.7132 515.19 73.1252 516.813 74.1613C518.436 75.1975 519.628 76.7875 520.168 78.6361C521.52 82.7386 521.923 87.0943 521.347 91.3752C521.07 94.6086 520.584 97.828 520.196 101.089C519.141 107.001 517.268 112.538 513.257 117.159C510.8 120.158 507.498 122.348 503.779 123.445C500.549 124.34 497.108 124.084 494.047 122.719C490.986 121.354 488.495 118.966 487.002 115.965Z" fill="#EBEBEB"/>
<path d="M462.329 146.634C454.974 141.236 452.004 133.742 452.768 124.722C452.916 123.726 453.12 122.739 453.378 121.766C454.509 115.7 457.417 110.107 461.732 105.697C462.171 105.281 462.634 104.891 463.12 104.531C467.81 100.937 472.293 101.381 476.164 105.919C478.874 109.272 480.888 113.13 482.09 117.27C483.852 122.627 485.365 128.039 484.657 133.798C484.315 137.291 483.077 140.637 481.063 143.512C476.47 149.798 468.671 151.255 462.329 146.634Z" fill="#EBEBEB"/>
<path d="M554.056 184.087C553.973 184.948 553.82 185.808 553.653 186.863C551.572 195.189 545.896 199.935 537.57 201.739C528.772 203.64 520.543 201.656 512.911 197.243C508.053 194.331 502.368 193.111 496.744 193.774C488.098 194.703 479.925 193.205 472.695 188.153C466.631 183.921 462.981 178.19 463.342 170.544C463.486 167.697 464.209 164.91 465.466 162.352C466.723 159.794 468.489 157.52 470.655 155.667C473.07 153.514 475.73 151.651 478.579 150.117C484.795 146.796 490.421 142.473 495.231 137.322C497.511 134.828 500.277 132.827 503.359 131.44C506.44 130.054 509.773 129.312 513.152 129.26C516.53 129.208 519.884 129.847 523.007 131.138C526.13 132.429 528.956 134.344 531.311 136.767C534.378 139.887 536.549 143.774 537.598 148.021C538.976 153.642 541.771 158.816 545.716 163.05C550.733 168.12 553.699 174.867 554.042 181.992C554.097 182.689 554.102 183.39 554.056 184.087Z" fill="#EBEBEB"/>
<path d="M582.074 148.354C579.839 158.235 574.58 164.507 565.851 167.546C557.123 170.585 548.88 165.798 547.492 156.667C547.016 153.488 547.316 150.241 548.366 147.203C550.781 139.973 555.735 134.547 561.23 129.579C563.214 127.825 565.426 126.35 567.808 125.194C572.72 122.793 576.995 124.278 579.659 129.038C581.822 133.201 582.823 137.87 582.559 142.554C582.462 144.788 582.185 147.008 582.074 148.354Z" fill="#EBEBEB"/>
<path d="M197.917 53.5745C196.793 50.1191 196.113 46.525 195.225 43.0002C194.017 34.2438 192.727 25.5013 193.754 16.6339C194.018 14.2013 194.529 11.8021 195.28 9.47337C197.667 2.31283 202.899 -0.837242 210.378 0.189655C215.859 1.0598 221.074 3.14614 225.643 6.29553C235.829 12.9287 244.446 21.1578 248.582 32.8145C252.717 44.4712 251.982 56.4054 245.154 67.1045C237.508 79.1775 223.381 81.6893 211.78 73.3076C205.14 68.4084 200.274 61.4822 197.917 53.5745Z" fill="#DBDBDB"/>
<path d="M143.949 86.9347C132.473 77.984 126.977 65.9804 128.435 51.4789C129.757 37.945 135.939 25.3488 145.836 16.0232C147.619 14.3487 149.622 12.9248 151.789 11.7907C157.659 8.64065 162.891 9.5149 167.623 14.3163C172.355 19.1178 174.909 25.2098 177.018 31.4683C178.614 36.1587 179.877 40.9741 181.292 45.7339C183.429 54.6707 184.178 63.5658 181.375 72.4887C179.765 78.1942 176.466 83.2787 171.911 87.0734C163.821 93.6095 152.678 93.7483 143.949 86.9347Z" fill="#DBDBDB"/>
<path d="M128.018 144.996C114.405 141.915 105.676 133.201 101.263 120.017C100.856 118.535 100.541 117.029 100.32 115.507C98.474 106.14 98.7099 96.8983 102.332 87.9199C102.668 87.0794 103.052 86.2593 103.484 85.4636C107.883 77.5676 114.433 75.4583 122.592 79.3994C128.449 82.4512 133.639 86.6405 137.857 91.7222C143.588 98.1611 148.959 104.836 151.526 113.329C153.149 118.42 153.44 123.843 152.372 129.079C149.791 140.819 139.689 147.646 128.018 144.996Z" fill="#DBDBDB"/>
<path d="M279.513 141.638C279.93 142.914 280.235 144.205 280.693 145.884C282.788 158.734 277.765 168.961 267.177 176.566C256.006 184.587 243.239 186.807 229.834 185.267C221.247 184.152 212.534 185.909 205.049 190.263C193.504 196.826 181.125 199.699 167.901 197.021C156.799 194.773 148.265 188.93 144.06 178.023C142.518 173.944 141.829 169.592 142.034 165.237C142.239 160.881 143.335 156.613 145.253 152.698C147.322 148.192 149.911 143.944 152.969 140.042C159.679 131.587 164.957 122.089 168.595 111.927C170.264 107.03 172.919 102.528 176.396 98.6968C179.873 94.8659 184.097 91.788 188.81 89.6529C193.522 87.5179 198.622 86.3709 203.794 86.2828C208.967 86.1948 214.103 87.1674 218.885 89.1409C225.099 91.6271 230.52 95.7573 234.566 101.089C239.931 108.136 247.011 113.692 255.132 117.228C265.262 121.71 273.435 128.482 278.306 138.737C278.772 139.676 279.175 140.645 279.513 141.638Z" fill="#DBDBDB"/>
<path d="M297.04 74.4589C299.926 89.7236 296.374 101.672 285.938 111.261C275.308 121.072 261.057 119.157 253.535 107.195C250.931 103 249.375 98.2405 248.998 93.3178C247.985 81.7027 251.634 71.1146 256.325 60.7623C258.032 57.0919 260.236 53.6738 262.875 50.6044C268.301 44.2487 275.197 43.6659 281.831 48.7865C287.673 53.241 291.392 59.3052 294.14 65.9662C295.499 69.1718 296.388 72.5023 297.04 74.4589Z" fill="#DBDBDB"/>
<path d="M92.9509 279.77C91.7853 277.702 90.8833 275.495 89.8703 273.345C87.9691 267.877 86.0263 262.451 85.5406 256.692C85.3741 255.101 85.3741 253.496 85.5406 251.905C86.1512 247.006 89.0931 244.314 94.0195 244.022C97.6498 243.87 101.268 244.534 104.608 245.965C111.976 248.907 118.568 253.084 122.648 260.023C124.756 263.322 126.055 267.074 126.438 270.971C126.822 274.868 126.279 278.8 124.854 282.448C121.496 291.176 112.767 294.59 104.247 290.705C99.3957 288.38 95.4314 284.543 92.9509 279.77Z" fill="#EBEBEB"/>
<path d="M62.6298 308.093C54.1232 303.819 49.072 296.838 48.1422 287.277C47.2426 278.425 49.5901 269.548 54.7477 262.299C55.6729 260.992 56.7751 259.819 58.0226 258.815C59.4191 257.488 61.2507 256.714 63.1759 256.637C65.101 256.561 66.9884 257.187 68.4859 258.399C71.9245 260.977 74.7374 264.297 76.7149 268.113C78.3386 270.888 79.7679 273.844 81.2943 276.717C83.8061 282.17 85.4575 287.818 84.7775 293.869C84.472 297.725 83.0224 301.402 80.6144 304.429C78.5087 307.033 75.562 308.824 72.2803 309.492C68.9986 310.161 65.5865 309.666 62.6298 308.093Z" fill="#EBEBEB"/>
<path d="M59.8682 347.364C50.751 347.128 44.0345 342.674 39.5245 334.875C39.0755 333.973 38.6771 333.046 38.3311 332.099C35.8279 326.466 35.0458 320.219 36.083 314.143C36.1904 313.561 36.334 312.986 36.5132 312.422C38.3172 306.788 42.2444 304.609 47.9756 306.08C52.1021 307.287 55.9501 309.296 59.2992 311.992C63.7954 315.378 68.125 318.93 70.831 324.079C72.5256 327.135 73.4049 330.576 73.3844 334.07C73.3011 341.897 67.6948 347.558 59.8682 347.364Z" fill="#EBEBEB"/>
<path d="M156.577 325.772C157.007 326.522 157.354 327.313 157.868 328.339C160.865 336.305 158.95 343.507 153.149 349.738C147.016 356.315 139.12 359.382 130.322 360.118C124.672 360.505 119.307 362.744 115.057 366.487C108.507 372.191 100.93 375.618 92.1045 375.605C84.7081 375.605 78.4773 372.926 74.3836 366.473C72.8691 364.058 71.8672 361.356 71.4399 358.537C71.0126 355.718 71.1691 352.841 71.8996 350.085C72.6489 346.932 73.7619 343.877 75.2162 340.981C78.432 334.701 80.5977 327.937 81.6274 320.957C82.0681 317.599 83.1927 314.367 84.9316 311.461C86.6705 308.555 88.9868 306.037 91.7375 304.061C94.4881 302.086 97.6146 300.695 100.924 299.976C104.233 299.256 107.655 299.223 110.977 299.878C115.284 300.677 119.293 302.629 122.578 305.526C126.924 309.359 132.179 312.015 137.843 313.241C144.851 314.545 151.129 318.396 155.467 324.051C155.873 324.601 156.244 325.175 156.577 325.772Z" fill="#EBEBEB"/>
<path d="M159.214 280.45C163.016 289.831 162.281 297.977 156.855 305.429C151.429 312.88 141.909 313.685 135.567 306.983C133.352 304.629 131.742 301.771 130.877 298.657C128.74 291.329 129.711 284.044 131.39 276.842C132.011 274.267 132.987 271.792 134.291 269.487C136.955 264.7 141.229 263.478 146.211 265.879C150.361 268.06 153.846 271.32 156.3 275.315C157.521 277.258 158.52 279.27 159.214 280.45Z" fill="#EBEBEB"/>
<path d="M582.531 364.308C582.531 366.501 590.663 518.19 593.452 562.375H465.548C472.292 530.846 504.959 360.825 505.542 358.3C506.638 353.637 492.109 334.612 500.13 323.26C508.456 311.395 515.394 315.1 517.892 312.159C520.39 309.217 522.583 295.895 535.224 292.828C545.924 290.233 545.938 298.268 550.489 298.531C553.181 298.684 554.042 296.353 556.734 294.771H556.803C556.819 294.764 556.835 294.761 556.852 294.761C556.869 294.761 556.885 294.764 556.9 294.771C558.732 293.758 561.383 293.105 565.893 293.744C577.646 295.409 580.672 317.723 582.684 320.624C584.696 323.524 593.341 321.373 596.186 334.043C600.335 352.208 582.462 361.672 582.531 364.308Z" fill="#455A64"/>
<path opacity="0.2" d="M532.796 439.369C536.82 432.361 540.206 424.909 541.358 417.471C541.455 416.874 542.482 416.721 542.829 417.263C543.759 418.734 546.381 422.813 546.756 423.507C546.867 423.049 546.978 422.591 547.061 422.12C547.36 420.587 547.578 419.04 547.714 417.485C547.98 414.371 547.947 411.239 547.616 408.132C547.281 405.022 546.635 401.954 545.688 398.973C544.716 395.948 543.342 393.047 542.093 390.091C542.093 389.953 542.315 389.856 542.413 389.98C544.509 392.639 546.206 395.589 547.45 398.737C548.694 401.665 549.625 404.716 550.225 407.84C550.812 410.973 551.026 414.163 550.864 417.346C550.784 418.997 550.608 420.642 550.336 422.272C550.2 423.923 549.728 425.529 548.949 426.99C548.352 427.962 546.645 427.448 546.354 426.63C546.187 426.13 543.037 420.316 542.538 419.469C541.975 422.724 541.044 425.903 539.762 428.947C538.134 432.744 536.026 436.316 533.49 439.577C533.212 439.91 532.615 439.674 532.796 439.369Z" fill="black"/>
<path d="M552.113 322.691C552.113 321.206 552.238 319.722 552.321 318.251C552.722 314.668 553.58 311.152 554.874 307.787C555.247 306.868 555.712 305.99 556.262 305.165C556.958 304.022 558.069 303.193 559.362 302.851C560.656 302.51 562.032 302.682 563.201 303.333C565.237 304.312 567.03 305.735 568.446 307.496C571.624 311.284 573.997 315.531 574.247 320.568C574.438 323.007 574.047 325.456 573.106 327.715C572.165 329.973 570.701 331.975 568.835 333.557C567.872 334.455 566.726 335.133 565.476 335.546C564.226 335.959 562.902 336.096 561.594 335.949C560.286 335.801 559.025 335.372 557.899 334.691C556.773 334.01 555.807 333.093 555.069 332.003C553.102 329.3 552.065 326.033 552.113 322.691Z" fill="#263238"/>
<path d="M527.079 329.31C525.4 327.096 524.343 324.474 524.019 321.714C523.694 318.955 524.113 316.158 525.233 313.615C527.36 308.493 531.269 304.313 536.237 301.848C537.117 301.412 538.05 301.095 539.013 300.904C540.171 300.588 541.405 300.704 542.485 301.23C543.565 301.755 544.417 302.656 544.883 303.763C546.017 306.208 546.577 308.88 546.52 311.575C546.59 313.601 546.52 315.628 546.52 317.654C546.463 321.366 545.373 324.99 543.37 328.117C542.071 330.153 540.184 331.745 537.958 332.682C536.034 333.463 533.899 333.553 531.916 332.938C529.933 332.324 528.224 331.042 527.079 329.31Z" fill="#263238"/>
<path d="M513.965 350.085C511.657 348.822 509.739 346.952 508.419 344.677C507.098 342.402 506.424 339.809 506.471 337.179C506.492 336.552 506.548 335.927 506.638 335.306C506.925 331.471 508.339 327.806 510.704 324.773C510.935 324.484 511.186 324.211 511.453 323.955C514.104 321.387 516.907 321.346 519.627 323.857C521.577 325.743 523.125 328.004 524.178 330.504C525.85 333.606 526.798 337.045 526.954 340.565C526.983 342.744 526.453 344.894 525.413 346.81C524.916 347.815 524.215 348.705 523.354 349.422C522.493 350.14 521.491 350.67 520.413 350.979C519.335 351.287 518.205 351.367 517.095 351.213C515.984 351.059 514.918 350.675 513.965 350.085Z" fill="#263238"/>
<path d="M573.511 366.765C573.511 367.306 573.511 367.847 573.511 368.569C572.817 373.828 569.639 377.228 564.602 378.935C559.458 380.606 553.867 380.234 548.99 377.894C545.769 376.444 542.16 376.098 538.721 376.909C533.589 378.235 528.147 377.602 523.457 375.132C521.476 374.208 519.778 372.772 518.538 370.971C517.299 369.171 516.563 367.072 516.407 364.891C516.292 363.121 516.541 361.346 517.137 359.676C517.734 358.005 518.666 356.474 519.876 355.177C521.218 353.665 522.731 352.314 524.386 351.153C528.012 348.653 531.2 345.573 533.823 342.036C535.056 340.333 536.622 338.899 538.427 337.821C540.232 336.743 542.237 336.044 544.321 335.766C546.405 335.488 548.524 335.637 550.548 336.205C552.572 336.772 554.46 337.746 556.095 339.066C558.223 340.779 559.844 343.038 560.786 345.602C562.048 348.99 564.155 351.999 566.906 354.345C570.361 357.122 572.673 361.074 573.4 365.446C573.456 365.918 573.497 366.334 573.511 366.765Z" fill="#263238"/>
<path d="M588.332 342.618C587.652 348.904 584.835 353.165 579.645 355.676C578.514 356.306 577.253 356.663 575.96 356.719C574.668 356.776 573.38 356.53 572.198 356.002C571.017 355.474 569.975 354.678 569.155 353.678C568.335 352.677 567.76 351.499 567.475 350.237C566.955 348.301 566.912 346.267 567.35 344.311C568.335 339.648 571.013 335.985 574.066 332.46C575.173 331.233 576.443 330.164 577.841 329.282C578.426 328.835 579.099 328.518 579.817 328.353C580.534 328.187 581.278 328.177 582 328.323C582.721 328.469 583.403 328.767 584 329.199C584.597 329.63 585.094 330.183 585.459 330.823C587.104 333.242 588.063 336.062 588.235 338.982C588.36 340.37 588.304 341.772 588.332 342.618Z" fill="#263238"/>
<path d="M556.97 294.632C556.893 294.668 556.819 294.71 556.748 294.757L556.97 294.632Z" fill="black"/>
<path d="M523.72 462.876C523.72 462.599 523.72 462.321 523.79 461.961C523.948 460.754 524.455 459.62 525.249 458.698C526.043 457.776 527.089 457.106 528.258 456.77C529.472 456.384 530.753 456.251 532.02 456.38C533.288 456.509 534.516 456.897 535.627 457.52C537.103 458.319 538.819 458.555 540.456 458.186C541.671 457.88 542.934 457.822 544.172 458.015C545.409 458.208 546.595 458.649 547.658 459.31C548.599 459.853 549.38 460.634 549.923 461.574C550.466 462.514 550.752 463.581 550.753 464.667C550.787 466.497 550.117 468.271 548.879 469.621C548.249 470.404 547.494 471.079 546.645 471.619C543.273 473.506 541.011 473.603 536.362 473.007C531.714 472.41 529.563 471.73 526.565 469.315C525.736 468.585 525.062 467.695 524.585 466.698C524.108 465.702 523.838 464.619 523.79 463.515C523.734 463.32 523.72 463.098 523.72 462.876Z" fill="#263238"/>
<path d="M158.45 562.374H39.8714C38.2478 505.645 36.0552 428.517 36.0414 426.685C36.0414 421.911 17.3629 406.868 22.4558 393.949C27.8539 380.461 35.3753 382.403 37.096 378.948C38.8168 375.493 37.7899 362.046 49.3494 356.065C59.0633 351.014 61.0477 358.84 65.5161 357.994C68.1666 357.508 68.458 355.024 70.6922 352.859L70.8865 352.679C72.413 351.291 74.8414 350.028 79.3515 349.584C91.1608 348.391 99.4037 369.359 102.04 371.69C104.677 374.022 112.573 369.9 118.346 381.529C126.672 398.306 111.574 411.753 112.254 414.293C112.795 416.069 141.784 508.989 158.45 562.374Z" fill="#807CA5"/>
<path opacity="0.4" d="M158.45 562.374H39.8714C38.2478 505.645 36.0552 428.517 36.0414 426.685C36.0414 421.911 17.3629 406.868 22.4558 393.949C27.8539 380.461 35.3753 382.403 37.096 378.948C38.8168 375.493 37.7899 362.046 49.3494 356.065C59.0633 351.014 61.0477 358.84 65.5161 357.994C68.1666 357.508 68.458 355.024 70.6922 352.859L70.8865 352.679C72.413 351.291 74.8414 350.028 79.3515 349.584C91.1608 348.391 99.4037 369.359 102.04 371.69C104.677 374.022 112.573 369.9 118.346 381.529C126.672 398.306 111.574 411.753 112.254 414.293C112.795 416.069 141.784 508.989 158.45 562.374Z" fill="black"/>
<path opacity="0.2" d="M99.4039 494.918C93.9918 488.909 89.121 482.345 86.4289 475.296C86.2068 474.741 85.1661 474.81 84.944 475.407C84.3473 477.044 82.6543 481.637 82.4184 482.345C82.2103 481.929 82.0021 481.512 81.8217 481.096C81.2099 479.655 80.6771 478.182 80.2258 476.683C79.3069 473.703 78.6795 470.64 78.3525 467.538C78.0333 464.424 78.0333 461.286 78.3525 458.171C78.6577 455.007 79.3932 451.885 79.9899 448.721C79.9899 448.596 79.7263 448.555 79.6569 448.721C78.1681 451.76 77.1303 455 76.5762 458.338C75.9874 461.461 75.7408 464.639 75.8407 467.816C75.9344 470.996 76.4001 474.153 77.2284 477.225C77.6418 478.81 78.1421 480.371 78.7271 481.901C79.2103 483.483 80.008 484.951 81.0723 486.217C81.8633 487.049 83.4314 486.217 83.5286 485.315C83.598 484.801 85.4575 478.446 85.7628 477.516C86.9961 480.575 88.5645 483.489 90.4393 486.203C92.8208 489.567 95.6184 492.617 98.7655 495.278C99.1124 495.528 99.6398 495.181 99.4039 494.918Z" fill="black"/>
<path d="M72.8711 381.057C72.4964 379.67 72.3021 378.143 72.0246 376.686C71.5667 373.111 71.5667 369.492 72.0246 365.918C72.1871 364.932 72.4475 363.965 72.8017 363.031C73.2172 361.751 74.1137 360.682 75.302 360.051C76.4904 359.419 77.8777 359.274 79.1712 359.645C81.3822 360.108 83.4629 361.056 85.2632 362.421C89.2598 365.349 92.5764 368.901 94.0057 373.744C94.762 376.065 94.9589 378.532 94.5802 380.944C94.2016 383.356 93.2582 385.644 91.8271 387.621C91.1064 388.723 90.1558 389.655 89.0407 390.354C87.9255 391.053 86.6721 391.503 85.3668 391.671C84.0614 391.84 82.735 391.724 81.4787 391.332C80.2223 390.939 79.0659 390.279 78.0888 389.397C75.4939 387.254 73.6633 384.328 72.8711 381.057Z" fill="#FF9BBC"/>
<path d="M50.1403 393.436C47.9771 391.688 46.3214 389.393 45.3453 386.789C44.3691 384.186 44.1082 381.368 44.5895 378.629C45.4345 373.146 48.2401 368.156 52.4855 364.585C53.2482 363.937 54.0984 363.4 55.0111 362.99C56.0624 362.407 57.2896 362.227 58.464 362.482C59.6383 362.738 60.6799 363.411 61.3946 364.377C63.0858 366.48 64.2684 368.945 64.8499 371.579C65.3911 373.522 65.8074 375.52 66.2376 377.491C67.0645 381.109 66.8675 384.886 65.6687 388.398C64.8929 390.682 63.4409 392.676 61.5056 394.116C59.8246 395.334 57.7735 395.932 55.7014 395.808C53.6292 395.684 51.6641 394.845 50.1403 393.436Z" fill="#FF9BBC"/>
<path d="M42.3278 416.721C39.46 415.977 36.8959 414.356 34.993 412.085C33.0901 409.814 31.9431 407.006 31.7119 404.052C31.0563 400.264 31.5392 396.366 33.0996 392.853C33.2561 392.515 33.4322 392.186 33.6269 391.868C35.5974 388.759 38.3173 388.052 41.5507 389.842C43.8626 391.221 45.8768 393.047 47.4761 395.212C49.8268 397.83 51.5621 400.94 52.5551 404.315C53.1034 406.427 53.1034 408.643 52.5551 410.754C52.3165 411.841 51.8551 412.867 51.2002 413.766C50.5452 414.666 49.7108 415.42 48.7498 415.98C47.7887 416.541 46.7218 416.896 45.6164 417.024C44.5111 417.152 43.3913 417.049 42.3278 416.721Z" fill="#FF9BBC"/>
<path d="M104.122 418.789C104.261 419.316 104.358 419.857 104.51 420.551C105.065 425.838 102.79 429.89 98.3074 432.749C93.7016 435.585 88.1843 436.548 82.89 435.441C79.4164 434.794 75.8265 435.311 72.6766 436.912C68.0033 439.426 62.5612 440.109 57.4119 438.827C55.2614 438.396 53.2659 437.396 51.6331 435.932C50.0003 434.467 48.79 432.592 48.1282 430.501C47.5904 428.804 47.4066 427.014 47.588 425.243C47.7694 423.472 48.3122 421.757 49.1828 420.204C50.1281 418.416 51.2783 416.744 52.6104 415.222C55.5149 411.926 57.8589 408.176 59.5489 404.121C60.3417 402.163 61.5273 400.388 63.0326 398.906C64.5379 397.425 66.3308 396.267 68.3009 395.505C70.2709 394.743 72.3762 394.393 74.4868 394.476C76.5975 394.559 78.6687 395.074 80.5726 395.989C83.0765 397.152 85.2126 398.981 86.7478 401.276C88.7725 404.27 91.5287 406.696 94.7549 408.325C98.7903 410.202 101.985 413.511 103.719 417.609C103.879 417.993 104.014 418.387 104.122 418.789Z" fill="#FF9BBC"/>
<path d="M112.795 391.826C113.628 398.084 111.907 402.927 107.452 406.563C106.504 407.44 105.365 408.085 104.124 408.446C102.884 408.806 101.577 408.874 100.306 408.642C99.0354 408.411 97.8359 407.887 96.8026 407.111C95.7692 406.336 94.9304 405.331 94.3524 404.176C93.3945 402.434 92.8664 400.488 92.8121 398.501C92.6594 393.755 94.3941 389.508 96.5311 385.415C97.3126 383.957 98.2883 382.613 99.4314 381.418C99.8951 380.846 100.475 380.38 101.134 380.051C101.792 379.721 102.512 379.536 103.248 379.507C103.983 379.478 104.716 379.606 105.398 379.883C106.08 380.16 106.695 380.579 107.203 381.113C109.368 383.078 110.964 385.589 111.824 388.384C112.282 389.633 112.573 391.007 112.795 391.826Z" fill="#FF9BBC"/>
<path d="M79.6986 520.48C79.6015 520.216 79.5321 519.952 79.4211 519.606C79.1361 518.422 79.2023 517.182 79.6114 516.036C80.0205 514.89 80.7549 513.888 81.7247 513.153C82.7156 512.355 83.8603 511.769 85.0874 511.432C86.3146 511.096 87.5979 511.015 88.8574 511.196C90.5279 511.412 92.2196 511.012 93.6172 510.072C94.6398 509.351 95.797 508.843 97.0201 508.578C98.2431 508.313 99.5069 508.298 100.736 508.532C101.809 508.7 102.819 509.148 103.664 509.83C104.509 510.512 105.16 511.404 105.551 512.417C106.231 514.119 106.231 516.017 105.551 517.718C105.237 518.676 104.768 519.576 104.164 520.383C101.68 523.352 99.6121 524.254 95.0743 525.406C90.5365 526.558 88.2607 526.655 84.5972 525.503C83.5541 525.123 82.5985 524.537 81.7878 523.778C80.977 523.02 80.3278 522.106 79.879 521.09C79.8051 520.891 79.7448 520.687 79.6986 520.48Z" fill="#FF9BBC"/>
<path d="M187.536 562.652L205.993 501.094C205.993 501.094 156.771 483.873 144.462 458.95C132.153 434.027 142.311 305.748 154.62 268.516C166.929 231.284 217.386 183.602 285.369 166.991C353.353 150.381 423.501 182.95 449.645 215.866C475.79 248.782 520.557 357.786 523.332 388.857C526.108 419.927 476.261 456.785 476.261 456.785L508.414 562.666L187.536 562.652Z" fill="#807CA5"/>
<g opacity="0.1">
<path d="M205.992 501.094C213.542 501.968 220.799 504.036 228.196 505.646C232.595 506.534 237.077 507.033 241.545 508.019C229.32 510.128 216.927 506.478 206.006 501.08L205.992 501.094Z" fill="black"/>
<path d="M445.551 475.643C451.699 471.216 458.429 467.858 464.979 464.084C468.865 461.78 472.431 459.199 476.303 456.771C468.99 466.762 457.194 472.229 445.593 475.643H445.551Z" fill="black"/>
</g>
<path opacity="0.45" d="M441.652 562.652C441.652 562.652 417.201 511.404 399.202 501.094C381.204 490.783 296.318 496.112 278.75 520.327C264.54 539.908 256.547 562.652 256.547 562.652H441.652Z" fill="white"/>
<path opacity="0.45" d="M338.476 492.143C269.605 500.747 233.261 443.06 237.632 409.381C242.919 368.666 301.009 351.736 295.305 305.997C291.864 278.493 270.632 272.928 268.758 257.941C265.872 234.864 287.59 194.357 301.078 192.719C314.566 191.082 345.568 224.969 348.454 248.047C350.327 263.034 331.108 273.65 334.577 301.154C340.294 346.879 400.77 349.016 415.91 387.192C428.427 418.692 407.362 483.54 338.476 492.143Z" fill="white"/>
<path d="M240.81 328.922C212.224 332.488 217.733 376.909 246.361 373.328C274.989 369.748 269.425 325.342 240.81 328.922Z" fill="#263238"/>
<path d="M216.623 309.689C217.427 298.323 232.581 291.08 241.518 298.587C237.355 299.364 233.497 299.753 229.709 301.363C224.838 303.319 221.022 306.344 216.623 309.605V309.689Z" fill="#263238"/>
<path d="M411.775 285.251C406.71 283.184 402.255 281.185 397.065 280.478C392.985 279.825 389.1 280.394 384.923 280.658C391.792 271.124 408.139 274.427 411.775 285.251Z" fill="#263238"/>
<path d="M392.583 309.966C364.01 313.532 369.506 357.953 398.134 354.372C426.762 350.792 421.197 306.386 392.583 309.966Z" fill="#263238"/>
<path d="M347.177 403.872C345.928 412.49 343.833 424.924 330.081 426.644C316.329 428.365 311.236 416.819 307.878 408.785C307.878 408.785 315.01 411.31 319.285 407.674C323.559 404.039 324.086 378.824 324.086 378.824C324.086 378.824 330.789 403.137 335.826 405.621C340.863 408.105 347.177 403.872 347.177 403.872Z" fill="#FF9BBC"/>
<path d="M329.012 418.012C325.532 405.552 323.919 392.645 324.225 379.712C327.7 392.173 329.313 405.079 329.012 418.012Z" fill="#263238"/>
<path d="M353.394 357.633C353.811 360.991 350.771 364.905 349.481 366.639C346.775 370.192 340.96 372.037 339.018 370.206C336.756 368.096 342.806 366.154 342.015 363.947C341.432 362.296 339.24 359.784 336.242 360.728C333.245 361.671 335.451 369.984 334.41 372.773C333.617 374.802 332.3 376.585 330.594 377.94C328.888 379.296 326.853 380.175 324.697 380.488H324.391C322.221 380.719 320.029 380.37 318.037 379.478C316.046 378.586 314.326 377.182 313.054 375.409C311.361 372.967 311.486 364.308 308.322 364.183C305.158 364.058 303.673 366.958 303.506 368.721C303.284 371.052 309.626 371.496 307.961 374.05C306.573 376.298 300.426 375.937 296.943 373.161C295.263 371.774 291.392 368.749 290.934 365.404C290.365 360.922 298.788 350.417 320.298 347.739H320.603C342.098 345.047 352.839 353.151 353.394 357.633Z" fill="#263238"/>
<path d="M287.603 388.995C289.277 391.41 291.172 393.664 293.265 395.726C297.234 399.75 301.439 403.719 306.656 405.911C310.153 407.299 314.122 408.687 317.411 406.827C319.84 404.593 320.367 399.597 321.213 396.198C322.296 390.522 323.101 384.707 324.1 378.865C325.071 386.553 326.029 404.094 320.27 409.853C315.76 413.308 309.418 411.587 305.005 409.339C299.454 406.564 295.291 401.846 291.808 396.85C290.044 394.454 288.642 391.812 287.645 389.009L287.603 388.995Z" fill="#263238"/>
<path d="M361.984 379.712C361.693 382.685 360.963 385.598 359.819 388.357C357.682 393.991 354.754 399.639 350.105 403.622C346.414 406.883 340.683 410.116 335.479 407.868C328.541 403.705 325.085 386.47 324.128 378.727C326.542 384.152 328.749 389.578 331.191 394.81C332.842 397.905 334.591 402.623 337.505 404.177C341.127 405.121 344.652 402.859 347.691 400.652C352.229 397.238 355.309 392.326 358.168 387.483C359.697 384.993 360.984 382.363 362.012 379.629L361.984 379.712Z" fill="#263238"/>
<path d="M360.43 442.741C353.492 446.224 346.054 449.055 338.796 449.68C338.213 449.68 338.005 450.734 338.504 451.067C339.892 452.053 343.708 454.814 344.305 455.23C343.861 455.314 343.417 455.397 342.917 455.452C341.422 455.655 339.916 455.776 338.407 455.813C335.387 455.886 332.367 455.672 329.387 455.175C326.403 454.677 323.478 453.872 320.659 452.774C317.786 451.678 315.108 450.179 312.332 448.791C312.208 448.791 312.096 449 312.208 449.097C314.655 451.277 317.409 453.086 320.381 454.467C323.138 455.82 326.032 456.876 329.013 457.617C332.001 458.358 335.065 458.749 338.144 458.783C339.747 458.792 341.349 458.718 342.945 458.561C344.547 458.523 346.123 458.159 347.58 457.492C348.551 456.965 348.149 455.286 347.372 454.967C346.9 454.772 341.474 451.386 340.683 450.873C343.855 450.517 346.978 449.809 349.995 448.764C353.752 447.408 357.32 445.575 360.61 443.31C360.888 443.171 360.694 442.588 360.43 442.741Z" fill="#263238"/>
<path opacity="0.1" d="M187.537 562.652L205.993 501.094C205.993 501.094 156.771 483.873 144.462 458.95C134.665 439.105 139.106 353.79 147.529 301.029C147.238 321.845 146.322 426.019 163.849 450.79C181.375 475.56 215.998 491.033 261.224 501.094C261.224 501.094 241.518 521.243 241.518 537.396C241.518 548.29 257.102 562.652 322.157 562.652H187.537Z" fill="black"/>
<path opacity="0.1" d="M477.732 461.6C477.732 461.6 484.102 523.241 481.646 538.006C479.189 552.771 426.887 562.652 426.887 562.652H508.414L477.732 461.6Z" fill="black"/>
<path d="M247.596 180.022C241.837 181.756 232.914 177.607 228.765 173.153C224.616 168.698 217.067 152.989 217.067 152.989C217.067 152.989 214.763 167.449 215.998 174.221C216.626 178.082 218.095 181.758 220.3 184.99C214.508 181.926 209.466 177.618 205.535 172.375C199.984 164.382 196.612 159.151 188.882 157.763C181.153 156.375 158.728 188.528 141.048 199.297C123.369 210.065 104.968 215.602 98.2795 226.066C91.5908 236.529 92.132 285.737 102.901 315.281C113.669 344.825 142.575 374.952 155.494 370.345C168.414 365.737 160.643 331.933 180.334 289.483C195.46 256.872 216.414 242.371 216.414 242.371L247.596 180.022Z" fill="#807CA5"/>
<path opacity="0.1" d="M212.432 245.577C205.618 251.461 191.422 265.616 180.362 289.484C160.684 331.934 168.455 365.738 155.536 370.345C142.616 374.952 113.697 344.812 102.928 315.24C109.242 329.117 138.884 356.454 147.848 349.696C154.787 344.478 159.866 308.468 170.773 288.166C181.417 268.544 210.558 246.909 212.432 245.577Z" fill="black"/>
<path d="M247.596 180.022C240.658 181.784 232.262 177.704 227.627 172.459C225.408 169.485 223.4 166.36 221.618 163.106C219.8 159.886 218.066 156.625 216.387 153.322L217.774 153.114C216.567 163.48 214.708 175.317 221.188 184.282L224.116 188.334L219.731 186.044C215.568 183.866 211.744 181.094 208.38 177.815C201.857 171.585 198.43 160.677 188.48 159.289C185.066 159.872 182.402 162.939 179.779 165.187C170.065 174.61 161.142 185.309 150.818 194.329C137.177 206.652 118.262 211.189 104.163 222.485C100.888 225.077 98.6882 228.789 97.9881 232.907C96.3649 241.709 95.6903 250.66 95.976 259.606C96.3784 277.549 98.4183 295.811 104.011 312.894C106.959 321.371 110.949 329.45 115.889 336.943C122.426 347.295 141.673 372.066 155.009 369.207C156.618 368.68 157.895 366.875 158.839 364.974C161.614 358.896 162.808 352.124 164.209 345.547C169.663 319.18 174.103 290.483 191.866 269.098C180.529 283.516 175.214 301.445 171.286 319.055C169.371 327.951 167.928 336.929 166.291 345.907C164.903 352.665 163.876 359.604 161.004 365.987C157.396 374.841 148.334 372.468 141.784 368.527C129.864 361.186 120.719 350.251 112.934 338.83C97.1139 315.725 92.7288 287.069 91.9517 259.634C91.8545 255.041 91.9517 250.434 92.1737 245.757C92.7704 238.666 93.0202 231.408 96.5866 224.844C100.597 218.739 107.202 214.992 113.239 211.647C123.355 206.249 133.749 201.933 143.088 195.564C148.462 191.501 153.506 187.018 158.173 182.159C164.598 175.761 170.662 168.934 177.434 162.662C180.126 160.303 182.79 157.749 186.329 156.431C187.403 156.042 188.571 155.993 189.673 156.292L190.575 156.5C200.289 158.929 203.828 169.336 210.156 175.928C213.272 179.08 216.829 181.763 220.716 183.893L219.259 185.656C217.646 183.25 216.424 180.603 215.637 177.815C213.139 168.837 215.36 159.387 216.609 150.408C220.078 157.721 223.547 165.27 228.182 171.89C232.567 177.08 240.519 181.437 247.485 179.966L247.596 180.022Z" fill="#263238"/>
<path d="M346.941 164.271C352.936 164.743 360.818 158.72 363.871 153.53C366.924 148.34 370.976 131.327 370.976 131.327C370.976 131.327 376.319 144.968 376.527 151.837C376.737 155.742 376.088 159.645 374.626 163.272C379.623 159.038 383.627 153.755 386.352 147.799C390.057 138.807 392.236 132.964 399.452 129.967C406.668 126.97 435.532 153.558 455.071 160.316C474.61 167.074 493.927 168.517 502.572 177.315C511.217 186.113 521.403 234.322 517.24 265.476C513.077 296.63 491.165 332.252 477.566 330.504C463.966 328.755 464.327 294.076 436.018 256.817C414.273 228.188 390.696 218.502 390.696 218.502L346.941 164.271Z" fill="#807CA5"/>
<path opacity="0.1" d="M517.24 265.462C513.077 296.616 491.234 332.252 477.621 330.518C465.285 328.936 464.452 300.224 443.234 267.072C443.23 267.04 443.23 267.007 443.234 266.975C454.918 277.438 469.683 314.656 480.147 315.891C490.61 317.126 506.763 288.262 511.37 268.709C514.145 256.928 515.464 218.156 515.533 217.281C518.017 233.365 519.099 251.169 517.24 265.462Z" fill="black"/>
<path d="M346.941 164.271C354.033 164.271 360.916 158.263 364.08 152.254C367.216 144.788 368.95 136.684 370.782 128.802C373.918 137.294 378.109 146.065 377.582 155.362C377.425 158.253 376.797 161.098 375.722 163.786L373.932 162.398C377.267 159.481 380.169 156.102 382.55 152.365C387.323 144.594 388.489 133.659 397.509 129.204C398.752 128.432 400.216 128.09 401.672 128.233C405.405 128.76 408.611 130.689 411.705 132.396C419.699 137.072 427.039 142.457 434.686 147.328C440.281 151.084 446.17 154.384 452.296 157.194C462.773 161.357 473.847 163.411 484.879 166.533C491.567 168.49 498.756 170.696 504.043 175.859C508.928 181.493 510.718 188.528 512.827 195.286C514.076 199.741 515.103 204.237 515.991 208.747C521.098 235.71 522.93 264.644 512.425 290.621C507.276 303.444 500.671 316.086 490.61 325.8C485.059 330.976 476.733 335.375 471.279 327.437C467.116 321.803 464.591 315.267 461.829 308.953C458.304 300.53 454.988 292.065 451.199 283.794C443.65 267.377 434.547 251.003 420.406 239.388C442.346 256.484 452.795 283.502 463.772 308.162C466.547 313.893 471.626 328.02 477.829 329.297C491.429 329.297 505.042 300.752 509.136 289.414C512.361 281.038 514.533 272.293 515.602 263.381C517.406 245.493 515.505 227.217 512.05 209.607C510.419 200.804 507.846 192.202 504.376 183.949C502.811 180.079 499.87 176.926 496.119 175.095C479.925 167.074 460.483 166.686 444.524 157.569C432.507 150.991 421.516 142.443 409.998 135.366C406.959 133.714 403.712 131.3 400.285 131.466C390.862 134.949 389.849 146.328 384.798 153.808C382.216 157.732 379.074 161.257 375.473 164.271L371.684 167.463L373.669 162.856C378.081 152.698 373.738 141.569 370.352 131.688L371.74 131.591C370.824 135.171 369.811 138.724 368.728 142.262C367.684 145.823 366.39 149.305 364.857 152.684C361.457 158.776 354.157 164.59 346.969 164.341L346.941 164.271Z" fill="#263238"/>
<path d="M120.358 541.841C118.873 551.652 129.35 563.295 136.275 564.461C143.199 565.626 148.5 560.534 148.5 560.534C148.5 560.534 154.731 570.247 166.54 571.371C169.846 571.773 173.199 571.349 176.301 570.138C179.403 568.928 182.157 566.967 184.317 564.433C184.317 564.433 191.255 569.734 203.467 569.734C215.679 569.734 221.66 557.758 221.66 557.758C221.66 557.758 229.986 560.076 235.967 555.233C241.948 550.389 243.35 538.386 239.2 529.158C235.051 519.929 210.558 491.149 180.917 490.774C151.276 490.399 122.62 526.618 120.358 541.841Z" fill="#807CA5"/>
<path d="M150.887 535.349C148.667 544.147 147.349 552.875 148.889 561.895C143.477 554.041 145.003 542.468 150.887 535.349Z" fill="#263238"/>
<path d="M216.22 530.908C223.381 537.597 226.836 549.739 221.41 558.44C222.798 548.726 219.939 539.72 216.22 530.908Z" fill="#263238"/>
<path d="M183.706 535.555C185.483 545.13 185.177 554.691 184.442 564.391C181.347 555.163 181.666 544.963 183.706 535.555Z" fill="#263238"/>
<path opacity="0.1" d="M220.439 559.178C218.163 562.564 212.501 569.239 203.37 569.239C191.145 569.239 184.22 563.938 184.22 563.938C182.062 566.471 179.311 568.431 176.211 569.642C173.112 570.852 169.761 571.277 166.457 570.876C154.69 569.725 148.417 560.025 148.417 560.025C148.417 560.025 143.116 565.104 136.192 563.952C129.267 562.8 118.776 551.157 120.275 541.346C121.662 531.924 133.194 514.48 148.764 502.629C133.666 517.145 129.225 530.203 130.918 538.335C132.611 546.467 139.536 553.877 147.571 550.644C147.571 550.644 157.423 562.009 167.262 563.938C170.234 564.447 173.283 564.262 176.172 563.398C179.061 562.533 181.71 561.013 183.915 558.956C183.915 558.956 195.377 566.464 204.633 566.186C213.889 565.909 220.439 559.178 220.439 559.178Z" fill="black"/>
<path d="M422.613 562.653H545.813C545.813 562.653 540.165 472.855 540.401 470.232C540.636 467.609 559.467 460.24 557.469 441.617C556.082 428.698 547.256 429.836 545.59 426.741C543.925 423.647 543.467 401.111 531.977 398.127C520.487 395.143 520.529 402.026 516.06 401.249C511.592 400.472 512.48 392.479 501.559 393.839C488.653 395.435 485.004 408.424 482.131 411.046C479.258 413.669 472.903 409.215 463.203 420.053C453.947 430.405 466.2 450.971 464.59 455.467C463.619 458.173 422.613 562.653 422.613 562.653Z" fill="#807CA5"/>
<path opacity="0.2" d="M500.338 541.434C497.34 533.927 495.051 526.086 494.967 518.537C494.967 517.941 493.954 517.649 493.58 518.135C492.456 519.453 489.264 523.172 488.806 523.755C488.806 523.283 488.709 522.825 488.695 522.367C488.612 520.805 488.612 519.239 488.695 517.677C488.864 514.564 489.328 511.474 490.083 508.449C490.852 505.416 491.926 502.468 493.288 499.651C494.676 496.792 496.452 494.1 498.104 491.325C498.187 491.2 497.923 491.061 497.812 491.172C495.358 493.504 493.259 496.183 491.581 499.123C489.952 501.851 488.617 504.745 487.599 507.755C486.579 510.771 485.913 513.896 485.614 517.066C485.461 518.713 485.406 520.367 485.448 522.02C485.35 523.674 485.586 525.331 486.142 526.891C486.6 527.932 488.362 527.668 488.764 526.891C489 526.433 492.927 521.118 493.566 520.355C493.66 523.635 494.125 526.894 494.954 530.069C496.027 534.057 497.608 537.891 499.658 541.476C499.852 541.892 500.463 541.74 500.338 541.434Z" fill="black"/>
<path d="M514.937 425.423C515.075 423.952 515.408 422.495 515.644 421.024C516.459 417.513 517.714 414.119 519.377 410.922C519.874 410.057 520.455 409.243 521.112 408.493C521.935 407.421 523.145 406.713 524.483 406.521C525.821 406.329 527.181 406.668 528.272 407.466C530.185 408.686 531.801 410.317 533.004 412.24C535.78 416.403 537.626 420.857 537.279 425.895C537.186 428.338 536.517 430.724 535.326 432.859C534.134 434.993 532.454 436.815 530.423 438.176C529.365 438.959 528.149 439.503 526.86 439.772C525.571 440.04 524.239 440.026 522.956 439.731C521.673 439.435 520.47 438.865 519.428 438.061C518.386 437.256 517.531 436.234 516.921 435.068C515.224 432.156 514.527 428.768 514.937 425.423Z" fill="#FF9BBC"/>
<path d="M489.306 429.142C487.899 426.745 487.158 424.017 487.158 421.239C487.158 418.46 487.899 415.732 489.306 413.336C492.008 408.49 496.369 404.784 501.587 402.9C502.526 402.564 503.506 402.359 504.501 402.29C505.695 402.099 506.918 402.351 507.94 402.997C508.961 403.643 509.712 404.64 510.052 405.8C510.893 408.362 511.14 411.081 510.774 413.752C510.607 415.764 510.302 417.776 510.052 419.788C509.568 423.463 508.074 426.932 505.736 429.808C504.207 431.683 502.146 433.052 499.825 433.735C497.811 434.315 495.658 434.173 493.737 433.335C491.816 432.496 490.249 431.013 489.306 429.142Z" fill="#FF9BBC"/>
<path d="M473.902 448.278C471.757 446.759 470.069 444.683 469.019 442.273C467.97 439.864 467.6 437.214 467.949 434.609C468.039 433.987 468.164 433.371 468.324 432.763C469.045 428.986 470.865 425.506 473.555 422.758C473.821 422.494 474.104 422.249 474.402 422.022C477.33 419.788 480.119 420.066 482.534 422.869C484.224 424.965 485.484 427.375 486.239 429.96C487.534 433.235 488.079 436.758 487.835 440.271C487.618 442.439 486.843 444.514 485.587 446.293C484.981 447.228 484.187 448.027 483.257 448.639C482.326 449.252 481.278 449.664 480.18 449.851C479.082 450.037 477.957 449.994 476.876 449.723C475.795 449.452 474.783 448.96 473.902 448.278Z" fill="#FF9BBC"/>
<path d="M531.117 471.647C531.117 472.188 530.964 472.729 530.867 473.437C529.563 478.586 526.024 481.597 520.82 482.721C515.524 483.797 510.017 482.804 505.431 479.945C502.398 478.134 498.852 477.373 495.342 477.781C490.081 478.523 484.732 477.276 480.341 474.284C478.478 473.136 476.955 471.513 475.928 469.581C474.902 467.649 474.408 465.479 474.499 463.293C474.586 461.516 475.036 459.775 475.821 458.179C476.606 456.582 477.71 455.163 479.064 454.009C480.573 452.657 482.236 451.488 484.018 450.526C487.902 448.449 491.418 445.749 494.426 442.533C495.849 440.971 497.577 439.717 499.503 438.848C501.43 437.98 503.513 437.515 505.626 437.482C507.739 437.45 509.836 437.85 511.788 438.659C513.74 439.468 515.506 440.669 516.976 442.186C518.898 444.127 520.256 446.554 520.904 449.208C521.767 452.715 523.51 455.944 525.969 458.589C529.098 461.755 530.947 465.966 531.159 470.412C531.171 470.824 531.157 471.237 531.117 471.647Z" fill="#FF9BBC"/>
<path d="M548.644 449.36C547.256 455.522 543.967 459.435 538.527 461.336C537.332 461.831 536.038 462.04 534.748 461.948C533.458 461.856 532.207 461.464 531.095 460.804C529.983 460.144 529.039 459.234 528.34 458.146C527.64 457.058 527.204 455.822 527.065 454.537C526.764 452.556 526.95 450.532 527.606 448.639C529.119 444.115 532.213 440.729 535.641 437.634C536.895 436.523 538.296 435.589 539.804 434.859C540.436 434.486 541.141 434.251 541.87 434.171C542.6 434.09 543.339 434.166 544.037 434.393C544.735 434.62 545.377 434.993 545.92 435.488C546.463 435.982 546.895 436.586 547.187 437.26C548.544 439.856 549.172 442.772 549.004 445.697C548.921 447.071 548.713 448.458 548.644 449.36Z" fill="#FF9BBC"/>
<path opacity="0.1" d="M522.693 398.224C521.389 398.918 518.614 401.929 516.227 401.818C513.84 401.707 510.107 396.517 508.608 395.712C507.11 394.907 501.559 393.839 495.522 397.558C489.486 401.277 486.71 409.089 483.213 412.378C479.716 415.667 477.829 414.224 474.526 415.154C471.224 416.083 465.673 420.08 464.452 428.24C463.231 436.399 471.057 454.995 470.752 456.84C470.447 458.686 446.842 530.749 451.227 543.904C456.098 558.545 510.829 562.444 510.829 562.444L510.44 562.722H422.613C422.613 562.722 463.619 458.27 464.604 455.536C466.214 451.04 453.961 430.474 463.217 420.122C472.931 409.284 479.272 413.738 482.131 411.115C484.99 408.493 488.639 395.504 501.559 393.908C512.48 392.52 511.592 400.541 516.06 401.318C518.711 401.707 519.835 399.487 522.693 398.224Z" fill="black"/>
</svg>
