<svg width="473" height="1117" viewBox="0 0 473 1117" fill="none" xmlns="http://www.w3.org/2000/svg">
<path fill-rule="evenodd" clip-rule="evenodd" d="M171.428 1138.97L183.496 1091.43C195.564 1043.89 219.7 948.808 195.533 853.738C171.366 758.668 98.8946 663.608 50.5754 568.542C2.2562 473.477 -21.9112 378.407 26.3766 283.323C74.6644 188.239 195.407 93.1408 255.779 45.5918L316.151 -1.95736L533.516 -1.99989L533.524 45.5375C533.532 93.0747 533.548 188.149 533.563 283.224C533.579 378.299 533.595 473.373 533.61 568.448C533.626 663.523 533.642 758.597 533.658 853.672C533.673 948.746 533.689 1043.82 533.697 1091.36L533.705 1138.9L171.428 1138.97Z" fill="#6639CD"/>
<path fill-rule="evenodd" clip-rule="evenodd" d="M171.186 1139L189.208 1091.93C208.356 1043.83 246.652 948.665 239.875 853.507C233.099 758.348 183.503 663.198 195.883 568.036C208.262 473.897 283.743 378.722 290.489 283.561C296.107 188.4 232.99 93.2522 201.431 45.1667L171 -1.89551L510.171 -1.96246L510.179 45.1058C510.186 93.1975 510.202 188.357 510.218 283.517C510.233 378.677 510.249 473.837 510.264 567.974C510.28 663.134 510.295 758.293 510.311 853.453C510.326 948.613 510.342 1043.77 510.35 1091.86L510.357 1138.93L171.186 1139Z" fill="#39285E" fill-opacity="0.75"/>
<path fill-rule="evenodd" clip-rule="evenodd" d="M176.186 1139L209.704 1091.46C243.223 1043.91 310.259 948.824 321.419 853.747C332.579 758.671 287.862 663.605 287.846 568.53C287.831 473.456 332.517 378.372 354.852 283.293C377.187 188.214 377.171 93.1394 377.163 45.6021L377.156 -1.93522L511.26 -1.96169L511.267 45.5757C511.275 93.1129 511.291 188.188 511.306 283.262C511.322 378.337 511.337 473.411 511.353 568.486C511.368 663.561 511.384 758.635 511.4 853.71C511.415 948.785 511.431 1043.86 511.438 1091.4L511.446 1138.93L176.186 1139Z" fill="#25212F" fill-opacity="0.75"/>
</svg>
