<svg width="367" height="298" viewBox="0 0 367 298" fill="none" xmlns="http://www.w3.org/2000/svg">
<path d="M81.4373 164.606C20.074 200.027 20.074 257.497 81.4373 292.931C142.801 328.365 242.346 328.385 303.709 292.931C365.072 257.476 365.072 200.027 303.709 164.606C242.346 129.186 142.801 129.173 81.4373 164.606Z" fill="#FAFAFA"/>
<path d="M272.396 42.3242C270.447 43.143 268.998 44.838 267.18 45.9352C264.453 47.5729 261.047 47.8431 258.345 49.5299C256.618 50.6856 255.273 52.3289 254.483 54.2507C253.693 56.1725 253.492 58.286 253.906 60.3222C254.382 62.3451 255.374 64.21 256.787 65.7343C258.199 67.2586 259.983 68.3902 261.964 69.0183C264.715 69.8944 267.614 70.1565 270.381 71.0408C272.887 71.8596 275.024 73.3336 277.751 73.702C280.243 74.0934 282.792 73.5573 284.916 72.1954C286.182 71.3394 287.157 70.1164 287.708 68.6907C288.699 66.3407 289.78 62.7787 288.969 60.2321C288.232 57.8903 286.414 56.2444 285.088 54.2546C283.761 52.2648 283.172 49.6528 282.222 47.3354C280.6 43.405 276.785 40.4326 272.396 42.3242Z" fill="#EBEBEB"/>
<path d="M261.407 43.569C262.032 43.1586 262.618 42.6927 263.159 42.177C264.797 40.7113 265.125 39.0572 264.699 36.9037C264.302 35.1612 263.609 33.4996 262.652 31.9907C262.001 30.8285 261.173 29.7757 260.195 28.8709C259.866 28.5739 259.475 28.3543 259.05 28.2282C258.625 28.1021 258.177 28.0727 257.739 28.1421C256.502 28.3796 255.684 29.5423 255.119 30.6642C254.251 32.4018 253.67 34.2683 253.399 36.1913C253.124 37.7575 253.23 39.3671 253.71 40.8833C253.959 41.6343 254.375 42.3191 254.927 42.8863C255.479 43.4536 256.152 43.8885 256.895 44.1586C258.286 44.56 259.778 44.4043 261.055 43.7246L261.407 43.569Z" fill="#EBEBEB"/>
<path d="M267.565 24.8664C268.384 21.9186 270.095 19.3147 273.248 18.7988C276.924 18.201 278.824 22.4672 279.037 25.4723C279.258 28.6249 278.742 32.3506 276.834 34.9545C274.378 38.3445 270.284 37.6484 268.294 34.2175C266.689 31.499 266.738 27.8388 267.565 24.8664Z" fill="#EBEBEB"/>
<path d="M289.878 52.4452C289.547 51.7765 289.273 51.0807 289.059 50.3654C288.372 48.2773 288.904 46.6888 290.345 45.0265C291.549 43.7226 292.967 42.6342 294.537 41.8085C295.683 41.118 296.933 40.6175 298.239 40.3264C298.665 40.2382 299.106 40.2438 299.53 40.3428C299.954 40.4417 300.352 40.6317 300.695 40.8996C301.645 41.7184 301.784 43.135 301.71 44.3878C301.606 46.3264 301.185 48.2348 300.466 50.0378C299.929 51.5349 299.038 52.8804 297.87 53.96C297.281 54.4908 296.579 54.8814 295.818 55.1027C295.056 55.3239 294.255 55.37 293.473 55.2374C292.063 54.8943 290.843 54.0125 290.075 52.7809C290.017 52.6827 289.944 52.568 289.878 52.4452Z" fill="#EBEBEB"/>
<path d="M294.799 32.7521C295.528 29.7797 295.307 26.6763 292.81 24.6865C289.895 22.361 286.153 25.1614 284.498 27.6753C282.763 30.3201 281.395 33.8247 281.788 37.0264C282.296 41.1943 286.153 42.5617 289.6 40.5556C292.327 38.967 294.071 35.749 294.799 32.7521Z" fill="#EBEBEB"/>
<path d="M348.548 63.4666C347.434 63.8924 346.566 64.7931 345.518 65.3581C343.946 66.177 342.022 66.2671 340.458 67.1432C339.454 67.7441 338.653 68.631 338.157 69.6902C337.661 70.7493 337.493 71.9325 337.674 73.088C337.884 74.2379 338.39 75.3133 339.142 76.2079C339.895 77.1025 340.867 77.7855 341.964 78.1893C343.487 78.7543 345.109 79.0082 346.64 79.5568C348.024 80.0727 349.187 80.9734 350.693 81.2518C352.092 81.5464 353.55 81.3131 354.787 80.5967C355.533 80.1648 356.123 79.5086 356.474 78.7216C357.096 77.4278 357.792 75.4462 357.408 74.0051C357.023 72.5639 356.081 71.696 355.393 70.5414C354.788 69.2682 354.31 67.9379 353.969 66.57C353.133 64.3019 351.07 62.525 348.548 63.4666Z" fill="#EBEBEB"/>
<path d="M342.341 63.876C342.702 63.6594 343.044 63.4128 343.364 63.139C343.797 62.8017 344.123 62.3459 344.302 61.8269C344.481 61.308 344.505 60.7482 344.372 60.2158C344.191 59.2339 343.845 58.2897 343.348 57.4236C343.014 56.7494 342.575 56.1329 342.046 55.5975C341.87 55.4236 341.657 55.2909 341.424 55.2088C341.19 55.1267 340.941 55.0972 340.695 55.1226C340.354 55.2156 340.038 55.3848 339.771 55.6174C339.505 55.85 339.294 56.1399 339.156 56.4655C338.62 57.4196 338.241 58.4536 338.034 59.528C337.841 60.4011 337.858 61.3075 338.083 62.1728C338.203 62.6035 338.418 63.0017 338.713 63.3377C339.008 63.6737 339.375 63.9389 339.786 64.1135C340.558 64.3706 341.398 64.3237 342.136 63.9824L342.341 63.876Z" fill="#EBEBEB"/>
<path d="M346.304 53.5341C346.853 51.8964 347.885 50.4798 349.661 50.2587C351.75 50.0213 352.699 52.4696 352.74 54.1646C352.852 56.0412 352.323 57.9002 351.242 59.4379C349.76 61.2721 347.508 60.7726 346.46 58.791C345.73 57.1247 345.674 55.2406 346.304 53.5341Z" fill="#EBEBEB"/>
<path d="M358.128 69.6326C357.959 69.2489 357.822 68.8517 357.719 68.4453C357.555 67.9236 357.545 67.3656 357.69 66.8384C357.835 66.3111 358.13 65.837 358.538 65.4729C359.254 64.7737 360.085 64.2031 360.994 63.7861C361.657 63.4283 362.373 63.1795 363.115 63.0491C363.359 63.0087 363.608 63.0222 363.846 63.0887C364.083 63.1552 364.304 63.2731 364.491 63.434C364.714 63.7089 364.873 64.0301 364.957 64.3743C365.041 64.7185 365.046 65.077 364.974 65.4237C364.862 66.5119 364.571 67.5742 364.114 68.5681C363.772 69.3959 363.236 70.129 362.55 70.7053C362.204 70.987 361.799 71.187 361.366 71.2905C360.932 71.394 360.48 71.3983 360.044 71.303C359.265 71.0699 358.605 70.5449 358.202 69.8373C358.173 69.7708 358.148 69.7024 358.128 69.6326Z" fill="#EBEBEB"/>
<path d="M361.404 58.7011C361.887 57.0635 361.846 55.2948 360.503 54.1156C358.922 52.7318 356.744 54.1975 355.745 55.565C354.589 57.045 353.964 58.8703 353.969 60.7482C354.149 63.1065 356.278 63.9745 358.267 62.9427C359.824 61.9899 360.949 60.4687 361.404 58.7011Z" fill="#EBEBEB"/>
<path d="M19.8666 90.4553C19.0478 92.0193 18.9086 93.8944 18.2699 95.573C17.3118 98.0869 15.1829 100.028 14.2576 102.558C13.7006 104.23 13.6555 106.031 14.1281 107.729C14.6008 109.427 15.5697 110.945 16.9106 112.089C18.2789 113.188 19.909 113.913 21.6414 114.193C23.3739 114.472 25.1493 114.298 26.794 113.686C29.0867 112.867 31.1502 111.508 33.4511 110.656C35.5392 109.886 37.7419 109.772 39.7234 108.609C41.5803 107.58 42.9938 105.904 43.6948 103.901C44.1077 102.677 44.1334 101.356 43.7685 100.118C43.2117 98.0296 42.0735 95.0981 40.2147 93.8207C38.5034 92.6498 36.4399 92.5024 34.4829 91.8637C32.5259 91.225 30.8063 89.8002 28.9721 88.7439C25.8933 86.9097 21.8073 86.9097 19.8666 90.4553Z" fill="#F5F5F5"/>
<path d="M13.2011 96.9978C13.3984 96.3968 13.5463 95.7806 13.6433 95.1555C13.9709 93.3294 13.324 92.0602 11.9238 90.8484C10.756 89.9021 9.43503 89.1627 8.0179 88.6621C6.97627 88.2177 5.87076 87.9413 4.74255 87.8432C4.37159 87.8181 3.99963 87.8747 3.65297 88.0091C3.30631 88.1435 2.99341 88.3524 2.7364 88.6211C2.44195 89.0631 2.25078 89.5656 2.17707 90.0915C2.10335 90.6174 2.14899 91.1532 2.3106 91.659C2.633 93.2688 3.21663 94.815 4.03835 96.2363C4.66712 97.4238 5.57471 98.441 6.6832 99.2005C7.23934 99.575 7.87362 99.8176 8.53772 99.9098C9.20182 100.002 9.87821 99.9415 10.5154 99.7328C11.6523 99.2776 12.5662 98.396 13.0619 97.2762C13.1193 97.2107 13.1602 97.1043 13.2011 96.9978Z" fill="#F5F5F5"/>
<path d="M7.57598 81.3419C6.58518 78.9509 6.37229 76.3306 8.1983 74.349C10.3355 72.0399 13.8237 73.8905 15.5678 75.782C17.312 77.6735 18.9496 80.5149 19.0315 83.2416C19.138 86.7872 16.0919 88.4167 12.9639 87.1884C10.4337 86.214 8.56677 83.7493 7.57598 81.3419Z" fill="#F5F5F5"/>
<path d="M36.7757 88.1052C36.2022 87.8356 35.6541 87.515 35.1381 87.1472C33.5905 86.1236 33.1237 84.7807 33.2138 82.9302C33.341 81.4334 33.7203 79.9689 34.3356 78.5985C34.7449 77.5468 35.3169 76.5658 36.0306 75.6916C36.2684 75.4101 36.5642 75.1832 36.8976 75.0263C37.2311 74.8695 37.5945 74.7864 37.9631 74.7827C38.4797 74.8812 38.968 75.0932 39.3928 75.4033C39.8176 75.7134 40.1683 76.1139 40.4196 76.576C41.3759 77.9135 42.1062 79.399 42.5813 80.9731C43.0018 82.25 43.1086 83.6094 42.8925 84.9363C42.7758 85.5964 42.5111 86.2215 42.1182 86.7647C41.7254 87.3078 41.2146 87.7549 40.6243 88.0725C39.5107 88.5759 38.2448 88.6258 37.0951 88.2117L36.7757 88.1052Z" fill="#F5F5F5"/>
<path d="M29.7748 72.4326C28.7103 70.0744 26.9498 68.1173 24.2558 68.0928C21.1115 68.0928 20.0715 71.8758 20.2763 74.406C20.4973 77.0672 21.4063 80.1379 23.3305 82.0458C25.8444 84.5596 29.1197 83.4542 30.3725 80.3344C31.4125 77.8533 30.8884 74.8072 29.7748 72.4326Z" fill="#F5F5F5"/>
<path d="M65.5081 286.821C50.5151 294.968 26.2038 294.968 11.2355 286.821C-3.73288 278.674 -3.75744 265.466 11.2355 257.343C26.2284 249.22 50.5397 249.195 65.5081 257.343C80.4764 265.49 80.4928 278.674 65.5081 286.821Z" fill="#E6E6E6"/>
<path d="M322.05 269.83C284.326 290.342 223.159 290.342 185.435 269.83C147.711 249.318 147.686 216.081 185.435 195.611C223.183 175.14 284.326 175.14 322.05 195.611C359.774 216.081 359.766 249.326 322.05 269.83Z" fill="#E6E6E6"/>
<path d="M145.287 261.609C119.633 275.529 78.028 275.529 52.3738 261.609C26.7196 247.689 26.7115 225.048 52.3738 211.103C78.0362 197.158 119.633 197.183 145.287 211.103C170.942 225.023 170.95 247.664 145.287 261.609Z" fill="#E6E6E6"/>
<path d="M355.713 286.821C340.72 294.968 316.408 294.968 301.44 286.821C286.472 278.674 286.447 265.466 301.44 257.343C316.433 249.22 340.744 249.195 355.713 257.343C370.681 265.49 370.697 278.674 355.713 286.821Z" fill="#E6E6E6"/>
<path d="M113.836 154.407L113.295 154.358C108.923 153.997 105.647 154.358 101.832 156.65L92.3987 162.284C90.196 163.594 87.9933 164.912 85.9053 166.378C84.2552 167.397 82.8781 168.802 81.893 170.472C81.5595 171.122 81.3647 171.834 81.321 172.562C81.2773 173.291 81.3856 174.021 81.6391 174.706C81.842 175.22 82.1178 175.703 82.458 176.139C82.8903 176.458 83.3415 176.75 83.8091 177.015C84.2816 178.649 85.3712 180.035 86.8474 180.88C88.3236 181.725 90.0707 181.963 91.719 181.543C91.9765 181.431 92.2596 181.392 92.5379 181.428C92.7986 181.523 93.0301 181.684 93.2093 181.895C94.1606 182.698 95.2912 183.26 96.5055 183.533C97.7198 183.807 98.9821 183.784 100.186 183.467C102.593 182.807 104.806 181.577 106.638 179.881C108.53 178.243 110.225 176.45 112.149 174.878C116.906 170.996 122.663 172.421 128.125 173.518C135.036 174.894 141.906 176.439 148.735 178.153C150.921 178.702 153.435 179.561 154.131 181.707C154.36 182.419 154.352 183.197 154.598 183.901C154.687 184.265 154.899 184.586 155.197 184.813C155.495 185.039 155.861 185.157 156.235 185.146C156.571 185.059 156.878 184.887 157.128 184.646L159.666 182.657C159.24 183.918 160.862 185.113 162.123 184.761C163.384 184.409 164.194 183.123 164.579 181.854C164.875 180.557 165.3 179.292 165.848 178.079C166.432 177.198 167.144 176.409 167.961 175.737C174.102 170.137 179.777 163.864 183.675 156.519C184.912 154.401 185.745 152.072 186.131 149.649C186.721 144.613 183.134 141.199 179.883 137.792C176.425 134.166 172.517 130.996 168.256 128.359C166.135 127.049 163.826 125.846 161.337 125.731C160.76 125.677 160.179 125.773 159.65 126.009C159.022 126.407 158.519 126.975 158.2 127.647C153.566 135.835 151.969 145.555 146.737 153.367C146.219 154.272 145.47 155.024 144.567 155.545C143.6 155.916 142.558 156.048 141.529 155.93C132.287 155.668 123.056 155.16 113.836 154.407Z" fill="#455A64"/>
<path d="M165.218 174.37C166.069 173.449 166.741 172.377 167.2 171.209C167.41 170.628 167.459 170.001 167.339 169.395C167.219 168.789 166.936 168.227 166.52 167.77C165.838 167.232 165.017 166.9 164.153 166.812C161.424 166.297 158.632 166.206 155.875 166.542C156.293 164.814 156.694 162.98 156.145 161.309C155.597 159.639 153.59 158.312 152.01 159.107C152.569 156.063 152.843 152.973 152.829 149.878C152.879 149.216 152.736 148.554 152.42 147.971C152.153 147.617 151.779 147.359 151.354 147.236C150.93 147.112 150.476 147.128 150.061 147.283C149.12 149.427 147.996 151.487 146.704 153.44C146.186 154.346 145.437 155.097 144.534 155.618C143.567 155.989 142.525 156.121 141.496 156.003C132.254 155.692 123.023 155.16 113.803 154.407L113.263 154.357C108.89 153.997 105.615 154.357 101.799 156.65L92.3659 162.284C90.1633 163.594 87.9606 164.912 85.8726 166.378C84.2225 167.397 82.8453 168.802 81.8603 170.472C81.5267 171.122 81.3319 171.833 81.2882 172.562C81.2445 173.291 81.3529 174.021 81.6064 174.706C81.8093 175.22 82.0851 175.703 82.4253 176.139C82.7804 176.556 83.2501 176.861 83.7763 177.015C84.2489 178.649 85.3385 180.035 86.8147 180.88C88.2909 181.725 90.038 181.963 91.6863 181.543C91.9438 181.431 92.2269 181.391 92.5052 181.428C92.7659 181.523 92.9973 181.683 93.1766 181.895C94.1279 182.698 95.2585 183.26 96.4728 183.533C97.6871 183.807 98.9494 183.784 100.153 183.467C102.56 182.807 104.774 181.577 106.606 179.881C108.497 178.243 110.192 176.45 112.116 174.878C116.874 170.996 122.63 172.421 128.092 173.518C135.003 174.894 141.873 176.439 148.702 178.153C150.888 178.702 153.402 179.561 154.098 181.707C154.327 182.419 154.319 183.197 154.565 183.901C154.655 184.265 154.866 184.586 155.164 184.813C155.462 185.039 155.828 185.157 156.203 185.146C156.538 185.058 156.845 184.886 157.095 184.646L159.633 182.657C159.208 183.918 160.829 185.113 162.09 184.761C163.351 184.409 164.162 183.123 164.547 181.854C164.842 180.556 165.267 179.292 165.816 178.079C166.4 177.198 167.112 176.409 167.928 175.737L168.706 175.009C167.642 174.427 166.419 174.203 165.218 174.37Z" fill="#E0E0E0"/>
<path opacity="0.2" d="M92.4809 181.265C91.531 178.366 92.4317 175.942 94.8227 174.1C96.8665 172.439 99.1354 171.078 101.562 170.055L98.3847 172.339C95.1093 174.861 91.9241 176.515 92.4809 181.265Z" fill="black"/>
<path opacity="0.2" d="M83.8174 176.884C83.6291 174.173 85.3732 172.036 87.6414 170.775C89.7608 169.455 92.0575 168.443 94.4623 167.77C92.579 168.835 89.8932 170.292 88.0672 171.389C85.8891 172.585 84.2596 174.313 83.842 176.851L83.8174 176.884Z" fill="black"/>
<path d="M211.622 149.756C210.202 150.539 208.856 151.449 207.601 152.474C205.51 154.228 203.65 156.239 202.066 158.46C195.163 167.918 192.518 181.003 197.464 191.607C202.688 202.825 215.667 209.277 228.023 208.589C222.61 211.046 216.051 209.146 210.361 210.915C207.486 211.807 205.325 214.927 204.776 217.883C204.227 220.839 205.128 223.885 208.87 223.885C208.87 225.335 211.622 227.979 216.502 226.653C216.747 227.717 217.321 229.65 225.509 228.291C233.697 226.931 257.444 217.277 267.139 211.758C270.985 209.72 274.584 207.248 277.866 204.389C283.81 199.246 287.741 191.762 289.526 184.024C291.778 174.198 291 164.012 289.649 154.055C287.47 138.03 283.647 119.254 265.444 114.914C263.366 114.342 261.186 114.244 259.065 114.628C255.691 115.356 252.924 117.862 251.049 120.761C246.766 127.402 246.545 135.836 247.012 143.778C247.388 150.272 242.582 147.054 238.447 146.399C234.208 145.648 229.894 145.414 225.599 145.703C220.705 146.045 215.94 147.427 211.622 149.756Z" fill="#37474F"/>
<path d="M208.871 223.885C208.297 220.446 208.51 216.327 211.769 214.919C215.028 213.511 220.989 213.83 220.989 213.83C220.989 213.83 213.071 212.643 210.14 214.485C207.208 216.327 207.929 221.249 208.871 223.885Z" fill="#263238"/>
<path d="M216.469 226.628C215.888 223.197 216.109 219.07 219.36 217.662C222.61 216.254 228.58 216.581 228.58 216.581C228.58 216.581 220.662 215.386 217.738 217.228C214.815 219.07 215.552 223.992 216.469 226.628Z" fill="#263238"/>
<path d="M233.837 198.526C235.474 198.698 237.3 197.895 237.833 196.339C236.416 199.909 238.651 204.143 242.041 205.993C245.431 207.844 249.485 207.803 253.276 207.173C266.787 204.929 279.094 195.07 283 181.944C285.079 174.943 284.817 167.426 283.368 160.269C281.176 149.627 276.527 139.645 269.792 131.119C264.609 124.568 257.902 118.738 249.771 116.797C241.64 114.857 231.978 117.731 227.908 125.035C226.609 127.57 225.777 130.319 225.452 133.15C223.961 143.541 225.976 154.046 224.707 164.446C223.888 171.062 222.25 177.85 223.536 184.515C224.567 189.879 227.31 197.821 233.837 198.526Z" fill="#F5F5F5"/>
<path d="M270.267 169.342C266.5 167.541 262.127 167.377 257.984 167.999C254.979 168.45 251.802 169.449 250.009 171.914C249.624 169.891 246.733 169.318 244.997 170.431C243.261 171.545 242.467 173.617 241.771 175.557C241.296 172.659 240.526 169.342 237.906 168.008C235.286 166.673 231.634 168.499 229.824 170.571C228.406 172.302 227.379 174.318 226.811 176.483C226.361 175.549 225.009 175.557 224.019 175.877C223.74 175.974 223.467 176.086 223.2 176.212C222.95 178.983 223.066 181.775 223.544 184.515C224.584 189.912 227.327 197.822 233.853 198.526C235.491 198.698 237.317 197.895 237.849 196.339C236.432 199.91 238.668 204.143 242.058 205.994C245.448 207.844 249.501 207.803 253.292 207.173C257.217 206.511 261.016 205.243 264.551 203.414C268.943 198.553 272.536 193.025 275.196 187.037C276.359 184.507 277.431 181.813 277.284 179.029C277.063 174.829 274.041 171.152 270.267 169.342Z" fill="#E0E0E0"/>
<path d="M193.264 88.9651C192.993 89.4319 192.731 89.8986 192.445 90.3735C188.26 98.1361 185.55 107.348 188.351 116.036C191.298 125.133 199.544 132.707 207.298 137.85C211.524 140.642 223.962 147.487 227.712 140.536C228.719 138.652 228.662 136.441 228.727 134.271C228.809 131.545 229.186 128.687 230.815 126.509C232.445 124.331 235.729 123.16 238.005 124.609C239.847 125.772 240.519 128.13 240.732 130.341C240.945 132.552 240.863 134.787 241.804 136.753C242.009 137.261 242.37 137.691 242.836 137.981C243.516 138.333 244.343 138.145 245.088 138.325C249.821 139.455 248.429 152.327 247.946 155.733C247.733 157.248 247.765 159.221 249.198 159.778C250.197 160.163 251.286 159.557 252.228 159.033C254.396 157.821 256.742 156.962 259.18 156.487C259.999 156.331 261.088 156.347 261.407 157.125C261.727 157.903 261.063 158.558 260.588 159.164C259.766 160.207 259.257 161.462 259.123 162.783C259.087 162.961 259.088 163.145 259.126 163.322C259.164 163.5 259.238 163.668 259.344 163.815C259.604 164.043 259.94 164.163 260.285 164.151C262.202 164.306 264.126 164.061 266.017 164.102C271.127 164.225 275.843 168.941 275.573 174.092C263.143 168.769 251.131 177.408 244.31 187.422C240.504 192.909 238.681 199.529 239.143 206.19C239.455 211.454 241.271 216.519 244.375 220.782C248.036 226.08 258.173 232.245 264.028 232.065C261.272 232.913 258.459 233.559 255.61 233.998C246.799 235.488 244.04 234.571 239.643 235.93C236.768 236.831 234.607 239.943 234.05 242.898C233.493 245.855 234.402 248.901 238.144 248.901C238.185 250.35 240.904 252.995 245.776 251.668C246.03 252.733 246.635 254.665 254.783 253.306C262.93 251.947 286.718 242.293 296.413 236.774C300.259 234.737 303.858 232.264 307.139 229.404C313.092 224.27 317.031 216.794 318.824 209.056C321.084 199.23 320.306 189.044 318.947 179.086C313.305 137.563 290.623 117.109 282.099 108.486C275.434 101.755 267.721 96.6295 259.508 91.9948C251.819 87.655 243.835 83.2333 238.218 76.1913C235.802 73.1288 233.829 69.7306 231.372 66.7009C229.186 64.0151 226.328 60.8462 222.652 60.8135C218.697 60.8135 214.971 63.5484 212.113 65.9967C204.542 72.498 198.163 80.2707 193.264 88.9651Z" fill="#455A64"/>
<path d="M238.185 248.925C237.612 245.486 237.825 241.367 241.076 239.959C244.326 238.55 250.296 238.87 250.296 238.87C250.296 238.87 242.378 237.682 239.454 239.525C236.531 241.367 237.235 246.288 238.185 248.925Z" fill="#263238"/>
<path d="M245.808 251.668C245.235 248.237 245.456 244.11 248.707 242.702C251.957 241.294 257.927 241.621 257.927 241.621C257.927 241.621 250.009 240.426 247.077 242.268C244.146 244.11 244.866 249.032 245.808 251.668Z" fill="#263238"/>
<path d="M205.824 177.097C207.65 185.752 208.616 188.519 209.222 199.975C209.828 211.43 214.651 219.684 213.718 225.858C212.784 232.032 210.819 242.44 204.711 249.097C198.979 255.369 193.959 254.509 194.467 261.38C194.59 262.035 195.359 264.704 198.217 264.655C199.102 267.529 202.975 267.111 202.975 267.111C202.975 267.111 204.26 270.747 215.56 267.373C221.538 265.58 222.766 258.153 223.97 254.477C225.746 249.117 227.832 243.865 230.217 238.747C231.844 235.327 232.802 231.628 233.042 227.848C234.549 227.078 237.571 228.831 237.571 228.831C237.571 228.831 237.742 224.925 234.475 223.042C238.922 220.782 237.268 216.867 237.268 216.867C237.268 216.867 234.811 219.881 232.748 216.867C230.684 213.854 231.536 202.128 233.345 184.474C234.312 175.041 236.694 174.329 237.579 164.879C237.955 160.826 238.479 156.077 237.538 152.073C236.596 148.069 234.09 144.294 232.715 140.388C231.282 136.294 230.578 131.782 232.101 127.762C232.92 125.665 234.254 123.798 234.885 121.645C235.663 118.975 235.245 116.101 234.664 113.375C232.584 103.647 228.342 95.0981 223.2 86.6559C219.81 81.0714 214.717 72.3917 207.126 72.6619C187.785 73.579 159.29 108.167 163.957 145.539" fill="#455A64"/>
<path d="M234.434 223.033C238.881 220.773 237.227 216.859 237.227 216.859C237.227 216.859 234.77 219.873 232.707 216.859C231.29 214.837 231.233 208.884 231.888 199.869L231.79 199.778C231.55 199.523 231.261 199.318 230.94 199.177C230.619 199.037 230.273 198.963 229.923 198.96C228.801 199.091 228.285 200.384 227.974 201.465C227.488 203.174 227.01 204.883 226.541 206.591C226.352 207.254 226.025 208.041 225.337 208.09C224.649 208.139 224.314 207.59 223.961 207.115C223.532 206.511 222.972 206.01 222.324 205.65C222.004 205.47 221.644 205.372 221.277 205.365C220.91 205.358 220.546 205.441 220.219 205.609C219.073 206.28 219.106 208.769 217.525 208.777C217.251 208.743 216.986 208.653 216.748 208.512C216.51 208.371 216.304 208.183 216.142 207.959C214.469 206.16 213.055 204.137 211.941 201.948C211.523 200.948 210.954 200.017 210.254 199.189C209.941 198.846 209.529 198.608 209.075 198.509C209.075 198.992 209.132 199.467 209.157 199.942C209.755 211.406 214.586 219.652 213.652 225.826C212.719 232 210.754 242.407 204.645 249.064C198.913 255.337 193.894 254.477 194.401 261.347C194.524 262.002 195.294 264.671 198.152 264.622C199.036 267.496 202.909 267.079 202.909 267.079C202.909 267.079 204.195 270.714 215.495 267.341C221.472 265.548 222.7 258.121 223.904 254.444C225.681 249.084 227.767 243.832 230.152 238.714C231.778 235.294 232.737 231.595 232.977 227.815C234.484 227.046 237.505 228.798 237.505 228.798C237.505 228.798 237.702 224.917 234.434 223.033Z" fill="#F5F5F5"/>
<path d="M202.933 267.103C202.401 265.605 201.943 263.148 204.104 262.149C206.266 261.15 208.772 259.816 208.772 259.816C208.772 259.816 203.941 261.314 202.86 262.018C201.779 262.723 201.386 264.811 202.933 267.103Z" fill="#E0E0E0"/>
<path d="M198.185 264.663C197.644 263.165 197.186 260.708 199.356 259.709C201.526 258.71 204.023 257.375 204.023 257.375C204.023 257.375 199.184 258.874 198.103 259.586C197.022 260.299 196.637 262.37 198.185 264.663Z" fill="#E0E0E0"/>
<path d="M150.086 119.819C148.023 126.828 147.965 134.714 151.437 141.109L154.655 136.31C154.77 148.871 162.623 160.392 172.76 167.828C182.897 175.263 194.451 178.472 206.578 181.232C206.037 177.899 205.153 174.37 204.613 171.037C203.794 166.042 203.065 160.638 205.431 156.159C207.397 152.417 211.163 150.018 213.988 146.857C217.118 143.318 219.014 138.858 219.393 134.149C219.515 133.3 219.405 132.434 219.073 131.643C218.254 130.128 216.306 129.735 214.602 129.85C212.899 129.964 211.147 130.39 209.55 129.85C210.909 126.894 213.562 124.781 215.7 122.333C219.767 117.636 221.99 111.621 221.956 105.407C220.133 105.012 218.265 104.869 216.404 104.982C217.075 100.8 217.741 96.6104 218.402 92.4125C218.636 91.5012 218.611 90.5424 218.328 89.6449C217.722 88.1873 215.872 87.6223 214.316 87.9417C212.798 88.3932 211.39 89.1543 210.181 90.1771C200.61 96.997 189.406 101.166 177.706 102.263C173.877 102.612 170.018 102.421 166.242 101.698C163.703 101.223 161.787 100.331 159.495 101.919C154.893 105.047 151.593 114.718 150.086 119.819Z" fill="#F5F5F5"/>
<path d="M188.867 160.048C188.837 159.553 188.758 159.062 188.629 158.583C188.572 158.394 188.449 158.165 188.252 158.198C188.201 158.213 188.152 158.238 188.11 158.272C188.068 158.305 188.033 158.347 188.007 158.394C187.548 159.222 187.246 160.127 187.114 161.064C187.075 161.364 186.953 161.648 186.762 161.883C186.279 162.382 185.714 161.801 185.264 161.571C183.883 160.763 182.597 159.801 181.431 158.706C180.514 157.944 178.688 156.773 177.796 158.28C177.124 159.41 177.96 160.736 177.984 161.915C173.141 159.229 169.321 155.018 167.118 149.936C166.946 149.543 166.66 149.985 166.733 150.247C167.601 153.257 169.084 156.054 171.088 158.461C173.092 160.869 175.574 162.834 178.377 164.233C178.828 164.47 179.589 164.552 179.876 164.003C180.244 163.264 180.359 162.424 180.203 161.612C180.138 161.154 180.015 160.704 179.958 160.245C179.953 160.21 179.953 160.174 179.958 160.139C180.195 160.36 180.547 160.581 180.776 160.753L181.775 161.571C182.443 162.13 183.155 162.634 183.904 163.078C185.018 163.733 187.18 164.863 188.318 163.7C188.875 163.135 188.858 162.112 188.899 161.383C188.912 160.938 188.901 160.492 188.867 160.048Z" fill="#EBEBEB"/>
<path d="M194.615 131.741C194.299 132.361 194.025 133.001 193.796 133.657C193.553 134.171 193.34 134.699 193.157 135.238C192.74 136.532 192.297 137.801 191.929 139.111C191.626 140.175 191.462 141.289 191.11 142.345C191.036 142.591 190.897 143.115 190.635 143.271L190.52 143.221C190.236 143.107 189.962 142.967 189.702 142.804C189.112 142.509 188.531 142.214 187.933 141.936C187.44 141.624 186.877 141.441 186.295 141.404C185.182 141.461 185.427 142.656 185.427 143.426C185.425 144.08 185.364 144.732 185.247 145.375C185.239 145.875 185.139 146.369 184.952 146.832C184.404 147.553 182.34 145.899 181.783 145.457C181.538 145.269 181.481 145.784 181.579 145.915C182.297 146.893 183.268 147.658 184.387 148.126C185.501 148.577 185.927 147.905 186.295 146.955C186.536 146.346 186.706 145.712 186.803 145.064C186.893 144.482 186.803 143.811 186.942 143.254L187.294 143.483C187.597 143.68 187.9 143.877 188.211 144.065C188.778 144.447 189.369 144.791 189.98 145.097C190.486 145.365 191.07 145.448 191.631 145.331C192.191 145.214 192.694 144.906 193.051 144.458C193.662 143.415 194.076 142.269 194.271 141.076C194.704 139.529 195.041 137.957 195.278 136.368C195.524 135.044 195.653 133.702 195.663 132.355C195.646 132.003 194.926 131.242 194.615 131.741Z" fill="#EBEBEB"/>
<path d="M151.429 102.853C150.291 105.833 151.118 109.403 152.076 112.572C153.736 118.536 156.04 124.302 158.946 129.768C161.975 135.172 166.037 140.102 171.228 143.459C172.219 144.106 173.513 144.695 174.504 144.089C175.322 143.606 175.576 142.558 175.748 141.633C176.321 138.489 176.805 135.262 178.344 132.462C179.982 129.506 182.635 127.287 185.165 125.092C190.848 120.114 195.998 114.652 201.435 109.461C206.875 104.26 211.72 98.4711 215.88 92.1996C219.36 86.9508 222.995 80.2036 221.701 73.6938C215.503 75.3315 209.501 78.1565 203.269 79.8761C196.842 81.6463 190.315 83.0353 183.724 84.0358C177.535 84.9795 171.295 85.5565 165.038 85.7635C161.877 85.8536 156.08 85.1412 153.894 88.1136C151.797 90.9631 154.319 92.9857 155.048 95.5732C155.67 97.8004 153.312 99.5855 152.059 101.534C151.808 101.953 151.597 102.394 151.429 102.853Z" fill="#BA68C8"/>
<path opacity="0.3" d="M151.429 102.853C150.291 105.833 151.118 109.403 152.076 112.572C153.736 118.536 156.04 124.302 158.946 129.768C161.975 135.172 166.037 140.102 171.228 143.459C172.219 144.106 173.513 144.695 174.504 144.089C175.322 143.606 175.576 142.558 175.748 141.633C176.321 138.489 176.805 135.262 178.344 132.462C179.982 129.506 182.635 127.287 185.165 125.092C190.848 120.114 195.998 114.652 201.435 109.461C206.875 104.26 211.72 98.4711 215.88 92.1996C219.36 86.9508 222.995 80.2036 221.701 73.6938C215.503 75.3315 209.501 78.1565 203.269 79.8761C196.842 81.6463 190.315 83.0353 183.724 84.0358C177.535 84.9795 171.295 85.5565 165.038 85.7635C161.877 85.8536 156.08 85.1412 153.894 88.1136C151.797 90.9631 154.319 92.9857 155.048 95.5732C155.67 97.8004 153.312 99.5855 152.059 101.534C151.808 101.953 151.597 102.394 151.429 102.853Z" fill="white"/>
<path opacity="0.3" d="M166.585 107.995C168.117 108.988 169.895 109.536 171.72 109.575C173.768 109.524 175.798 109.163 177.738 108.503C181.013 107.547 184.245 106.456 187.433 105.227C188.236 104.83 189.126 104.644 190.021 104.687C190.467 104.722 190.884 104.925 191.188 105.254C191.492 105.584 191.66 106.016 191.658 106.464C191.544 107.283 190.749 107.79 190.315 108.413C189.779 109.181 189.136 109.87 188.408 110.46L182.807 115.225L176.117 120.957C174.979 121.923 173.799 122.865 172.694 123.872C171.589 124.879 170.934 125.575 169.476 125.281C168.138 124.93 166.941 124.172 166.053 123.111C163.473 120.221 161.429 116.893 160.018 113.285C159.208 111.623 158.576 109.88 158.135 108.085C157.783 106.226 156.849 104.556 156.727 102.615C156.637 101.182 157.619 99.8393 159.028 101.158C161.419 103.369 163.728 106.251 166.585 107.995Z" fill="#BA68C8"/>
<path opacity="0.3" d="M174.627 105.817C173.161 105.866 171.572 105.981 170.238 105.276C169.542 104.9 167.781 103.819 169.05 103.065C169.869 102.591 171.089 102.836 171.974 102.779C173.079 102.705 174.185 102.566 175.249 102.394C177.452 102.05 179.622 101.575 181.8 101.117C182.512 100.977 183.495 101.01 183.667 101.723C183.789 102.181 183.437 102.631 183.085 102.959C180.874 105.031 177.673 105.702 174.627 105.817Z" fill="#BA68C8"/>
<path d="M169.058 10.6924L163.769 5.50096C162.499 4.24813 161.222 3.04444 159.257 3.94516L152.706 6.82747C151.77 7.17629 150.903 7.68621 150.143 8.33414C149.497 9.03972 149.014 9.8782 148.727 10.7906C147.126 15.0116 145.95 19.3811 145.214 23.8347C145.126 24.1057 145.099 24.3924 145.133 24.6751C145.167 24.9578 145.261 25.2298 145.41 25.4724C146.147 26.4223 147.867 25.9719 148.948 25.325C150.856 24.2032 152.501 22.5737 154.327 21.3127C154.802 22.9095 155.744 26.5697 156.424 27.0036C158.119 28.0763 160.362 26.3404 161.943 25.8327C165.03 24.8419 168.133 23.8757 171.163 22.7621C172.514 22.2708 176.829 21.1244 177.337 19.8224C177.844 18.5205 174.708 16.285 173.824 15.368L169.058 10.6924Z" fill="#455A64"/>
<path d="M162.32 10.709C163.04 11.6224 163.554 12.6807 163.827 13.8114C164.099 14.9421 164.124 16.1184 163.9 17.2597C164.285 17.4972 164.809 17.2187 165.12 16.924C165.431 16.6292 165.791 16.2525 166.258 16.3098C166.537 16.3679 166.792 16.5109 166.987 16.7193C168.313 17.8984 169.689 19.1758 170.131 20.7479C170.213 20.9586 170.213 21.1924 170.131 21.403C169.952 21.6733 169.677 21.8662 169.362 21.9434C167.587 22.6194 165.631 22.6513 163.834 22.0335C163.886 22.513 163.802 22.9974 163.592 23.4316C163.382 23.8658 163.055 24.2325 162.647 24.49C162.19 24.7695 161.678 24.9452 161.146 25.0046C160.614 25.0641 160.075 25.0058 159.568 24.8339C159.503 24.8221 159.437 24.8221 159.372 24.8339C159.285 24.8445 159.206 24.8886 159.151 24.9568C158.918 25.2333 158.663 25.4907 158.389 25.7265C158.237 25.8485 158.054 25.9267 157.861 25.9527C157.668 25.9786 157.471 25.9514 157.292 25.8739C157.112 25.7558 156.969 25.588 156.882 25.3907C156.266 24.2687 155.783 23.0788 155.441 21.8452C155.288 21.4303 155.268 20.9782 155.384 20.5514C155.513 20.2768 155.694 20.0295 155.916 19.8226C157.345 18.4948 158.683 17.0723 159.92 15.5647C160.452 14.8071 160.925 14.0105 161.337 13.1819C161.509 12.8052 162.557 11.0201 162.32 10.709Z" fill="#37474F"/>
<path d="M212.997 79.1062C208.995 82.3647 204.43 84.8625 199.528 86.4757C196.354 87.5532 192.981 87.9112 189.652 87.5238C186.14 86.9998 182.962 85.1983 179.785 83.7162C179.147 83.38 178.463 83.14 177.755 83.0038C176.828 82.9306 175.896 83.039 175.012 83.3232C171.441 84.2321 167.896 85.3293 164.252 85.9107C160.338 86.5412 155.425 86.9015 152.043 84.5023C150.479 83.3969 149.521 81.6364 148.62 79.9332C147.515 77.8534 146.45 75.7408 145.386 73.6445C145.187 73.1517 144.866 72.7177 144.452 72.3835C143.38 71.6466 140.899 72.6374 139.785 72.8666C139.645 72.8953 139.5 72.8953 139.359 72.8666C138.983 72.7684 138.884 72.2771 138.876 71.8922C138.836 68.7382 139.873 65.6649 141.816 63.1798L139.253 63.7693C139.024 63.8267 138.729 63.8512 138.606 63.6547C138.58 63.5925 138.566 63.5257 138.566 63.4582C138.566 63.3907 138.58 63.3239 138.606 63.2617C139.318 58.668 142.848 55.4827 145.533 51.9699C146.992 50.2533 148.104 48.2707 148.809 46.1316C149.622 43.2547 150.348 40.3588 150.987 37.4437C151.56 34.8644 152.084 32.2113 153.443 29.935C154.99 27.5602 157.035 25.5511 159.437 24.0475C164.086 20.8254 169.193 18.3191 174.586 16.6125C180.129 14.8602 185.615 13.6728 191.396 15.073C206.954 18.8397 214.742 23.0813 219.147 38.934C219.564 40.5062 220.785 53.3046 221.423 54.4919C222.93 65.1204 219.679 73.8083 212.997 79.1062Z" fill="#455A64"/>
<path d="M219.614 80.5475C211.483 86.9917 199.716 92.2077 190.815 86.9508C190.742 86.9508 190.3 85.5588 190.226 85.5833C190.152 85.6079 183.913 87.1146 176.969 88.9406C173.554 89.8485 170.051 90.3812 166.52 90.5291C162.156 90.5782 157.857 85.9928 155.311 82.8157C154.181 81.4073 153.616 79.8678 152.723 78.353C152.502 77.9763 150.438 73.4973 150.758 73.44L146.393 74.3161C146.253 74.3448 146.108 74.3448 145.968 74.3161C145.591 74.2179 145.493 73.7266 145.493 73.3417C145.446 70.188 146.48 67.1133 148.424 64.6293L145.861 65.2188C145.632 65.268 145.337 65.3007 145.214 65.1042C145.156 64.9818 145.141 64.843 145.173 64.7112C145.73 61.0919 148.391 58.1604 151.061 55.7039C153.73 53.2474 156.637 50.709 157.964 47.2945C158.421 45.9539 158.795 44.5866 159.085 43.2003C159.749 40.6046 160.535 38.0744 161.157 35.4541C161.566 33.71 161.927 31.4254 163.09 29.9924C169.452 22.1152 184.797 13.3373 197.931 16.5307C213.489 20.2974 221.276 24.539 225.682 40.3917C226.107 41.9556 227.319 54.7623 227.966 55.9496C229.571 66.5617 226.296 75.2414 219.614 80.5475Z" fill="#455A64"/>
<path d="M234.345 62.9586C233.845 57.8081 229.8 53.8367 226.115 50.2011C222.431 46.5655 218.631 42.201 218.836 37.0342L181.939 81.5462L185.214 88.8339C185.485 89.4398 185.861 90.1276 186.516 90.2341C187.025 90.2209 187.524 90.0891 187.974 89.8492C190.676 88.9158 192.993 92.0437 195.761 92.7479C197.186 93.0873 198.674 93.0619 200.086 92.674C201.499 92.2862 202.791 91.5484 203.843 90.5289C206.054 88.4982 208.371 85.0918 211.368 85.2064C212.416 85.2474 213.431 85.5913 214.48 85.5749C216.568 85.5749 218.41 84.0273 219.434 82.2013C220.349 80.3154 220.928 78.2842 221.145 76.1992C224.085 76.6414 226.746 73.9392 227.36 71.0323C227.974 68.1255 227.098 65.1367 226.23 62.2953C228.919 62.6804 231.629 62.9019 234.345 62.9586Z" fill="#455A64"/>
<path d="M165.333 91.9291C166.541 93.3852 168.141 94.465 169.943 95.0407C171.067 95.287 172.238 95.1935 173.308 94.7721C174.379 94.3507 175.299 93.6205 175.953 92.6743C178.484 94.2628 182.267 96.0807 185.337 95.8841C185.639 95.89 185.931 95.7818 186.156 95.5812C186.291 95.3716 186.36 95.1261 186.353 94.877L186.525 92.142C191.154 93.5036 196.047 93.7033 200.772 92.7234C199.173 90.4962 197.571 88.2717 195.966 86.0499C194.529 84.2172 193.332 82.2084 192.404 80.0724C192.06 79.188 191.716 78.1563 190.832 77.8042C190.296 77.6551 189.73 77.6551 189.194 77.8042C181.951 79.0659 174.888 81.1995 168.158 84.1584C165.833 85.1819 163.401 84.9117 160.985 85.706C160.574 85.8261 160.187 86.0144 159.839 86.2628C158.733 87.1717 158.971 89.0386 159.921 90.1113C160.501 90.7399 161.26 91.1767 162.095 91.364C162.93 91.5512 163.802 91.4798 164.596 91.1594L165.333 91.9291Z" fill="#E0E0E0"/>
<path opacity="0.05" d="M165.333 91.9291C166.541 93.3852 168.141 94.465 169.943 95.0407C171.067 95.287 172.238 95.1935 173.308 94.7721C174.379 94.3507 175.299 93.6205 175.953 92.6743C178.484 94.2628 182.267 96.0807 185.337 95.8841C185.639 95.89 185.931 95.7818 186.156 95.5812C186.291 95.3716 186.36 95.1261 186.353 94.877L186.525 92.142C191.154 93.5036 196.047 93.7033 200.772 92.7234C199.173 90.4962 197.571 88.2717 195.966 86.0499C194.529 84.2172 193.332 82.2084 192.404 80.0724C192.06 79.188 191.716 78.1563 190.832 77.8042C190.296 77.6551 189.73 77.6551 189.194 77.8042C181.951 79.0659 174.888 81.1995 168.158 84.1584C165.833 85.1819 163.401 84.9117 160.985 85.706C160.574 85.8261 160.187 86.0144 159.839 86.2628C158.733 87.1717 158.971 89.0386 159.921 90.1113C160.501 90.7399 161.26 91.1767 162.095 91.364C162.93 91.5512 163.802 91.4798 164.596 91.1594L165.333 91.9291Z" fill="black"/>
<path d="M147.802 81.9804C147.99 82.3734 148.187 82.7992 148.383 83.1595C148.732 83.9487 149.23 84.6633 149.849 85.2639C150.497 85.7659 151.229 86.1486 152.011 86.3939C154.147 87.3301 156.405 87.9613 158.717 88.2691C160.737 88.3742 162.761 88.1866 164.727 87.7122C167.585 87.1227 170.402 86.353 173.186 85.485C174.264 85.0856 175.39 84.8322 176.535 84.7317C179.27 84.6334 181.644 86.2875 184.15 87.1227C185.37 87.5321 186.484 87.8678 187.597 87.1227C188.141 86.8018 188.575 86.3249 188.844 85.7539C189.113 85.1829 189.203 84.5443 189.104 83.921C190.078 84.4205 193.239 85.5587 193.829 84.1421C194.836 81.7593 192.117 77.8862 191.11 75.7736C189.587 72.6129 187.835 67.0448 186.025 64.0397C181.98 57.3252 172.826 54.0826 172.924 51.5196C173.096 43.0037 173.554 37.5421 175.38 32.5144C177.206 27.4867 183.634 21.5174 181.579 20.9851C179.941 20.5757 170.549 28.1827 169.108 30.7211C167.388 33.7426 162.647 47.7693 159.38 50.4551C157.456 52.0437 150.439 54.5084 150.373 54.5493C149.849 54.7786 147.826 58.9219 147.22 60.101C146.13 62.2099 145.152 64.3746 144.289 66.5862C143.865 67.5215 143.559 68.5064 143.38 69.5177C143.159 71.9005 144.428 74.1605 145.313 76.2813C146.05 78.1646 146.868 80.0971 147.802 81.9804Z" fill="#F5F5F5"/>
<path opacity="0.05" d="M163.892 80.5719C163.727 80.5527 163.562 80.5934 163.425 80.6865C159.879 82.5371 154.36 81.5054 152.78 77.5422C152.469 76.7889 152.313 75.9782 151.961 75.2413C151.933 75.1547 151.888 75.0749 151.827 75.0072C151.766 74.9395 151.692 74.8853 151.609 74.8482C150.184 74.447 151.11 77.796 151.257 78.3528C151.863 80.5555 154.352 82.0049 156.457 82.5207C157.901 82.8697 159.404 82.9004 160.862 82.6108C161.59 82.469 162.284 82.1912 162.909 81.792C163.114 81.6609 164.334 80.7602 163.973 80.5719H163.892Z" fill="black"/>
<path d="M153.419 65.7919H153.574C154.33 65.9446 155.055 66.2213 155.72 66.6107C156.252 66.9644 156.732 67.3917 157.144 67.8799C157.781 68.5152 158.272 69.2805 158.586 70.1235C158.826 70.765 158.841 71.4696 158.626 72.1204C158.412 72.7712 157.982 73.3292 157.406 73.7018C155.877 74.7869 154.212 75.6652 152.452 76.3139C151.13 76.7105 149.709 76.6293 148.44 76.0846C147.771 75.6885 147.194 75.1555 146.745 74.5207C145.857 73.38 145.094 72.1474 144.469 70.8441C144.223 70.3998 144.072 69.9089 144.027 69.4029C143.953 67.0856 147.163 65.3087 149.161 65.1777C150.602 65.1814 152.035 65.3881 153.419 65.7919Z" fill="#263238"/>
<path d="M207.576 4.00242C208.166 3.2409 208.878 2.40569 209.836 2.36475C210.541 2.44372 211.199 2.75818 211.703 3.25728C214.373 5.37807 218.647 7.65444 220.637 10.4139C222.275 12.6985 221.185 17.0629 220.874 19.806C220.003 27.3747 218.621 34.8759 216.739 42.2585C215.732 42.8399 213.144 41.8901 212.162 41.2677C206.625 37.7849 201.366 33.8782 196.432 29.5829C194.696 28.0763 191.724 25.6525 191.453 23.1796C191.183 20.7067 193.664 19.3802 195.204 17.8899C199.659 13.5669 203.794 8.92548 207.576 4.00242Z" fill="#455A64"/>
<path d="M205.284 10.8559C205.288 10.9241 205.288 10.9924 205.284 11.0606C205.241 11.7705 205.148 12.4765 205.006 13.1732C204.606 14.1826 203.945 15.0673 203.09 15.7362L200.723 17.9225C199.559 18.8821 198.597 20.0619 197.89 21.3943C197.827 21.5093 197.804 21.6417 197.824 21.771C197.882 21.9675 198.119 22.0412 198.324 22.0822C199.373 22.2829 200.451 22.2829 201.501 22.0822C201.435 22.5571 201.378 23.032 201.313 23.507C201.123 24.492 201.093 25.501 201.223 26.4957C201.284 27.0048 201.464 27.4923 201.749 27.919C202.033 28.3456 202.414 28.6995 202.86 28.9522C203.187 29.1317 203.567 29.1897 203.933 29.116C204.234 29.0161 204.512 28.8574 204.752 28.6493L206.389 27.3637C206.294 28.7347 206.551 30.1073 207.135 31.3514C207.478 32.0966 208.076 32.8663 208.895 32.8745C209.714 32.8827 210.369 31.9901 210.836 31.3187C211.433 32.2849 213.161 35.2 214.635 34.332C215.015 34.0621 215.315 33.6943 215.503 33.2675C217.558 29.3289 217.886 24.8662 218.664 20.5755C217.999 21.5078 217.135 22.28 216.134 22.8355C215.053 23.4251 213.677 23.7362 212.629 23.0812C212.124 22.7187 211.717 22.2379 211.442 21.6809C210.332 19.396 209.723 16.9 209.657 14.3605C209.534 12.8129 209.476 11.2571 209.288 9.70953C209.202 8.3652 208.985 7.03243 208.641 5.72998C207.176 7.20389 205.669 8.83338 205.284 10.8559Z" fill="#37474F"/>
<path d="M183.953 43.7079C183.056 43.8498 182.241 44.3107 181.658 45.0058C181.074 45.7009 180.761 46.5834 180.776 47.4909C180.776 49.4479 182.111 50.9137 183.838 50.7663C184.729 50.6192 185.537 50.1572 186.116 49.4644C186.694 48.7716 187.005 47.894 186.991 46.9914C187.048 45.0344 185.681 43.5687 183.953 43.7079Z" fill="white"/>
<path d="M184.134 43.0447C183.234 43.1851 182.416 43.6464 181.831 44.3434C181.245 45.0404 180.932 45.9258 180.948 46.836C180.948 48.7848 182.291 50.2505 184.011 50.1113C184.909 49.9712 185.726 49.511 186.311 48.8158C186.897 48.1205 187.211 47.237 187.196 46.3283C187.229 44.3795 185.853 42.9055 184.134 43.0447Z" fill="#263238"/>
<path d="M184.92 46.3691C184.795 46.397 184.667 46.397 184.543 46.3691C184.418 46.3412 184.302 46.2861 184.202 46.2078C184.101 46.1295 184.02 46.0298 183.963 45.9161C183.906 45.8024 183.874 45.6775 183.871 45.5503C183.834 45.2748 183.896 44.995 184.046 44.761C184.196 44.527 184.424 44.354 184.69 44.2729C184.814 44.245 184.943 44.245 185.067 44.2729C185.192 44.3008 185.308 44.3559 185.408 44.4342C185.508 44.5125 185.59 44.6121 185.647 44.7259C185.704 44.8396 185.735 44.9645 185.738 45.0917C185.776 45.3672 185.714 45.647 185.564 45.881C185.414 46.115 185.185 46.288 184.92 46.3691Z" fill="#FAFAFA"/>
<path d="M156.964 41.1611C156.169 41.2435 155.43 41.6103 154.884 42.1941C154.338 42.7779 154.021 43.5393 153.992 44.3382C153.935 44.708 153.957 45.0857 154.058 45.4461C154.158 45.8066 154.334 46.1414 154.575 46.4282C154.815 46.715 155.114 46.9472 155.451 47.1092C155.788 47.2713 156.156 47.3595 156.53 47.3679C157.325 47.2839 158.062 46.9166 158.608 46.3331C159.154 45.7497 159.472 44.9892 159.503 44.1908C159.56 43.8211 159.537 43.4433 159.437 43.0829C159.336 42.7225 159.16 42.3877 158.92 42.1009C158.68 41.8141 158.381 41.5819 158.044 41.4198C157.706 41.2577 157.338 41.1696 156.964 41.1611Z" fill="white"/>
<path d="M157.153 40.5884C156.358 40.6707 155.619 41.0376 155.073 41.6214C154.527 42.2051 154.21 42.9666 154.18 43.7655C154.123 44.1352 154.146 44.513 154.246 44.8734C154.347 45.2338 154.523 45.5686 154.763 45.8554C155.003 46.1422 155.302 46.3744 155.639 46.5365C155.977 46.6986 156.345 46.7867 156.719 46.7952C157.516 46.7194 158.257 46.3543 158.804 45.7689C159.35 45.1835 159.662 44.4184 159.683 43.6181C159.741 43.2488 159.72 42.8712 159.621 42.5108C159.521 42.1504 159.346 41.8154 159.106 41.5284C158.866 41.2414 158.568 41.0091 158.231 40.8469C157.894 40.6848 157.527 40.5966 157.153 40.5884Z" fill="#263238"/>
<path d="M157.685 43.5443C157.576 43.5636 157.464 43.5585 157.357 43.5294C157.249 43.5003 157.15 43.4479 157.066 43.3759C156.981 43.3039 156.913 43.2142 156.868 43.113C156.822 43.0119 156.799 42.9019 156.801 42.791C156.781 42.5501 156.847 42.31 156.986 42.1125C157.125 41.915 157.329 41.7726 157.562 41.7101C157.672 41.6909 157.785 41.6961 157.892 41.7251C158 41.7542 158.099 41.8065 158.185 41.8783C158.27 41.9501 158.338 42.0398 158.385 42.1409C158.431 42.2419 158.455 42.3521 158.455 42.4634C158.474 42.7053 158.408 42.9463 158.267 43.144C158.126 43.3417 157.92 43.4834 157.685 43.5443Z" fill="#FAFAFA"/>
<path d="M228.752 68.9608C228.512 66.909 227.89 64.9202 226.917 63.0979C226.77 62.8277 226.565 63.2289 226.606 63.3927C227.049 64.6869 227.224 66.0574 227.122 67.4214C226.916 69.0694 226.438 70.6716 225.706 72.1625C224.592 74.2423 222.266 76.0601 219.802 75.8882C219.098 75.839 218.23 76.2075 218.451 77.0837C218.724 78.2073 218.662 79.3865 218.272 80.4752C217.882 81.5638 217.181 82.5142 216.256 83.2086C214.22 84.6116 211.722 85.1775 209.28 84.789C207.274 84.5924 205.963 86.271 204.817 87.6794C203.175 89.7035 201.292 91.5184 199.208 93.0838C199.548 93.0931 199.888 93.0711 200.223 93.0183C200.716 92.834 201.19 92.6037 201.64 92.3304C203.09 91.4347 204.433 90.3771 205.644 89.1779C206.234 88.6375 206.807 88.0889 207.405 87.5402C207.698 87.2271 208.066 86.9937 208.474 86.862C208.882 86.7302 209.317 86.7044 209.738 86.7869C212.678 87.0981 215.847 86.5658 218.18 84.6497C219.161 83.8694 219.946 82.8708 220.472 81.7334C220.998 80.5961 221.251 79.3515 221.21 78.099C222.531 77.9551 223.8 77.5068 224.919 76.7893C226.037 76.0717 226.973 75.1046 227.654 73.9639C228.564 72.4636 228.95 70.704 228.752 68.9608Z" fill="#37474F"/>
<path d="M259.794 103.983C259.733 102.821 259.378 101.694 258.762 100.707C256.731 97.1862 253.259 94.7543 249.755 92.6826C248.117 91.7164 246.332 90.7665 244.449 90.963C244.547 91.5035 245.063 91.8392 245.521 92.1176C247.903 93.5553 250.167 95.1789 252.293 96.9733C254.103 98.4963 256.248 100.175 256.895 102.533C257.124 103.033 257.155 103.6 256.981 104.121C256.808 104.643 256.444 105.079 255.962 105.342C254.987 106.007 253.86 106.415 252.686 106.529C252.187 106.578 251.548 106.677 251.45 107.168C251.352 107.659 251.777 107.946 252.121 108.224C253.022 108.961 253.718 110.173 253.341 111.278C253.181 111.674 252.924 112.024 252.593 112.294C252.263 112.564 251.87 112.747 251.45 112.826C250.608 112.978 249.743 112.953 248.911 112.752C248.559 112.687 248.133 112.629 247.896 112.9C247.356 113.489 248.658 114.537 249.149 114.767C250.326 115.22 251.621 115.264 252.825 114.889C253.489 114.708 254.1 114.373 254.611 113.913C255.121 113.452 255.517 112.878 255.765 112.236C255.998 111.589 256.025 110.886 255.842 110.223C255.658 109.56 255.274 108.971 254.742 108.535C255.996 108.33 257.186 107.84 258.222 107.102C258.717 106.749 259.119 106.28 259.393 105.737C259.667 105.193 259.805 104.591 259.794 103.983Z" fill="#37474F"/>
<path d="M225.419 175.14C225.264 174.951 224.772 175.254 224.305 175.361C223.756 175.478 223.187 175.476 222.638 175.356C222.089 175.236 221.571 175.001 221.12 174.665C220.539 174.196 220.068 173.605 219.74 172.935C219.412 172.264 219.234 171.53 219.22 170.783C218.538 171.538 217.718 172.155 216.805 172.601C216.343 172.818 215.83 172.902 215.324 172.842C214.818 172.783 214.338 172.583 213.939 172.266C213.577 171.892 213.322 171.428 213.202 170.923C212.945 169.892 212.884 168.823 213.022 167.77C213.197 165.785 213.626 163.832 214.299 161.956C214.61 161.097 214.905 160.229 215.282 159.402C215.659 158.575 216.355 157.854 216.428 156.945C215.904 156.814 215.429 157.273 215.094 157.698C212.015 161.645 210.181 166.788 211.098 171.709C211.236 172.937 211.819 174.073 212.735 174.902C213.388 175.31 214.134 175.543 214.903 175.579C215.672 175.614 216.437 175.452 217.124 175.107C217.175 175.076 217.232 175.055 217.291 175.046C217.35 175.038 217.411 175.042 217.468 175.058C217.54 175.099 217.598 175.162 217.632 175.238C218.059 175.925 218.633 176.508 219.312 176.946C219.992 177.383 220.761 177.664 221.562 177.768C222.461 177.898 223.377 177.725 224.166 177.277C224.758 176.934 225.203 176.386 225.419 175.737C225.476 175.435 225.476 175.254 225.419 175.14Z" fill="#37474F"/>
<path d="M213.194 56.9157C212.981 56.6178 212.737 56.3434 212.466 56.0968C212.624 56.0749 212.78 56.0392 212.932 55.9904C213.47 55.8373 213.979 55.5966 214.439 55.278C215.512 54.41 214.783 53.19 214.005 52.3793C213.078 51.4698 212.069 50.6475 210.992 49.9228C209.827 49.0269 208.532 48.3145 207.151 47.8102C206.807 47.6956 206.873 48.3834 207.029 48.5144C208.068 49.3824 209.182 50.1521 210.255 50.9709C210.771 51.364 211.27 51.7897 211.761 52.1828C212.218 52.4823 212.625 52.8527 212.965 53.28C213.096 53.5175 213.104 53.4274 212.965 53.6403C212.717 53.8092 212.439 53.9288 212.146 53.9924C211.635 54.16 211.112 54.2913 210.582 54.3855C210.343 54.417 210.118 54.5175 209.935 54.6746C209.752 54.8317 209.618 55.0387 209.55 55.2704C209.483 55.5021 209.484 55.7485 209.554 55.9795C209.623 56.2106 209.759 56.4163 209.944 56.5718C210.247 56.9075 210.64 57.104 210.959 57.3906C211.302 57.7653 211.567 58.2053 211.737 58.6844C212.136 59.5378 212.245 60.4981 212.048 61.4193C211.915 61.776 211.648 62.067 211.304 62.2305C210.96 62.394 210.566 62.4173 210.206 62.2954C209.706 62.1291 209.238 61.88 208.822 61.5585C208.371 61.2637 207.88 61.0917 207.43 60.8133C207.216 60.6609 206.989 60.5292 206.75 60.4203C206.472 60.3057 206.488 60.8297 206.529 60.9525C206.647 61.5605 206.883 62.1393 207.225 62.6557C207.49 62.9619 207.79 63.2366 208.118 63.4746C208.752 63.9464 209.491 64.2582 210.271 64.3835C210.96 64.5341 211.678 64.4855 212.341 64.2434C213.003 64.0012 213.584 63.5755 214.013 63.016C214.832 61.8041 214.619 60.2156 214.202 58.9218C213.973 58.2047 213.633 57.5277 213.194 56.9157Z" fill="#37474F"/>
<path d="M337.272 207.615C340.237 207.009 343.635 206.878 346.132 205.158C340.359 216.622 325.178 220.847 313.608 221.772C316.036 217.85 317.798 213.553 318.824 209.056C320.211 202.453 320.609 195.681 320.003 188.962C322.599 183.443 323.278 177.694 324.998 171.979C325.883 172.449 326.652 173.111 327.247 173.918C327.842 174.724 328.249 175.654 328.437 176.638C329.698 171.743 329.504 166.587 327.88 161.801C326.128 157.125 322.427 153.031 317.661 151.393C313.854 150.14 309.931 150.959 304.936 151.655C299.483 152.425 292.482 151.655 287.921 148.879C289.772 147.537 294.259 145.334 296.732 139.225C286.238 147.402 273.052 151.331 259.794 150.23C261.849 150.402 263.446 144.359 263.511 143.025C263.675 140.003 263.438 136.9 263.864 133.821C264.853 126.568 268.278 119.867 273.575 114.816C269.129 116.933 264.962 119.592 261.17 122.734C263.528 117.002 265.968 111.049 270.177 106.48C270.406 106.243 270.627 105.997 270.873 105.768C272.138 104.461 273.486 103.239 274.91 102.107C280.445 97.6447 287.192 94.4267 293.8 93.8535C305.223 92.8791 314.812 94.615 321.747 98.8975C320.233 95.6231 317.749 92.8932 314.632 91.0776C342.783 94.1647 361.952 124.863 362.46 150.73C363.271 172.159 356.319 194.841 337.272 207.615Z" fill="#263238"/>
<path d="M317.662 151.393C319.286 151.946 320.802 152.777 322.141 153.85C322.46 154.095 324.294 150.877 324.392 150.517C324.747 149.191 324.605 147.782 323.991 146.554C323.333 145.524 322.502 144.616 321.535 143.868C323.398 143.739 325.249 143.465 327.07 143.049C329.052 142.607 331.164 141.903 332.352 140.282C333.539 138.66 333.4 135.884 331.533 135.025C335.93 134.951 340.638 134.771 344.167 132.151C344.781 131.738 345.278 131.174 345.609 130.513C345.984 129.423 345.943 128.233 345.494 127.172C344.438 123.954 342.456 121.833 340.106 119.524C338.771 118.214 334.915 113.719 332.736 114.046C336.427 113.5 340.095 112.812 343.742 111.983C345.027 111.809 346.243 111.295 347.263 110.492L347.377 110.369C339.115 100.077 327.864 92.5106 314.624 91.0613C317.741 92.8769 320.225 95.6068 321.739 98.8812C314.804 94.5986 305.215 92.8627 293.792 93.8371C287.152 94.4103 280.437 97.6283 274.902 102.091C273.478 103.222 272.13 104.445 270.865 105.751C270.619 105.98 270.398 106.226 270.169 106.464C265.927 111.033 263.487 116.953 261.162 122.718C264.954 119.579 269.121 116.922 273.567 114.808C268.27 119.859 264.846 126.56 263.856 133.813C263.43 136.892 263.667 139.995 263.504 143.017C263.438 144.351 261.866 150.386 259.786 150.222C273.036 151.332 286.218 147.418 296.716 139.258C294.259 145.367 289.756 147.569 287.905 148.912C292.466 151.688 299.467 152.458 304.92 151.688C309.932 150.992 313.854 150.173 317.662 151.393Z" fill="#F5F5F5"/>
<path d="M287.921 148.937C292.482 151.713 299.483 152.482 304.936 151.713C309.931 151.017 313.854 150.198 317.661 151.451C319.285 152.003 320.801 152.835 322.14 153.907C322.46 154.153 324.294 150.935 324.392 150.574C324.747 149.249 324.604 147.839 323.991 146.611C323.332 145.582 322.501 144.673 321.534 143.925C323.398 143.796 325.249 143.522 327.07 143.107C328.902 142.825 330.61 142.01 331.983 140.765L331.016 140.863C327.261 141.179 323.525 140.055 320.568 137.719C319.749 137.088 318.988 136.155 319.283 135.188C315.36 137.711 310.979 140.331 306.361 139.676C305.568 139.623 304.819 139.296 304.24 138.75C303.941 138.314 303.735 137.82 303.636 137.3C303.537 136.78 303.548 136.245 303.667 135.729C303.887 133.856 304.349 132.02 305.043 130.267C298.009 128.769 291.164 133.944 283.966 133.87C283.016 133.87 281.829 133.551 281.673 132.617C281.645 132.175 281.748 131.733 281.968 131.348L284.367 126.14C280.693 128.544 276.8 130.594 272.74 132.265C271.143 132.928 269.112 133.469 267.827 132.306C267.095 131.492 266.705 130.428 266.738 129.334C266.595 127.044 266.904 124.749 267.647 122.578C265.695 126.079 264.417 129.915 263.88 133.887C263.454 136.965 263.692 140.069 263.528 143.09C263.462 144.425 261.89 150.46 259.81 150.296C273.061 151.379 286.235 147.438 296.715 139.258C294.259 145.367 289.772 147.569 287.921 148.937Z" fill="#E0E0E0"/>
<path d="M117.242 202.98C113.148 243.922 126.609 254.305 130.433 255.492C134.257 256.679 139.383 257.048 142.315 252.421C145.246 247.795 135.887 245.15 135.887 245.15C132.784 234.341 136.337 217.719 140.137 211.496C145.631 202.489 148.325 187.496 144.231 175.827C140.137 164.159 117.848 182.509 117.242 202.98Z" fill="#37474F"/>
<path d="M135.192 242.079C135.372 243.117 135.604 244.144 135.888 245.158C134.528 244.815 133.108 244.794 131.739 245.097C130.37 245.4 129.09 246.018 128.002 246.902C128.002 246.902 126.479 242.481 135.192 242.079Z" fill="#263238"/>
<path d="M133.071 249.801C133.143 249.784 133.219 249.784 133.292 249.801C133.97 249.822 134.637 249.975 135.257 250.251C136.204 250.779 136.932 251.627 137.312 252.642C137.667 253.582 137.76 254.601 137.582 255.59C137.582 255.729 137.525 255.877 137.492 256.016C136.996 256.142 136.489 256.224 135.977 256.262C135.977 256.139 136.051 256.024 136.084 255.893C136.253 255.076 136.202 254.228 135.936 253.437C135.364 252.036 134.36 250.854 133.071 250.063C133.04 250.045 133.015 250.02 132.997 249.989C132.985 249.971 132.979 249.95 132.979 249.928C132.979 249.906 132.985 249.885 132.997 249.866C133.012 249.836 133.038 249.812 133.071 249.801Z" fill="#263238"/>
<path d="M140.555 254.444C140.604 253.854 140.579 253.259 140.481 252.675C140.233 251.189 139.512 249.822 138.426 248.778C138.327 248.679 138.213 248.573 138.237 248.425C138.344 248.016 140.063 249.195 140.243 249.359C140.941 250.03 141.442 250.88 141.693 251.815C141.803 252.2 141.875 252.595 141.906 252.995C141.516 253.531 141.062 254.017 140.555 254.444Z" fill="#263238"/>
<path d="M46.6177 219.357C38.503 217.236 31.8131 212.405 25.9993 206.509C24.7711 205.264 23.5428 203.987 22.4537 202.644C10.3759 188.126 9.86821 166.288 21.6349 151.524C26.4251 145.522 32.6401 140.797 39.2481 136.891C44.1611 134.009 48.9759 132.257 52.849 128.048C56.3455 124.257 56.1735 119.63 55.0271 116.314C58.1609 117.787 60.951 119.9 63.2176 122.518C65.4841 125.136 67.1766 128.199 68.1859 131.512C70.5359 139.397 68.4806 147.798 63.5758 154.251C57.4918 162.259 48.7139 167.86 43.1048 176.089C37.9789 183.614 36.636 193.539 40.7384 201.833C42.4455 205.151 44.9053 208.023 47.921 210.22C50.9368 212.416 54.4247 213.877 58.106 214.484C58.9701 214.522 59.8054 214.806 60.5133 215.303C61.6433 216.343 61.2012 218.358 60.0138 219.324C58.729 220.178 57.1966 220.581 55.6576 220.47C52.6082 220.502 49.5681 220.128 46.6177 219.357Z" fill="#37474F"/>
<path d="M68.2103 131.528C70.5604 139.413 68.5051 147.815 63.6003 154.267C62.7323 155.413 61.807 156.503 60.8408 157.542C61.9683 155.29 62.6626 152.846 62.8879 150.337C62.7487 151.925 54.8797 157.788 54.3965 156.486C54.3306 156.213 54.3536 155.926 54.4621 155.667C55.4283 152.605 56.9186 149.935 57.3034 146.726C52.9718 148.936 49.3116 152.4 44.7343 154.03C44.4395 154.136 44.0382 154.202 43.8663 153.94C43.7859 153.792 43.7654 153.619 43.809 153.456C44.0023 152.483 44.3477 151.546 44.8325 150.681C46.4061 147.582 48.2329 144.619 50.2942 141.821C47.3024 143.235 44.4346 144.897 41.7209 146.791C40.5091 147.61 39.1334 148.576 37.6841 148.281C37.7535 145.538 38.88 142.927 40.8284 140.994C34.4839 143.328 28.4373 146.404 22.814 150.157C27.5483 144.88 33.1066 140.406 39.2726 136.908C44.1856 134.025 49.0004 132.273 52.8735 128.064C56.3699 124.273 56.198 119.647 55.0516 116.33C58.1854 117.803 60.9755 119.917 63.242 122.534C65.5086 125.152 67.2011 128.216 68.2103 131.528Z" fill="#F5F5F5"/>
<path d="M78.6912 241.842C85.6677 245.117 98.0403 244.061 102.896 234.972C107.752 225.883 107.989 204.044 95.2563 199.86C82.5233 195.676 67.383 228.364 78.6912 241.842Z" fill="#455A64"/>
<path d="M75.1704 233.981L80.3045 214.845C79.4442 212.924 78.2833 211.152 76.8654 209.596C77.152 208.597 77.455 207.606 77.7743 206.64C80.3726 208.662 82.5248 211.199 84.0957 214.092C89.8276 224.794 86.2739 238.853 86.2739 238.853C86.2739 238.853 90.4827 242.276 98.278 234.317C101.652 230.87 103.92 226.128 105.402 221.879C105.23 227.406 104.354 232.237 102.896 234.98C98.0406 244.069 85.7007 245.15 78.6914 241.85C76.8982 239.551 75.6899 236.85 75.1704 233.981Z" fill="#37474F"/>
<path d="M135.912 145.489C130.999 156.134 149.087 170.054 144.46 190.796C141.005 206.288 123.334 215.705 118.634 221.281C113.934 226.857 111.363 243.128 114.794 253.846C114.794 253.846 124.219 256.196 121.435 260.913C118.651 265.629 113.508 265.408 109.652 264.344C105.795 263.279 90.368 252.561 91.0149 211.635C91.0149 211.635 82.7774 206.28 80.3045 214.845C82.3325 219.302 83.3423 224.155 83.2605 229.052C83.0231 235.914 78.6914 241.842 78.6914 241.842C81.5617 241.732 84.4352 241.949 87.2564 242.489C90.9003 243.308 91.76 246.583 90.9003 248.696C90.0405 250.808 85.9872 252.986 81.8931 252.127C77.7989 251.267 58.2778 247.451 48.6892 236.274C39.1006 225.097 35.2848 206.386 41.1313 195.479C48.7956 181.182 55.6002 176.392 81.1479 164.11C92.1613 158.82 96.9597 150.001 97.3855 140.724L135.912 145.489Z" fill="#455A64"/>
<path d="M144.6 178.472C143.922 177.699 143.109 177.055 142.201 176.572C143.436 179.702 143.511 183.169 142.414 186.349C141.952 187.526 141.405 188.667 140.776 189.764C140.644 188.676 140.369 187.61 139.957 186.595C140.358 188.052 139.597 190.787 139.179 191.926C136.895 197.558 133.391 202.614 128.919 206.73C130.557 203.258 130.106 198.959 127.789 196.323L127.298 200.024C124.727 198.787 123.433 196.29 121.992 193.997C121.124 192.622 119.216 187.537 120.911 186.112C119.754 187.094 119.028 188.49 118.888 190.001C118.839 190.648 118.643 191.549 117.996 191.483C117.763 191.44 117.552 191.319 117.398 191.139C110.741 184.949 107.703 172.847 114.942 160.842C116.579 158.173 136.379 157.567 137.312 158.312C140.768 160.965 141.275 162.013 142.389 164.044C143.871 166.763 144.845 169.391 145.083 174.394C145.081 175.768 144.918 177.136 144.6 178.472Z" fill="#FAFAFA"/>
<path d="M135.912 145.489L97.4263 140.724C97.2529 144.42 96.3279 148.042 94.7078 151.369C97.8112 155.119 104.296 158.026 107.703 159.082C114.91 161.393 122.545 162.051 130.041 161.006C130.834 160.884 131.619 160.712 132.391 160.49C134.148 159.97 135.834 159.233 137.41 158.296C135.355 153.489 134.176 149.272 135.912 145.489Z" fill="#BA68C8"/>
<path d="M66.3186 201.154C72.698 202.481 78.3781 206.081 82.3023 211.283C81.3862 212.311 80.7044 213.527 80.3044 214.845C77.0781 207.172 66.3186 201.154 66.3186 201.154Z" fill="#37474F"/>
<path d="M96.542 248.45C92.0722 236.174 89.5524 223.274 89.0742 210.218C89.5737 197.248 93.6515 195.479 93.6515 195.479C93.6515 195.479 91.2605 200.597 91.0149 211.635C91.0149 211.635 91.1213 224.941 96.542 248.45Z" fill="#37474F"/>
<path d="M113.999 250.784C114.221 251.818 114.494 252.84 114.818 253.846C113.449 253.542 112.027 253.562 110.666 253.905C109.306 254.247 108.044 254.903 106.982 255.82C106.982 255.82 105.303 251.447 113.999 250.784Z" fill="#37474F"/>
<path d="M73.1724 245.322C75.3062 244.717 77.2198 243.509 78.6831 241.842C80.3791 241.785 82.0769 241.826 83.7681 241.965C80.0342 246.542 73.1724 245.322 73.1724 245.322Z" fill="#37474F"/>
<path d="M112.116 258.563C112.186 258.546 112.259 258.546 112.329 258.563C113.01 258.557 113.684 258.691 114.311 258.956C115.275 259.449 116.03 260.271 116.44 261.273C116.824 262.202 116.948 263.218 116.8 264.213L116.726 264.647C116.23 264.782 115.723 264.878 115.212 264.933C115.212 264.81 115.285 264.696 115.31 264.565C115.455 263.741 115.378 262.893 115.089 262.108C114.473 260.727 113.431 259.58 112.116 258.833L112.051 258.767C112.039 258.748 112.032 258.725 112.032 258.702C112.032 258.679 112.039 258.656 112.051 258.636C112.062 258.604 112.086 258.578 112.116 258.563Z" fill="#263238"/>
<path d="M119.74 262.976C119.766 262.386 119.722 261.795 119.609 261.216C119.312 259.736 118.548 258.39 117.431 257.375C117.332 257.285 117.218 257.179 117.242 257.031C117.332 256.614 119.085 257.752 119.273 257.908C119.991 258.559 120.518 259.394 120.796 260.323C120.915 260.708 120.997 261.102 121.042 261.502C120.669 262.044 120.231 262.539 119.74 262.976Z" fill="#263238"/>
<path d="M82.6626 247.377C82.7219 247.328 82.7922 247.295 82.8673 247.279C83.5184 247.091 84.2 247.033 84.8735 247.107C85.9341 247.318 86.8856 247.899 87.5593 248.745C88.0866 249.407 88.4512 250.184 88.6238 251.013C88.1969 251.261 87.7505 251.475 87.2891 251.652C87.1313 251.035 86.853 250.456 86.4702 249.948C85.4993 248.783 84.1784 247.962 82.7036 247.606C82.6734 247.599 82.6454 247.585 82.6217 247.566C82.6123 247.546 82.6074 247.525 82.6074 247.504C82.6074 247.483 82.6123 247.462 82.6217 247.443C82.6296 247.418 82.6437 247.395 82.6626 247.377Z" fill="#263238"/>
<path d="M90.3682 249.58C90.2314 249.031 90.0308 248.501 89.7704 248C89.0741 246.664 87.9697 245.585 86.6179 244.921C86.4951 244.855 86.3559 244.781 86.3313 244.634C86.3313 244.216 88.3129 244.814 88.5258 244.912C89.3987 245.342 90.1377 246.002 90.6629 246.82C90.8536 247.105 91.0181 247.407 91.1543 247.721C91.1095 248.055 91.0242 248.382 90.9004 248.695C90.7698 249.016 90.5902 249.314 90.3682 249.58Z" fill="#263238"/>
<path d="M119.141 201.956C119.141 201.956 120.304 216.073 116.636 224.532C117.156 223.358 117.828 222.256 118.634 221.256C119.745 220.028 120.958 218.897 122.261 217.875C122.136 212.429 121.081 207.046 119.141 201.956Z" fill="#37474F"/>
<path d="M93.7583 120.981C90.2291 114.783 91.1954 100.298 96.4277 97.3661C101.341 94.5902 112.747 109.157 112.747 109.157C112.747 109.157 103.396 119.458 93.7583 120.981Z" fill="#37474F"/>
<path d="M99.7273 117.256C106.278 113.432 112.747 109.157 112.747 109.157C112.747 109.157 101.889 95.3109 97.8358 97.6282C95.281 98.7172 92.6771 106.84 99.7273 117.256Z" fill="#FFA8A7"/>
<path d="M109.004 109.387C107.891 108.843 106.959 107.991 106.319 106.93C105.482 105.75 105.045 104.332 105.074 102.885C102.617 104.564 101.61 108.617 101.61 108.617C98.0483 108.052 98.2776 104.523 98.2776 104.523C96.4598 106.48 96.5253 111.409 99.6451 113.972C101.328 114.191 103.037 113.906 104.558 113.153C107.367 111.802 108.816 110.369 109.004 109.387Z" fill="#F28F8F"/>
<path d="M101.537 114.84C99.1953 113.203 97.7296 109.763 98.7204 107.381C98.7204 107.381 100.358 109.419 102.217 109.493C102.217 109.493 103.142 102.754 106.876 101.722C106.876 101.722 106.057 106.161 109.333 108.576C110.397 114.84 101.537 114.84 101.537 114.84Z" fill="#455A64"/>
<path d="M121.762 106.144C125.038 100.699 134.454 95.3354 140.145 99.315C143.355 101.559 137.107 117.485 137.107 117.485C137.107 117.485 126.397 113.17 121.762 106.144Z" fill="#37474F"/>
<path d="M126.323 110.59C131.58 114.193 137.107 117.485 137.107 117.485C137.107 117.485 143.355 101.558 140.145 99.3149C137.959 98.2831 131.4 100.535 126.323 110.59Z" fill="#FFA8A7"/>
<path d="M136.46 113.956C136.802 113.278 137.253 112.661 137.795 112.13C138.147 111.123 138.532 109.944 138.901 108.707C137.303 107.917 135.548 107.497 133.766 107.479C133.652 105.726 135.232 103.966 135.232 103.966C133.12 103.36 129.615 105.424 128.878 109.002C129.397 110.365 130.185 111.609 131.195 112.662C132.358 113.276 133.414 113.8 134.282 114.21C135.018 114.289 135.762 114.202 136.46 113.956Z" fill="#F28F8F"/>
<path d="M129.778 110.23C130.483 107.774 132.841 105.481 134.962 105.62C134.962 105.62 133.758 107.602 134.143 109.231C134.143 109.231 139.678 108.027 141.414 110.91C141.414 110.91 137.721 111.524 136.632 115.061C131.981 117.821 129.778 110.23 129.778 110.23Z" fill="#455A64"/>
<path d="M119.559 105.743C125.677 106.433 131.429 109.009 136.018 113.112C140.266 116.896 143.81 121.404 146.483 126.427C147.841 128.606 148.915 130.951 149.676 133.403C150.431 136.336 150.371 139.419 149.504 142.32C149.202 141.106 148.701 139.949 148.022 138.898C148.163 140.65 147.823 142.409 147.04 143.983C146.987 143.222 146.778 142.481 146.425 141.805C146.112 142.376 145.756 142.924 145.361 143.442C144.894 144.13 144.411 144.793 143.903 145.448C142.85 146.786 141.692 148.037 140.44 149.19C137.977 151.547 135.004 153.304 131.752 154.325C131.076 154.516 130.39 154.667 129.697 154.775C123.162 155.683 116.507 155.11 110.225 153.096C107.248 152.176 104.363 150.978 101.61 149.518C100.464 148.904 96.5336 146.103 96.378 144.187C95.9822 144.361 95.6407 144.638 95.3898 144.99C95.1389 145.341 94.9881 145.755 94.9533 146.185C93.6425 145.107 92.695 143.652 92.2395 142.018C91.7839 140.383 91.8423 138.648 92.4067 137.047C90.9787 137.915 89.8392 139.186 89.1313 140.699C87.6328 138.873 87.3872 136.327 87.5592 133.976C87.8539 129.981 89.8109 126.664 91.9235 123.372C97.8519 114.136 108.227 106.234 119.559 105.743Z" fill="#455A64"/>
<path d="M146.426 141.821C145.823 142.872 145.15 143.882 144.412 144.842C143.709 145.843 142.94 146.795 142.111 147.692C140.461 149.51 138.572 151.094 136.493 152.4C134.403 153.718 132.07 154.604 129.631 155.004C127.194 155.383 124.727 155.531 122.262 155.446C117.349 155.259 112.494 154.306 107.875 152.621C105.56 151.798 103.315 150.79 101.16 149.608C100.11 148.95 99.121 148.199 98.2045 147.364C97.7435 146.943 97.3164 146.486 96.9271 145.997C96.5027 145.49 96.2202 144.88 96.1083 144.228L96.4685 144.449C96.1174 144.603 95.8142 144.848 95.5908 145.159C95.3674 145.471 95.2322 145.836 95.1993 146.218V146.709L94.8227 146.406C93.4708 145.297 92.4961 143.796 92.0327 142.109C91.5693 140.423 91.6401 138.634 92.2352 136.99L92.5463 137.252C91.1253 138.081 89.9846 139.315 89.271 140.797L89.1481 141.059L88.9598 140.83C88.0012 139.548 87.4506 138.008 87.3795 136.408C87.2682 134.839 87.4008 133.262 87.7725 131.733C88.5258 128.679 90.229 126.001 91.8667 123.389C90.229 126.017 88.5913 128.752 87.9526 131.782C87.6263 133.293 87.527 134.844 87.6579 136.384C87.7398 137.914 88.2821 139.384 89.2136 140.601H88.9025C89.6279 139.045 90.7993 137.74 92.2679 136.851L92.8002 136.523L92.5791 137.113C92.0362 138.664 91.9805 140.344 92.4196 141.927C92.8587 143.511 93.7715 144.922 95.0356 145.972L94.6262 146.153C94.6626 145.674 94.829 145.214 95.1075 144.823C95.386 144.432 95.766 144.125 96.2065 143.934L96.5177 143.803L96.5668 144.155C96.677 144.704 96.9282 145.214 97.2956 145.637C97.6683 146.104 98.0792 146.539 98.5238 146.939C99.4129 147.747 100.375 148.47 101.398 149.1C103.529 150.25 105.74 151.243 108.014 152.073C112.596 153.783 117.417 154.766 122.303 154.988C124.727 155.08 127.154 154.962 129.558 154.636C130.75 154.441 131.922 154.142 133.062 153.743C134.199 153.316 135.296 152.787 136.338 152.163C138.411 150.894 140.31 149.361 141.988 147.602C142.842 146.734 143.633 145.807 144.354 144.826C145.109 143.87 145.801 142.866 146.426 141.821Z" fill="#263238"/>
<path d="M120.665 135.835C127.535 131.88 123.94 114.807 123.94 114.807C127.527 122.259 128.853 131.119 135.961 134.042C142.135 136.58 145.443 138.652 143.936 145.416C140.727 150.099 135.748 154.529 129.869 155.242C124.784 155.897 118.487 155.585 110.962 153.301C107.744 144.302 111.969 140.863 120.665 135.835Z" fill="#FAFAFA"/>
<path d="M112.78 129.383C112.688 129.961 112.769 130.554 113.014 131.085C113.259 131.617 113.656 132.064 114.156 132.37C114.655 132.675 115.234 132.826 115.819 132.802C116.404 132.778 116.969 132.581 117.442 132.236C117.915 131.891 118.274 131.413 118.475 130.863C118.676 130.313 118.709 129.716 118.571 129.147C118.432 128.579 118.127 128.064 117.695 127.668C117.263 127.273 116.724 127.015 116.145 126.926C115.374 126.811 114.588 127.004 113.958 127.464C113.328 127.923 112.905 128.613 112.78 129.383Z" fill="white"/>
<path d="M112.272 129.145C112.179 129.723 112.261 130.316 112.506 130.848C112.751 131.379 113.148 131.826 113.648 132.132C114.147 132.438 114.726 132.588 115.311 132.564C115.896 132.541 116.461 132.344 116.933 131.998C117.406 131.653 117.766 131.175 117.967 130.625C118.168 130.076 118.201 129.478 118.062 128.91C117.923 128.341 117.619 127.826 117.187 127.431C116.755 127.035 116.216 126.777 115.637 126.689C114.865 126.571 114.078 126.763 113.448 127.223C112.817 127.683 112.394 128.374 112.272 129.145Z" fill="#263238"/>
<path d="M115.187 128.785C115.187 128.96 115.135 129.131 115.038 129.276C114.941 129.422 114.803 129.535 114.641 129.602C114.479 129.669 114.302 129.686 114.13 129.652C113.958 129.618 113.801 129.534 113.677 129.41C113.554 129.287 113.469 129.129 113.435 128.958C113.401 128.786 113.419 128.608 113.486 128.447C113.552 128.285 113.666 128.147 113.811 128.05C113.957 127.953 114.128 127.901 114.303 127.901C114.419 127.901 114.534 127.924 114.641 127.968C114.748 128.012 114.846 128.078 114.928 128.16C115.01 128.242 115.075 128.339 115.12 128.447C115.164 128.554 115.187 128.669 115.187 128.785Z" fill="#FAFAFA"/>
<path d="M133.324 127.598C133.243 128.131 133.322 128.676 133.55 129.164C133.779 129.652 134.147 130.062 134.608 130.341C135.069 130.62 135.603 130.756 136.141 130.732C136.68 130.708 137.199 130.525 137.633 130.206C138.068 129.887 138.398 129.446 138.582 128.94C138.767 128.433 138.796 127.883 138.668 127.36C138.54 126.836 138.26 126.362 137.862 125.998C137.465 125.634 136.968 125.395 136.436 125.313C136.081 125.257 135.719 125.272 135.37 125.357C135.022 125.442 134.693 125.595 134.404 125.807C134.115 126.02 133.87 126.287 133.685 126.594C133.5 126.902 133.377 127.243 133.324 127.598Z" fill="white"/>
<path d="M132.857 127.377C132.776 127.91 132.854 128.455 133.083 128.944C133.312 129.432 133.68 129.842 134.142 130.121C134.603 130.4 135.137 130.536 135.676 130.512C136.215 130.487 136.735 130.304 137.169 129.984C137.604 129.664 137.933 129.223 138.117 128.715C138.3 128.208 138.329 127.658 138.2 127.134C138.07 126.61 137.789 126.137 137.39 125.773C136.991 125.41 136.494 125.173 135.961 125.092C135.246 124.984 134.518 125.164 133.936 125.592C133.354 126.02 132.966 126.662 132.857 127.377Z" fill="#263238"/>
<path d="M135.551 127.041C135.551 127.203 135.503 127.361 135.413 127.496C135.323 127.63 135.195 127.735 135.046 127.797C134.896 127.859 134.732 127.875 134.573 127.844C134.414 127.812 134.268 127.734 134.153 127.62C134.039 127.505 133.961 127.359 133.929 127.201C133.898 127.042 133.914 126.877 133.976 126.727C134.038 126.578 134.143 126.45 134.277 126.36C134.412 126.27 134.57 126.222 134.732 126.222C134.95 126.222 135.158 126.308 135.311 126.462C135.465 126.615 135.551 126.824 135.551 127.041Z" fill="#FAFAFA"/>
<path d="M109.897 140.216H109.938C110.042 140.142 110.113 140.031 110.137 139.906C110.161 139.781 110.137 139.652 110.069 139.544C108.628 137.129 105.934 134.369 101.291 134.926C101.231 134.935 101.172 134.956 101.12 134.988C101.067 135.019 101.021 135.061 100.984 135.111C100.948 135.16 100.921 135.216 100.907 135.276C100.892 135.336 100.889 135.398 100.898 135.458C100.911 135.584 100.972 135.699 101.068 135.78C101.165 135.861 101.289 135.902 101.414 135.892C105.574 135.393 107.965 137.882 109.3 140.06C109.362 140.156 109.458 140.225 109.568 140.254C109.679 140.283 109.796 140.269 109.897 140.216Z" fill="#263238"/>
<path d="M108.595 141.37C108.64 141.343 108.681 141.31 108.718 141.272C108.803 141.178 108.849 141.055 108.849 140.928C108.849 140.801 108.803 140.679 108.718 140.584C107.852 139.829 106.836 139.265 105.736 138.932C104.637 138.599 103.479 138.503 102.339 138.652C102.224 138.688 102.127 138.766 102.065 138.87C102.003 138.974 101.982 139.097 102.006 139.215C102.029 139.333 102.095 139.439 102.191 139.512C102.288 139.585 102.407 139.62 102.528 139.61C103.517 139.48 104.523 139.559 105.481 139.841C106.438 140.123 107.326 140.602 108.088 141.248C108.148 141.319 108.23 141.37 108.321 141.392C108.413 141.414 108.509 141.406 108.595 141.37Z" fill="#263238"/>
<path d="M108.776 143.377C108.861 143.325 108.927 143.248 108.964 143.156C109.016 143.039 109.021 142.907 108.978 142.786C108.935 142.666 108.848 142.567 108.735 142.509C107.35 141.923 105.845 141.681 104.346 141.802C102.848 141.923 101.401 142.404 100.129 143.205C100.021 143.275 99.9454 143.384 99.9165 143.509C99.8875 143.634 99.9077 143.766 99.973 143.876C100.032 143.982 100.13 144.061 100.247 144.095C100.364 144.129 100.489 144.115 100.595 144.056C101.741 143.33 103.044 142.89 104.395 142.775C105.747 142.659 107.106 142.871 108.358 143.393C108.423 143.426 108.496 143.442 108.569 143.44C108.642 143.437 108.713 143.415 108.776 143.377Z" fill="#263238"/>
<path d="M144.272 135.139H144.231C144.115 135.087 144.023 134.993 143.973 134.876C143.923 134.76 143.919 134.629 143.961 134.509C144.903 131.856 146.999 128.621 151.658 128.245C151.72 128.24 151.783 128.248 151.842 128.269C151.901 128.289 151.955 128.322 152.001 128.364C152.047 128.406 152.084 128.457 152.109 128.514C152.135 128.571 152.148 128.633 152.149 128.695C152.163 128.82 152.127 128.945 152.049 129.043C151.97 129.141 151.856 129.205 151.732 129.219C147.556 129.555 145.664 132.494 144.821 134.861C144.782 134.968 144.703 135.057 144.601 135.108C144.499 135.16 144.382 135.171 144.272 135.139Z" fill="#263238"/>
<path d="M145.779 136.015C145.729 136.002 145.682 135.98 145.64 135.95C145.537 135.873 145.468 135.76 145.445 135.634C145.422 135.508 145.448 135.378 145.517 135.27C146.215 134.357 147.1 133.603 148.112 133.058C149.125 132.513 150.241 132.19 151.388 132.109C151.512 132.114 151.63 132.167 151.716 132.257C151.802 132.347 151.849 132.468 151.846 132.592C151.85 132.654 151.841 132.716 151.82 132.775C151.799 132.833 151.766 132.887 151.724 132.933C151.682 132.978 151.632 133.015 151.575 133.041C151.519 133.067 151.458 133.082 151.396 133.084C150.399 133.158 149.428 133.44 148.546 133.912C147.665 134.385 146.892 135.037 146.278 135.827C146.227 135.908 146.15 135.971 146.06 136.005C145.97 136.039 145.871 136.043 145.779 136.015Z" fill="#263238"/>
<path d="M145.991 138.013C145.897 137.981 145.816 137.917 145.762 137.833C145.691 137.727 145.663 137.598 145.683 137.473C145.702 137.347 145.769 137.233 145.869 137.154C147.111 136.308 148.539 135.775 150.032 135.599C151.524 135.424 153.037 135.612 154.442 136.146C154.558 136.196 154.652 136.287 154.704 136.403C154.755 136.518 154.761 136.649 154.72 136.769C154.684 136.885 154.604 136.982 154.496 137.039C154.389 137.096 154.263 137.107 154.147 137.072C152.881 136.585 151.517 136.411 150.17 136.565C148.822 136.719 147.532 137.196 146.409 137.956C146.35 138 146.28 138.028 146.207 138.038C146.134 138.048 146.06 138.039 145.991 138.013Z" fill="#263238"/>
<path d="M136.296 143.098C136.239 142.963 136.13 142.856 135.993 142.8C135.856 142.745 135.703 142.746 135.568 142.803C135.047 143.068 134.468 143.196 133.884 143.178C133.3 143.159 132.73 142.994 132.227 142.697C131.13 141.945 130.367 140.798 130.098 139.495C130.098 139.34 130.057 139.192 130.032 139.037C130.011 138.893 129.935 138.764 129.82 138.676C129.705 138.588 129.56 138.548 129.416 138.565C129.272 138.582 129.14 138.655 129.049 138.767C128.958 138.88 128.914 139.024 128.927 139.168C128.938 139.341 128.96 139.513 128.992 139.684C129.15 140.637 129.006 141.616 128.582 142.485C128.158 143.353 127.475 144.068 126.626 144.531C124.882 145.473 122.679 145.35 121.5 144.261C121.448 144.204 121.385 144.159 121.314 144.128C121.244 144.098 121.168 144.082 121.091 144.082C121.014 144.082 120.938 144.098 120.867 144.128C120.797 144.159 120.733 144.204 120.681 144.261C120.626 144.314 120.582 144.377 120.551 144.448C120.521 144.518 120.506 144.594 120.506 144.67C120.506 144.747 120.521 144.823 120.551 144.893C120.582 144.964 120.626 145.027 120.681 145.08C121.627 145.884 122.839 146.308 124.079 146.267C125.131 146.268 126.165 146.009 127.093 145.514C127.785 145.159 128.393 144.659 128.877 144.049C129.36 143.439 129.706 142.732 129.893 141.976C130.331 142.651 130.91 143.223 131.588 143.655C132.242 144.046 132.983 144.267 133.743 144.298C134.504 144.33 135.261 144.171 135.944 143.835C136.018 143.812 136.085 143.775 136.143 143.725C136.201 143.674 136.248 143.613 136.281 143.544C136.314 143.474 136.333 143.399 136.335 143.323C136.338 143.246 136.325 143.17 136.296 143.098Z" fill="#263238"/>
<path d="M129.59 140.47C130.409 140.412 132.301 138.537 132.374 137.244C132.448 135.95 126.037 136.818 126.028 137.833C126.02 139.282 128.796 140.527 129.59 140.47Z" fill="#F28F8F"/>
<path d="M361.829 264.082L357.94 248.336H338.361C331.883 247.222 325.262 247.222 318.783 248.336H299.213L295.315 264.082C293.833 269.945 296.953 276.119 304.805 280.622C317.907 288.205 339.196 288.205 352.339 280.622C360.151 276.119 363.311 269.945 361.829 264.082Z" fill="#BA68C8"/>
<path opacity="0.1" d="M361.829 264.082L357.94 248.336H338.361C331.883 247.222 325.262 247.222 318.783 248.336H299.213L295.315 264.082C293.833 269.945 296.953 276.119 304.805 280.622C317.907 288.205 339.196 288.205 352.339 280.622C360.151 276.119 363.311 269.945 361.829 264.082Z" fill="black"/>
<path d="M328.576 267.881C344.956 267.881 358.234 260.216 358.234 250.759C358.234 241.303 344.956 233.637 328.576 233.637C312.196 233.637 298.918 241.303 298.918 250.759C298.918 260.216 312.196 267.881 328.576 267.881Z" fill="#BA68C8"/>
<path opacity="0.5" d="M328.576 267.881C344.956 267.881 358.234 260.216 358.234 250.759C358.234 241.303 344.956 233.637 328.576 233.637C312.196 233.637 298.918 241.303 298.918 250.759C298.918 260.216 312.196 267.881 328.576 267.881Z" fill="white"/>
<path opacity="0.7" d="M310.3 260.733C320.355 266.317 336.65 266.317 346.706 260.733C356.761 255.148 356.753 246.117 346.706 240.54C336.658 234.964 320.355 234.964 310.3 240.54C300.245 246.117 300.245 255.157 310.3 260.733Z" fill="#BA68C8"/>
<path d="M354.214 251.333C353.641 250.475 352.863 249.773 351.951 249.29C351.04 248.807 350.022 248.558 348.99 248.565C348.81 248.565 348.638 248.565 348.458 248.565C348.507 248.35 348.532 248.13 348.532 247.91C348.512 247.004 348.134 246.142 347.48 245.514C346.826 244.886 345.95 244.543 345.043 244.561C344.45 244.56 343.866 244.71 343.346 244.996C342.826 245.282 342.387 245.696 342.071 246.199C341.721 244.884 340.942 243.724 339.858 242.902C338.773 242.08 337.446 241.644 336.085 241.662C334.635 241.66 333.228 242.154 332.098 243.062C331.928 242.229 331.46 241.486 330.781 240.973C330.102 240.461 329.259 240.214 328.411 240.279C327.563 240.345 326.768 240.718 326.176 241.328C325.583 241.939 325.234 242.745 325.195 243.595C325.196 243.815 325.218 244.034 325.26 244.25C324.029 243.837 322.7 243.814 321.454 244.183C320.209 244.552 319.108 245.296 318.3 246.313C317.993 245.78 317.55 245.339 317.016 245.032C316.482 244.726 315.877 244.566 315.262 244.569C314.814 244.56 314.368 244.64 313.95 244.804C313.533 244.967 313.152 245.212 312.828 245.523C312.505 245.834 312.247 246.205 312.067 246.616C311.888 247.027 311.791 247.47 311.782 247.918C311.788 248.042 311.801 248.165 311.823 248.287C310.928 247.829 309.938 247.591 308.933 247.591C307.56 247.573 306.221 248.017 305.131 248.852C304.042 249.686 303.264 250.863 302.922 252.193C303.536 255.304 305.993 258.334 310.292 260.717C320.347 266.301 336.642 266.301 346.697 260.717C351.406 258.129 353.911 254.755 354.214 251.333Z" fill="#B16668"/>
<path d="M312.527 258.047C311.982 257.526 311.64 256.827 311.563 256.077C311.487 255.327 311.68 254.573 312.109 253.953C312.629 253.22 313.41 252.716 314.292 252.545C315.174 252.374 316.087 252.55 316.842 253.036C317.254 253.291 317.602 253.635 317.862 254.043C318.121 254.452 318.285 254.913 318.341 255.394C318.095 255.016 317.771 254.695 317.391 254.452C316.67 253.996 315.802 253.832 314.965 253.995C314.128 254.158 313.384 254.635 312.887 255.329C312.616 255.721 312.442 256.172 312.379 256.644C312.316 257.117 312.367 257.598 312.527 258.047Z" fill="#9A4A4D"/>
<path d="M327.831 258.465C327.951 257.645 328.363 256.897 328.992 256.358C329.62 255.818 330.423 255.525 331.251 255.531C332.079 255.537 332.877 255.842 333.497 256.39C334.118 256.938 334.519 257.693 334.627 258.514C334.673 258.992 334.61 259.475 334.442 259.926C334.275 260.377 334.008 260.784 333.661 261.118C333.811 260.701 333.867 260.256 333.825 259.816C333.722 258.975 333.293 258.209 332.629 257.683C331.965 257.158 331.121 256.915 330.279 257.007C329.788 257.05 329.312 257.203 328.888 257.456C328.464 257.708 328.103 258.053 327.831 258.465Z" fill="#9A4A4D"/>
<path d="M316.269 253.805C315.796 253.356 315.499 252.753 315.433 252.104C315.367 251.455 315.536 250.803 315.909 250.268C316.352 249.628 317.027 249.184 317.791 249.032C318.554 248.879 319.348 249.029 320.003 249.449C320.355 249.669 320.653 249.965 320.875 250.315C321.098 250.665 321.239 251.06 321.289 251.472C321.08 251.142 320.8 250.862 320.47 250.653C319.852 250.259 319.106 250.117 318.387 250.258C317.668 250.398 317.03 250.809 316.605 251.406C316.357 251.748 316.196 252.146 316.138 252.564C316.079 252.982 316.124 253.409 316.269 253.805Z" fill="#9A4A4D"/>
<path d="M334.111 258.809C333.875 258.199 333.863 257.525 334.078 256.907C334.292 256.289 334.719 255.767 335.282 255.435C335.941 255.032 336.73 254.899 337.484 255.062C338.239 255.225 338.902 255.672 339.336 256.311C339.566 256.652 339.713 257.042 339.767 257.45C339.821 257.857 339.78 258.272 339.647 258.661C339.595 258.283 339.458 257.922 339.246 257.605C338.832 257 338.202 256.577 337.485 256.425C336.769 256.272 336.021 256.402 335.397 256.786C335.04 257 334.738 257.294 334.514 257.645C334.291 257.996 334.153 258.395 334.111 258.809Z" fill="#9A4A4D"/>
<path d="M327.717 250.915C327.483 250.304 327.473 249.63 327.689 249.012C327.905 248.395 328.332 247.874 328.896 247.541C329.553 247.139 330.34 247.006 331.094 247.169C331.847 247.332 332.509 247.779 332.941 248.417C333.17 248.759 333.319 249.148 333.374 249.555C333.429 249.963 333.39 250.378 333.26 250.768C333.204 250.391 333.067 250.031 332.859 249.711C332.444 249.108 331.814 248.686 331.098 248.534C330.382 248.382 329.635 248.51 329.01 248.892C328.653 249.106 328.349 249.4 328.125 249.751C327.9 250.102 327.761 250.501 327.717 250.915Z" fill="#9A4A4D"/>
<path d="M332.597 249.007C332.41 248.518 332.401 247.978 332.574 247.484C332.746 246.989 333.088 246.572 333.538 246.305C334.069 245.974 334.707 245.862 335.319 245.994C335.93 246.125 336.466 246.489 336.814 247.009C336.997 247.283 337.115 247.595 337.159 247.921C337.203 248.248 337.171 248.58 337.068 248.892C337.021 248.598 336.909 248.319 336.74 248.074C336.41 247.589 335.906 247.25 335.333 247.127C334.76 247.003 334.161 247.105 333.661 247.41C333.37 247.573 333.122 247.803 332.937 248.081C332.752 248.358 332.635 248.676 332.597 249.007Z" fill="#9A4A4D"/>
<path d="M71.6251 264.082L67.7356 248.336H48.1572C41.6786 247.222 35.0574 247.222 28.5788 248.336H9.00854L5.11087 264.082C3.62877 269.945 6.74855 276.119 14.6012 280.622C27.7026 288.205 48.9924 288.205 62.1347 280.622C69.9465 276.119 73.1072 269.945 71.6251 264.082Z" fill="#BA68C8"/>
<path opacity="0.1" d="M71.6251 264.082L67.7356 248.336H48.1572C41.6786 247.222 35.0574 247.222 28.5788 248.336H9.00854L5.11087 264.082C3.62877 269.945 6.74855 276.119 14.6012 280.622C27.7026 288.205 48.9924 288.205 62.1347 280.622C69.9465 276.119 73.1072 269.945 71.6251 264.082Z" fill="black"/>
<path d="M38.3715 267.881C54.7513 267.881 68.0298 260.216 68.0298 250.759C68.0298 241.303 54.7513 233.637 38.3715 233.637C21.9916 233.637 8.71313 241.303 8.71313 250.759C8.71313 260.216 21.9916 267.881 38.3715 267.881Z" fill="#BA68C8"/>
<path opacity="0.5" d="M38.3715 267.881C54.7513 267.881 68.0298 260.216 68.0298 250.759C68.0298 241.303 54.7513 233.637 38.3715 233.637C21.9916 233.637 8.71313 241.303 8.71313 250.759C8.71313 260.216 21.9916 267.881 38.3715 267.881Z" fill="white"/>
<path opacity="0.7" d="M20.0959 260.733C30.1513 266.317 46.4461 266.317 56.5015 260.733C66.5568 255.148 66.5486 246.117 56.5015 240.54C46.4543 234.964 30.1513 234.964 20.0959 240.54C10.0406 246.117 10.0406 255.157 20.0959 260.733Z" fill="#BA68C8"/>
<path d="M64.0093 251.333C63.4365 250.476 62.6603 249.775 61.75 249.292C60.8397 248.809 59.8238 248.559 58.7933 248.565C58.605 248.565 58.433 248.565 58.2529 248.565C58.3021 248.35 58.3268 248.13 58.3266 247.91C58.3072 247.003 57.9291 246.142 57.2751 245.514C56.6211 244.886 55.7448 244.543 54.8383 244.561C54.2448 244.56 53.6606 244.709 53.1407 244.996C52.6208 245.282 52.1822 245.696 51.866 246.198C51.5159 244.884 50.737 243.723 49.6526 242.902C48.5683 242.08 47.2407 241.644 45.8803 241.662C44.4251 241.671 43.0172 242.18 41.8925 243.103C41.7231 242.27 41.2548 241.527 40.5759 241.014C39.897 240.502 39.0542 240.255 38.206 240.32C37.3579 240.386 36.5628 240.759 35.9705 241.369C35.3782 241.98 35.0294 242.786 34.9897 243.635C34.9909 243.855 35.0128 244.075 35.0552 244.291C33.8236 243.878 32.4948 243.854 31.2494 244.224C30.0041 244.593 28.9027 245.337 28.0951 246.354C27.7875 245.821 27.3445 245.379 26.811 245.073C26.2774 244.767 25.6724 244.607 25.0572 244.61C24.1571 244.594 23.2874 244.935 22.6372 245.558C21.987 246.18 21.609 247.034 21.5853 247.934C21.5773 248.057 21.5773 248.18 21.5853 248.303C20.6904 247.846 19.6998 247.607 18.6948 247.607C17.3223 247.589 15.9836 248.034 14.8937 248.868C13.8038 249.703 13.0258 250.879 12.6846 252.209C13.2987 255.32 15.7552 258.35 20.0541 260.733C30.1094 266.317 46.4043 266.317 56.4596 260.733C61.2007 258.129 63.7064 254.755 64.0093 251.333Z" fill="#B16668"/>
<path d="M22.3224 258.047C21.7784 257.525 21.4376 256.827 21.3611 256.077C21.2846 255.327 21.4773 254.574 21.9048 253.953C22.424 253.22 23.2058 252.716 24.0873 252.545C24.9689 252.374 25.8824 252.55 26.6377 253.036C27.0481 253.29 27.3959 253.633 27.6553 254.04C27.9148 254.447 28.0791 254.907 28.1362 255.386C27.8904 255.008 27.5665 254.687 27.1863 254.444C26.4675 253.986 25.6003 253.822 24.7637 253.985C23.9271 254.148 23.1851 254.626 22.6909 255.32C22.4168 255.713 22.2404 256.165 22.1763 256.639C22.1122 257.113 22.1623 257.596 22.3224 258.047Z" fill="#9A4A4D"/>
<path d="M37.5857 258.465C37.7056 257.645 38.1179 256.897 38.7463 256.358C39.3748 255.818 40.1772 255.525 41.0053 255.531C41.8334 255.537 42.6313 255.842 43.252 256.39C43.8726 256.938 44.274 257.693 44.382 258.514C44.4293 258.993 44.3668 259.476 44.1994 259.927C44.032 260.378 43.764 260.785 43.4158 261.118C43.5654 260.701 43.6213 260.256 43.5796 259.816C43.473 258.978 43.0416 258.216 42.3783 257.694C41.7151 257.172 40.8731 256.931 40.034 257.023C39.5439 257.064 39.0693 257.215 38.6455 257.465C38.2216 257.714 37.8594 258.056 37.5857 258.465Z" fill="#9A4A4D"/>
<path d="M26.0647 253.805C25.5914 253.356 25.2947 252.753 25.2286 252.104C25.1625 251.455 25.3313 250.803 25.7044 250.268C26.1477 249.628 26.8223 249.184 27.5861 249.032C28.3498 248.879 29.1431 249.029 29.7986 249.449C30.1503 249.669 30.4484 249.965 30.6709 250.315C30.8933 250.665 31.0346 251.06 31.0841 251.472C30.875 251.142 30.5954 250.862 30.2653 250.653C29.6474 250.259 28.9017 250.117 28.1824 250.258C27.4631 250.398 26.8252 250.809 26.4004 251.406C26.1523 251.748 25.9919 252.146 25.9333 252.564C25.8748 252.982 25.9199 253.409 26.0647 253.805Z" fill="#9A4A4D"/>
<path d="M43.9071 258.808C43.6708 258.199 43.6588 257.525 43.8733 256.907C44.0877 256.289 44.5147 255.767 45.078 255.435C45.7404 255.02 46.5384 254.879 47.3028 255.043C48.0672 255.206 48.7378 255.661 49.1722 256.311C49.391 256.657 49.5276 257.049 49.5716 257.457C49.6156 257.864 49.5658 258.276 49.426 258.661C49.368 258.283 49.2283 257.923 49.0166 257.605C48.6034 257 47.973 256.577 47.2564 256.425C46.5397 256.272 45.7918 256.401 45.1681 256.786C44.8156 257.002 44.5182 257.298 44.2993 257.649C44.0805 258 43.9462 258.397 43.9071 258.808Z" fill="#9A4A4D"/>
<path d="M37.5123 250.915C37.2801 250.304 37.271 249.63 37.4867 249.013C37.7025 248.396 38.1291 247.875 38.6914 247.541C39.349 247.139 40.1362 247.006 40.8895 247.169C41.6428 247.332 42.3043 247.779 42.7365 248.417C42.966 248.759 43.1142 249.148 43.1696 249.555C43.225 249.963 43.186 250.378 43.0558 250.768C42.9992 250.391 42.8624 250.031 42.6546 249.711C42.2401 249.108 41.6098 248.686 40.8937 248.534C40.1776 248.382 39.4303 248.51 38.8061 248.892C38.4483 249.106 38.1451 249.4 37.9206 249.751C37.696 250.102 37.5563 250.501 37.5123 250.915Z" fill="#9A4A4D"/>
<path d="M42.3923 249.007C42.2052 248.518 42.1971 247.978 42.3694 247.484C42.5418 246.989 42.8834 246.572 43.334 246.305C43.8645 245.974 44.503 245.862 45.1143 245.994C45.7256 246.125 46.2618 246.489 46.6094 247.009C46.7923 247.283 46.9103 247.595 46.9543 247.921C46.9983 248.248 46.9672 248.58 46.8632 248.892C46.8166 248.598 46.7047 248.319 46.5357 248.074C46.2056 247.589 45.7019 247.25 45.1288 247.127C44.5557 247.003 43.9571 247.105 43.4568 247.41C43.1672 247.575 42.9201 247.805 42.7353 248.082C42.5505 248.36 42.433 248.676 42.3923 249.007Z" fill="#9A4A4D"/>
<path d="M62.1844 60.134C68.2319 66.082 76.3204 69.4996 84.8007 69.6898L88.6246 69.567C96.9919 68.8297 104.774 64.9668 110.421 58.7481C116.067 52.5294 119.163 44.4115 119.092 36.0121C119.021 27.6127 115.787 19.5486 110.036 13.4266C104.285 7.3046 96.4382 3.57432 88.0597 2.97908L84.2357 2.91357C77.7227 3.17781 71.4292 5.34158 66.1307 9.13828C60.8322 12.935 56.7602 18.1988 54.4162 24.2811C52.0722 30.3634 51.5587 36.9986 52.939 43.3691C54.3193 49.7397 57.5331 55.5673 62.1844 60.134Z" fill="#FAFAFA"/>
<path d="M60.2022 62.1401C66.318 68.1371 74.3574 71.7783 82.8988 72.4196C91.4402 73.061 99.9332 70.6612 106.876 65.6447L117.226 70.1074C117.616 70.2758 118.048 70.3223 118.465 70.2407C118.882 70.1592 119.264 69.9533 119.562 69.6503C119.859 69.3473 120.058 68.9613 120.133 68.543C120.207 68.1248 120.153 67.6939 119.977 67.307L115.343 57.0387C119.304 51.3697 121.562 44.6863 121.85 37.7765C122.138 30.8666 120.444 24.0185 116.968 18.0396C113.492 12.0606 108.379 7.20015 102.232 4.03125C96.0852 0.86234 89.1602 -0.482867 82.2738 0.154235C75.3874 0.791337 68.8267 3.38418 63.3653 7.62705C57.9039 11.8699 53.7695 17.5859 51.4497 24.101C49.1298 30.6162 48.7211 37.6588 50.2719 44.3985C51.8227 51.1382 55.2682 57.294 60.2022 62.1401ZM61.7826 12.8379C67.7288 6.78745 75.7585 3.23235 84.2351 2.89717L88.0591 2.96267C96.4376 3.55791 104.284 7.28819 110.036 13.4102C115.787 19.5322 119.02 27.5963 119.091 35.9957C119.163 44.3951 116.067 52.513 110.42 58.7317C104.774 64.9504 96.9913 68.8133 88.6241 69.5506L84.8001 69.6734C78.2842 69.519 71.9557 67.462 66.5943 63.7557C61.2329 60.0495 57.0726 54.8559 54.626 48.8148C52.1795 42.7736 51.5534 36.1488 52.825 29.7563C54.0966 23.3638 57.2103 17.4828 61.7826 12.8379Z" fill="#E0E0E0"/>
<path d="M85.6194 56.8179C109.194 44.2569 111.093 30.7871 104.24 24.1954C98.0985 18.2998 86.8722 22.1892 85.6194 30.6233C84.3747 22.1892 73.1403 18.2998 67.0072 24.1954C60.1535 30.7871 62.0532 44.2569 85.6194 56.8179Z" fill="#BA68C8"/>
</svg>
