<svg width="224" height="71" viewBox="0 0 224 71" fill="none" xmlns="http://www.w3.org/2000/svg">
<path d="M10.802 52.4037C10.7342 52.3782 10.6669 52.3514 10.5984 52.3276C10.5594 52.3141 10.5125 52.3145 10.4799 52.293C10.4128 52.2488 10.3365 52.2217 10.2742 52.1658C10.2263 52.1229 10.1514 52.1087 10.0819 52.0741C10.0525 52.0484 10.027 52.0135 10.0079 52.0167C9.98547 52.0203 9.96864 52.0569 9.94937 52.0792C9.92885 52.0738 9.89523 52.0739 9.88991 52.062C9.85374 51.9811 9.78686 51.9597 9.70171 51.9602C9.68762 51.8931 9.65893 51.8404 9.57898 51.8232C9.54811 51.8166 9.51532 51.7833 9.49885 51.7539C9.4306 51.632 9.274 51.6076 9.20273 51.491C9.18197 51.457 9.16165 51.4228 9.13332 51.3757C9.03407 51.3507 8.97213 51.2903 8.94536 51.2031C8.9284 51.1789 8.91251 51.1539 8.89419 51.1307C8.87505 51.1065 8.85305 51.0845 8.83324 51.0608C8.7906 51.0097 8.74876 50.958 8.70619 50.9069C8.68856 50.8857 8.66989 50.8654 8.63774 50.8288C8.63774 50.8156 8.63774 50.7793 8.63774 50.7432C8.56098 50.7065 8.5205 50.6481 8.49446 50.5708C8.47975 50.5272 8.42868 50.4966 8.40584 50.454C8.36762 50.3828 8.34326 50.3044 8.30486 50.2333C8.26949 50.1678 8.21838 50.1104 8.18329 50.0448C8.14952 49.9816 8.12581 49.913 8.10082 49.8457C8.08901 49.8139 8.12175 49.763 8.05581 49.7541C8.05038 49.7533 8.05022 49.7187 8.04676 49.6999C8.04283 49.6786 8.04544 49.6476 8.03218 49.638C7.97415 49.596 7.97464 49.5391 7.97737 49.479C7.97797 49.4657 7.97665 49.4434 7.96907 49.4399C7.88671 49.4014 7.91348 49.3268 7.90693 49.2563C7.82033 49.2646 7.84071 49.2041 7.83941 49.1561C7.8382 49.1114 7.85773 49.0547 7.77023 49.0579C7.77023 49.0211 7.7724 48.9876 7.76978 48.9544C7.76427 48.8845 7.78054 48.8169 7.72757 48.7472C7.69541 48.7048 7.71999 48.6217 7.71788 48.557C7.71641 48.5117 7.7405 48.4491 7.64859 48.4693C7.64859 48.3594 7.64859 48.261 7.64859 48.1626C7.6399 48.1648 7.6312 48.167 7.6225 48.1693C7.60811 48.1366 7.58199 48.1042 7.58127 48.0713C7.57722 47.8879 7.57932 47.7044 7.57932 47.5209C7.57149 47.5234 7.56365 47.5259 7.55581 47.5283C7.54049 47.4956 7.51236 47.4631 7.51187 47.4301C7.50822 47.1817 7.50841 46.9332 7.51197 46.6848C7.51244 46.6519 7.53871 46.6195 7.55303 46.5868C7.562 46.5891 7.57096 46.5913 7.57993 46.5935C7.57993 46.3878 7.57993 46.1822 7.57993 45.9765C7.58903 45.9786 7.59814 45.9807 7.60724 45.9828C7.62107 45.9501 7.64501 45.9179 7.64682 45.8845C7.65215 45.786 7.64872 45.6871 7.64872 45.5884C7.6568 45.5909 7.66488 45.5933 7.67296 45.5958C7.68798 45.5632 7.70837 45.5318 7.71668 45.4977C7.72738 45.4537 7.69794 45.4006 7.76348 45.3701C7.77808 45.3633 7.76944 45.3068 7.76981 45.2732C7.77051 45.2084 7.77001 45.1437 7.77001 45.072C7.86298 45.0762 7.83696 45.0116 7.83947 44.9625C7.84164 44.92 7.82199 44.8637 7.88025 44.8726C7.91335 44.7994 7.94343 44.7366 7.96971 44.6724C7.97784 44.6525 7.97246 44.6277 7.97889 44.6067C7.98902 44.5738 8.00316 44.542 8.01706 44.5103C8.02569 44.4907 8.04318 44.4729 8.04582 44.4529C8.05154 44.4096 8.02932 44.3607 8.09384 44.3357C8.10659 44.3308 8.10002 44.2781 8.1027 44.2428C8.20331 44.241 8.15825 44.1634 8.17302 44.1083C8.26943 44.1076 8.22969 44.0318 8.24146 43.9814C8.3189 43.9348 8.37088 43.8688 8.3743 43.7783C8.37699 43.7072 8.42912 43.68 8.47157 43.6379C8.51232 43.5974 8.53664 43.5408 8.5668 43.4905C8.58467 43.4607 8.59638 43.4268 8.61696 43.3992C8.66196 43.3387 8.70786 43.2784 8.75919 43.2231C8.79505 43.1845 8.84053 43.1545 8.89063 43.1132C8.90756 43.0452 8.95506 42.9902 9.02309 42.9329C9.12324 42.8486 9.21115 42.7478 9.31207 42.6621C9.35918 42.6221 9.41558 42.5927 9.46405 42.554C9.48053 42.5408 9.4856 42.514 9.49751 42.4902C9.5329 42.4902 9.57006 42.4902 9.59831 42.4902C9.6719 42.4079 9.73084 42.3284 9.84361 42.2997C9.91486 42.2817 9.97687 42.2287 10.0366 42.1804C10.0895 42.1637 10.1491 42.176 10.1975 42.1154C10.2186 42.0888 10.2883 42.0992 10.3359 42.0928C10.3333 42.0863 10.3307 42.0798 10.3282 42.0733C10.3608 42.0593 10.3923 42.0412 10.4264 42.0324C10.4705 42.021 10.526 42.055 10.5575 41.9881C10.5648 41.9728 10.6282 41.9865 10.6643 41.9793C10.6938 41.9735 10.721 41.9564 10.7492 41.9443C10.7466 41.9338 10.744 41.9233 10.7414 41.9128C10.8217 41.9128 10.902 41.9131 10.9823 41.9128C11.0281 41.9126 11.0856 41.9278 11.0631 41.8467C11.3947 41.8467 11.7148 41.8467 12.0349 41.8467C12.0324 41.854 12.0299 41.8613 12.0274 41.8686C12.0607 41.8833 12.0932 41.9081 12.1275 41.9108C12.2078 41.9171 12.2893 41.909 12.3697 41.9147C12.4035 41.917 12.4359 41.9394 12.4689 41.9526C12.4666 41.9619 12.4644 41.9712 12.4621 41.9805C12.4907 41.9805 12.5196 41.978 12.5478 41.981C12.5905 41.9856 12.6425 41.9576 12.6704 42.0224C12.6764 42.0363 12.7355 42.0245 12.7681 42.0325C12.8027 42.041 12.8349 42.0589 12.8681 42.0726C12.8657 42.0813 12.8633 42.0899 12.861 42.0986C12.8982 42.0986 12.9354 42.0986 12.9555 42.0986C13.0342 42.1858 13.1393 42.1921 13.2242 42.2339C13.311 42.2766 13.3716 42.3758 13.4665 42.3574C13.5175 42.3929 13.5535 42.4181 13.5896 42.4431C13.6671 42.4966 13.7413 42.5557 13.8231 42.6021C13.9104 42.6515 13.9942 42.6975 14.0317 42.7983C14.0409 42.823 14.1097 42.8077 14.0893 42.872C14.0679 42.8936 14.0519 42.9077 14.036 42.9218C14.1014 42.9701 14.1668 43.0185 14.2337 43.0731C14.2749 43.1204 14.3146 43.1614 14.3542 43.2024C14.4199 43.2684 14.4892 43.3314 14.55 43.4015C14.5852 43.442 14.6034 43.4961 14.6351 43.5401C14.6625 43.5782 14.7011 43.6086 14.7294 43.6462C14.7599 43.6868 14.7853 43.7312 14.8108 43.7751C14.8412 43.8275 14.8579 43.8936 14.9011 43.9315C14.9713 43.9932 14.9753 44.0813 15.0204 44.1505C15.0551 44.2037 15.1046 44.2475 15.1436 44.2983C15.1542 44.312 15.1467 44.3379 15.1547 44.3549C15.1658 44.3788 15.1835 44.3998 15.1988 44.4217C15.2047 44.4302 15.2168 44.4376 15.2174 44.446C15.2209 44.5004 15.2276 44.546 15.2839 44.5826C15.3149 44.6029 15.3349 44.6617 15.3335 44.7022C15.3305 44.7867 15.3774 44.8478 15.4115 44.9293C15.4165 44.9933 15.3908 45.0604 15.48 45.066C15.48 45.066 15.4813 45.0657 15.4795 45.0736C15.4923 45.1421 15.4394 45.2303 15.5503 45.2517C15.5503 45.2517 15.5505 45.2523 15.5489 45.2601C15.514 45.4173 15.6251 45.5386 15.6324 45.6806C15.6329 45.6914 15.6567 45.7011 15.6698 45.719C15.6716 45.7681 15.6651 45.8119 15.677 45.8503C15.6895 45.8903 15.7197 45.9251 15.7422 45.9622C15.7422 45.9622 15.7421 45.9631 15.7411 45.9705C15.741 46.0401 15.7419 46.1024 15.7418 46.1725C15.7566 46.2407 15.6996 46.3278 15.8083 46.3621C15.8107 46.4481 15.8124 46.5264 15.8129 46.6127C15.8129 46.6762 15.8073 46.733 15.8179 46.7868C15.8234 46.8148 15.8573 46.8375 15.8785 46.8705C15.8785 47.2394 15.8782 47.6005 15.8716 47.9629C15.848 47.9888 15.8191 48.012 15.8159 48.0382C15.8085 48.098 15.8138 48.1593 15.8138 48.2278C15.8121 48.3356 15.8104 48.4358 15.803 48.5387C15.7801 48.5672 15.7506 48.5917 15.748 48.6188C15.7402 48.6989 15.743 48.7801 15.7416 48.8609C15.7416 48.8609 15.7404 48.8611 15.7338 48.8616C15.6466 48.8845 15.6784 48.9482 15.6743 49.0064C15.6722 49.0693 15.6705 49.1247 15.6687 49.18C15.653 49.2439 15.6372 49.3077 15.614 49.38C15.5088 49.4268 15.5603 49.5084 15.5508 49.5723C15.5487 49.5918 15.5517 49.6136 15.5438 49.6305C15.4817 49.7643 15.4142 49.8959 15.3551 50.031C15.3253 50.0991 15.3172 50.1765 15.2852 50.2433C15.257 50.3021 15.2081 50.3512 15.1707 50.406C15.1462 50.4419 15.1248 50.48 15.1039 50.518C15.0322 50.648 14.9626 50.7791 14.8893 50.9082C14.8727 50.9375 14.8437 50.9599 14.8216 50.9864C14.7661 51.0527 14.714 51.1219 14.6556 51.1855C14.5656 51.2833 14.4579 51.3682 14.3825 51.4753C14.2778 51.624 14.1129 51.704 13.9968 51.834C13.9183 51.9219 13.825 51.972 13.7228 52.019C13.6899 52.0341 13.6663 52.0675 13.6342 52.0854C13.5506 52.1322 13.4408 52.1566 13.3861 52.2244C13.3256 52.2994 13.2346 52.2632 13.1703 52.3266C13.0935 52.3363 13.0189 52.32 12.9873 52.4033C12.9873 52.4033 12.9863 52.4021 12.9778 52.4005C12.932 52.3999 12.8946 52.4007 12.8572 52.4018C12.8121 52.4032 12.7778 52.4171 12.7773 52.4692C12.7773 52.4692 12.7775 52.47 12.7693 52.4683C12.704 52.4682 12.6454 52.4633 12.5902 52.4744C12.5626 52.48 12.5412 52.5148 12.517 52.5364C12.517 52.5364 12.517 52.5377 12.5096 52.5367C12.3988 52.5374 12.2954 52.5391 12.1837 52.5397C11.9826 52.5393 11.7898 52.5401 11.5891 52.5408C11.5014 52.5395 11.4215 52.5382 11.3379 52.532C11.307 52.5105 11.2811 52.4822 11.2523 52.4791C11.1726 52.4703 11.0918 52.472 11.0114 52.4695C11.0114 52.4695 11.0105 52.4698 11.0068 52.4653C10.9555 52.3763 10.8729 52.4097 10.802 52.4037Z" fill="white"/>
<path d="M31.1072 55.7066C31.0852 55.7437 31.0628 55.7805 31.0412 55.8179C30.9829 55.9189 30.925 56.0202 30.8669 56.1214C30.864 56.1263 30.8581 56.1316 30.8586 56.1361C30.8704 56.2403 30.7747 56.2764 30.7331 56.3466C30.6626 56.4655 30.5944 56.586 30.5193 56.7017C30.4882 56.7496 30.4357 56.7825 30.4034 56.8298C30.309 56.9679 30.1997 57.0929 30.0901 57.2175C29.9809 57.3416 29.8673 57.4618 29.7515 57.5794C29.702 57.6296 29.64 57.6664 29.5876 57.7139C29.5492 57.7486 29.5201 57.7941 29.4816 57.8286C29.4427 57.8634 29.3965 57.8896 29.355 57.9215C29.3126 57.954 29.2727 57.9899 29.2304 58.0225C29.189 58.0544 29.1454 58.0831 29.1039 58.1148C29.0533 58.1534 29.0054 58.196 28.9534 58.2325C28.9134 58.2605 28.8685 58.281 28.8263 58.3059C28.7734 58.3372 28.7211 58.3696 28.6685 58.4015C28.5647 58.4643 28.4629 58.531 28.3565 58.5886C28.2895 58.6249 28.2157 58.6476 28.1352 58.6767C28.1057 58.6742 28.084 58.6644 28.067 58.6699C28.0355 58.6802 28.0039 58.6956 27.9778 58.7162C27.9569 58.7327 27.9441 58.7601 27.9277 58.7827C27.8872 58.8004 27.8471 58.8193 27.8059 58.8354C27.7841 58.8438 27.7605 58.8473 27.7233 58.8532C27.6436 58.8574 27.5699 58.84 27.5362 58.9249C27.4552 58.942 27.3743 58.9592 27.2789 58.9761C27.2022 58.9775 27.14 58.979 27.0704 58.9796C27.0127 58.9771 26.9588 58.9696 26.9539 59.046C26.9539 59.046 26.9545 59.0481 26.9473 59.0476C26.8544 59.048 26.7687 59.0489 26.675 59.0484C26.4548 59.0483 26.2425 59.0494 26.0224 59.0502C25.912 59.0495 25.8094 59.0493 25.7069 59.049C25.7069 59.049 25.7079 59.0488 25.7047 59.0428C25.6762 59.0184 25.6522 58.9869 25.6255 58.9841C25.5452 58.9759 25.4638 58.9789 25.3828 58.9775C25.3247 58.9603 25.2666 58.943 25.1985 58.9198C25.149 58.8271 25.0713 58.8626 25.0074 58.8538C25.0074 58.8538 25.0082 58.854 25.0073 58.8468C24.9883 58.7499 24.9193 58.7931 24.8703 58.784C24.8703 58.784 24.8704 58.7839 24.8688 58.7775C24.8482 58.6884 24.7834 58.7195 24.7334 58.7139C24.7334 58.7139 24.7341 58.714 24.7332 58.7068C24.7155 58.6807 24.7021 58.6532 24.6812 58.6441C24.6001 58.6092 24.5166 58.58 24.4301 58.5473C24.4245 58.5605 24.4169 58.5787 24.4093 58.5969C24.3872 58.5787 24.3652 58.5605 24.338 58.538C24.2731 58.4967 24.2017 58.4513 24.1302 58.4059C24.1346 58.3991 24.1389 58.3923 24.1433 58.3854C24.0294 58.3708 23.9053 58.2431 23.8925 58.1464C23.8383 58.1078 23.7887 58.0856 23.7571 58.0475C23.6721 57.9454 23.5809 57.8442 23.5201 57.7272C23.4887 57.6667 23.4404 57.626 23.4101 57.5694C23.3787 57.5107 23.3504 57.4502 23.3206 57.3906C23.277 57.3032 23.2328 57.216 23.1899 57.1282C23.1839 57.1159 23.1828 57.1006 23.1814 57.0866C23.1796 57.0691 23.1858 57.048 23.1783 57.0345C23.1329 56.9525 23.1247 56.8543 23.0704 56.7765C23.0657 56.7699 23.0589 56.7606 23.0603 56.7543C23.0933 56.6034 22.9476 56.485 22.9892 56.331C23.0014 56.2862 23.0016 56.2292 22.9222 56.2506C22.9222 56.0656 22.9222 55.8931 22.9222 55.7206C22.9134 55.723 22.9047 55.7255 22.896 55.7279C22.8819 55.6943 22.8563 55.6609 22.8557 55.6271C22.852 55.4162 22.8521 55.2051 22.8558 54.9942C22.8564 54.9603 22.8817 54.927 22.8956 54.8934C22.9047 54.8958 22.9137 54.8981 22.9227 54.9005C22.9227 54.7281 22.9227 54.5557 22.9227 54.3832C22.9316 54.3855 22.9404 54.3878 22.9493 54.39C22.9632 54.3562 22.9864 54.3231 22.989 54.2884C22.9951 54.2098 22.9909 54.1304 22.9909 54.0448C23.0548 54.0434 23.0653 54.0041 23.0603 53.9482C23.0556 53.896 23.0387 53.8144 23.0633 53.7954C23.1406 53.7359 23.0949 53.659 23.1165 53.5872C23.2012 53.5911 23.1764 53.5242 23.1788 53.4729C23.1812 53.4216 23.1565 53.3546 23.2309 53.3582C23.266 53.251 23.2979 53.1536 23.3357 53.0382C23.3376 53.0375 23.3597 53.0297 23.3619 53.0289C23.4071 52.9119 23.445 52.809 23.4867 52.7078C23.5042 52.6654 23.5346 52.6283 23.55 52.5854C23.5659 52.541 23.5708 52.4925 23.5767 52.4636C23.6258 52.409 23.6663 52.3637 23.707 52.3185C23.77 52.2484 23.7815 52.1406 23.8787 52.0913C23.9145 52.0731 23.924 52.0049 23.9525 51.9648C23.9859 51.9178 24.0275 51.8769 24.0644 51.8324C24.0726 51.8226 24.0815 51.8088 24.0812 51.797C24.0788 51.7066 24.1445 51.669 24.2016 51.6219C24.218 51.6084 24.217 51.5746 24.2313 51.556C24.2837 51.488 24.3393 51.4227 24.393 51.3557C24.3996 51.3475 24.4051 51.3355 24.4053 51.3252C24.4066 51.2417 24.4834 51.2181 24.5225 51.1647C24.5529 51.123 24.5757 51.0754 24.613 51.0273C24.6607 50.9847 24.6971 50.9452 24.7336 50.9057C24.8084 50.9173 24.8198 50.8357 24.8682 50.8063C24.9116 50.7799 24.9436 50.7327 24.9786 50.6928C24.9915 50.6781 24.9949 50.6535 25.0091 50.6415C25.094 50.5701 25.1728 50.4825 25.2699 50.4381C25.3317 50.4098 25.3436 50.3588 25.3817 50.3223C25.388 50.3164 25.3867 50.3022 25.3896 50.2886C25.49 50.3017 25.5582 50.2601 25.6029 50.1696C25.6317 50.1678 25.6627 50.1659 25.6936 50.164C25.6907 50.1591 25.6878 50.1543 25.6849 50.1494C25.7091 50.1312 25.7328 50.1122 25.7578 50.0952C25.8158 50.0557 25.8744 50.0173 25.9233 49.9662C25.9992 49.9405 26.0751 49.9149 26.151 49.8892C26.15 49.8851 26.149 49.881 26.1479 49.8769C26.181 49.8619 26.2146 49.8481 26.247 49.8317C26.2727 49.8187 26.297 49.8025 26.3173 49.7773C26.3554 49.7453 26.4412 49.8013 26.4302 49.6918C26.4743 49.6918 26.5109 49.6918 26.5519 49.6918C26.5578 49.668 26.563 49.6468 26.5698 49.6196C26.6874 49.6023 26.805 49.5871 26.9216 49.5656C26.9403 49.5622 26.9541 49.5305 26.9673 49.5093C27.0233 49.4676 27.1282 49.555 27.1579 49.4275C27.2331 49.4275 27.3096 49.4275 27.3861 49.4275C27.384 49.4189 27.3818 49.4103 27.3797 49.4017C27.4129 49.3869 27.4456 49.3615 27.4795 49.3595C27.5786 49.3538 27.6783 49.3575 27.7778 49.3575C27.7754 49.3484 27.773 49.3393 27.7706 49.3302C27.8034 49.3157 27.836 49.2888 27.8688 49.2884C28.1649 49.2852 28.461 49.2853 28.7571 49.2883C28.7926 49.2887 28.8277 49.3129 28.8633 49.325C28.8972 49.3365 28.9312 49.3537 28.9658 49.3556C29.0479 49.3602 29.1305 49.3571 29.2199 49.3571C29.2155 49.4515 29.2807 49.4249 29.3303 49.4275C29.3732 49.4296 29.4295 49.4104 29.4171 49.4963C29.4793 49.4963 29.5354 49.4963 29.5915 49.4963C29.5892 49.5054 29.5868 49.5146 29.5845 49.5237C29.6145 49.5385 29.65 49.5721 29.6736 49.5649C29.7663 49.5364 29.8231 49.634 29.9082 49.6273C29.9175 49.6265 29.9299 49.6668 29.9432 49.6925C29.9777 49.6925 30.0143 49.6925 30.0509 49.6925C30.0478 49.6985 30.0447 49.7046 30.0416 49.7106C30.119 49.7668 30.1964 49.823 30.3028 49.9003C30.3489 49.9002 30.417 49.9224 30.4681 50.0126C30.5026 50.0734 30.5815 50.1075 30.6467 50.1663C30.6461 50.2601 30.636 50.3424 30.7151 50.3978C30.7473 50.4204 30.7793 50.4432 30.8114 50.466C30.866 50.536 30.9134 50.6142 30.9772 50.6737C31.0428 50.7348 31.0595 50.8281 31.1166 50.8844C31.2176 50.9839 31.2368 51.1193 31.298 51.2354C31.309 51.2563 31.3322 51.2703 31.3553 51.298C31.3701 51.3586 31.3395 51.4318 31.4301 51.4341C31.4305 51.4521 31.4309 51.4701 31.4308 51.5022C31.4284 51.5693 31.4263 51.6224 31.4986 51.6268C31.5162 51.7151 31.5337 51.8035 31.5508 51.9069C31.5615 51.9863 31.5236 52.0707 31.619 52.101C31.619 52.101 31.6197 52.1012 31.6185 52.1088C31.6183 52.1751 31.6195 52.2339 31.6196 52.3007C31.619 52.3438 31.6193 52.3787 31.6196 52.4136C31.62 52.4602 31.6259 52.5028 31.6844 52.5154C31.6855 52.588 31.6867 52.6524 31.6867 52.7169C31.6871 53.0918 31.6871 53.4667 31.6873 53.8416C31.6873 53.8416 31.6876 53.8418 31.6817 53.8442C31.6583 53.8752 31.6293 53.9025 31.6257 53.9329C31.6163 54.0125 31.6181 54.0935 31.6092 54.175C31.5312 54.1951 31.555 54.2539 31.5531 54.3096C31.5522 54.358 31.5515 54.3988 31.5471 54.4442C31.529 54.534 31.5146 54.6191 31.5002 54.7041C31.5002 54.7041 31.4996 54.7037 31.4943 54.7067C31.4701 54.7438 31.447 54.7764 31.4338 54.8128C31.4225 54.8439 31.425 54.88 31.4169 54.9127C31.4005 54.9783 31.381 55.043 31.3628 55.1081C31.3628 55.1081 31.3629 55.1073 31.3563 55.1089C31.2702 55.1319 31.2992 55.1976 31.2958 55.25C31.2574 55.3423 31.2186 55.4344 31.1812 55.5271C31.1762 55.5396 31.1784 55.5553 31.1701 55.5782C31.0912 55.6006 31.1068 55.6573 31.1072 55.7066Z" fill="white"/>
<path d="M24.4606 45.0801C24.4613 45.0976 24.4619 45.1151 24.4616 45.1468C24.4744 45.2222 24.4242 45.3093 24.5288 45.3337C24.5288 45.3337 24.5309 45.3341 24.5301 45.3405C24.5304 45.3868 24.5314 45.4266 24.5315 45.4737C24.5291 45.5308 24.523 45.5837 24.595 45.5886C24.5956 45.6062 24.5963 45.6238 24.5958 45.6559C24.5968 45.7449 24.5933 45.8202 24.6038 45.8934C24.6081 45.9242 24.6422 45.9506 24.6628 45.9868C24.6641 46.0731 24.6654 46.1517 24.6653 46.2382C24.6658 46.3329 24.6641 46.42 24.6712 46.5062C24.6736 46.5351 24.6983 46.562 24.7128 46.5977C24.7129 46.8937 24.7129 47.1819 24.7079 47.4733C24.692 47.4976 24.6727 47.5181 24.6717 47.5395C24.6672 47.6416 24.6677 47.744 24.6661 47.8542C24.6654 47.9638 24.665 48.0655 24.6646 48.1673C24.6646 48.1673 24.6644 48.166 24.6578 48.168C24.6342 48.1951 24.6049 48.219 24.6026 48.2455C24.5954 48.3265 24.5986 48.4084 24.5977 48.49C24.5977 48.49 24.5959 48.4903 24.5894 48.4904C24.5042 48.513 24.536 48.5772 24.5323 48.6357C24.5316 48.6996 24.5311 48.7559 24.5305 48.8122C24.5305 48.8122 24.5306 48.8113 24.5245 48.814C24.501 48.8416 24.472 48.865 24.4684 48.8918C24.4601 48.9548 24.464 49.0194 24.463 49.0834C24.463 49.0834 24.4622 49.0832 24.4557 49.084C24.3531 49.1239 24.4055 49.2062 24.3964 49.2706C24.3791 49.3499 24.3619 49.4293 24.3378 49.5166C24.2475 49.5447 24.2869 49.6119 24.2798 49.6612C24.2683 49.6894 24.2565 49.7175 24.2454 49.7459C24.2341 49.7748 24.2234 49.804 24.2052 49.8409C24.1855 49.854 24.1633 49.8574 24.1619 49.8649C24.142 49.9684 24.0584 50.0534 24.076 50.1674C24.0293 50.2337 24.0459 50.3248 23.9737 50.3877C23.9276 50.4279 23.9191 50.5111 23.8898 50.5732C23.8709 50.6133 23.843 50.649 23.8227 50.6886C23.7825 50.7674 23.7468 50.8485 23.705 50.9264C23.6878 50.9585 23.6589 50.9839 23.6369 51.0135C23.5889 51.0783 23.5402 51.1427 23.4949 51.2094C23.4126 51.3305 23.3355 51.4554 23.25 51.5741C23.2163 51.6208 23.163 51.6526 23.1233 51.6955C23.0499 51.7749 22.9814 51.859 22.908 51.9383C22.844 52.0073 22.7822 52.0808 22.7084 52.1376C22.5796 52.2365 22.4704 52.3596 22.3203 52.4338C22.2398 52.4736 22.1793 52.5546 22.1087 52.6156C22.0994 52.6236 22.0824 52.6217 22.0702 52.6273C22.0014 52.6585 21.9327 52.69 21.8645 52.7227C21.8018 52.7527 21.7398 52.7844 21.664 52.8153C21.6007 52.821 21.5348 52.7969 21.5289 52.8832C21.517 52.8838 21.5051 52.8843 21.4796 52.8842C21.3986 52.8927 21.3161 52.8596 21.2705 52.9518C21.2068 52.969 21.1506 52.986 21.0944 53.003C21.0944 53.003 21.0945 53.0032 21.0866 53.0019C20.9784 53.0025 20.878 53.0044 20.7698 53.0052C20.6153 53.0047 20.4686 53.0055 20.3143 53.0058C20.2292 53.0038 20.1517 53.0023 20.0717 52.9951C19.9867 52.9767 19.9044 52.964 19.8221 52.9513C19.8221 52.9513 19.821 52.9519 19.8174 52.9473C19.7683 52.8568 19.6877 52.8921 19.6195 52.8849C19.6195 52.8849 19.6202 52.885 19.6186 52.8783C19.604 52.7978 19.5479 52.8186 19.5016 52.8178C19.5016 52.8178 19.5008 52.8173 19.4973 52.8128C19.4844 52.7949 19.4779 52.7762 19.4651 52.7691C19.4138 52.7404 19.3629 52.7054 19.3073 52.6918C19.2472 52.677 19.1811 52.5924 19.1191 52.6911C19.0445 52.6784 18.9903 52.6423 18.9356 52.5835C18.8876 52.532 18.8284 52.4903 18.7827 52.4316C18.756 52.3973 18.6998 52.3877 18.6587 52.3637C18.5909 52.324 18.5525 52.2635 18.5423 52.1808C18.4451 52.1651 18.3854 52.1034 18.3433 52.0118C18.3233 51.9684 18.2787 51.9365 18.2307 51.9092C18.2307 51.8729 18.2307 51.8366 18.2307 51.8113C18.151 51.7257 18.0618 51.6692 18.0232 51.5545C17.9839 51.4377 17.9112 51.3324 17.8537 51.2218C17.8359 51.1874 17.82 51.152 17.8033 51.1171C17.7956 51.1194 17.7879 51.1217 17.7801 51.124C17.7783 51.0932 17.7765 51.0625 17.7744 51.0273C17.7547 51.0221 17.7345 51.0168 17.7089 51.0101C17.7089 50.9926 17.7081 50.976 17.709 50.9595C17.7153 50.8436 17.6675 50.746 17.609 50.6515C17.6008 50.6382 17.5928 50.6212 17.5933 50.6062C17.5951 50.5431 17.5787 50.4935 17.5405 50.4377C17.5094 50.3922 17.5249 50.3139 17.5192 50.2429C17.4388 50.2501 17.4592 50.1893 17.4584 50.1418C17.4576 50.0938 17.4582 50.0458 17.4582 49.9978C17.4503 50.0003 17.4424 50.0027 17.4345 50.0051C17.4201 49.9723 17.4003 49.9409 17.3924 49.9066C17.3769 49.8396 17.425 49.7579 17.3437 49.7047C17.3344 49.6986 17.341 49.667 17.341 49.6473C17.3409 49.5033 17.3409 49.3593 17.3409 49.2153C17.3321 49.2176 17.3233 49.2198 17.3145 49.222C17.3009 49.1895 17.2754 49.157 17.2753 49.1244C17.2728 48.5787 17.2735 48.033 17.2735 47.4815C17.2942 47.4745 17.3158 47.4671 17.3406 47.4586C17.3406 47.3697 17.338 47.2822 17.3417 47.1949C17.3436 47.1507 17.3147 47.0929 17.3843 47.0681C17.3921 47.0653 17.3907 47.0316 17.3908 47.0122C17.3915 46.9274 17.3881 46.8424 17.3928 46.7578C17.3943 46.7296 17.4154 46.7025 17.4373 46.6781C17.4981 46.6026 17.3923 46.4803 17.5168 46.4215C17.5568 46.3432 17.4727 46.2321 17.5995 46.1479C17.6254 46.1112 17.5342 46.0049 17.659 45.9662C17.659 45.9427 17.6558 45.9144 17.6599 45.8873C17.6653 45.8509 17.6391 45.8061 17.6991 45.781C17.716 45.7739 17.7079 45.7026 17.709 45.6607C17.71 45.6179 17.6965 45.5662 17.7513 45.5816C17.781 45.5156 17.8076 45.4603 17.8304 45.4035C17.8392 45.3813 17.8365 45.3545 17.8439 45.3314C17.8532 45.3023 17.8676 45.2748 17.8921 45.2522C17.9263 45.2159 17.8734 45.1298 17.9769 45.1414C17.9674 45.017 18.0163 44.9216 18.0791 44.8271C18.1171 44.7698 18.125 44.6911 18.1656 44.6366C18.2006 44.5897 18.214 44.5274 18.2778 44.4938C18.3145 44.4745 18.3217 44.3999 18.3452 44.3517C18.358 44.3257 18.3772 44.3029 18.4115 44.287C18.4115 44.2563 18.4115 44.2256 18.4115 44.2033C18.4576 44.1637 18.4972 44.1298 18.5447 44.0891C18.5447 44.0639 18.5447 44.0275 18.5447 43.9911C18.5497 43.9944 18.5548 43.9976 18.5598 44.0008C18.595 43.9589 18.6244 43.9092 18.6667 43.8767C18.7534 43.81 18.793 43.7047 18.8745 43.6342C18.9156 43.5986 18.9462 43.5507 18.9818 43.5086C19.0124 43.4724 19.0413 43.4343 19.0748 43.401C19.1083 43.3675 19.1477 43.3401 19.1826 43.3079C19.2324 43.262 19.2699 43.2034 19.3132 43.1549C19.3732 43.0876 19.4729 43.0583 19.5501 43.0045C19.5847 42.9804 19.6058 42.9365 19.6418 42.8903C19.6637 42.8903 19.7022 42.8903 19.7406 42.8903C19.7377 42.8848 19.7349 42.8792 19.732 42.8737C19.807 42.8176 19.882 42.7616 19.9802 42.6883C20.0523 42.692 20.1425 42.6549 20.2187 42.59C20.271 42.5634 20.3183 42.5334 20.3697 42.5151C20.4072 42.5018 20.4499 42.5027 20.4904 42.4993C20.535 42.4955 20.597 42.5213 20.5777 42.4309C20.6476 42.4309 20.7058 42.4309 20.764 42.4309C20.7619 42.4219 20.7598 42.4129 20.7577 42.4039C20.79 42.3904 20.8214 42.3683 20.8546 42.3652C20.921 42.3591 20.9885 42.3655 21.0554 42.3624C21.0971 42.3605 21.1503 42.386 21.1725 42.3195C21.1751 42.3116 21.2084 42.3124 21.2275 42.3123C21.4146 42.3117 21.6017 42.3108 21.7888 42.3132C21.8097 42.3134 21.8299 42.3346 21.8514 42.3439C21.87 42.352 21.8897 42.3616 21.9093 42.3623C21.9678 42.3647 22.027 42.3585 22.085 42.3648C22.1233 42.3689 22.1597 42.3893 22.1972 42.4018C22.228 42.4121 22.2596 42.42 22.2898 42.4316C22.3229 42.4444 22.3549 42.4602 22.3875 42.4746C22.3853 42.4827 22.3832 42.4908 22.381 42.4988C22.4338 42.4988 22.4865 42.4988 22.5392 42.4988C22.5369 42.5072 22.5346 42.5156 22.5323 42.524C22.5643 42.5383 22.5968 42.5518 22.6283 42.5672C22.6536 42.5796 22.6778 42.5945 22.6963 42.6232C22.7706 42.6486 22.8449 42.674 22.8969 42.6918C22.9679 42.7411 23.0243 42.7753 23.0749 42.8168C23.1168 42.8512 23.1514 42.8946 23.1902 42.9331C23.2004 42.9431 23.2132 42.9548 23.2262 42.9569C23.3123 42.9703 23.3548 43.0383 23.4086 43.1099C23.3918 43.1926 23.3969 43.2595 23.4539 43.3115C23.5018 43.3553 23.5544 43.394 23.6049 43.4349C23.6799 43.5458 23.7521 43.6589 23.831 43.7669C23.8861 43.8423 23.9509 43.9105 24.0103 43.9828C24.0182 43.9924 24.0183 44.0082 24.024 44.0202C24.0753 44.1283 24.1269 44.2363 24.1788 44.3441C24.1881 44.3635 24.2101 44.3838 24.2074 44.4006C24.1922 44.4964 24.2545 44.5668 24.2954 44.6348C24.3381 44.7057 24.357 44.774 24.3637 44.8517C24.3648 44.8642 24.3759 44.8757 24.3869 44.8992C24.393 44.9445 24.3954 44.9783 24.3957 45.0121C24.3961 45.0564 24.4146 45.0813 24.4606 45.0801Z" fill="white"/>
<path d="M4.14233 58.2683C4.09746 58.2251 4.04828 58.197 3.98145 58.1917C3.94279 58.1887 3.9052 58.16 3.86922 58.1393C3.80109 58.1001 3.73489 58.0577 3.66682 58.0184C3.65581 58.0121 3.63928 58.015 3.61892 58.0063C3.59532 57.9803 3.57811 57.9617 3.55999 57.9368C3.54897 57.915 3.54249 57.8926 3.52811 57.8854C3.45581 57.8493 3.38145 57.8172 3.29726 57.7789C3.29345 57.8072 3.28856 57.8434 3.28367 57.8797C3.24916 57.8611 3.20299 57.8507 3.18235 57.8224C3.12444 57.7429 3.02073 57.7222 2.96315 57.6417C2.91945 57.5807 2.87952 57.5123 2.78489 57.4996C2.75223 57.4952 2.72866 57.4321 2.69911 57.3973C2.6724 57.3658 2.64589 57.3333 2.61451 57.3067C2.56273 57.2629 2.50075 57.2292 2.4546 57.1807C2.38899 57.1117 2.33325 57.0336 2.27431 56.9586C2.20447 56.8697 2.13416 56.7811 2.06758 56.6899C2.05085 56.667 2.04755 56.6346 2.03635 56.6014C1.91001 56.5967 1.97578 56.4233 1.85935 56.397C1.85935 56.3627 1.85935 56.3265 1.85935 56.2903C1.85259 56.2939 1.84583 56.2975 1.83907 56.3011C1.7817 56.2247 1.72432 56.1483 1.6608 56.0636C1.6401 56.0021 1.61505 55.9276 1.58663 55.8431C1.57749 55.8409 1.55655 55.8359 1.53561 55.8308C1.54191 55.827 1.5482 55.8232 1.5545 55.8194C1.52694 55.7628 1.49512 55.7077 1.4734 55.649C1.46029 55.6136 1.46287 55.5726 1.45754 55.5266C1.44051 55.5209 1.41839 55.5135 1.39399 55.5053C1.39399 55.4672 1.39399 55.4309 1.39399 55.3907C1.37106 55.3851 1.35022 55.3801 1.32531 55.3741C1.32531 55.3196 1.32749 55.2664 1.32453 55.2135C1.32262 55.1793 1.33273 55.1487 1.28776 55.116C1.25777 55.0942 1.27355 55.0117 1.24885 54.9633C1.23429 54.9308 1.21063 54.8991 1.20711 54.8655C1.20053 54.8025 1.19913 54.748 1.15541 54.6881C1.1207 54.6406 1.14367 54.5542 1.13488 54.4858C1.13121 54.4573 1.11156 54.4308 1.09918 54.4034C1.08867 54.4059 1.07815 54.4084 1.06764 54.411C1.06764 54.2934 1.07058 54.1757 1.06573 54.0583C1.06439 54.0257 1.03994 53.9941 1.02609 53.962C1.01733 53.9641 1.00858 53.9662 0.999821 53.9683C0.999821 53.5805 0.99924 53.1927 1.00155 52.8049C1.00167 52.7857 1.02782 52.7672 1.04026 52.7474C1.05056 52.731 1.06531 52.7135 1.06628 52.6959C1.06954 52.637 1.06767 52.5778 1.06745 52.5188C1.06725 52.4662 1.08117 52.4255 1.11495 52.3775C1.148 52.3306 1.12765 52.2493 1.13791 52.1842C1.14322 52.1505 1.16408 52.1192 1.19066 52.0906C1.20974 52.0073 1.20082 51.9246 1.26372 51.8416C1.31184 51.7781 1.30473 51.6752 1.32627 51.5908C1.33304 51.5643 1.35309 51.541 1.37217 51.518C1.4308 51.3831 1.48943 51.2482 1.54806 51.1133C1.5506 51.1147 1.55315 51.1161 1.55569 51.1175C1.58739 51.0588 1.61814 50.9996 1.65127 50.9417C1.66469 50.9183 1.68331 50.8977 1.71697 50.8848C1.71859 50.8517 1.72021 50.8185 1.72183 50.7854C1.72645 50.789 1.73106 50.7927 1.73568 50.7964C1.77708 50.748 1.81974 50.7007 1.85954 50.6511C1.90674 50.5923 1.92134 50.5121 2.00005 50.4725C2.04461 50.45 2.07605 50.4025 2.11347 50.3663C2.15417 50.3269 2.19662 50.2891 2.23485 50.2476C2.25002 50.2311 2.25062 50.2 2.26715 50.1868C2.29814 50.162 2.34093 50.1506 2.36957 50.124C2.40433 50.0918 2.42953 50.0496 2.47196 49.9948C2.51682 49.9682 2.59211 49.9515 2.64014 49.8758C2.66379 49.8385 2.7378 49.8331 2.78766 49.8104C2.8061 49.802 2.82044 49.7851 2.837 49.7725C2.8503 49.7624 2.86324 49.7512 2.87808 49.7439C2.88753 49.7392 2.90887 49.7431 2.91005 49.739C2.93774 49.643 3.02024 49.6876 3.08582 49.6723C3.08506 49.5758 3.1639 49.6187 3.22079 49.6042C3.22653 49.5862 3.23352 49.5641 3.2381 49.5497C3.34411 49.5246 3.44334 49.5011 3.5531 49.4752C3.55492 49.4676 3.55984 49.4471 3.56256 49.4357C3.64997 49.3844 3.77272 49.4921 3.83488 49.3554C3.9304 49.3554 4.03019 49.3554 4.12999 49.3554C4.12774 49.3467 4.1255 49.338 4.12325 49.3293C4.15622 49.3155 4.18908 49.2901 4.22217 49.2898C4.56291 49.2869 4.90368 49.288 5.24444 49.288C5.26158 49.288 5.28648 49.282 5.29467 49.2907C5.38895 49.3907 5.51345 49.3439 5.6251 49.3581C5.62271 49.3658 5.62031 49.3735 5.61792 49.3812C5.65085 49.3952 5.68273 49.4172 5.71693 49.4215C5.77619 49.429 5.84168 49.4073 5.88297 49.4735C5.88971 49.4843 5.91376 49.4908 5.92886 49.4894C6.06258 49.477 6.17111 49.5426 6.2856 49.5935C6.32478 49.6109 6.37299 49.6087 6.42225 49.6163C6.42642 49.6328 6.43154 49.6531 6.43724 49.6757C6.47252 49.6757 6.50368 49.6757 6.53483 49.6757C6.53232 49.6842 6.52981 49.6926 6.52729 49.7011C6.56034 49.7154 6.59379 49.7289 6.62632 49.7443C6.65171 49.7563 6.67596 49.7706 6.69766 49.7966C6.77397 49.8213 6.85027 49.8459 6.92849 49.8712C6.95986 49.9076 6.99427 49.9476 7.03574 49.9958C7.06153 49.9958 7.09836 49.9958 7.13519 49.9958C7.13198 50.0009 7.12876 50.0061 7.12555 50.0113C7.18121 50.057 7.23453 50.1058 7.29318 50.1475C7.35463 50.1911 7.42744 50.2207 7.48393 50.2692C7.55209 50.3277 7.60831 50.3997 7.67191 50.475C7.6549 50.5896 7.69512 50.6564 7.8109 50.7042C7.84737 50.742 7.87766 50.7772 7.90872 50.8118C7.96005 50.869 8.01064 50.9269 8.06416 50.982C8.08203 51.0004 8.10795 51.0113 8.13018 51.0256C8.14717 51.0532 8.16263 51.0819 8.18141 51.1083C8.25121 51.2064 8.30915 51.3176 8.397 51.3966C8.45898 51.4523 8.46375 51.5332 8.51497 51.578C8.60181 51.654 8.64468 51.7569 8.6892 51.8493C8.73922 51.9531 8.83211 52.0379 8.84074 52.1651C8.84459 52.2219 8.88746 52.2787 8.92066 52.3305C8.9797 52.4227 9.01637 52.5208 9.05395 52.6233C9.0918 52.7265 9.12219 52.8331 9.15899 52.9511C9.17255 53.0261 9.12056 53.1132 9.22861 53.1366C9.22861 53.1366 9.23035 53.1368 9.22945 53.1433C9.22969 53.1897 9.23082 53.2295 9.23102 53.2763C9.22827 53.3335 9.22494 53.3844 9.29669 53.3902C9.29669 53.3902 9.29708 53.3895 9.29613 53.3973C9.29707 53.4795 9.29306 53.5549 9.30375 53.6282C9.30809 53.6579 9.34442 53.6831 9.36619 53.7104C9.36619 53.7104 9.36716 53.7106 9.36573 53.718C9.36591 53.8487 9.36753 53.9721 9.3679 54.1035C9.36744 54.4059 9.36823 54.7003 9.36908 55.0025C9.36825 55.1336 9.36736 55.2569 9.36647 55.3803C9.36647 55.3803 9.36675 55.3801 9.36084 55.3826C9.33743 55.4102 9.30878 55.4336 9.30474 55.4606C9.29621 55.5176 9.30053 55.5765 9.29958 55.6346C9.29958 55.6346 9.29939 55.6335 9.29322 55.6364C9.26921 55.6642 9.23959 55.6875 9.23588 55.7143C9.22724 55.7767 9.2311 55.8408 9.22989 55.9041C9.22989 55.9041 9.23006 55.9046 9.22496 55.9079C9.20086 55.9389 9.17138 55.9644 9.16521 55.9946C9.15472 56.0459 9.15891 56.1 9.15693 56.153C9.1462 56.1828 9.1377 56.2137 9.12436 56.2424C9.06804 56.3634 9.01114 56.4841 8.95276 56.6042C8.91462 56.6826 8.8761 56.7611 8.83312 56.837C8.78943 56.9142 8.74167 56.9893 8.69269 57.0633C8.64349 57.1378 8.59143 57.2059 8.51493 57.2623C8.44208 57.3161 8.40213 57.4107 8.33797 57.4784C8.22959 57.5929 8.11927 57.7068 7.99884 57.8085C7.90441 57.8883 7.79241 57.9477 7.69022 58.0189C7.61597 58.0706 7.54502 58.1269 7.47255 58.1811C7.46624 58.1858 7.45997 58.1932 7.45303 58.194C7.3993 58.2002 7.34146 58.1967 7.31782 58.2622C7.31627 58.2665 7.29631 58.2644 7.27105 58.2654C7.20373 58.2614 7.15889 58.2703 7.15025 58.3338C7.10937 58.3483 7.06849 58.3628 7.02761 58.3772C7.0046 58.3854 6.98159 58.3935 6.94485 58.4014C6.88001 58.4 6.82664 58.3952 6.82276 58.4679C6.73324 58.4805 6.64371 58.4932 6.54285 58.5115C6.47501 58.519 6.41851 58.5208 6.35416 58.5216C6.28364 58.5325 6.19882 58.4856 6.16117 58.5851C5.87341 58.5854 5.5936 58.5856 5.31053 58.5805C5.28104 58.5587 5.25599 58.5303 5.22836 58.5277C5.14758 58.5199 5.06578 58.5223 4.98438 58.5208C4.96662 58.5202 4.94886 58.5196 4.92216 58.5126C4.88118 58.4935 4.8499 58.4783 4.8169 58.4689C4.79008 58.4612 4.74977 58.4706 4.73526 58.4548C4.6785 58.3931 4.60769 58.4021 4.53691 58.4031C4.51931 58.4026 4.50171 58.402 4.4764 58.3943C4.44781 58.3066 4.38228 58.3392 4.33132 58.3349C4.31372 58.3344 4.29613 58.3338 4.27082 58.3264C4.25064 58.2392 4.18883 58.2712 4.14233 58.2683Z" fill="white"/>
<path d="M19.0039 55.5465C19.1161 55.672 19.2159 55.8061 19.2995 55.9536C19.3304 56.0081 19.3846 56.0484 19.424 56.0985C19.4908 56.1838 19.5522 56.2735 19.6199 56.358C19.6787 56.4314 19.7474 56.4968 19.8033 56.5722C19.8403 56.6221 19.8605 56.6846 19.892 56.7392C19.9233 56.7934 19.9237 56.8621 19.9934 56.9001C20.0314 56.9207 20.0475 56.9862 20.0692 57.0335C20.0978 57.0958 20.119 57.1618 20.1495 57.2231C20.1818 57.2883 20.2225 57.3492 20.2573 57.4132C20.2848 57.4636 20.3044 57.519 20.3358 57.5665C20.3653 57.6111 20.4069 57.6472 20.4409 57.689C20.4734 57.7291 20.5029 57.7716 20.5338 57.8129C20.6049 57.9082 20.6777 58.0022 20.7468 58.099C20.8038 58.1788 20.8534 58.2641 20.9121 58.3425C20.9459 58.3877 20.9941 58.4216 21.0309 58.4649C21.0991 58.5452 21.1639 58.6286 21.2298 58.711C21.2474 58.7329 21.2618 58.7578 21.2812 58.7778C21.3913 58.8909 21.4999 59.0057 21.6143 59.1142C21.6727 59.1696 21.7443 59.2105 21.8059 59.2629C21.8364 59.2889 21.8558 59.3281 21.884 59.3575C21.8955 59.3694 21.9171 59.3712 21.9409 59.3854C21.973 59.4271 21.9943 59.4653 22.0245 59.4937C22.0836 59.5493 22.1414 59.6118 22.2113 59.649C22.3219 59.7079 22.397 59.8026 22.4845 59.8856C22.5374 59.9356 22.5946 59.9813 22.6522 60.0256C22.6971 60.0602 22.7505 60.0843 22.7917 60.1225C22.8615 60.1872 22.9225 60.2616 22.9911 60.3278C23.0759 60.4098 23.1627 60.4899 23.2524 60.5663C23.311 60.6161 23.4022 60.6444 23.4333 60.706C23.4975 60.8335 23.6287 60.8702 23.7162 60.9633C23.8019 61.0544 23.9066 61.1268 23.998 61.2128C24.1049 61.3132 24.2065 61.4195 24.3104 61.5232C24.3648 61.5937 24.4065 61.6843 24.4766 61.7299C24.572 61.7921 24.5957 61.9014 24.6723 61.9704C24.7627 62.0519 24.8005 62.1663 24.8631 62.2652C24.9136 62.345 24.9933 62.4051 25.0509 62.4812C25.0814 62.5215 25.0898 62.5786 25.1134 62.6254C25.1301 62.6583 25.1556 62.6865 25.1776 62.7307C25.1825 62.7967 25.1629 62.8627 25.2474 62.8684C25.2474 62.8684 25.2481 62.8686 25.2471 62.8755C25.247 62.9327 25.2356 62.9909 25.3143 62.9907C25.3401 63.0648 25.3676 63.1384 25.3913 63.2133C25.4078 63.2656 25.419 63.3197 25.4323 63.3878C25.4335 63.4565 25.4276 63.5121 25.4392 63.5637C25.4461 63.5944 25.4804 63.6188 25.5023 63.646C25.5023 63.646 25.5033 63.6462 25.502 63.6538C25.5023 63.7378 25.4982 63.8152 25.5086 63.8905C25.5127 63.9208 25.5487 63.9466 25.5703 63.9744C25.5703 63.9744 25.5706 63.9737 25.569 63.982C25.5697 64.0929 25.5721 64.1954 25.5734 64.3061C25.5724 64.3486 25.5725 64.3831 25.5724 64.4175C25.5722 64.4638 25.5791 64.5049 25.6366 64.5187C25.6386 64.6921 25.6403 64.8574 25.6409 65.0311C25.6408 65.342 25.6419 65.6446 25.6427 65.9549C25.6426 66.049 25.6426 66.1355 25.6421 66.2298C25.6397 66.3404 25.6377 66.4431 25.6294 66.5469C25.5515 66.5662 25.574 66.6235 25.5731 66.6788C25.573 66.7268 25.5731 66.7673 25.5732 66.8078C25.5724 66.8258 25.5715 66.8438 25.5652 66.8716C25.469 66.9205 25.5132 67.0018 25.5036 67.0663C25.5036 67.0663 25.503 67.0657 25.4981 67.0694C25.4095 67.1111 25.4457 67.191 25.432 67.2536C25.4217 67.2723 25.4028 67.2909 25.4026 67.3098C25.4011 67.423 25.3383 67.5099 25.2882 67.6028C25.2512 67.6713 25.2164 67.7411 25.1827 67.8114C25.1174 67.9475 25.0663 68.0927 24.9846 68.2174C24.9373 68.2896 24.89 68.3621 24.8423 68.4338C24.77 68.5423 24.6633 68.6266 24.5765 68.726C24.5159 68.7954 24.4679 68.8761 24.4072 68.9453C24.3768 68.9799 24.329 68.9981 24.2918 69.0273C24.2071 69.0938 24.1223 69.1605 24.0411 69.2313C24.0061 69.2618 23.9841 69.3078 23.9488 69.3376C23.9057 69.374 23.8492 69.3946 23.8085 69.433C23.7433 69.4943 23.6588 69.5157 23.5873 69.5606C23.5073 69.6108 23.4435 69.6868 23.3683 69.7458C23.3258 69.7792 23.2739 69.8001 23.2274 69.8284C23.1627 69.8677 23.0763 69.8701 23.0328 69.9465C23.0296 69.9521 23.0113 69.9488 22.986 69.9493C22.9196 69.9519 22.8572 69.9366 22.8496 70.0195C22.8496 70.0195 22.8503 70.0198 22.8432 70.0192C22.7888 70.0227 22.7291 70.0067 22.729 70.087C22.7116 70.0876 22.6942 70.0882 22.6627 70.0885C22.5721 70.0843 22.4994 70.0896 22.4583 70.1702C22.3784 70.1833 22.2986 70.1964 22.2035 70.2094C21.9613 70.2089 21.7344 70.2086 21.504 70.2031C21.4108 70.1859 21.321 70.1739 21.2234 70.1614C21.0748 70.1595 20.934 70.1579 20.7907 70.1506C20.7652 70.1282 20.7437 70.1004 20.719 70.0972C20.6582 70.0894 20.5961 70.0929 20.5267 70.0915C20.4339 70.0908 20.3488 70.0905 20.2638 70.0902C20.2638 70.0902 20.2647 70.0899 20.2602 70.0852C20.2266 70.0626 20.1985 70.0311 20.1683 70.0289C20.0534 70.0207 19.9378 70.0219 19.8225 70.0196C19.8225 70.0196 19.8234 70.0197 19.8211 70.0133C19.7942 69.9893 19.7713 69.9606 19.7446 69.9563C19.6875 69.9471 19.6285 69.9506 19.5665 69.944C19.5365 69.9221 19.5116 69.8931 19.4841 69.8901C19.4047 69.8817 19.3242 69.8837 19.2441 69.8816C19.1584 69.8645 19.0726 69.8474 18.9763 69.8246C18.9267 69.7281 18.8478 69.7708 18.7839 69.7629C18.7664 69.762 18.7489 69.761 18.7241 69.7526C18.6958 69.7275 18.6769 69.6996 18.6534 69.6947C18.6135 69.6863 18.5706 69.6923 18.529 69.6923C18.5114 69.692 18.4938 69.6917 18.4687 69.6839C18.4404 69.6587 18.4217 69.6307 18.3982 69.6257C18.3584 69.6172 18.3156 69.6232 18.274 69.6231C18.2563 69.6229 18.2386 69.6226 18.2127 69.6156C18.1808 69.5909 18.1585 69.5611 18.1329 69.5577C18.0731 69.5498 18.0117 69.5547 17.951 69.5543C17.9162 69.5427 17.8814 69.5311 17.8335 69.5181C17.7343 69.5106 17.6482 69.5045 17.5607 69.4921C17.5377 69.4687 17.5177 69.4409 17.4938 69.4368C17.4483 69.4291 17.4005 69.4348 17.3458 69.4348C17.2364 69.434 17.1348 69.4332 17.0332 69.4325C17.0332 69.4325 17.0341 69.4326 17.0318 69.4262C17.0043 69.4019 16.9803 69.3711 16.9539 69.3687C16.8729 69.3613 16.791 69.3649 16.7095 69.3642C16.7095 69.3642 16.7096 69.3633 16.7079 69.3571C16.6659 69.2578 16.5855 69.3057 16.5136 69.2961C16.4491 69.2955 16.3922 69.2954 16.3354 69.2953C16.3354 69.2953 16.3366 69.295 16.334 69.2887C16.3003 69.2646 16.2698 69.2329 16.2382 69.2318C16.0731 69.2258 15.9077 69.2277 15.7344 69.2258C15.6702 69.2256 15.6127 69.2195 15.5582 69.2298C15.5307 69.2349 15.5085 69.2695 15.4761 69.2912C15.3587 69.2938 15.2488 69.2912 15.1401 69.3013C15.1064 69.3044 15.0758 69.3418 15.0438 69.3635C15.0438 69.3635 15.0435 69.3632 15.0358 69.362C14.9434 69.3625 14.8588 69.3641 14.7669 69.3648C14.7106 69.3643 14.655 69.3538 14.6513 69.4305C14.6513 69.4305 14.6527 69.4316 14.645 69.4311C14.5705 69.4324 14.5026 69.4269 14.4377 69.4387C14.3994 69.4457 14.366 69.4802 14.3305 69.5023C14.2635 69.5145 14.1965 69.5267 14.1181 69.544C14.074 69.5507 14.0413 69.5534 14.0086 69.5535C13.9635 69.5536 13.9352 69.5703 13.9364 69.6207C13.919 69.6213 13.9016 69.6219 13.87 69.6221C13.7923 69.6297 13.7131 69.5981 13.6832 69.6917C13.6832 69.6917 13.6828 69.6928 13.6759 69.6919C13.6289 69.692 13.5889 69.693 13.5417 69.6929C13.4844 69.6907 13.4309 69.6839 13.4267 69.7588C13.4091 69.7595 13.3915 69.7602 13.3595 69.7597C13.3095 69.7587 13.2739 69.7586 13.2382 69.7596C13.1935 69.7607 13.1554 69.7711 13.1547 69.828C13.094 69.8412 13.0334 69.8545 12.9612 69.8725C12.8897 69.8924 12.8019 69.841 12.781 69.9498C12.781 69.9498 12.7807 69.9513 12.774 69.9504C12.7273 69.9507 12.6873 69.952 12.64 69.9523C12.5817 69.9552 12.5173 69.9333 12.5083 70.018C12.5083 70.018 12.5089 70.0184 12.5011 70.0174C12.3834 70.019 12.273 70.0169 12.1637 70.0272C12.1299 70.0304 12.0992 70.0672 12.0671 70.0886C12.0671 70.0886 12.0667 70.0895 12.0594 70.0882C11.95 70.0886 11.8481 70.0902 11.7381 70.0905C11.5583 70.0901 11.3866 70.0909 11.207 70.0913C11.1198 70.0907 11.0404 70.0904 10.961 70.0902C10.961 70.0902 10.9627 70.0898 10.9605 70.0829C10.9164 69.9869 10.8375 70.0306 10.7653 70.0221C10.6958 70.0197 10.634 70.018 10.5714 70.0098C10.5533 69.9287 10.496 69.9535 10.4412 69.9527C10.3543 69.9521 10.2752 69.9517 10.1961 69.9512C10.1961 69.9512 10.1966 69.9511 10.1934 69.9455C10.162 69.922 10.1345 69.8904 10.1053 69.8887C9.98292 69.8814 9.86 69.8831 9.73727 69.8815C9.73727 69.8815 9.7373 69.8815 9.73336 69.877C9.70227 69.8604 9.67543 69.8387 9.64792 69.8378C9.48512 69.8323 9.32216 69.8316 9.15925 69.8294C9.15925 69.8294 9.1601 69.8296 9.15829 69.8229C9.13531 69.799 9.11607 69.7713 9.09258 69.7669C9.04754 69.7584 9.0001 69.7632 8.95366 69.7625C8.9412 69.7619 8.92874 69.7613 8.90665 69.7556C8.85048 69.6635 8.76886 69.6991 8.69943 69.6921C8.69943 69.6921 8.70067 69.6919 8.6992 69.6849C8.68324 69.6046 8.62639 69.6255 8.57991 69.6233C8.50564 69.5956 8.43159 69.5672 8.35698 69.5404C8.32676 69.5295 8.29532 69.5222 8.26178 69.5013C8.26673 69.4345 8.23031 69.4309 8.19099 69.4231C8.17745 69.4 8.16819 69.3761 8.15157 69.3682C8.10634 69.3468 8.058 69.3322 8.00342 69.3121C7.99876 69.3257 7.99184 69.3458 7.98492 69.3659C7.9052 69.3538 7.84825 69.307 7.7969 69.2466C7.7717 69.217 7.73569 69.1787 7.7031 69.1772C7.60937 69.1729 7.61671 69.1057 7.60693 69.046C7.47225 69.0162 7.27464 68.853 7.28264 68.7348C7.16028 68.5984 7.00516 68.5051 6.96158 68.3517C6.90076 68.2669 6.8554 68.2036 6.79666 68.1216C6.76153 68.1109 6.64239 67.9043 6.63983 67.8038C6.55033 67.8063 6.57638 67.7393 6.57375 67.6864C6.57145 67.6402 6.59807 67.5759 6.50937 67.5785C6.50746 67.5445 6.50571 67.5135 6.50369 67.4775C6.37233 67.4485 6.4695 67.3375 6.41355 67.2783C6.39891 67.245 6.3788 67.213 6.37081 67.1782C6.35522 67.1101 6.39844 67.0341 6.32415 66.9703C6.29909 66.9488 6.32018 66.8718 6.32018 66.8202C6.31159 66.8225 6.303 66.8247 6.29441 66.827C6.27985 66.7934 6.25557 66.7606 6.25271 66.726C6.24636 66.649 6.25073 66.5711 6.25073 66.489C6.22805 66.4833 6.20759 66.4781 6.18278 66.4718C6.18278 66.3674 6.1861 66.264 6.18089 66.1611C6.17918 66.1273 6.15537 66.0946 6.14166 66.0614C6.13269 66.0636 6.12372 66.0658 6.11475 66.068C6.11475 65.8639 6.11482 65.6597 6.11473 65.4556C6.11453 65.0296 6.11355 64.6036 6.11558 64.1777C6.11571 64.15 6.13867 64.1225 6.16298 64.0987C6.21015 63.9966 6.14048 63.8681 6.21809 63.7713C6.22901 63.7731 6.23992 63.7749 6.25084 63.7767C6.25084 63.737 6.25073 63.6973 6.25088 63.6576C6.25096 63.6375 6.24313 63.6081 6.2532 63.5987C6.3288 63.5275 6.28656 63.412 6.32736 63.3514C6.39197 63.2554 6.34839 63.1632 6.39386 63.0813C6.40856 63.048 6.42489 63.0154 6.43767 62.9814C6.47567 62.8804 6.51231 62.7789 6.54938 62.6775C6.55779 62.6545 6.56501 62.631 6.57415 62.6083C6.58554 62.58 6.59835 62.5523 6.61994 62.5268C6.6685 62.2731 6.81135 62.0696 6.95879 61.8316C6.95099 61.7697 7.01305 61.7035 7.06622 61.6313C7.1428 61.5275 7.2165 61.4213 7.28852 61.3141C7.33203 61.2493 7.36627 61.178 7.41171 61.1148C7.44979 61.0618 7.49939 61.0175 7.54144 60.9673C7.58178 60.9191 7.61981 60.8689 7.6573 60.8183C7.68626 60.7793 7.70435 60.7229 7.74222 60.7016C7.82203 60.6567 7.8477 60.5688 7.91178 60.5121C7.95842 60.4708 7.98221 60.404 8.02532 60.3572C8.06625 60.3128 8.12283 60.2836 8.16567 60.2406C8.21712 60.189 8.26037 60.1291 8.30912 60.0746C8.33004 60.0512 8.356 60.0325 8.37946 60.0114C8.44254 59.9547 8.50669 59.8991 8.56783 59.8403C8.58705 59.8218 8.59617 59.7929 8.61327 59.7716C8.6396 59.7387 8.66533 59.7037 8.69776 59.678C8.7351 59.6484 8.76484 59.6222 8.78132 59.5712C8.79143 59.5399 8.84735 59.5239 8.89576 59.5146C8.90602 59.4714 8.91629 59.4281 8.92655 59.3849C9.00619 59.3715 9.06524 59.3489 9.09929 59.257C9.12285 59.1934 9.20144 59.1508 9.27569 59.0794C9.28538 59.0223 9.37688 58.9365 9.47437 58.9226C9.49411 58.8255 9.54378 58.75 9.62417 58.6914C9.70224 58.6346 9.77508 58.5703 9.86024 58.5233C9.88593 58.4832 9.91162 58.443 9.9373 58.4029C9.94141 58.4077 9.94551 58.4125 9.94962 58.4173C9.99357 58.3781 10.0375 58.3388 10.0815 58.2996C10.0789 58.2974 10.0763 58.2951 10.0737 58.2929C10.1526 58.2365 10.2315 58.1802 10.3104 58.1238C10.3054 58.1203 10.3004 58.1167 10.2954 58.1131C10.3409 58.0502 10.3864 57.9872 10.4511 57.8978C10.4574 57.8424 10.5819 57.6238 10.6299 57.6087C10.6553 57.5276 10.6841 57.4567 10.7578 57.4043C10.7986 57.3752 10.8171 57.3132 10.8442 57.2653C10.8642 57.2299 10.8789 57.191 10.9022 57.1583C10.9108 57.1463 10.9376 57.1479 10.9561 57.1433C10.9502 57.1376 10.9442 57.1319 10.9382 57.1262C10.9842 57.0706 11.0304 57.015 11.0761 56.9592C11.084 56.9496 11.0921 56.9393 11.0968 56.928C11.1042 56.91 11.1048 56.8879 11.1155 56.8727C11.1823 56.7772 11.2528 56.6842 11.3188 56.588C11.3778 56.5022 11.4298 56.4113 11.4905 56.3268C11.5168 56.2901 11.5627 56.2681 11.59 56.2319C11.6224 56.1889 11.6425 56.1365 11.6717 56.0906C11.6838 56.0715 11.7057 56.0588 11.723 56.043C11.7516 56.0168 11.7897 55.9956 11.8063 55.963C11.8338 55.9088 11.8723 55.8718 11.9138 55.8288C12.0312 55.7073 12.1804 55.6213 12.2801 55.4801C12.3091 55.4391 12.3678 55.4205 12.4106 55.3884C12.437 55.3684 12.4587 55.342 12.4832 55.3193C12.5489 55.2582 12.6101 55.1904 12.6822 55.1384C12.767 55.0773 12.8613 55.0299 12.9669 54.9675C12.9864 54.9437 13.0189 54.9042 13.0513 54.8647C13.0543 54.8672 13.0572 54.8697 13.0602 54.8721C13.0832 54.8487 13.1058 54.8249 13.1292 54.8021C13.1475 54.7844 13.1656 54.755 13.1858 54.753C13.2784 54.7439 13.3543 54.6927 13.4364 54.6582C13.4662 54.6457 13.4867 54.6118 13.5153 54.5942C13.6112 54.5352 13.7089 54.479 13.8061 54.4221C13.8173 54.4155 13.8302 54.406 13.8416 54.4069C13.928 54.4135 13.9607 54.3421 14.0091 54.2925C14.0209 54.2805 14.0392 54.2697 14.0553 54.2685C14.0972 54.2651 14.1395 54.2673 14.1873 54.2673C14.1901 54.1678 14.2427 54.1643 14.3246 54.1504C14.3858 54.14 14.478 54.167 14.5291 54.0844C14.5404 54.0662 14.5984 54.0745 14.6346 54.0765C14.6858 54.0793 14.7308 54.0785 14.7266 54.0066C14.7933 54.0066 14.853 54.0104 14.9119 54.005C14.9425 54.0022 14.9716 53.9831 15.0015 53.9716C15.0314 53.9601 15.0614 53.9392 15.0914 53.939C15.5477 53.9368 16.0039 53.9373 16.4602 53.9373C16.4771 53.9373 16.5019 53.9318 16.5098 53.9408C16.5901 54.0325 16.6964 53.9988 16.7946 54.0086C16.8206 54.0111 16.844 54.0409 16.8612 54.053C16.9857 54.0966 17.1056 54.1403 17.2266 54.1805C17.332 54.2156 17.4386 54.2468 17.5579 54.2837C17.5587 54.2871 17.5636 54.308 17.5632 54.3062C17.6388 54.3501 17.6972 54.3879 17.7588 54.419C17.8788 54.4795 18.022 54.5134 18.1147 54.6023C18.1844 54.6692 18.2835 54.6877 18.3376 54.7751C18.3705 54.8283 18.433 54.8626 18.4778 54.9097C18.5056 54.9561 18.5974 54.8634 18.5986 54.9884C18.5812 55.0322 18.5642 55.0624 18.5483 55.0906C18.5759 55.1233 18.6002 55.1579 18.6303 55.186C18.6569 55.2106 18.69 55.228 18.7266 55.2491C18.7711 55.2824 18.8134 55.3112 18.8463 55.3485C18.902 55.4117 18.9517 55.4802 19.0039 55.5465Z" fill="white"/>
<path d="M17.0699 17.6963C17.2319 12.4609 17.2811 7.34926 17.2136 2.2392C17.1953 0.854152 17.5309 0.304806 19.013 0.382064C21.3299 0.502837 23.6608 0.485703 25.9799 0.38882C27.5792 0.322012 28.0122 0.522294 27.9421 2.47252C27.6807 9.74262 27.8335 17.0276 27.8312 24.307C27.8301 28.0242 27.7877 31.742 27.8518 35.4581C27.8742 36.7593 27.4476 37.1757 26.1281 37.2086C23.5167 37.2738 20.8914 36.8326 18.2839 37.5404C17.0326 37.8801 17.254 36.7365 17.2518 36.0257C17.2366 31.147 17.1723 26.2664 17.2938 21.3906C17.3281 20.0137 16.9401 19.7246 15.6749 19.6743C10.7325 19.4779 10.7341 19.4375 10.734 24.2624C10.7339 27.9021 10.6803 31.543 10.7601 35.1809C10.7915 36.6119 10.4794 37.228 8.86841 37.219C6.34087 37.2048 3.79226 36.8531 1.27056 37.5574C-0.0516744 37.9266 0.03632 36.8474 0.037051 35.9822C0.040912 31.4132 0.0381967 26.8442 0.0381223 22.2752C0.0380158 15.7702 0.097362 9.26428 0.000892491 2.7607C-0.0266863 0.901364 0.580668 0.284961 2.41135 0.381465C4.88261 0.511739 7.36586 0.411088 9.84394 0.417341C10.6479 0.419369 11.0094 0.337502 10.9415 1.63213C10.6743 6.72674 10.7909 11.8409 10.7294 16.9474C10.7165 18.0218 11.2159 18.3058 12.3637 18.1071C13.992 17.597 15.4689 17.9904 17.0699 17.6963Z" fill="white"/>
<path d="M144.759 57.8096C146.073 54.7067 147.494 51.8559 147.536 48.5319C147.566 46.1231 146.634 45.1398 144.345 45.8223C140.996 46.821 139.841 49.6368 139.116 52.6436C138.073 56.9691 138.075 61.3985 138.213 65.8096C138.264 67.4502 137.767 68.0209 136.136 67.8561C133.621 67.6021 130.335 68.9205 128.776 67.3383C127.34 65.8806 128.406 62.6283 128.38 60.1683C128.33 55.2915 128.419 50.413 128.335 45.5372C128.308 43.9663 128.825 43.5333 130.351 43.6681C132.195 43.831 134.075 43.8683 135.917 43.706C137.848 43.5357 138.37 44.3482 138.195 46.0902C138.096 47.0695 138.177 48.0669 138.394 49.2412C140.009 46.1186 141.823 43.5396 145.829 43.6097C150.095 43.6843 151.424 46.4648 152.217 50.4737C153.436 47.7348 154.182 45.483 156.704 44.2376C159.806 42.7049 164.249 43.9039 165.485 47.1113C166.303 49.2346 166.515 51.4716 166.529 53.7258C166.554 57.8287 166.499 61.9328 166.585 66.0342C166.615 67.4696 166.131 67.9266 164.719 67.8627C162.478 67.7614 160.22 67.7046 157.988 67.8739C155.903 68.032 155.986 66.6784 156.339 65.543C157.285 62.5052 158.495 59.5508 159.539 56.5418C160.479 53.8304 161.817 51.2164 161.834 48.2557C161.847 46.0269 160.778 45.188 158.6 45.8004C155.436 46.6899 154.219 49.2673 153.44 52.1231C152.243 56.5132 152.358 61.0221 152.438 65.5063C152.469 67.2423 152.114 68.035 150.17 67.8779C147.939 67.6977 145.683 67.8161 143.438 67.8435C142.238 67.8581 141.704 67.8557 142.118 66.1935C142.817 63.393 144.018 60.7719 144.759 57.8096Z" fill="white"/>
<path d="M56.3991 31.6762C56.3518 32.4377 56.3362 32.9929 56.3258 33.7564C56.5866 37.1449 56.5866 37.1452 53.4872 37.1465C51.7844 37.1471 50.0771 37.069 48.38 37.1675C46.6262 37.2694 46.1177 36.6758 46.8046 35.0215C47.1264 34.2467 47.1304 33.4015 46.7688 32.3871C46.0317 33.3139 45.4027 34.1539 44.723 34.9507C42.4416 37.6249 39.32 37.9916 36.2236 37.4511C34.0712 37.0754 33.5317 34.8227 33.0722 32.9151C32.3985 30.1183 32.5949 27.2532 32.5879 24.4087C32.58 21.2352 32.6222 18.0612 32.5691 14.8887C32.5508 13.7946 32.9036 13.3933 34.022 13.4149C37.0313 13.4732 40.0425 13.4349 43.1293 13.4349C42.132 18.3762 40.0469 22.8006 38.4739 27.3942C37.7707 29.4476 37.049 31.498 37.1913 33.7164C37.2831 35.1488 37.5557 35.9586 39.4775 35.4088C42.7371 34.4761 44.8479 32.1879 45.671 29.0277C46.8407 24.5362 46.4801 20.0216 46.4956 15.5079C46.5009 13.9548 46.8066 13.2882 48.5137 13.3979C51.1318 13.5662 53.7648 13.503 56.3915 13.5381C56.4119 16.1098 56.4453 18.6815 56.4496 21.2533C56.4552 24.6588 56.4381 28.0644 56.3991 31.6762Z" fill="white"/>
<path d="M103.257 16.2227C103.257 11.4278 103.32 6.86403 103.222 2.30368C103.189 0.757686 103.687 0.301639 105.184 0.381514C107.344 0.496683 109.514 0.433388 111.678 0.403907C112.639 0.39083 112.915 0.622357 112.907 1.72947C112.819 12.7094 112.801 23.6903 112.858 34.6704C112.868 36.4614 112.597 37.4382 110.504 37.1776C108.158 36.8856 104.99 38.1794 103.649 36.6326C102.483 35.2894 103.277 32.2183 103.264 29.9105C103.239 25.4255 103.257 20.9403 103.257 16.2227Z" fill="white"/>
<path d="M98.4101 22.2674C98.4098 26.6757 98.3248 30.854 98.4491 35.0261C98.5022 36.8092 97.9009 37.3063 96.1988 37.1836C94.1986 37.0393 92.1791 37.1101 90.1699 37.163C89.1627 37.1895 88.8289 36.8154 88.831 35.8176C88.8548 24.4502 88.8558 13.0828 88.8301 1.7154C88.8278 0.684983 89.2259 0.30949 90.1973 0.410848C90.3502 0.426805 90.5064 0.408286 90.661 0.411382C93.2013 0.462263 95.7417 0.514057 98.282 0.565645C98.3247 3.00498 98.3943 5.4442 98.4044 7.88366C98.424 12.6007 98.4101 17.3178 98.4101 22.2674Z" fill="white"/>
<path d="M221.677 58.4758C220.066 58.4813 218.673 58.4722 217.281 58.4912C214.851 58.5242 214.093 57.7333 214.984 55.5693C215.871 53.4154 216.457 51.0862 217.937 49.2096C218.806 48.1067 219.06 46.7948 218.056 45.9438C216.963 45.0165 215.642 45.7413 214.768 46.6821C213.074 48.5064 212.452 50.83 212.048 53.2224C211.361 57.293 211.517 61.4032 211.621 65.4929C211.672 67.4819 211.025 68.0402 209.14 67.871C207.376 67.7126 205.581 67.762 203.808 67.8605C202.388 67.9395 201.77 67.6218 201.792 65.9954C201.883 59.1902 201.866 52.3828 201.802 45.577C201.788 44.0796 202.17 43.4954 203.764 43.6604C205.448 43.8348 207.174 43.8628 208.86 43.7081C210.954 43.5158 211.922 44.1867 211.582 46.3758C211.501 46.9005 211.57 47.4487 211.57 48.1803C212.525 47.8295 212.744 47.0463 212.995 46.4401C213.749 44.6127 214.942 43.6284 217.008 43.6279C219.217 43.6275 220.943 44.3274 221.963 46.3678C223.785 50.013 223.362 53.8933 223.111 57.7498C223.061 58.5188 222.428 58.4443 221.677 58.4758Z" fill="white"/>
<path d="M199.593 37.3661C195.8 37.6987 192.243 37.7545 188.83 36.2275C185.964 34.945 186.511 31.1064 188.758 29.5777C190.567 28.3467 192.592 28.013 194.969 28.5186C194.658 28.8821 194.548 29.1391 194.393 29.1715C192.07 29.6538 191.029 31.1829 191.469 33.3882C191.917 35.6375 193.649 36.4345 195.858 36.2095C196.763 36.1173 197.693 36.437 198.577 35.955C199.992 35.1829 201.218 33.997 201.204 32.4852C201.192 31.0345 199.843 29.9378 198.546 29.2265C196.169 27.9234 193.705 26.7802 191.312 25.505C187.683 23.5709 186.239 19.7659 187.905 16.1004C188.96 13.7794 191.268 13.0553 193.556 13.0172C197.92 12.9446 202.317 12.5848 206.681 13.6296C205.951 15.297 205.109 16.9519 204.496 18.6872C203.789 20.6883 202.725 20.3869 201.46 19.3563C199.831 18.0292 198.204 16.6976 196.631 15.3057C196.081 14.8189 195.513 14.498 194.806 14.4035C193.91 14.2841 193.01 14.3711 192.607 15.276C192.145 16.3141 192.705 17.1334 193.633 17.5491C195.247 18.2725 196.876 19.0254 198.575 19.4822C201.137 20.1709 203.143 21.7055 205.007 23.4162C209.335 27.3894 208.601 33.0952 203.475 35.9748C202.323 36.6223 201.111 37.1267 199.593 37.3661Z" fill="white"/>
<path d="M145.127 11.4245C144.991 13.1429 145.269 13.9836 147.172 13.5314C148.495 13.2172 149.947 13.4309 151.341 13.4445C151.843 13.4494 152.488 13.3034 152.522 14.1568C152.554 14.9653 152.134 15.2451 151.386 15.2411C149.837 15.2329 148.285 15.2976 146.738 15.2368C145.538 15.1897 145.097 15.6507 145.114 16.858C145.175 21.3507 145.086 25.8468 145.223 30.3365C145.27 31.8783 145.045 33.98 146.985 34.5068C148.884 35.0222 149.802 33.1377 150.971 31.9828C151.543 31.4179 151.185 29.6599 152.487 30.2631C153.907 30.9214 152.78 32.3018 152.385 33.0285C150.438 36.6077 147.265 37.7589 143.248 37.6811C140.668 37.6312 137.754 35.1301 136.71 32.5995C134.699 27.721 135.486 22.6042 135.369 17.5694C135.334 16.0648 135.62 14.633 133.311 15.7072C132.738 15.9735 132.081 15.7295 132.096 14.816C132.108 14.0932 132.043 13.2792 133.101 13.4562C135.258 13.8169 135.574 12.6605 135.354 10.9331C135.285 10.3931 135.29 9.67981 135.873 9.50841C138.924 8.61045 141.458 6.54411 144.572 5.76034C145.713 5.47337 145.7 6.05975 145.474 6.62661C144.867 8.14302 145.257 9.69179 145.127 11.4245Z" fill="white"/>
<path d="M125.057 13.4308C127.405 13.0555 127.914 13.8999 127.854 16.0327C127.675 22.3692 127.744 28.7146 127.82 35.0553C127.839 36.6189 127.478 37.2917 125.781 37.1818C123.625 37.0422 121.451 37.1006 119.288 37.1663C118.144 37.2011 117.639 36.9224 117.649 35.6401C117.703 28.7575 117.699 21.8742 117.652 14.9915C117.643 13.7587 118.072 13.3654 119.265 13.4129C121.118 13.4868 122.976 13.4314 125.057 13.4308Z" fill="white"/>
<path d="M120.293 0.497678C123.263 -0.546081 125.537 -0.00175884 127.155 2.64146C128.429 4.72196 128.077 7.33888 126.246 8.95253C124.487 10.503 120.977 10.69 119.397 9.30015C117.807 7.9011 116.912 4.43885 118.364 2.64791C118.937 1.94204 119.451 1.18668 120.293 0.497678Z" fill="white"/>
<path fill-rule="evenodd" clip-rule="evenodd" d="M62.5714 31.6653C60.6226 26.6707 60.7376 21.8918 63.8145 17.4608C66.7329 13.258 75.873 10.6719 80.3823 15.8029C82.5405 18.2586 83.036 21.0802 81.3203 23.8809C79.4249 26.9748 76.5661 28.709 73.0296 29.2505C71.6201 29.4664 71.7456 29.8848 72.4226 30.8282C74.3933 33.5747 79.0408 33.7925 81.9717 30.7938C82.0669 30.6964 82.1315 30.5313 82.1982 30.3606C82.3755 29.9071 82.5682 29.414 83.3934 30.0467C84.2076 30.671 83.9038 31.1062 83.5354 31.6341C83.4769 31.7179 83.4169 31.8039 83.3594 31.8934C79.9967 37.1301 74.6811 38.993 68.6503 37.0398C67.0632 36.5257 67.0414 35.2941 67.0182 33.9861L67.0162 33.8746C67.0139 33.7496 67.0279 33.6075 67.0424 33.4604C67.0984 32.8924 67.1617 32.2497 66.3216 32.2299C65.4417 32.2092 65.4941 32.8994 65.5386 33.4863V33.4864C65.5479 33.61 65.557 33.729 65.5569 33.8359L65.5563 34.4248V34.4254C65.545 45.6098 65.5337 56.7943 65.6205 67.9781C65.6287 69.0327 65.5272 69.5095 64.513 69.139C61.8545 68.168 59.1801 68.562 56.5225 68.9615C49.6271 69.9982 44.779 67.8439 42.4352 61.7624C40.3445 56.3376 40.6779 48.725 46.6091 45.2142C50.7144 42.7842 56.4889 44.3941 56.4362 50.116C56.4272 51.0866 56.4041 52.0572 56.3809 53.0278C56.345 54.5335 56.3091 56.039 56.3263 57.544L56.3265 57.5662C56.3425 58.9699 56.3594 60.4605 58.396 61.7947C57.9009 58.6806 57.9309 55.7929 57.9601 52.9829V52.9829C57.976 51.4538 57.9916 49.9478 57.9223 48.4409C57.8723 47.3531 57.7989 46.2663 57.7255 45.1794L57.7255 45.1793C57.5467 42.5313 57.3679 39.8823 57.5262 37.2149C57.5893 36.1516 57.6366 34.8891 56.5018 33.9843C55.7308 33.4721 55.6807 32.8756 56.1835 32.0461C56.6889 31.9677 57.0885 31.9834 57.5404 32.0013C57.6838 32.007 57.8324 32.0128 57.9913 32.016C58.8763 31.7724 59.716 31.7747 60.5605 31.7769C61.2199 31.7787 61.8822 31.7805 62.5714 31.6653ZM50.5107 57.2665C50.1178 54.0499 50.0184 51.0406 50.8385 48.0803C50.8558 48.0179 50.8729 47.9542 50.8903 47.8896L50.8904 47.8891C51.1165 47.0482 51.3812 46.0642 52.4714 46.1388C53.4357 46.2049 53.6707 47.0908 53.8861 47.9029C53.9132 48.0049 53.9399 48.1057 53.9678 48.2036C54.4498 49.898 54.4434 51.6259 54.437 53.3547C54.4349 53.9282 54.4328 54.5017 54.4485 55.0742C54.457 55.3832 54.4635 55.6927 54.47 56.0022L54.47 56.0024C54.5255 58.6483 54.5812 61.2995 55.8729 63.7421C56.2877 64.5266 56.9198 65.0444 57.8453 65.1927C55.8289 66.7197 54.4574 66.5804 53.0384 64.6241C51.4979 62.5001 50.8492 60.0393 50.5107 57.2665ZM70.2606 18.9338C70.0343 21.6406 70.0081 24.3451 70.7087 27.1909C71.0623 28.425 71.3321 29.0903 72.5611 27.983C76.2177 24.6885 76.3952 19.4926 74.7174 15.8183C74.0235 14.2987 72.8294 14.1144 71.7052 15.3333C70.7825 16.3337 70.372 17.6016 70.2606 18.9338Z" fill="white"/>
<path fill-rule="evenodd" clip-rule="evenodd" d="M114.019 67.8387L116.438 67.8387C117.034 67.8386 117.61 67.837 118.174 67.8355C119.496 67.832 120.745 67.8286 121.994 67.8437C122.845 67.854 123.518 67.7842 123.515 66.6543C123.501 60.9069 123.502 55.1595 123.504 49.3044C123.505 47.3946 123.505 45.4735 123.505 43.5371C121.751 44.6417 120.051 44.4583 118.362 44.2737C115.436 43.9538 112.509 43.7237 109.563 43.6193C107.07 43.5309 105.098 44.5361 103.37 46.1122C98.6162 50.4474 97.877 60.6149 102.492 65.8014C104.424 67.9723 108.056 68.9221 110.856 67.9485C113.908 66.8873 114.417 64.3344 114.482 61.5958C114.51 60.3926 114.496 59.1882 114.482 57.9839C114.466 56.6323 114.45 55.2808 114.494 53.9311C114.496 53.8908 114.497 53.8501 114.498 53.8093C114.53 52.7615 114.567 51.5536 116.325 50.9001C115.82 53.1333 115.86 55.3781 115.9 57.6087C115.963 61.0855 116.025 64.528 114.019 67.8387ZM109.103 65.1455C109.65 66.4459 110.442 67.1245 111.592 65.3317C112.204 63.4348 112.643 61.6683 112.55 59.8377C112.392 56.7639 112.581 53.6903 113.113 50.6904C113.118 50.6636 113.123 50.6366 113.128 50.6094C113.377 49.1985 113.707 47.3286 115.97 47.2173C113.06 45.8254 111.888 46.1695 110.394 48.9209C108.529 52.3548 108.255 56.1139 108.282 59.9251C108.294 61.7105 108.407 63.4893 109.103 65.1455Z" fill="white"/>
<path fill-rule="evenodd" clip-rule="evenodd" d="M172.565 33.4803C172.956 31.3287 172.919 29.1685 172.673 26.7978C172.679 26.5258 172.68 26.2558 172.682 25.9883C172.693 24.0585 172.704 22.2642 174.145 20.8526C174.016 22.5987 174.085 24.3544 174.154 26.111C174.3 29.8132 174.446 33.5195 172.734 37.1485C173.509 37.1485 174.253 37.1364 174.976 37.1246C176.572 37.0985 178.062 37.0742 179.542 37.1863C181.411 37.328 181.888 36.6617 181.863 34.8541C181.793 29.6962 181.804 24.5371 181.815 19.3846C181.82 17.4709 181.824 15.5581 181.824 13.6466C179.795 14.1503 177.687 13.8058 175.533 13.4538C174.936 13.3563 174.335 13.2581 173.732 13.1773C167.911 12.3978 162.972 12.84 159.587 18.2876C157.752 21.2391 157.301 24.6512 157.721 27.9945C158.499 34.1837 161.346 38.0227 167.824 37.617C170.651 37.4399 172.059 36.2544 172.565 33.4803ZM170.682 29.0518C170.648 26.2953 170.614 23.5115 171.254 20.6611C171.567 18.6372 172.63 17.3161 174.318 16.2945C171.432 15.4055 170.071 15.896 168.768 18.4214C166.291 23.2238 166.158 28.3454 167.018 33.5484C167.18 34.527 167.446 35.8452 168.552 35.8898C169.482 35.9274 169.913 35.0248 170.308 34.1992C170.396 34.0156 170.482 33.8359 170.571 33.6711C170.716 33.4033 170.702 33.0457 170.688 32.6931C170.682 32.5607 170.677 32.4289 170.681 32.3029C170.709 31.2218 170.695 30.1389 170.682 29.0518Z" fill="white"/>
<path fill-rule="evenodd" clip-rule="evenodd" d="M188.216 44.3834C181.946 42.5226 176.155 44.0788 173.085 49.3848C171.054 53.0171 171.099 56.7516 172.122 60.3992C173.666 65.9013 180.368 69.515 186.77 67.9598C192.987 66.4495 196.785 62.2084 196.934 56.1338C197.07 50.6159 193.632 45.9908 188.216 44.3834ZM183.605 65.7157C184.349 66.5041 185.218 66.6162 185.961 65.3369C188.172 61.5531 187.773 57.6069 187.285 53.7055L187.284 53.7022C187.015 51.5478 186.736 49.3208 185.565 47.407C185.484 47.2743 185.407 47.1299 185.328 46.9827C184.973 46.3187 184.588 45.5969 183.67 45.6342C182.603 45.6777 182.14 46.5995 181.743 47.4371C181.448 48.0581 181.195 48.7304 181.092 49.4055C180.36 54.2176 180.714 58.9546 182.296 63.5659C182.564 64.3455 183.039 65.1168 183.605 65.7157Z" fill="white"/>
<path fill-rule="evenodd" clip-rule="evenodd" d="M87.4303 46.057C83.0177 43.8036 78.889 44.3107 74.808 47.2279C70.0906 51.8831 69.1408 58.1775 72.3717 63.8898C74.4911 67.6371 77.9314 69.6581 82.1635 69.6167C86.4852 69.5745 90.1226 67.7778 92.2034 63.6942C92.2789 63.5462 92.3949 63.391 92.5147 63.2309C92.9144 62.6965 93.3559 62.1063 92.4695 61.5381C91.7679 61.0883 91.44 61.6438 91.1515 62.1328C91.0395 62.3225 90.9335 62.5022 90.8138 62.6093C87.7277 65.3712 84.3057 65.5948 81.9122 62.9548C81.842 62.8773 81.7635 62.7995 81.6833 62.7201C81.3161 62.3561 80.9144 61.9579 81.117 61.4038C81.2714 60.9813 81.6654 60.9756 82.0606 60.9699C82.2327 60.9675 82.405 60.965 82.558 60.928C85.4964 60.2184 88.0419 58.8415 89.8838 56.3821C92.6872 52.639 91.5744 48.1733 87.4303 46.057ZM79.3205 50.8985C79.2745 51.1833 79.2275 51.4739 79.1736 51.7701C79.0463 54.3755 79.3038 56.7441 79.8586 59.0763C80.1254 60.1979 80.7326 60.8718 81.7028 59.6931C84.8014 55.9285 86.1653 52.6861 83.9778 47.8628C83.9365 47.7717 83.8963 47.6766 83.8554 47.5801C83.5709 46.9071 83.2562 46.1631 82.3254 46.199C81.4176 46.234 80.7958 46.8452 80.3201 47.5942C79.6959 48.5769 79.5169 49.6844 79.3205 50.8985Z" fill="white"/>
</svg>
