<svg width="209" height="72" viewBox="0 0 209 72" fill="none" xmlns="http://www.w3.org/2000/svg">
<g filter="url(#filter0_d_245_56)">
<path d="M13.6922 47.5227C13.6314 47.4998 13.571 47.4757 13.5095 47.4544C13.4746 47.4423 13.4325 47.4426 13.4032 47.4233C13.343 47.3837 13.2745 47.3593 13.2186 47.3092C13.1756 47.2707 13.1084 47.258 13.0461 47.2269C13.0197 47.2038 12.9968 47.1726 12.9797 47.1754C12.9595 47.1787 12.9444 47.2115 12.9271 47.2315C12.9087 47.2266 12.8786 47.2268 12.8738 47.2161C12.8413 47.1435 12.7813 47.1243 12.7049 47.1247C12.6923 47.0645 12.6665 47.0172 12.5948 47.0018C12.5671 46.9958 12.5377 46.966 12.5229 46.9396C12.4616 46.8302 12.3211 46.8083 12.2572 46.7037C12.2385 46.6732 12.2203 46.6425 12.1949 46.6002C12.1058 46.5778 12.0502 46.5236 12.0262 46.4453C12.011 46.4236 11.9967 46.4012 11.9803 46.3804C11.9631 46.3587 11.9434 46.3389 11.9256 46.3176C11.8874 46.2718 11.8498 46.2254 11.8116 46.1796C11.7958 46.1606 11.779 46.1423 11.7502 46.1095C11.7502 46.0976 11.7502 46.065 11.7502 46.0327C11.6813 45.9997 11.645 45.9473 11.6216 45.878C11.6084 45.8389 11.5626 45.8114 11.5421 45.7732C11.5078 45.7093 11.486 45.6389 11.4515 45.5751C11.4198 45.5163 11.3739 45.4648 11.3424 45.406C11.3121 45.3493 11.2908 45.2878 11.2684 45.2274C11.2578 45.1988 11.2872 45.1531 11.228 45.1451C11.2231 45.1444 11.223 45.1134 11.2199 45.0965C11.2164 45.0774 11.2187 45.0495 11.2068 45.0409C11.1547 45.0033 11.1552 44.9522 11.1576 44.8983C11.1582 44.8863 11.157 44.8663 11.1502 44.8632C11.0763 44.8287 11.1003 44.7617 11.0944 44.6984C11.0167 44.7059 11.035 44.6516 11.0338 44.6086C11.0328 44.5685 11.0503 44.5175 10.9718 44.5205C10.9718 44.4874 10.9737 44.4573 10.9714 44.4276C10.9664 44.3649 10.981 44.3042 10.9335 44.2416C10.9046 44.2036 10.9267 44.129 10.9248 44.0709C10.9235 44.0303 10.9451 43.9741 10.8626 43.9923C10.8626 43.8937 10.8626 43.8053 10.8626 43.717C10.8548 43.719 10.847 43.721 10.8392 43.7231C10.8263 43.6937 10.8029 43.6647 10.8022 43.6351C10.7986 43.4705 10.8005 43.3059 10.8005 43.1412C10.7934 43.1435 10.7864 43.1457 10.7794 43.1479C10.7656 43.1186 10.7404 43.0894 10.7399 43.0598C10.7367 42.8369 10.7368 42.6139 10.74 42.391C10.7404 42.3615 10.764 42.3324 10.7769 42.3031C10.7849 42.3051 10.793 42.3071 10.801 42.3091C10.801 42.1245 10.801 41.94 10.801 41.7554C10.8092 41.7573 10.8173 41.7592 10.8255 41.7611C10.8379 41.7317 10.8594 41.7028 10.861 41.6729C10.8658 41.5845 10.8627 41.4958 10.8627 41.4072C10.87 41.4094 10.8772 41.4116 10.8845 41.4138C10.898 41.3845 10.9163 41.3564 10.9237 41.3258C10.9333 41.2864 10.9069 41.2387 10.9657 41.2113C10.9788 41.2052 10.9711 41.1545 10.9714 41.1243C10.972 41.0662 10.9716 41.0081 10.9716 40.9438C11.055 40.9476 11.0316 40.8897 11.0339 40.8455C11.0358 40.8074 11.0182 40.7569 11.0705 40.7649C11.1002 40.6992 11.1272 40.6429 11.1508 40.5852C11.1581 40.5674 11.1532 40.5451 11.159 40.5263C11.1681 40.4968 11.1808 40.4683 11.1932 40.4398C11.201 40.4222 11.2167 40.4062 11.2191 40.3883C11.2242 40.3495 11.2042 40.3055 11.2621 40.2831C11.2736 40.2787 11.2677 40.2314 11.2701 40.1997C11.3604 40.1981 11.3199 40.1286 11.3332 40.079C11.4197 40.0785 11.384 40.0104 11.3946 39.9652C11.4641 39.9234 11.5107 39.8641 11.5138 39.7829C11.5162 39.7192 11.563 39.6948 11.6011 39.6569C11.6376 39.6206 11.6595 39.5698 11.6865 39.5247C11.7026 39.4979 11.7131 39.4676 11.7315 39.4428C11.7719 39.3885 11.8131 39.3344 11.8592 39.2848C11.8914 39.2502 11.9322 39.2232 11.9771 39.1862C11.9923 39.1251 12.0349 39.0758 12.096 39.0244C12.1858 38.9487 12.2647 38.8582 12.3553 38.7814C12.3975 38.7455 12.4482 38.7191 12.4917 38.6844C12.5064 38.6726 12.511 38.6485 12.5217 38.6271C12.5534 38.6271 12.5868 38.6271 12.6121 38.6271C12.6782 38.5533 12.731 38.4819 12.8322 38.4562C12.8962 38.44 12.9518 38.3925 13.0054 38.3491C13.0528 38.3342 13.1064 38.3452 13.1498 38.2908C13.1688 38.2669 13.2312 38.2763 13.274 38.2705C13.2717 38.2647 13.2693 38.2589 13.267 38.253C13.2963 38.2405 13.3246 38.2243 13.3552 38.2163C13.3948 38.2061 13.4445 38.2366 13.4729 38.1766C13.4794 38.1628 13.5363 38.1752 13.5686 38.1687C13.5951 38.1635 13.6195 38.1482 13.6448 38.1373C13.6425 38.1279 13.6402 38.1185 13.6379 38.109C13.7099 38.109 13.782 38.1092 13.854 38.109C13.8951 38.1088 13.9467 38.1224 13.9265 38.0497C14.224 38.0497 14.5113 38.0497 14.7986 38.0497C14.7963 38.0562 14.794 38.0628 14.7918 38.0693C14.8217 38.0825 14.8508 38.1048 14.8816 38.1072C14.9537 38.1129 15.0268 38.1056 15.099 38.1107C15.1293 38.1128 15.1583 38.1329 15.1879 38.1447C15.1859 38.1531 15.1839 38.1614 15.1819 38.1697C15.2075 38.1697 15.2334 38.1675 15.2588 38.1702C15.2971 38.1743 15.3437 38.1492 15.3687 38.2073C15.3741 38.2199 15.4272 38.2092 15.4564 38.2164C15.4875 38.224 15.5164 38.2401 15.5462 38.2524C15.544 38.2602 15.5419 38.268 15.5398 38.2757C15.5731 38.2757 15.6065 38.2757 15.6246 38.2757C15.6952 38.354 15.7895 38.3597 15.8657 38.3971C15.9436 38.4354 15.9979 38.5245 16.0831 38.508C16.1289 38.5398 16.1612 38.5624 16.1936 38.5848C16.2631 38.6329 16.3297 38.6859 16.4031 38.7275C16.4814 38.7719 16.5566 38.8132 16.5903 38.9036C16.5985 38.9257 16.6602 38.912 16.642 38.9697C16.6228 38.9891 16.6084 39.0017 16.5941 39.0144C16.6528 39.0578 16.7115 39.1011 16.7715 39.1502C16.8085 39.1926 16.8441 39.2294 16.8797 39.2662C16.9386 39.3254 17.0008 39.3819 17.0554 39.4448C17.0869 39.4812 17.1033 39.5297 17.1317 39.5692C17.1563 39.6034 17.1909 39.6307 17.2163 39.6644C17.2437 39.7008 17.2665 39.7407 17.2894 39.7801C17.3167 39.8271 17.3317 39.8865 17.3704 39.9205C17.4334 39.9758 17.437 40.0549 17.4775 40.1169C17.5086 40.1646 17.553 40.2039 17.588 40.2495C17.5975 40.2619 17.5908 40.2851 17.598 40.3004C17.608 40.3218 17.6238 40.3406 17.6376 40.3603C17.6429 40.3679 17.6537 40.3745 17.6542 40.3821C17.6573 40.4309 17.6634 40.4718 17.7139 40.5047C17.7417 40.5228 17.7597 40.5756 17.7584 40.612C17.7557 40.6878 17.7978 40.7426 17.8284 40.8157C17.8329 40.8732 17.8098 40.9334 17.8899 40.9385C17.8899 40.9385 17.891 40.9382 17.8894 40.9452C17.9009 41.0067 17.8534 41.0859 17.953 41.1051C17.953 41.1051 17.9531 41.1056 17.9517 41.1126C17.9203 41.2537 18.0201 41.3625 18.0266 41.4899C18.0271 41.4996 18.0484 41.5083 18.0602 41.5244C18.0618 41.5684 18.056 41.6078 18.0667 41.6422C18.0779 41.6781 18.105 41.7093 18.1251 41.7426C18.1251 41.7426 18.1251 41.7434 18.1242 41.75C18.1241 41.8125 18.1249 41.8684 18.1248 41.9313C18.138 41.9925 18.0869 42.0707 18.1845 42.1014C18.1866 42.1787 18.1882 42.2489 18.1886 42.3263C18.1885 42.3833 18.1836 42.4343 18.1931 42.4825C18.198 42.5077 18.2284 42.5281 18.2475 42.5576C18.2474 42.8887 18.2472 43.2127 18.2412 43.5379C18.2201 43.5611 18.1941 43.5819 18.1913 43.6054C18.1847 43.6591 18.1893 43.7141 18.1894 43.7755C18.1878 43.8723 18.1863 43.9622 18.1797 44.0546C18.1592 44.0801 18.1327 44.1021 18.1303 44.1264C18.1233 44.1983 18.1258 44.2711 18.1246 44.3436C18.1246 44.3436 18.1235 44.3439 18.1176 44.3443C18.0394 44.3648 18.0679 44.422 18.0642 44.4742C18.0624 44.5307 18.0608 44.5803 18.0592 44.63C18.0451 44.6873 18.0309 44.7446 18.0101 44.8094C17.9157 44.8514 17.9619 44.9247 17.9534 44.982C17.9515 44.9995 17.9542 45.019 17.9472 45.0342C17.8914 45.1543 17.8308 45.2724 17.7778 45.3936C17.7511 45.4547 17.7437 45.5242 17.715 45.5841C17.6898 45.6369 17.6459 45.6809 17.6123 45.7301C17.5904 45.7623 17.5712 45.7965 17.5524 45.8306C17.4881 45.9473 17.4256 46.0649 17.3598 46.1807C17.3449 46.207 17.3189 46.2271 17.299 46.2509C17.2493 46.3104 17.2025 46.3725 17.1501 46.4295C17.0694 46.5173 16.9727 46.5935 16.905 46.6896C16.8111 46.823 16.6631 46.8948 16.559 47.0114C16.4885 47.0903 16.4048 47.1353 16.3131 47.1775C16.2836 47.191 16.2624 47.221 16.2336 47.2371C16.1586 47.2791 16.0601 47.301 16.011 47.3618C15.9567 47.4291 15.875 47.3966 15.8173 47.4534C15.7484 47.4622 15.6814 47.4476 15.6531 47.5223C15.6531 47.5223 15.6522 47.5212 15.6446 47.5198C15.6035 47.5193 15.5699 47.52 15.5364 47.521C15.4959 47.5222 15.4652 47.5347 15.4647 47.5814C15.4647 47.5814 15.4648 47.5821 15.4575 47.5806C15.3989 47.5806 15.3463 47.5762 15.2968 47.5861C15.2721 47.5911 15.2529 47.6224 15.2311 47.6417C15.2311 47.6417 15.2311 47.6429 15.2245 47.642C15.1251 47.6426 15.0322 47.6442 14.932 47.6447C14.7516 47.6443 14.5786 47.645 14.3985 47.6457C14.3198 47.6445 14.2481 47.6433 14.1731 47.6378C14.1454 47.6185 14.1221 47.5931 14.0963 47.5903C14.0248 47.5824 13.9522 47.5839 13.8801 47.5818C13.8801 47.5818 13.8793 47.582 13.876 47.578C13.83 47.4981 13.7559 47.5281 13.6922 47.5227Z" fill="#6639CD"/>
<path d="M31.9129 50.4865C31.8931 50.5198 31.8729 50.5528 31.8536 50.5864C31.8013 50.6771 31.7493 50.7679 31.6972 50.8587C31.6946 50.8632 31.6893 50.8679 31.6898 50.8719C31.7003 50.9654 31.6145 50.9979 31.5771 51.0608C31.5139 51.1675 31.4527 51.2756 31.3853 51.3794C31.3574 51.4224 31.3103 51.4519 31.2813 51.4944C31.1966 51.6183 31.0985 51.7305 31.0001 51.8423C30.9022 51.9536 30.8002 52.0615 30.6963 52.167C30.6519 52.212 30.5963 52.2451 30.5492 52.2877C30.5148 52.3188 30.4887 52.3597 30.4542 52.3906C30.4192 52.4219 30.3778 52.4453 30.3405 52.474C30.3025 52.5032 30.2667 52.5354 30.2287 52.5646C30.1916 52.5932 30.1525 52.619 30.1152 52.6474C30.0698 52.6821 30.0268 52.7203 29.9801 52.753C29.9443 52.7782 29.904 52.7966 29.8662 52.8189C29.8187 52.847 29.7717 52.8761 29.7245 52.9047C29.6314 52.9611 29.54 53.0209 29.4445 53.0726C29.3845 53.1051 29.3183 53.1255 29.246 53.1517C29.2195 53.1494 29.2 53.1406 29.1848 53.1456C29.1565 53.1548 29.1282 53.1686 29.1048 53.1871C29.086 53.2019 29.0745 53.2265 29.0598 53.2467C29.0234 53.2626 28.9875 53.2796 28.9505 53.294C28.931 53.3016 28.9098 53.3047 28.8764 53.31C28.8049 53.3138 28.7388 53.2982 28.7085 53.3744C28.6358 53.3897 28.5632 53.4051 28.4776 53.4203C28.4088 53.4215 28.353 53.4229 28.2905 53.4234C28.2388 53.4212 28.1904 53.4144 28.186 53.483C28.186 53.483 28.1866 53.4849 28.1801 53.4845C28.0967 53.4848 28.0198 53.4856 27.9358 53.4852C27.7381 53.4851 27.5477 53.4861 27.3502 53.4868C27.2511 53.4862 27.1591 53.4859 27.067 53.4857C27.067 53.4857 27.0679 53.4855 27.065 53.4801C27.0395 53.4582 27.018 53.43 26.994 53.4275C26.922 53.4201 26.8489 53.4228 26.7763 53.4216C26.7241 53.4061 26.672 53.3906 26.6109 53.3698C26.5665 53.2866 26.4967 53.3184 26.4394 53.3106C26.4394 53.3106 26.4401 53.3108 26.4393 53.3043C26.4223 53.2174 26.3603 53.2561 26.3163 53.248C26.3163 53.248 26.3164 53.2478 26.315 53.2421C26.2965 53.1621 26.2384 53.19 26.1935 53.185C26.1935 53.185 26.1941 53.1851 26.1933 53.1787C26.1774 53.1552 26.1654 53.1305 26.1466 53.1224C26.0739 53.091 25.9989 53.0649 25.9213 53.0355C25.9163 53.0474 25.9095 53.0637 25.9027 53.0801C25.8829 53.0637 25.8631 53.0473 25.8387 53.0271C25.7805 52.9902 25.7164 52.9494 25.6523 52.9087C25.6562 52.9025 25.6601 52.8964 25.664 52.8903C25.5618 52.8772 25.4504 52.7625 25.4389 52.6758C25.3903 52.6412 25.3458 52.6212 25.3174 52.5871C25.2412 52.4955 25.1593 52.4046 25.1048 52.2997C25.0766 52.2454 25.0332 52.2088 25.0061 52.158C24.9779 52.1053 24.9525 52.0511 24.9258 51.9976C24.8866 51.9192 24.847 51.8409 24.8085 51.7621C24.8031 51.7511 24.8021 51.7374 24.8008 51.7248C24.7993 51.7091 24.8048 51.6902 24.7981 51.678C24.7574 51.6045 24.75 51.5164 24.7013 51.4466C24.6971 51.4406 24.6909 51.4323 24.6922 51.4266C24.7219 51.2913 24.5911 51.185 24.6284 51.0468C24.6393 51.0066 24.6395 50.9555 24.5682 50.9746C24.5682 50.8086 24.5682 50.6539 24.5682 50.4991C24.5604 50.5013 24.5526 50.5035 24.5448 50.5056C24.5321 50.4755 24.5092 50.4455 24.5086 50.4152C24.5053 50.2259 24.5054 50.0365 24.5087 49.8472C24.5093 49.8169 24.532 49.7869 24.5444 49.7568C24.5525 49.7589 24.5606 49.7611 24.5687 49.7632C24.5687 49.6085 24.5687 49.4538 24.5687 49.299C24.5767 49.3011 24.5846 49.3031 24.5926 49.3051C24.6051 49.2748 24.6259 49.2451 24.6283 49.2139C24.6337 49.1434 24.63 49.0722 24.63 48.9953C24.6873 48.9941 24.6967 48.9588 24.6922 48.9087C24.688 48.8618 24.6728 48.7886 24.6949 48.7716C24.7643 48.7182 24.7233 48.6491 24.7427 48.5847C24.8186 48.5882 24.7964 48.5283 24.7986 48.4822C24.8007 48.4362 24.7785 48.376 24.8453 48.3793C24.8768 48.2831 24.9054 48.1957 24.9393 48.0921C24.9411 48.0915 24.9608 48.0845 24.9628 48.0838C25.0034 47.9788 25.0374 47.8865 25.0749 47.7956C25.0905 47.7576 25.1178 47.7243 25.1316 47.6858C25.1459 47.646 25.1502 47.6024 25.1556 47.5766C25.1996 47.5275 25.236 47.4869 25.2725 47.4464C25.329 47.3834 25.3393 47.2867 25.4265 47.2425C25.4587 47.2262 25.4672 47.165 25.4928 47.129C25.5228 47.0868 25.5601 47.0501 25.5932 47.0102C25.6006 47.0014 25.6086 46.9889 25.6083 46.9784C25.6061 46.8972 25.6651 46.8635 25.7163 46.8213C25.731 46.8092 25.7302 46.7788 25.743 46.7622C25.79 46.7011 25.8399 46.6425 25.8881 46.5824C25.894 46.575 25.8989 46.5643 25.8991 46.555C25.9003 46.4801 25.9692 46.4589 26.0042 46.411C26.0316 46.3736 26.052 46.3309 26.0855 46.2877C26.1283 46.2495 26.161 46.214 26.1937 46.1786C26.2608 46.189 26.2711 46.1158 26.3145 46.0894C26.3534 46.0657 26.3821 46.0233 26.4135 45.9875C26.4251 45.9744 26.4282 45.9523 26.4409 45.9415C26.5171 45.8775 26.5878 45.7988 26.6749 45.759C26.7304 45.7336 26.741 45.6878 26.7753 45.6551C26.7808 45.6498 26.7798 45.637 26.7824 45.6249C26.8724 45.6366 26.9336 45.5992 26.9737 45.5181C26.9996 45.5165 27.0274 45.5148 27.0551 45.513C27.0525 45.5087 27.0499 45.5043 27.0473 45.4999C27.0691 45.4837 27.0903 45.4665 27.1127 45.4513C27.1648 45.4159 27.2174 45.3814 27.2613 45.3355C27.3294 45.3125 27.3975 45.2895 27.4656 45.2665C27.4646 45.2628 27.4637 45.2591 27.4628 45.2554C27.4925 45.242 27.5226 45.2296 27.5517 45.2149C27.5748 45.2032 27.5966 45.1887 27.6147 45.1661C27.649 45.1373 27.7259 45.1876 27.716 45.0894C27.7556 45.0894 27.7885 45.0894 27.8253 45.0894C27.8306 45.0679 27.8353 45.049 27.8413 45.0246C27.9468 45.009 28.0524 44.9954 28.157 44.9761C28.1738 44.973 28.1862 44.9446 28.198 44.9255C28.2483 44.8881 28.3424 44.9665 28.3691 44.8522C28.4365 44.8522 28.5052 44.8522 28.5738 44.8522C28.5719 44.8445 28.57 44.8367 28.568 44.829C28.5979 44.8158 28.6272 44.7929 28.6576 44.7912C28.7466 44.7861 28.836 44.7894 28.9253 44.7894C28.9231 44.7812 28.921 44.773 28.9189 44.7649C28.9482 44.7518 28.9775 44.7277 29.007 44.7274C29.2726 44.7245 29.5384 44.7246 29.804 44.7273C29.8359 44.7276 29.8674 44.7494 29.8994 44.7602C29.9298 44.7705 29.9602 44.786 29.9913 44.7877C30.065 44.7918 30.1391 44.789 30.2193 44.789C30.2154 44.8737 30.2739 44.8499 30.3184 44.8521C30.3568 44.8541 30.4074 44.8368 30.3963 44.9139C30.4521 44.9139 30.5024 44.9139 30.5527 44.9139C30.5507 44.9221 30.5486 44.9303 30.5465 44.9385C30.5734 44.9518 30.6053 44.982 30.6265 44.9754C30.7096 44.9499 30.7606 45.0374 30.8369 45.0314C30.8453 45.0308 30.8564 45.0669 30.8684 45.09C30.8993 45.09 30.9322 45.09 30.965 45.09C30.9622 45.0954 30.9595 45.1008 30.9567 45.1062C31.0261 45.1566 31.0955 45.2071 31.191 45.2765C31.2324 45.2763 31.2935 45.2963 31.3393 45.3772C31.3703 45.4318 31.4411 45.4624 31.4996 45.5151C31.4991 45.5993 31.49 45.6731 31.561 45.7229C31.5899 45.7431 31.6186 45.7636 31.6474 45.784C31.6964 45.8468 31.7389 45.917 31.7962 45.9704C31.855 46.0253 31.87 46.1089 31.9212 46.1594C32.0119 46.2488 32.0292 46.3703 32.084 46.4745C32.0939 46.4932 32.1148 46.5057 32.1354 46.5306C32.1487 46.585 32.1213 46.6507 32.2025 46.6527C32.2029 46.6689 32.2033 46.6851 32.2032 46.7138C32.201 46.7741 32.1991 46.8217 32.2641 46.8256C32.2798 46.9049 32.2955 46.9842 32.3109 47.077C32.3205 47.1483 32.2865 47.224 32.3721 47.2511C32.3721 47.2511 32.3727 47.2513 32.3716 47.2581C32.3715 47.3177 32.3725 47.3704 32.3726 47.4304C32.372 47.469 32.3723 47.5003 32.3726 47.5317C32.3729 47.5735 32.3782 47.6117 32.4308 47.623C32.4318 47.6881 32.4328 47.7459 32.4328 47.8038C32.4331 48.1402 32.4332 48.4766 32.4333 48.813C32.4333 48.813 32.4336 48.8132 32.4283 48.8153C32.4073 48.8432 32.3813 48.8677 32.3781 48.895C32.3697 48.9664 32.3713 49.039 32.3633 49.1122C32.2933 49.1302 32.3146 49.183 32.3129 49.233C32.3122 49.2764 32.3115 49.313 32.3075 49.3537C32.2913 49.4343 32.2784 49.5106 32.2655 49.587C32.2655 49.587 32.265 49.5866 32.2601 49.5893C32.2384 49.6226 32.2177 49.6519 32.2058 49.6845C32.1957 49.7124 32.198 49.7448 32.1907 49.7742C32.176 49.833 32.1585 49.8911 32.1422 49.9494C32.1422 49.9494 32.1423 49.9488 32.1363 49.9502C32.0591 49.9708 32.0851 50.0297 32.0821 50.0768C32.0476 50.1596 32.0128 50.2422 31.9793 50.3254C31.9747 50.3367 31.9767 50.3507 31.9692 50.3713C31.8985 50.3914 31.9125 50.4423 31.9129 50.4865Z" fill="#6639CD"/>
<path d="M25.9483 40.9511C25.9489 40.9668 25.9494 40.9825 25.9491 41.011C25.9606 41.0786 25.9155 41.1568 26.0094 41.1786C26.0094 41.1786 26.0113 41.179 26.0106 41.1848C26.0108 41.2263 26.0118 41.2621 26.0118 41.3043C26.0097 41.3555 26.0042 41.403 26.0688 41.4074C26.0694 41.4232 26.07 41.439 26.0696 41.4678C26.0705 41.5476 26.0673 41.6152 26.0767 41.6809C26.0806 41.7085 26.1112 41.7322 26.1297 41.7647C26.1309 41.8422 26.132 41.9126 26.1319 41.9903C26.1324 42.0753 26.1309 42.1534 26.1373 42.2308C26.1394 42.2567 26.1616 42.2808 26.1746 42.3128C26.1746 42.5785 26.1746 42.837 26.1702 43.0986C26.1559 43.1203 26.1386 43.1388 26.1377 43.1579C26.1336 43.2496 26.134 43.3415 26.1326 43.4403C26.132 43.5387 26.1317 43.63 26.1313 43.7213C26.1313 43.7213 26.1311 43.7201 26.1252 43.7219C26.104 43.7462 26.0778 43.7677 26.0757 43.7914C26.0692 43.8641 26.072 43.9376 26.0713 44.0108C26.0713 44.0108 26.0696 44.0111 26.0638 44.0112C25.9874 44.0315 26.0159 44.0891 26.0126 44.1416C26.0119 44.1989 26.0115 44.2495 26.011 44.3C26.011 44.3 26.011 44.2992 26.0056 44.3016C25.9845 44.3264 25.9585 44.3473 25.9553 44.3714C25.9478 44.4279 25.9513 44.4859 25.9504 44.5433C25.9504 44.5433 25.9497 44.5431 25.9438 44.5438C25.8517 44.5796 25.8988 44.6535 25.8906 44.7113C25.8751 44.7825 25.8597 44.8537 25.838 44.9321C25.757 44.9573 25.7924 45.0175 25.786 45.0618C25.7757 45.0871 25.7651 45.1123 25.7552 45.1378C25.745 45.1638 25.7354 45.1899 25.7191 45.223C25.7014 45.2348 25.6815 45.2378 25.6802 45.2446C25.6623 45.3374 25.5873 45.4137 25.6031 45.5161C25.5613 45.5755 25.5761 45.6573 25.5114 45.7137C25.4699 45.7498 25.4623 45.8244 25.4361 45.8801C25.4191 45.9162 25.394 45.9482 25.3759 45.9837C25.3398 46.0544 25.3077 46.1272 25.2703 46.1971C25.2548 46.2259 25.2289 46.2487 25.2091 46.2753C25.1661 46.3334 25.1224 46.3912 25.0817 46.451C25.0078 46.5597 24.9387 46.6718 24.8619 46.7783C24.8317 46.8202 24.7839 46.8487 24.7482 46.8872C24.6824 46.9584 24.621 47.0339 24.5551 47.1051C24.4977 47.167 24.4422 47.233 24.3759 47.2839C24.2604 47.3726 24.1624 47.4831 24.0277 47.5497C23.9555 47.5854 23.9012 47.6581 23.8378 47.7128C23.8295 47.72 23.8142 47.7183 23.8033 47.7233C23.7415 47.7513 23.6799 47.7796 23.6187 47.8089C23.5625 47.8359 23.5069 47.8643 23.4388 47.892C23.382 47.8971 23.3229 47.8755 23.3176 47.9529C23.3069 47.9534 23.2962 47.9539 23.2733 47.9538C23.2006 47.9615 23.1267 47.9318 23.0857 48.0145C23.0286 48.0299 22.9781 48.0452 22.9277 48.0604C22.9277 48.0604 22.9278 48.0606 22.9207 48.0594C22.8236 48.06 22.7335 48.0617 22.6364 48.0624C22.4977 48.062 22.3662 48.0627 22.2277 48.0629C22.1513 48.0611 22.0818 48.0598 22.01 48.0533C21.9338 48.0368 21.8599 48.0254 21.786 48.014C21.786 48.014 21.7851 48.0146 21.7818 48.0105C21.7378 47.9293 21.6655 47.9609 21.6042 47.9545C21.6042 47.9545 21.6049 47.9545 21.6035 47.9486C21.5904 47.8763 21.54 47.895 21.4984 47.8942C21.4984 47.8942 21.4977 47.8939 21.4946 47.8898C21.483 47.8737 21.4772 47.8569 21.4657 47.8505C21.4196 47.8249 21.374 47.7934 21.3241 47.7812C21.2702 47.7679 21.2108 47.692 21.1553 47.7806C21.0883 47.7691 21.0396 47.7368 20.9905 47.6841C20.9475 47.6378 20.8944 47.6004 20.8533 47.5477C20.8294 47.517 20.779 47.5083 20.7421 47.4868C20.6812 47.4512 20.6468 47.3969 20.6377 47.3227C20.5505 47.3086 20.4968 47.2532 20.459 47.1711C20.4411 47.1321 20.4011 47.1035 20.3581 47.0789C20.3581 47.0464 20.3581 47.0138 20.3581 46.9911C20.2865 46.9143 20.2065 46.8636 20.1719 46.7607C20.1366 46.6559 20.0713 46.5614 20.0198 46.4621C20.0038 46.4313 19.9895 46.3995 19.9745 46.3682C19.9676 46.3703 19.9607 46.3723 19.9538 46.3744C19.9521 46.3468 19.9505 46.3192 19.9486 46.2876C19.9309 46.283 19.9128 46.2782 19.8898 46.2722C19.8898 46.2565 19.8891 46.2416 19.8899 46.2268C19.8956 46.1228 19.8527 46.0352 19.8002 45.9504C19.7928 45.9384 19.7857 45.9232 19.7861 45.9098C19.7877 45.8531 19.773 45.8086 19.7387 45.7586C19.7108 45.7177 19.7247 45.6474 19.7196 45.5838C19.6475 45.5903 19.6657 45.5357 19.6651 45.493C19.6644 45.45 19.6649 45.4069 19.6649 45.3639C19.6578 45.366 19.6507 45.3682 19.6436 45.3704C19.6307 45.341 19.613 45.3127 19.6058 45.282C19.5919 45.2219 19.6351 45.1486 19.5621 45.1008C19.5538 45.0954 19.5597 45.067 19.5597 45.0493C19.5596 44.9201 19.5596 44.7909 19.5596 44.6617C19.5517 44.6637 19.5439 44.6657 19.536 44.6677C19.5237 44.6385 19.5009 44.6094 19.5007 44.5801C19.4985 44.0905 19.4992 43.6008 19.4992 43.106C19.5177 43.0996 19.5371 43.093 19.5594 43.0853C19.5594 43.0056 19.557 42.9271 19.5604 42.8488C19.562 42.8091 19.5361 42.7572 19.5985 42.7349C19.6055 42.7324 19.6043 42.7022 19.6044 42.6848C19.605 42.6087 19.602 42.5324 19.6062 42.4565C19.6076 42.4312 19.6265 42.4069 19.6461 42.385C19.7007 42.3172 19.6057 42.2075 19.7174 42.1548C19.7533 42.0845 19.6778 41.9848 19.7917 41.9093C19.8149 41.8763 19.7331 41.7809 19.8451 41.7462C19.8451 41.7251 19.8422 41.6998 19.8458 41.6754C19.8507 41.6427 19.8272 41.6026 19.881 41.58C19.8962 41.5736 19.8889 41.5097 19.8899 41.4721C19.8908 41.4337 19.8787 41.3873 19.9279 41.4011C19.9545 41.3418 19.9784 41.2923 19.9988 41.2413C20.0068 41.2213 20.0043 41.1973 20.011 41.1766C20.0194 41.1505 20.0323 41.1258 20.0542 41.1056C20.0849 41.073 20.0375 40.9957 20.1303 41.0061C20.1218 40.8945 20.1656 40.8089 20.222 40.7241C20.2562 40.6727 20.2632 40.6021 20.2996 40.5532C20.331 40.511 20.3431 40.4552 20.4004 40.425C20.4333 40.4077 20.4397 40.3407 20.4608 40.2975C20.4723 40.2741 20.4895 40.2537 20.5203 40.2394C20.5203 40.2119 20.5203 40.1843 20.5203 40.1643C20.5617 40.1288 20.5972 40.0984 20.6398 40.0619C20.6398 40.0392 20.6398 40.0066 20.6398 39.974C20.6443 39.9768 20.6489 39.9797 20.6534 39.9826C20.685 39.945 20.7114 39.9004 20.7493 39.8712C20.827 39.8114 20.8626 39.7169 20.9357 39.6537C20.9726 39.6218 21.0001 39.5788 21.032 39.541C21.0595 39.5085 21.0854 39.4743 21.1154 39.4444C21.1456 39.4144 21.1809 39.3897 21.2122 39.3608C21.2569 39.3197 21.2905 39.2671 21.3294 39.2236C21.3832 39.1632 21.4727 39.1369 21.5419 39.0886C21.573 39.067 21.5919 39.0276 21.6242 38.9862C21.6439 38.9862 21.6784 38.9862 21.7129 38.9862C21.7103 38.9812 21.7078 38.9762 21.7052 38.9712C21.7725 38.921 21.8398 38.8707 21.9279 38.8049C21.9926 38.8083 22.0735 38.775 22.1419 38.7167C22.1888 38.6928 22.2313 38.6659 22.2775 38.6495C22.311 38.6375 22.3494 38.6384 22.3857 38.6353C22.4257 38.6319 22.4814 38.6551 22.4641 38.5739C22.5268 38.5739 22.579 38.5739 22.6312 38.5739C22.6293 38.5658 22.6275 38.5578 22.6256 38.5497C22.6545 38.5376 22.6827 38.5178 22.7125 38.515C22.7721 38.5095 22.8327 38.5152 22.8927 38.5125C22.9301 38.5107 22.9779 38.5336 22.9978 38.474C23.0001 38.4669 23.03 38.4676 23.0472 38.4675C23.215 38.467 23.3829 38.4662 23.5508 38.4683C23.5696 38.4685 23.5877 38.4875 23.607 38.4959C23.6237 38.5031 23.6414 38.5117 23.6589 38.5124C23.7114 38.5146 23.7645 38.5089 23.8166 38.5146C23.8509 38.5183 23.8836 38.5366 23.9173 38.5478C23.9449 38.557 23.9732 38.5641 24.0003 38.5746C24.0301 38.586 24.0588 38.6002 24.088 38.6132C24.0861 38.6204 24.0841 38.6276 24.0822 38.6349C24.1295 38.6349 24.1768 38.6349 24.2241 38.6349C24.2221 38.6424 24.22 38.65 24.2179 38.6575C24.2467 38.6703 24.2758 38.6824 24.3041 38.6962C24.3268 38.7074 24.3485 38.7207 24.3651 38.7465C24.4318 38.7693 24.4984 38.7921 24.5451 38.808C24.6088 38.8522 24.6595 38.883 24.7049 38.9202C24.7425 38.9511 24.7735 38.99 24.8083 39.0245C24.8174 39.0336 24.8289 39.0441 24.8406 39.0459C24.9178 39.0579 24.956 39.119 25.0043 39.1832C24.9892 39.2575 24.9937 39.3174 25.0449 39.3641C25.0879 39.4034 25.1351 39.4381 25.1804 39.4748C25.2477 39.5744 25.3125 39.6758 25.3833 39.7727C25.4327 39.8404 25.4909 39.9016 25.5442 39.9665C25.5513 39.9751 25.5514 39.9893 25.5565 40C25.6025 40.097 25.6488 40.1939 25.6954 40.2907C25.7037 40.3081 25.7234 40.3263 25.721 40.3414C25.7074 40.4273 25.7633 40.4905 25.8 40.5515C25.8383 40.6151 25.8553 40.6764 25.8613 40.7462C25.8622 40.7573 25.8722 40.7677 25.8821 40.7887C25.8876 40.8294 25.8897 40.8598 25.89 40.8901C25.8903 40.9298 25.9069 40.9522 25.9483 40.9511Z" fill="#6639CD"/>
<path d="M7.71661 52.7852C7.67635 52.7464 7.63222 52.7212 7.57225 52.7165C7.53757 52.7138 7.50383 52.688 7.47155 52.6694C7.41042 52.6343 7.35101 52.5962 7.28993 52.561C7.28005 52.5553 7.26522 52.5579 7.24694 52.55C7.22577 52.5268 7.21033 52.5101 7.19407 52.4877C7.18418 52.4682 7.17837 52.448 7.16546 52.4416C7.10059 52.4092 7.03386 52.3804 6.95832 52.346C6.9549 52.3714 6.95051 52.4039 6.94612 52.4365C6.91515 52.4198 6.87373 52.4105 6.8552 52.385C6.80324 52.3137 6.71018 52.2951 6.65851 52.2229C6.6193 52.1682 6.58347 52.1068 6.49856 52.0954C6.46925 52.0914 6.4481 52.0348 6.42159 52.0036C6.39762 51.9754 6.37383 51.9462 6.34567 51.9224C6.29921 51.883 6.2436 51.8528 6.20218 51.8093C6.14331 51.7474 6.09329 51.6773 6.04041 51.61C5.97774 51.5302 5.91465 51.4507 5.85491 51.3689C5.83989 51.3483 5.83694 51.3192 5.82688 51.2895C5.71352 51.2852 5.77253 51.1297 5.66805 51.106C5.66805 51.0752 5.66805 51.0428 5.66805 51.0103C5.66199 51.0135 5.65592 51.0167 5.64986 51.0199C5.59838 50.9514 5.5469 50.8828 5.48989 50.8069C5.47132 50.7517 5.44885 50.6849 5.42334 50.609C5.41514 50.6071 5.39635 50.6025 5.37756 50.598C5.38321 50.5946 5.38886 50.5912 5.39451 50.5878C5.36978 50.537 5.34122 50.4875 5.32173 50.4349C5.30997 50.4031 5.31229 50.3662 5.3075 50.325C5.29222 50.3199 5.27238 50.3132 5.25048 50.3059C5.25048 50.2717 5.25048 50.2391 5.25048 50.203C5.2299 50.1981 5.2112 50.1935 5.18885 50.1882C5.18885 50.1392 5.19081 50.0915 5.18815 50.0441C5.18644 50.0134 5.19551 49.9859 5.15516 49.9566C5.12825 49.937 5.14241 49.863 5.12025 49.8195C5.10718 49.7903 5.08595 49.762 5.08279 49.7317C5.07689 49.6753 5.07563 49.6264 5.0364 49.5726C5.00526 49.53 5.02587 49.4524 5.01797 49.3911C5.01469 49.3655 4.99705 49.3417 4.98594 49.3171C4.97651 49.3194 4.96707 49.3217 4.95764 49.3239C4.95764 49.2184 4.96028 49.1128 4.95593 49.0075C4.95472 48.9783 4.93279 48.9498 4.92036 48.921C4.9125 48.9229 4.90464 48.9248 4.89679 48.9268C4.89679 48.5788 4.89627 48.2308 4.89834 47.8828C4.89844 47.8656 4.92191 47.8489 4.93308 47.8312C4.94232 47.8164 4.95555 47.8008 4.95642 47.785C4.95935 47.7321 4.95767 47.679 4.95747 47.626C4.95729 47.5788 4.96978 47.5424 5.0001 47.4993C5.02975 47.4572 5.01149 47.3842 5.0207 47.3258C5.02546 47.2956 5.04418 47.2675 5.06803 47.2418C5.08515 47.167 5.07714 47.0928 5.13359 47.0184C5.17677 46.9614 5.17038 46.869 5.18972 46.7933C5.19579 46.7695 5.21378 46.7487 5.2309 46.728C5.28351 46.607 5.33612 46.4859 5.38873 46.3649C5.39101 46.3662 5.39329 46.3674 5.39558 46.3687C5.42403 46.316 5.45161 46.2629 5.48135 46.2109C5.49338 46.1899 5.51009 46.1714 5.5403 46.1599C5.54175 46.1301 5.54321 46.1004 5.54466 46.0706C5.5488 46.0739 5.55294 46.0772 5.55709 46.0805C5.59423 46.0371 5.63251 45.9946 5.66823 45.9502C5.71058 45.8974 5.72368 45.8255 5.79431 45.7898C5.8343 45.7697 5.86251 45.727 5.89608 45.6946C5.9326 45.6593 5.9707 45.6253 6.005 45.5881C6.01861 45.5733 6.01915 45.5454 6.03398 45.5335C6.06179 45.5113 6.10018 45.501 6.12588 45.4772C6.15708 45.4482 6.17969 45.4104 6.21776 45.3612C6.25802 45.3374 6.32557 45.3224 6.36867 45.2544C6.38989 45.221 6.45631 45.2162 6.50105 45.1958C6.51759 45.1882 6.53046 45.1731 6.54531 45.1618C6.55726 45.1527 6.56887 45.1427 6.58218 45.1361C6.59066 45.1319 6.60981 45.1354 6.61087 45.1317C6.63572 45.0456 6.70974 45.0856 6.76859 45.0719C6.76791 44.9852 6.83865 45.0238 6.8897 45.0108C6.89485 44.9946 6.90112 44.9748 6.90523 44.9618C7.00036 44.9393 7.0894 44.9183 7.18788 44.895C7.18952 44.8881 7.19393 44.8697 7.19637 44.8596C7.27481 44.8135 7.38496 44.9101 7.44073 44.7875C7.52644 44.7875 7.61599 44.7875 7.70554 44.7875C7.70352 44.7797 7.70151 44.7719 7.69949 44.7641C7.72908 44.7517 7.75857 44.7289 7.78826 44.7286C8.094 44.726 8.39978 44.727 8.70555 44.727C8.72093 44.727 8.74327 44.7216 8.75062 44.7294C8.83522 44.8192 8.94694 44.7772 9.04713 44.7899C9.04498 44.7968 9.04283 44.8037 9.04068 44.8106C9.07023 44.8232 9.09884 44.8429 9.12953 44.8468C9.1827 44.8535 9.24146 44.8341 9.27851 44.8934C9.28456 44.9031 9.30615 44.909 9.31969 44.9078C9.43968 44.8966 9.53707 44.9555 9.63981 45.0011C9.67496 45.0168 9.71822 45.0148 9.76242 45.0216C9.76616 45.0364 9.77076 45.0546 9.77587 45.0749C9.80753 45.0749 9.83549 45.0749 9.86345 45.0749C9.86119 45.0825 9.85893 45.0901 9.85668 45.0977C9.88634 45.1105 9.91635 45.1226 9.94554 45.1365C9.96832 45.1472 9.99008 45.1601 10.0096 45.1834C10.078 45.2055 10.1465 45.2276 10.2167 45.2503C10.2448 45.283 10.2757 45.3189 10.3129 45.3621C10.3361 45.3621 10.3691 45.3621 10.4022 45.3621C10.3993 45.3667 10.3964 45.3714 10.3935 45.376C10.4435 45.417 10.4913 45.4609 10.5439 45.4982C10.5991 45.5373 10.6644 45.5639 10.7151 45.6074C10.7762 45.66 10.8267 45.7245 10.8838 45.7921C10.8685 45.895 10.9046 45.9549 11.0085 45.9978C11.0412 46.0317 11.0684 46.0633 11.0963 46.0943C11.1423 46.1457 11.1877 46.1976 11.2357 46.2471C11.2518 46.2636 11.275 46.2733 11.295 46.2862C11.3102 46.3109 11.3241 46.3367 11.3409 46.3604C11.4036 46.4484 11.4556 46.5482 11.5344 46.6191C11.59 46.6691 11.5943 46.7416 11.6403 46.7819C11.7182 46.85 11.7566 46.9424 11.7966 47.0253C11.8415 47.1184 11.9248 47.1945 11.9326 47.3087C11.936 47.3597 11.9745 47.4106 12.0043 47.4571C12.0573 47.5398 12.0902 47.6278 12.1239 47.7198C12.1579 47.8124 12.1851 47.9081 12.2181 48.014C12.2303 48.0813 12.1837 48.1594 12.2806 48.1804C12.2806 48.1804 12.2822 48.1806 12.2814 48.1865C12.2816 48.2281 12.2826 48.2637 12.2828 48.3058C12.2803 48.3571 12.2773 48.4028 12.3417 48.408C12.3417 48.408 12.3421 48.4074 12.3412 48.4143C12.342 48.4881 12.3385 48.5558 12.348 48.6215C12.3519 48.6482 12.3845 48.6708 12.4041 48.6953C12.4041 48.6953 12.4049 48.6955 12.4037 48.7021C12.4038 48.8194 12.4053 48.9301 12.4056 49.048C12.4052 49.3194 12.4059 49.5836 12.4067 49.8547C12.4059 49.9723 12.4051 50.083 12.4043 50.1937C12.4043 50.1937 12.4046 50.1935 12.3993 50.1958C12.3783 50.2205 12.3526 50.2416 12.3489 50.2658C12.3413 50.3169 12.3451 50.3698 12.3443 50.4219C12.3443 50.4219 12.3441 50.421 12.3386 50.4235C12.317 50.4484 12.2905 50.4694 12.2871 50.4934C12.2794 50.5494 12.2828 50.6069 12.2818 50.6638C12.2818 50.6638 12.2819 50.6642 12.2773 50.6672C12.2557 50.6949 12.2293 50.7179 12.2237 50.745C12.2143 50.791 12.2181 50.8396 12.2163 50.8871C12.2067 50.9139 12.199 50.9415 12.1871 50.9673C12.1365 51.0759 12.0855 51.1842 12.0331 51.292C11.9989 51.3623 11.9643 51.4327 11.9257 51.5009C11.8865 51.5701 11.8437 51.6375 11.7997 51.7039C11.7556 51.7707 11.7089 51.8319 11.6402 51.8825C11.5748 51.9307 11.539 52.0156 11.4814 52.0764C11.3842 52.1791 11.2852 52.2814 11.1771 52.3726C11.0924 52.4442 10.9919 52.4975 10.9002 52.5614C10.8336 52.6078 10.7699 52.6583 10.7049 52.7069C10.6992 52.7111 10.6936 52.7178 10.6874 52.7185C10.6391 52.7241 10.5872 52.7209 10.566 52.7797C10.5646 52.7835 10.5467 52.7816 10.5241 52.7825C10.4637 52.779 10.4234 52.787 10.4157 52.844C10.379 52.857 10.3423 52.8699 10.3056 52.8829C10.285 52.8902 10.2643 52.8975 10.2314 52.9046C10.1732 52.9033 10.1253 52.899 10.1218 52.9643C10.0415 52.9756 9.96114 52.987 9.87064 53.0034C9.80977 53.0101 9.75907 53.0117 9.70133 53.0125C9.63805 53.0222 9.56194 52.9802 9.52815 53.0695C9.26994 53.0698 9.01886 53.0699 8.76485 53.0653C8.73839 53.0458 8.71591 53.0203 8.69112 53.0179C8.61864 53.0109 8.54524 53.0131 8.4722 53.0117C8.45626 53.0112 8.44033 53.0107 8.41636 53.0044C8.3796 52.9873 8.35153 52.9736 8.32191 52.9651C8.29785 52.9582 8.26168 52.9667 8.24866 52.9525C8.19772 52.8972 8.13418 52.9052 8.07068 52.9062C8.05488 52.9057 8.03909 52.9051 8.01638 52.8983C7.99072 52.8196 7.93192 52.8488 7.88619 52.845C7.87041 52.8445 7.85462 52.8439 7.83191 52.8373C7.8138 52.759 7.75834 52.7877 7.71661 52.7852Z" fill="#6639CD"/>
<path d="M21.0518 50.3428C21.1525 50.4554 21.2421 50.5757 21.3171 50.7081C21.3448 50.757 21.3934 50.7931 21.4287 50.8381C21.4887 50.9146 21.5438 50.9951 21.6046 51.0709C21.6573 51.1368 21.7189 51.1955 21.7691 51.2632C21.8023 51.3079 21.8205 51.364 21.8487 51.413C21.8768 51.4616 21.8771 51.5233 21.9397 51.5573C21.9738 51.5759 21.9882 51.6346 22.0077 51.677C22.0334 51.733 22.0524 51.7922 22.0798 51.8472C22.1088 51.9057 22.1453 51.9603 22.1765 52.0178C22.2012 52.063 22.2188 52.1127 22.247 52.1553C22.2734 52.1954 22.3108 52.2278 22.3412 52.2653C22.3704 52.3012 22.3969 52.3394 22.4246 52.3765C22.4884 52.462 22.5538 52.5463 22.6158 52.6332C22.6669 52.7048 22.7114 52.7813 22.7641 52.8517C22.7944 52.8923 22.8376 52.9226 22.8706 52.9615C22.9319 53.0336 22.99 53.1084 23.0492 53.1823C23.0649 53.202 23.0778 53.2243 23.0953 53.2422C23.194 53.3438 23.2915 53.4468 23.3941 53.5441C23.4466 53.5938 23.5108 53.6305 23.566 53.6775C23.5935 53.7009 23.6108 53.736 23.6362 53.7624C23.6464 53.7731 23.6659 53.7747 23.6872 53.7875C23.716 53.8249 23.7351 53.8592 23.7622 53.8847C23.8153 53.9346 23.8671 53.9906 23.9299 54.024C24.0291 54.0769 24.0965 54.1619 24.1751 54.2363C24.2225 54.2812 24.2738 54.3222 24.3255 54.362C24.3658 54.3929 24.4137 54.4146 24.4507 54.4489C24.5133 54.507 24.5681 54.5737 24.6296 54.6331C24.7057 54.7067 24.7836 54.7786 24.8641 54.8471C24.9167 54.8918 24.9985 54.9172 25.0264 54.9725C25.084 55.0869 25.2017 55.1198 25.2803 55.2033C25.3572 55.2851 25.4511 55.3501 25.5331 55.4272C25.629 55.5173 25.7202 55.6127 25.8134 55.7058C25.8622 55.7691 25.8997 55.8503 25.9626 55.8913C26.0482 55.947 26.0694 56.0451 26.1381 56.107C26.2193 56.1802 26.2532 56.2828 26.3093 56.3716C26.3547 56.4432 26.4262 56.4971 26.4778 56.5653C26.5053 56.6016 26.5128 56.6528 26.534 56.6947C26.5489 56.7243 26.5718 56.7496 26.5916 56.7893C26.596 56.8485 26.5784 56.9077 26.6542 56.9129C26.6542 56.9129 26.6549 56.913 26.654 56.9192C26.6539 56.9705 26.6436 57.0228 26.7142 57.0226C26.7374 57.0891 26.7621 57.1551 26.7833 57.2223C26.7981 57.2693 26.8082 57.3178 26.8201 57.3789C26.8212 57.4406 26.8159 57.4904 26.8263 57.5367C26.8325 57.5643 26.8632 57.5862 26.883 57.6106C26.883 57.6106 26.8838 57.6108 26.8826 57.6175C26.8829 57.693 26.8792 57.7624 26.8885 57.83C26.8923 57.8572 26.9246 57.8803 26.9439 57.9053C26.9439 57.9053 26.9442 57.9046 26.9428 57.9121C26.9434 58.0116 26.9456 58.1036 26.9468 58.2029C26.9458 58.2411 26.946 58.272 26.9458 58.3028C26.9457 58.3444 26.9518 58.3813 27.0034 58.3937C27.0053 58.5492 27.0068 58.6976 27.0073 58.8535C27.0072 59.1324 27.0082 59.4039 27.009 59.6824C27.0088 59.7668 27.0088 59.8444 27.0084 59.9291C27.0062 60.0283 27.0044 60.1205 26.997 60.2136C26.9271 60.2309 26.9473 60.2824 26.9465 60.332C26.9464 60.3751 26.9464 60.4114 26.9465 60.4477C26.9458 60.4639 26.9451 60.4801 26.9393 60.5049C26.8531 60.5488 26.8927 60.6218 26.8841 60.6797C26.8841 60.6797 26.8836 60.6791 26.8791 60.6824C26.7997 60.7199 26.8321 60.7916 26.8198 60.8477C26.8106 60.8645 26.7937 60.8813 26.7934 60.8982C26.7922 60.9998 26.7358 61.0777 26.6908 61.1611C26.6576 61.2226 26.6264 61.2852 26.5961 61.3483C26.5376 61.4703 26.4917 61.6007 26.4184 61.7126C26.3759 61.7773 26.3335 61.8424 26.2907 61.9067C26.2258 62.0041 26.13 62.0798 26.0522 62.169C25.9979 62.2312 25.9547 62.3036 25.9002 62.3657C25.873 62.3968 25.8301 62.4131 25.7967 62.4393C25.7207 62.499 25.6446 62.5588 25.5717 62.6223C25.5404 62.6497 25.5207 62.691 25.4889 62.7178C25.4503 62.7504 25.3996 62.7689 25.363 62.8033C25.3045 62.8583 25.2287 62.8776 25.1645 62.9179C25.0928 62.9629 25.0355 63.031 24.968 63.084C24.9299 63.114 24.8834 63.1328 24.8416 63.1582C24.7836 63.1934 24.7061 63.1955 24.667 63.2641C24.6641 63.2691 24.6477 63.2662 24.625 63.2666C24.5655 63.2689 24.5095 63.2552 24.5026 63.3296C24.5026 63.3296 24.5032 63.3299 24.4969 63.3294C24.4481 63.3325 24.3945 63.3181 24.3944 63.3902C24.3788 63.3907 24.3631 63.3913 24.3349 63.3915C24.2536 63.3877 24.1884 63.3925 24.1515 63.4648C24.0798 63.4766 24.0082 63.4883 23.9229 63.5C23.7055 63.4996 23.5019 63.4993 23.2952 63.4944C23.2115 63.479 23.1309 63.4681 23.0434 63.457C22.91 63.4553 22.7837 63.4538 22.6551 63.4472C22.6323 63.4271 22.6129 63.4022 22.5908 63.3993C22.5363 63.3923 22.4805 63.3955 22.4182 63.3942C22.3349 63.3936 22.2587 63.3933 22.1824 63.3931C22.1824 63.3931 22.1831 63.3928 22.1791 63.3886C22.149 63.3683 22.1237 63.34 22.0966 63.3381C21.9935 63.3307 21.8898 63.3318 21.7864 63.3297C21.7864 63.3297 21.7871 63.3298 21.7851 63.3241C21.761 63.3025 21.7404 63.2768 21.7164 63.2729C21.6652 63.2647 21.6123 63.2678 21.5566 63.2619C21.5298 63.2422 21.5074 63.2162 21.4827 63.2135C21.4114 63.2059 21.3392 63.2078 21.2674 63.2059C21.1904 63.1906 21.1135 63.1752 21.0271 63.1548C20.9825 63.0682 20.9117 63.1064 20.8544 63.0994C20.8387 63.0985 20.823 63.0977 20.8007 63.0901C20.7753 63.0676 20.7584 63.0426 20.7373 63.0381C20.7015 63.0306 20.663 63.0361 20.6257 63.036C20.6099 63.0358 20.5941 63.0355 20.5716 63.0285C20.5462 63.0059 20.5294 62.9807 20.5083 62.9762C20.4726 62.9686 20.4342 62.974 20.3969 62.9739C20.381 62.9737 20.3651 62.9735 20.3419 62.9672C20.3132 62.9451 20.2933 62.9183 20.2703 62.9153C20.2166 62.9082 20.1615 62.9125 20.107 62.9122C20.0758 62.9018 20.0446 62.8914 20.0016 62.8797C19.9126 62.873 19.8353 62.8675 19.7568 62.8563C19.7361 62.8354 19.7182 62.8105 19.6968 62.8068C19.6559 62.7998 19.613 62.8049 19.564 62.8049C19.4658 62.8042 19.3746 62.8036 19.2835 62.8029C19.2835 62.8029 19.2843 62.803 19.2822 62.7972C19.2575 62.7755 19.236 62.7478 19.2123 62.7456C19.1397 62.739 19.0662 62.7422 18.993 62.7416C18.993 62.7416 18.9931 62.7408 18.9916 62.7352C18.9539 62.6462 18.8817 62.6891 18.8172 62.6805C18.7593 62.68 18.7083 62.6799 18.6573 62.6798C18.6573 62.6798 18.6584 62.6795 18.656 62.6738C18.6258 62.6523 18.5984 62.6238 18.5701 62.6228C18.4219 62.6175 18.2735 62.6191 18.1181 62.6175C18.0604 62.6172 18.0088 62.6118 17.9599 62.621C17.9352 62.6256 17.9153 62.6566 17.8862 62.6761C17.781 62.6785 17.6823 62.6761 17.5847 62.6851C17.5545 62.6879 17.5271 62.7215 17.4983 62.741C17.4983 62.741 17.4981 62.7407 17.4911 62.7397C17.4082 62.7401 17.3323 62.7415 17.2499 62.7422C17.1993 62.7417 17.1494 62.7323 17.1461 62.8011C17.1461 62.8011 17.1474 62.8021 17.1405 62.8017C17.0737 62.8028 17.0127 62.7979 16.9544 62.8085C16.9201 62.8148 16.8902 62.8457 16.8583 62.8655C16.7982 62.8765 16.7381 62.8874 16.6677 62.903C16.6281 62.9089 16.5988 62.9114 16.5695 62.9115C16.529 62.9115 16.5036 62.9266 16.5047 62.9718C16.489 62.9723 16.4734 62.9729 16.4451 62.973C16.3754 62.9799 16.3043 62.9515 16.2774 63.0355C16.2774 63.0355 16.2771 63.0365 16.2709 63.0357C16.2288 63.0357 16.1928 63.0366 16.1505 63.0365C16.0991 63.0345 16.0511 63.0284 16.0473 63.0957C16.0315 63.0963 16.0157 63.097 15.987 63.0965C15.9422 63.0956 15.9102 63.0955 15.8782 63.0964C15.838 63.0974 15.8039 63.1067 15.8032 63.1578C15.7488 63.1697 15.6944 63.1816 15.6296 63.1977C15.5654 63.2155 15.4867 63.1695 15.4679 63.2671C15.4679 63.2671 15.4676 63.2684 15.4616 63.2676C15.4197 63.2679 15.3839 63.269 15.3414 63.2693C15.2891 63.2719 15.2313 63.2522 15.2232 63.3282C15.2232 63.3282 15.2237 63.3286 15.2167 63.3277C15.1111 63.3292 15.012 63.3273 14.914 63.3365C14.8837 63.3394 14.8561 63.3724 14.8273 63.3916C14.8273 63.3916 14.827 63.3925 14.8204 63.3913C14.7223 63.3916 14.6308 63.3931 14.5321 63.3934C14.3708 63.393 14.2166 63.3937 14.0555 63.3941C13.9773 63.3935 13.906 63.3933 13.8348 63.393C13.8348 63.393 13.8364 63.3927 13.8343 63.3865C13.7948 63.3003 13.7239 63.3396 13.6592 63.332C13.5968 63.3298 13.5414 63.3283 13.4852 63.3209C13.469 63.2482 13.4175 63.2704 13.3684 63.2696C13.2904 63.2692 13.2194 63.2688 13.1484 63.2684C13.1484 63.2684 13.1488 63.2682 13.146 63.2632C13.1179 63.2422 13.0932 63.2138 13.067 63.2123C12.9571 63.2057 12.8468 63.2072 12.7367 63.2058C12.7367 63.2058 12.7367 63.2058 12.7332 63.2018C12.7053 63.1869 12.6812 63.1674 12.6565 63.1665C12.5105 63.1616 12.3642 63.1611 12.218 63.159C12.218 63.159 12.2188 63.1592 12.2172 63.1532C12.1966 63.1318 12.1793 63.1069 12.1582 63.103C12.1178 63.0954 12.0752 63.0997 12.0336 63.099C12.0224 63.0985 12.0112 63.098 11.9914 63.0928C11.941 63.0102 11.8677 63.0421 11.8054 63.0358C11.8054 63.0358 11.8066 63.0357 11.8052 63.0294C11.7909 62.9573 11.7399 62.9761 11.6982 62.9741C11.6316 62.9492 11.5651 62.9237 11.4982 62.8997C11.471 62.89 11.4428 62.8834 11.4127 62.8646C11.4172 62.8047 11.3845 62.8015 11.3492 62.7945C11.3371 62.7737 11.3288 62.7523 11.3138 62.7452C11.2733 62.726 11.2299 62.7129 11.1809 62.6948C11.1767 62.707 11.1705 62.7251 11.1643 62.7432C11.0928 62.7323 11.0417 62.6903 10.9956 62.6361C10.973 62.6096 10.9407 62.5752 10.9114 62.5738C10.8273 62.5699 10.8339 62.5096 10.8251 62.4561C10.7043 62.4294 10.527 62.2829 10.5341 62.1768C10.4243 62.0545 10.2851 61.9707 10.246 61.8331C10.1915 61.757 10.1508 61.7002 10.0981 61.6266C10.0665 61.617 9.95963 61.4316 9.95732 61.3414C9.87701 61.3437 9.9004 61.2836 9.89804 61.2361C9.89597 61.1947 9.91986 61.137 9.84026 61.1393C9.83855 61.1088 9.83698 61.0809 9.83517 61.0486C9.71729 61.0226 9.80449 60.923 9.75428 60.8699C9.74115 60.8401 9.7231 60.8113 9.71593 60.78C9.70194 60.719 9.74073 60.6508 9.67406 60.5936C9.65158 60.5742 9.6705 60.5052 9.6705 60.4588C9.66279 60.4609 9.65509 60.4629 9.64738 60.465C9.63431 60.4348 9.61252 60.4054 9.60996 60.3743C9.60426 60.3052 9.60818 60.2353 9.60818 60.1617C9.58783 60.1565 9.56947 60.1519 9.54721 60.1462C9.54721 60.0525 9.55019 59.9598 9.54552 59.8674C9.54398 59.8371 9.52261 59.8078 9.51031 59.778C9.50226 59.7799 9.49421 59.7819 9.48616 59.7838C9.48616 59.6007 9.48623 59.4175 9.48615 59.2344C9.48597 58.8521 9.48509 58.4699 9.48691 58.0876C9.48703 58.0628 9.50763 58.0381 9.52945 58.0168C9.57177 57.9252 9.50925 57.8099 9.57889 57.723C9.58869 57.7246 9.59848 57.7263 9.60828 57.7279C9.60828 57.6923 9.60818 57.6566 9.60832 57.621C9.60839 57.6029 9.60136 57.5766 9.6104 57.5681C9.67823 57.5043 9.64033 57.4006 9.67694 57.3462C9.73492 57.26 9.69582 57.1773 9.73661 57.1038C9.74981 57.074 9.76446 57.0447 9.77593 57.0142C9.81002 56.9236 9.84291 56.8325 9.87617 56.7415C9.88371 56.7209 9.89019 56.6998 9.89839 56.6795C9.90862 56.6541 9.92011 56.6292 9.93948 56.6063C9.98305 56.3786 10.1112 56.196 10.2435 55.9825C10.2365 55.9269 10.2922 55.8675 10.3399 55.8028C10.4087 55.7096 10.4748 55.6143 10.5394 55.5181C10.5785 55.46 10.6092 55.396 10.6499 55.3393C10.6841 55.2917 10.7286 55.252 10.7664 55.207C10.8026 55.1637 10.8367 55.1186 10.8703 55.0733C10.8963 55.0382 10.9125 54.9876 10.9465 54.9685C11.0181 54.9282 11.0412 54.8494 11.0987 54.7985C11.1405 54.7614 11.1619 54.7014 11.2006 54.6595C11.2373 54.6196 11.288 54.5934 11.3265 54.5549C11.3727 54.5086 11.4115 54.4548 11.4552 54.4059C11.474 54.3849 11.4973 54.3681 11.5183 54.3492C11.5749 54.2983 11.6325 54.2484 11.6874 54.1956C11.7046 54.179 11.7128 54.1531 11.7281 54.134C11.7518 54.1045 11.7748 54.0731 11.8039 54.0501C11.8374 54.0235 11.8641 54 11.8789 53.9542C11.888 53.9261 11.9382 53.9117 11.9816 53.9034C11.9908 53.8646 12 53.8258 12.0092 53.787C12.0807 53.775 12.1337 53.7547 12.1642 53.6723C12.1854 53.6152 12.2559 53.577 12.3225 53.5129C12.3312 53.4617 12.4133 53.3847 12.5008 53.3722C12.5185 53.2851 12.5631 53.2173 12.6352 53.1648C12.7053 53.1137 12.7706 53.0561 12.8471 53.0139C12.8701 52.9779 12.8932 52.9419 12.9162 52.9059C12.9199 52.9102 12.9236 52.9145 12.9273 52.9188C12.9667 52.8836 13.0061 52.8484 13.0456 52.8131C13.0433 52.8111 13.041 52.8092 13.0386 52.8072C13.1094 52.7566 13.1802 52.706 13.251 52.6554C13.2465 52.6522 13.242 52.649 13.2375 52.6458C13.2784 52.5893 13.3192 52.5329 13.3773 52.4526C13.3829 52.4029 13.4946 52.2068 13.5376 52.1932C13.5605 52.1205 13.5863 52.0569 13.6524 52.0098C13.689 51.9837 13.7056 51.9281 13.73 51.8851C13.7479 51.8533 13.7611 51.8184 13.7821 51.7891C13.7897 51.7783 13.8138 51.7797 13.8304 51.7756C13.8251 51.7705 13.8197 51.7654 13.8143 51.7603C13.8556 51.7103 13.897 51.6605 13.9381 51.6104C13.9452 51.6017 13.9524 51.5926 13.9566 51.5824C13.9633 51.5663 13.9639 51.5465 13.9734 51.5328C14.0334 51.4471 14.0966 51.3636 14.1558 51.2774C14.2087 51.2003 14.2554 51.1187 14.3099 51.0429C14.3335 51.01 14.3747 50.9903 14.3992 50.9578C14.4282 50.9192 14.4463 50.8722 14.4725 50.831C14.4834 50.8138 14.503 50.8025 14.5185 50.7883C14.5442 50.7648 14.5784 50.7457 14.5932 50.7165C14.618 50.6678 14.6525 50.6347 14.6898 50.5961C14.7951 50.4871 14.9289 50.4099 15.0184 50.2832C15.0444 50.2464 15.0971 50.2297 15.1355 50.2009C15.1593 50.183 15.1787 50.1593 15.2007 50.1389C15.2597 50.084 15.3146 50.0233 15.3793 49.9766C15.4553 49.9217 15.5399 49.8792 15.6347 49.8232C15.6522 49.8018 15.6813 49.7664 15.7105 49.731C15.7131 49.7332 15.7158 49.7354 15.7184 49.7376C15.739 49.7166 15.7593 49.6953 15.7804 49.6748C15.7967 49.6589 15.813 49.6325 15.8312 49.6307C15.9142 49.6226 15.9823 49.5766 16.056 49.5457C16.0828 49.5345 16.1011 49.5041 16.1268 49.4883C16.2129 49.4353 16.3005 49.3849 16.3878 49.3338C16.3978 49.3279 16.4094 49.3194 16.4196 49.3202C16.4971 49.3261 16.5265 49.262 16.5699 49.2175C16.5805 49.2068 16.5969 49.1971 16.6113 49.1959C16.6489 49.1929 16.6869 49.1949 16.7298 49.1949C16.7324 49.1056 16.7795 49.1025 16.853 49.09C16.9079 49.0807 16.9906 49.105 17.0365 49.0308C17.0466 49.0145 17.0987 49.0219 17.1312 49.0237C17.1771 49.0262 17.2175 49.0255 17.2137 48.961C17.2736 48.961 17.3271 48.9644 17.38 48.9596C17.4074 48.9571 17.4336 48.9399 17.4604 48.9296C17.4872 48.9192 17.5141 48.9005 17.5411 48.9004C17.9505 48.8984 18.3599 48.8988 18.7693 48.8988C18.7845 48.8988 18.8067 48.8939 18.8138 48.902C18.8859 48.9843 18.9813 48.954 19.0694 48.9627C19.0927 48.9651 19.1137 48.9918 19.1291 49.0026C19.2409 49.0418 19.3484 49.081 19.457 49.1171C19.5516 49.1485 19.6472 49.1765 19.7543 49.2097C19.755 49.2127 19.7594 49.2314 19.759 49.2299C19.8269 49.2693 19.8793 49.3031 19.9346 49.331C20.0423 49.3854 20.1707 49.4158 20.2539 49.4955C20.3164 49.5555 20.4054 49.5721 20.4539 49.6506C20.4834 49.6983 20.5396 49.7291 20.5797 49.7713C20.6047 49.813 20.687 49.7298 20.6881 49.842C20.6725 49.8813 20.6572 49.9084 20.643 49.9337C20.6678 49.963 20.6895 49.9941 20.7166 50.0193C20.7404 50.0414 20.7701 50.057 20.803 50.0759C20.8429 50.1058 20.8809 50.1316 20.9104 50.1651C20.9604 50.2218 21.005 50.2833 21.0518 50.3428Z" fill="#6639CD"/>
<path d="M19.3171 16.379C19.4625 11.6812 19.5066 7.09447 19.4461 2.50912C19.4296 1.2663 19.7307 0.773358 21.0607 0.842683C23.1397 0.951054 25.2312 0.93568 27.3122 0.848745C28.7473 0.788797 29.1358 0.968513 29.0729 2.71848C28.8383 9.24206 28.9754 15.779 28.9734 22.3109C28.9724 25.6464 28.9343 28.9825 28.9918 32.317C29.012 33.4846 28.6292 33.8582 27.4452 33.8878C25.1019 33.9463 22.7462 33.5503 20.4064 34.1855C19.2836 34.4903 19.4823 33.4641 19.4803 32.8263C19.4667 28.4486 19.409 24.0691 19.518 19.694C19.5488 18.4585 19.2006 18.199 18.0654 18.1539C13.6304 17.9777 13.6319 17.9415 13.6318 22.2709C13.6317 25.5369 13.5836 28.8039 13.6552 32.0683C13.6834 33.3523 13.4033 33.9052 11.9578 33.8971C9.68976 33.8844 7.40286 33.5687 5.1401 34.2007C3.95363 34.532 4.03259 33.5637 4.03325 32.7873C4.03671 28.6874 4.03427 24.5876 4.03421 20.4877C4.03411 14.6507 4.08736 8.81284 4.0008 2.97707C3.97605 1.30866 4.52104 0.755551 6.16374 0.842146C8.38124 0.959042 10.6095 0.868726 12.8331 0.874337C13.5546 0.876157 13.879 0.802697 13.818 1.96439C13.5782 6.53587 13.6829 11.1249 13.6277 15.707C13.6161 16.6711 14.0642 16.926 15.0941 16.7476C16.5553 16.2899 17.8805 16.6429 19.3171 16.379Z" fill="#6538CB"/>
<path d="M133.895 52.3736C135.073 49.5892 136.349 47.0311 136.387 44.0484C136.414 41.887 135.577 41.0047 133.523 41.6171C130.518 42.5132 129.481 45.0399 128.831 47.738C127.896 51.6193 127.897 55.5939 128.02 59.5521C128.066 61.0242 127.621 61.5363 126.157 61.3885C123.901 61.1605 120.952 62.3435 119.553 60.9238C118.264 59.6158 119.221 56.6974 119.198 54.49C119.152 50.114 119.233 45.7364 119.157 41.3613C119.133 39.9517 119.596 39.5631 120.966 39.6841C122.621 39.8303 124.307 39.8638 125.96 39.7181C127.694 39.5653 128.162 40.2943 128.004 41.8576C127.916 42.7363 127.988 43.6312 128.183 44.685C129.633 41.883 131.26 39.5688 134.855 39.6317C138.683 39.6986 139.875 42.1937 140.587 45.7909C141.681 43.3332 142.35 41.3127 144.613 40.1951C147.397 38.8198 151.383 39.8957 152.492 42.7738C153.227 44.679 153.417 46.6863 153.429 48.709C153.451 52.3906 153.402 56.0734 153.479 59.7536C153.507 61.0416 153.072 61.4516 151.805 61.3943C149.794 61.3034 147.768 61.2525 145.765 61.4044C143.894 61.5462 143.969 60.3317 144.286 59.3128C145.135 56.5869 146.22 53.9359 147.157 51.2359C148 48.8029 149.201 46.4573 149.217 43.8007C149.228 41.8008 148.269 41.0479 146.314 41.5975C143.476 42.3957 142.383 44.7084 141.685 47.271C140.61 51.2102 140.713 55.2561 140.785 59.2799C140.813 60.8376 140.494 61.5489 138.75 61.408C136.748 61.2462 134.723 61.3525 132.709 61.3771C131.633 61.3902 131.153 61.388 131.525 59.8966C132.152 57.3836 133.23 55.0316 133.895 52.3736Z" fill="#6538CA"/>
<path d="M54.6075 28.9236C54.5651 29.6069 54.551 30.1051 54.5417 30.7902C54.7757 33.8308 54.7757 33.8311 51.9946 33.8322C50.4666 33.8328 48.9346 33.7627 47.4118 33.8511C45.838 33.9425 45.3818 33.4098 45.9982 31.9254C46.2869 31.2302 46.2905 30.4717 45.966 29.5615C45.3046 30.3932 44.7402 31.1469 44.1303 31.8619C42.0832 34.2615 39.2821 34.5906 36.5036 34.1056C34.5723 33.7684 34.0881 31.747 33.6758 30.0353C33.0713 27.5257 33.2476 24.9548 33.2412 22.4023C33.2342 19.5548 33.272 16.7067 33.2244 13.8599C33.2079 12.8782 33.5246 12.5181 34.5281 12.5375C37.2284 12.5898 39.9304 12.5554 42.7003 12.5554C41.8054 16.9894 39.9344 20.9594 38.5229 25.0813C37.8919 26.9239 37.2443 28.7637 37.372 30.7543C37.4544 32.0396 37.6989 32.7663 39.4234 32.2729C42.3484 31.436 44.2424 29.3828 44.9809 26.5471C46.0306 22.5168 45.707 18.4658 45.7208 14.4155C45.7256 13.0219 45.9999 12.4238 47.5318 12.5222C49.881 12.6732 52.2437 12.6165 54.6006 12.648C54.6189 14.9556 54.6489 17.2633 54.6527 19.571C54.6578 22.6268 54.6425 25.6827 54.6075 28.9236Z" fill="#6538CB"/>
<path d="M96.6539 15.0569C96.6541 10.7543 96.7104 6.65915 96.623 2.56708C96.5934 1.17983 97.0399 0.770616 98.3836 0.84229C100.321 0.945633 102.268 0.888837 104.211 0.862383C105.072 0.850649 105.321 1.0584 105.313 2.05183C105.235 11.9043 105.218 21.7576 105.27 31.6103C105.278 33.2173 105.035 34.0939 103.157 33.86C101.052 33.598 98.2094 34.7589 97.0055 33.371C95.9599 32.1657 96.6717 29.41 96.6604 27.3391C96.6384 23.3147 96.6539 19.29 96.6539 15.0569Z" fill="#6438C8"/>
<path d="M92.3047 20.4809C92.3044 24.4365 92.2281 28.1858 92.3396 31.9295C92.3873 33.5296 91.8478 33.9756 90.3204 33.8654C88.5256 33.736 86.7135 33.7996 84.9107 33.847C84.0068 33.8708 83.7073 33.5351 83.7092 32.6397C83.7306 22.4396 83.7315 12.2394 83.7084 2.03928C83.7063 1.11467 84.0636 0.777733 84.9352 0.868683C85.0724 0.883001 85.2126 0.866384 85.3513 0.869162C87.6308 0.914818 89.9103 0.961294 92.1897 1.00758C92.2281 3.19644 92.2905 5.38519 92.2996 7.57416C92.3172 11.8068 92.3047 16.0396 92.3047 20.4809Z" fill="#6438C8"/>
<path d="M202.914 52.9714C201.469 52.9762 200.219 52.9681 198.97 52.9851C196.79 53.0147 196.109 52.305 196.909 50.3632C197.705 48.4305 198.23 46.3405 199.558 44.6566C200.339 43.6669 200.566 42.4898 199.666 41.7262C198.685 40.8941 197.499 41.5445 196.715 42.3886C195.195 44.0256 194.636 46.1106 194.274 48.2574C193.658 51.91 193.798 55.5981 193.891 59.2679C193.937 61.0526 193.357 61.5536 191.665 61.4018C190.082 61.2597 188.472 61.3039 186.88 61.3924C185.606 61.4632 185.051 61.1782 185.071 59.7188C185.153 53.6124 185.138 47.504 185.081 41.397C185.068 40.0533 185.411 39.5292 186.841 39.6772C188.352 39.8337 189.901 39.8588 191.413 39.72C193.293 39.5474 194.161 40.1494 193.857 42.1138C193.784 42.5846 193.846 43.0765 193.846 43.733C194.702 43.4182 194.899 42.7155 195.124 42.1714C195.801 40.5317 196.872 39.6485 198.725 39.6481C200.707 39.6477 202.256 40.2757 203.171 42.1066C204.806 45.3775 204.427 48.8594 204.202 52.3199C204.157 53.0099 203.589 52.943 202.914 52.9714Z" fill="#6438C9"/>
<path d="M183.097 34.0292C179.694 34.3277 176.503 34.3778 173.44 33.0076C170.868 31.8567 171.359 28.4123 173.375 27.0405C174.999 25.936 176.815 25.6366 178.949 26.0902C178.669 26.4164 178.571 26.647 178.432 26.6761C176.347 27.1089 175.413 28.481 175.808 30.4598C176.21 32.4781 177.764 33.1933 179.746 32.9914C180.558 32.9087 181.393 33.1956 182.186 32.7631C183.456 32.0702 184.556 31.0061 184.544 29.6495C184.532 28.3478 183.323 27.3637 182.158 26.7254C180.025 25.5562 177.814 24.5304 175.667 23.3861C172.411 21.6506 171.115 18.2363 172.61 14.9472C173.557 12.8645 175.628 12.2147 177.681 12.1806C181.597 12.1155 185.542 11.7926 189.458 12.7301C188.803 14.2263 188.048 15.7112 187.498 17.2684C186.863 19.0639 185.909 18.7935 184.773 17.8687C183.312 16.6779 181.852 15.4831 180.44 14.2341C179.947 13.7973 179.437 13.5093 178.802 13.4246C177.999 13.3174 177.191 13.3954 176.829 14.2074C176.414 15.1389 176.917 15.8741 177.75 16.2471C179.198 16.8963 180.66 17.5718 182.185 17.9817C184.484 18.5997 186.283 19.9767 187.956 21.5118C191.84 25.077 191.181 30.1968 186.582 32.7808C185.547 33.3618 184.46 33.8144 183.097 34.0292Z" fill="#6437C9"/>
<path d="M134.226 10.7514C134.103 12.2934 134.352 13.0477 136.061 12.6419C137.247 12.36 138.55 12.5518 139.801 12.564C140.252 12.5684 140.831 12.4374 140.861 13.2031C140.89 13.9286 140.512 14.1797 139.842 14.1761C138.451 14.1687 137.059 14.2268 135.671 14.1723C134.594 14.13 134.198 14.5436 134.213 15.627C134.268 19.6584 134.189 23.6928 134.311 27.7215C134.354 29.1049 134.152 30.9909 135.893 31.4635C137.596 31.926 138.42 30.235 139.47 29.1987C139.983 28.6919 139.661 27.1143 140.829 27.6556C142.104 28.2463 141.092 29.485 140.738 30.137C138.991 33.3487 136.143 34.3817 132.539 34.3119C130.224 34.2671 127.609 32.0228 126.673 29.7521C124.868 25.3745 125.574 20.7831 125.469 16.2654C125.438 14.9152 125.695 13.6305 123.622 14.5944C123.108 14.8333 122.519 14.6144 122.532 13.7946C122.543 13.1461 122.484 12.4156 123.434 12.5745C125.369 12.8981 125.653 11.8605 125.455 10.3105C125.394 9.82592 125.399 9.18587 125.921 9.03207C128.66 8.22632 130.933 6.37216 133.727 5.66887C134.751 5.41137 134.74 5.93754 134.536 6.44619C133.992 7.80689 134.342 9.19662 134.226 10.7514Z" fill="#6538CA"/>
<path d="M116.215 12.5517C118.322 12.215 118.779 12.9726 118.725 14.8864C118.564 20.5723 118.627 26.2661 118.695 31.9557C118.712 33.3588 118.388 33.9625 116.865 33.8639C114.93 33.7386 112.98 33.791 111.038 33.85C110.012 33.8812 109.559 33.6311 109.568 32.4804C109.617 26.3046 109.613 20.1281 109.571 13.9522C109.563 12.8459 109.948 12.493 111.018 12.5357C112.681 12.602 114.349 12.5523 116.215 12.5517Z" fill="#6538CA"/>
<path d="M111.941 0.946575C114.606 0.00999236 116.647 0.498422 118.098 2.87022C119.241 4.73709 118.925 7.0853 117.282 8.53326C115.704 9.92454 112.555 10.0923 111.137 8.84517C109.71 7.58979 108.907 4.48305 110.21 2.87602C110.724 2.24262 111.185 1.56483 111.941 0.946575Z" fill="#6538CA"/>
<path fill-rule="evenodd" clip-rule="evenodd" d="M60.1472 28.9136C58.3985 24.4319 58.5016 20.1437 61.2626 16.1677C63.8813 12.3965 72.0829 10.0759 76.1292 14.68C78.0658 16.8836 78.5104 19.4155 76.9708 21.9286C75.2701 24.7048 72.7048 26.2609 69.5315 26.7468C68.2667 26.9405 68.3793 27.316 68.9868 28.1625C70.7551 30.627 74.9254 30.8224 77.5554 28.1316C77.6408 28.0442 77.6987 27.8961 77.7586 27.7429C77.9177 27.336 78.0906 26.8935 78.8311 27.4613C79.5616 28.0214 79.2891 28.412 78.9585 28.8857L78.9584 28.8858C78.906 28.9609 78.8521 29.0381 78.8006 29.1184C75.7831 33.8173 71.0134 35.4889 65.6018 33.7363C64.1777 33.275 64.1581 32.1698 64.1374 30.9961L64.1356 30.8961C64.1335 30.784 64.146 30.6564 64.159 30.5244C64.2093 30.0148 64.2661 29.438 63.5123 29.4203C62.7227 29.4017 62.7697 30.021 62.8096 30.5477C62.818 30.6586 62.8261 30.7655 62.826 30.8614L62.8255 31.3885C62.8154 41.425 62.8053 51.4618 62.8831 61.4977C62.8905 62.444 62.7995 62.8718 61.8894 62.5394C59.5039 61.6681 57.104 62.0217 54.7194 62.3802C48.532 63.3104 44.1817 61.3773 42.0786 55.9203C40.2026 51.0525 40.5017 44.2216 45.8239 41.0713C49.5077 38.8908 54.6892 40.3354 54.6419 45.4697C54.6339 46.3407 54.6131 47.2116 54.5923 48.0826C54.5601 49.4336 54.5279 50.7845 54.5433 52.135L54.5435 52.155C54.5578 53.4145 54.573 54.7521 56.4005 55.9493C55.9562 53.1549 55.9832 50.5637 56.0094 48.0423V48.0422C56.0236 46.6702 56.0376 45.3189 55.9754 43.9667C55.9305 42.9906 55.8647 42.0154 55.7989 41.0401L55.7989 41.04C55.6384 38.6639 55.478 36.2869 55.62 33.8934C55.6766 32.9393 55.719 31.8064 54.7008 30.9946C54.0089 30.5349 53.964 29.9997 54.4152 29.2553C54.8687 29.185 55.2272 29.1991 55.6328 29.2151H55.6328C55.7614 29.2202 55.8948 29.2255 56.0374 29.2283C56.8315 29.0098 57.5849 29.0118 58.3427 29.0138C58.9344 29.0154 59.5287 29.017 60.1472 28.9136ZM49.3247 51.8861C48.9721 48.9997 48.8829 46.2995 49.6188 43.6431C49.6343 43.5871 49.6497 43.5298 49.6653 43.4717L49.6654 43.4716C49.8683 42.717 50.1057 41.834 51.084 41.901C51.9493 41.9603 52.1602 42.7552 52.3535 43.4839L52.3535 43.484C52.3778 43.5755 52.4018 43.6659 52.4268 43.7537C52.8593 45.2742 52.8535 46.8246 52.8478 48.3759V48.376C52.8459 48.8905 52.844 49.4052 52.8581 49.9188C52.8657 50.1962 52.8715 50.4739 52.8774 50.7517C52.9272 53.1259 52.9772 55.5049 54.1362 57.6967C54.5085 58.4007 55.0756 58.8653 55.9061 58.9984C54.0968 60.3686 52.8661 60.2435 51.5928 58.4881C50.2105 56.5822 49.6284 54.3741 49.3247 51.8861ZM67.0468 17.4894C66.8437 19.9183 66.8202 22.345 67.4489 24.8987C67.7662 26.006 68.0083 26.603 69.111 25.6094C72.3922 22.6532 72.5515 17.9909 71.046 14.6939C70.4233 13.3303 69.3518 13.1649 68.3431 14.2586C67.5151 15.1563 67.1468 16.294 67.0468 17.4894Z" fill="#6438C9"/>
<path fill-rule="evenodd" clip-rule="evenodd" d="M106.312 61.3729L108.482 61.3729C109.017 61.3727 109.534 61.3714 110.04 61.37C111.226 61.3668 112.347 61.3638 113.468 61.3773C114.231 61.3866 114.835 61.3239 114.832 60.3101C114.82 55.153 114.821 49.9958 114.823 44.742C114.823 43.0283 114.824 41.3043 114.824 39.5667C113.25 40.5578 111.724 40.3933 110.209 40.2276C107.583 39.9405 104.956 39.7341 102.313 39.6404C100.076 39.5611 98.3067 40.4631 96.7559 41.8773C92.4903 45.7674 91.827 54.8908 95.9682 59.5447C97.7016 61.4927 100.961 62.345 103.473 61.4714C106.212 60.5192 106.668 58.2284 106.727 55.771C106.752 54.6913 106.739 53.6106 106.727 52.53C106.712 51.3172 106.698 50.1044 106.738 48.8934C106.739 48.8572 106.74 48.8207 106.742 48.784C106.77 47.8439 106.803 46.76 108.381 46.1736C107.927 48.1775 107.963 50.1918 107.999 52.1933C108.056 55.3131 108.111 58.4021 106.312 61.3729ZM101.9 58.956C102.391 60.1229 103.101 60.7319 104.134 59.1232C104.683 57.421 105.077 55.836 104.993 54.1933C104.851 51.4352 105.021 48.6771 105.498 45.9853C105.503 45.9612 105.507 45.937 105.511 45.9126C105.735 44.6466 106.031 42.9687 108.062 42.8688C105.45 41.6198 104.399 41.9286 103.058 44.3975C101.385 47.4788 101.139 50.8519 101.163 54.2717C101.174 55.8738 101.275 57.4699 101.9 58.956Z" fill="#6338C8"/>
<path fill-rule="evenodd" clip-rule="evenodd" d="M158.45 30.9856C158.801 29.055 158.768 27.1166 158.548 24.9894C158.552 24.7453 158.554 24.503 158.555 24.263C158.565 22.5313 158.575 20.9213 159.868 19.6546C159.752 21.2214 159.814 22.7968 159.876 24.373C160.007 27.6951 160.138 31.0208 158.602 34.2772C159.297 34.2772 159.965 34.2663 160.614 34.2557C162.046 34.2323 163.383 34.2105 164.711 34.3111C166.388 34.4382 166.816 33.8404 166.794 32.2184C166.731 27.5901 166.741 22.9608 166.751 18.3374C166.755 16.6202 166.758 14.9038 166.758 13.1885C164.938 13.6405 163.046 13.3314 161.113 13.0155C160.577 12.928 160.038 12.84 159.497 12.7675C154.274 12.068 149.842 12.4647 146.805 17.353C145.159 20.0014 144.754 23.0632 145.131 26.0632C145.829 31.6168 148.383 35.0616 154.196 34.6976C156.733 34.5386 157.997 33.4749 158.45 30.9856ZM157.156 26.5687C157.125 24.0952 157.095 21.5973 157.669 19.0396C157.95 17.2235 158.904 16.038 160.418 15.1214C157.829 14.3237 156.608 14.7638 155.439 17.0298C153.215 21.3391 153.096 25.9348 153.868 30.6036C154.013 31.4817 154.253 32.6646 155.245 32.7046C156.079 32.7383 156.466 31.9284 156.82 31.1876C156.899 31.0228 156.976 30.8615 157.056 30.7137C157.186 30.4734 157.173 30.1525 157.161 29.8361C157.156 29.7173 157.152 29.599 157.155 29.4859C157.18 28.5159 157.168 27.5442 157.156 26.5687Z" fill="#6438CA"/>
<path fill-rule="evenodd" clip-rule="evenodd" d="M172.889 40.326C167.262 38.6562 162.066 40.0527 159.312 44.8138C157.489 48.0731 157.529 51.4241 158.448 54.6972C159.833 59.6343 165.847 62.8769 171.591 61.4815C177.17 60.1262 180.578 56.3206 180.712 50.8698C180.833 45.9185 177.749 41.7682 172.889 40.326ZM168.75 59.4678C169.419 60.1752 170.198 60.2758 170.865 59.1278C172.849 55.7326 172.491 52.1916 172.053 48.6908L172.052 48.6878C171.81 46.7546 171.56 44.7563 170.51 43.039C170.437 42.92 170.368 42.7905 170.297 42.6584C169.979 42.0625 169.633 41.4148 168.809 41.4483C167.852 41.4873 167.436 42.3145 167.08 43.0661C166.816 43.6233 166.589 44.2265 166.496 44.8323C165.839 49.1504 166.156 53.401 167.577 57.5387C167.817 58.2383 168.243 58.9303 168.75 59.4678Z" fill="#6538CA"/>
<path fill-rule="evenodd" clip-rule="evenodd" d="M82.4534 41.8277C78.4939 39.8056 74.7891 40.2607 71.1272 42.8784C66.8942 47.0556 66.0419 52.7036 68.941 57.8294C70.8429 61.1918 73.9298 63.0054 77.7274 62.9682C81.6054 62.9304 84.8692 61.3182 86.7364 57.6539C86.8041 57.521 86.9082 57.3818 87.0157 57.2381C87.3744 56.7586 87.7705 56.229 86.9752 55.7191C86.3455 55.3155 86.0514 55.814 85.7924 56.2528C85.692 56.423 85.5968 56.5843 85.4895 56.6804C82.7202 59.1587 79.6496 59.3593 77.5019 56.9904C77.4389 56.9209 77.3684 56.851 77.2965 56.7797C76.967 56.4531 76.6066 56.0959 76.7883 55.5986C76.9269 55.2196 77.2804 55.2145 77.635 55.2093C77.7895 55.2071 77.9441 55.2049 78.0813 55.1717C80.7181 54.535 83.0022 53.2994 84.6549 51.0926C87.1705 47.7338 86.1719 43.7267 82.4534 41.8277ZM75.1764 46.172C75.1351 46.4276 75.0929 46.6884 75.0446 46.9542C74.9303 49.292 75.1614 51.4174 75.6592 53.5101C75.8986 54.5166 76.4435 55.1213 77.3141 54.0636C80.0945 50.6855 81.3184 47.7761 79.3554 43.448C79.3184 43.3663 79.2823 43.281 79.2457 43.1944C78.9903 42.5905 78.708 41.9229 77.8727 41.9551C77.0582 41.9865 76.5002 42.535 76.0734 43.207C75.5133 44.0888 75.3526 45.0826 75.1764 46.172Z" fill="#6438CA"/>
</g>
<defs>
<filter id="filter0_d_245_56" x="0" y="0.5" width="208.407" height="71" filterUnits="userSpaceOnUse" color-interpolation-filters="sRGB">
<feFlood flood-opacity="0" result="BackgroundImageFix"/>
<feColorMatrix in="SourceAlpha" type="matrix" values="0 0 0 0 0 0 0 0 0 0 0 0 0 0 0 0 0 0 127 0" result="hardAlpha"/>
<feOffset dy="4"/>
<feGaussianBlur stdDeviation="2"/>
<feComposite in2="hardAlpha" operator="out"/>
<feColorMatrix type="matrix" values="0 0 0 0 0 0 0 0 0 0 0 0 0 0 0 0 0 0 0.25 0"/>
<feBlend mode="normal" in2="BackgroundImageFix" result="effect1_dropShadow_245_56"/>
<feBlend mode="normal" in="SourceGraphic" in2="effect1_dropShadow_245_56" result="shape"/>
</filter>
</defs>
</svg>
